G75*
G70*
%OFA0B0*%
%FSLAX24Y24*%
%IPPOS*%
%LPD*%
%AMOC8*
5,1,8,0,0,1.08239X$1,22.5*
%
%ADD10C,0.0080*%
D10*
X000551Y000206D02*
X025551Y000206D01*
X025587Y000202D01*
X025624Y000203D01*
X025660Y000207D01*
X025696Y000215D01*
X025730Y000226D01*
X025763Y000241D01*
X025795Y000260D01*
X025824Y000281D01*
X025851Y000306D01*
X025876Y000333D01*
X025897Y000362D01*
X025916Y000394D01*
X025931Y000427D01*
X025942Y000461D01*
X025950Y000497D01*
X025954Y000533D01*
X025955Y000570D01*
X025951Y000606D01*
X025951Y020806D01*
X025955Y020842D01*
X025954Y020879D01*
X025950Y020915D01*
X025942Y020951D01*
X025931Y020985D01*
X025916Y021018D01*
X025897Y021050D01*
X025876Y021079D01*
X025851Y021106D01*
X025824Y021131D01*
X025795Y021152D01*
X025763Y021171D01*
X025730Y021186D01*
X025696Y021197D01*
X025660Y021205D01*
X025624Y021209D01*
X025587Y021210D01*
X025551Y021206D01*
X000551Y021206D01*
X000512Y021205D01*
X000474Y021199D01*
X000436Y021191D01*
X000399Y021178D01*
X000364Y021163D01*
X000330Y021144D01*
X000298Y021121D01*
X000268Y021096D01*
X000241Y021068D01*
X000217Y021038D01*
X000196Y021006D01*
X000178Y020971D01*
X000163Y020935D01*
X000152Y020898D01*
X000145Y020860D01*
X000141Y020822D01*
X000140Y020783D01*
X000144Y020744D01*
X000151Y020706D01*
X000151Y020703D02*
X000151Y000606D01*
X000157Y000566D01*
X000167Y000526D01*
X000180Y000488D01*
X000197Y000451D01*
X000217Y000415D01*
X000240Y000382D01*
X000267Y000350D01*
X000295Y000322D01*
X000327Y000295D01*
X000360Y000272D01*
X000396Y000252D01*
X000433Y000235D01*
X000471Y000222D01*
X000511Y000212D01*
X000551Y000206D01*
M02*
