%
M48
M72
T01C0.0236
T02C0.0400
%
T01
X11451Y9106
X12051Y9906
X12651Y10506
X10851Y14206
X13651Y15606
X13151Y17006
X14151Y17906
X17651Y17906
X18651Y17006
X6951Y19206
T02
X1151Y1206
X2151Y1206
X2151Y2206
X1151Y2206
X1151Y3206
X2151Y3206
X2151Y4206
X1151Y4206
X1151Y5206
X2151Y5206
X2151Y6206
X1151Y6206
X1151Y7206
X2151Y7206
X2151Y8206
X1151Y8206
X1151Y9206
X2151Y9206
X2151Y10206
X1151Y10206
X1151Y11206
X2151Y11206
X2151Y12206
X1151Y12206
X1151Y13206
X2151Y13206
X2151Y14206
X1151Y14206
X1151Y15206
X2151Y15206
X2151Y16206
X1151Y16206
X1151Y17206
X2151Y17206
X2151Y18206
X1151Y18206
X1151Y19206
X2151Y19206
X2151Y20206
X1151Y20206
X5651Y20206
X6651Y20206
X7651Y20206
X8651Y20206
X9651Y20206
X10651Y20206
X11651Y20206
X12651Y20206
X14651Y20206
X15651Y20206
X16651Y20206
X17651Y20206
X18651Y20206
X19651Y20206
X20651Y20206
X21651Y20206
X21651Y17006
X20651Y17006
X22651Y17006
X21651Y14206
X20651Y14206
X23151Y3406
X23151Y2406
X23151Y1206
X24151Y1206
X25151Y1206
X22151Y1206
X21151Y1206
X20151Y1206
X19151Y1206
X18151Y1206
X17151Y1206
X16151Y1206
X14651Y1206
X13651Y1206
X12651Y1206
X11651Y1206
X10651Y1206
X9651Y1206
X8651Y1206
X7651Y1206
M30
