G75*
G70*
%OFA0B0*%
%FSLAX24Y24*%
%IPPOS*%
%LPD*%
%AMOC8*
5,1,8,0,0,1.08239X$1,22.5*
%
%ADD10C,0.0080*%
%ADD11C,0.0060*%
%ADD12R,0.0320X0.0010*%
%ADD13R,0.0340X0.0010*%
%ADD14R,0.0120X0.0010*%
%ADD15R,0.0420X0.0010*%
%ADD16R,0.0560X0.0010*%
%ADD17R,0.0680X0.0010*%
%ADD18R,0.0780X0.0010*%
%ADD19R,0.0880X0.0010*%
%ADD20R,0.0960X0.0010*%
%ADD21R,0.1020X0.0010*%
%ADD22R,0.1100X0.0010*%
%ADD23R,0.1160X0.0010*%
%ADD24R,0.1220X0.0010*%
%ADD25R,0.1290X0.0010*%
%ADD26R,0.1360X0.0010*%
%ADD27R,0.1410X0.0010*%
%ADD28R,0.1450X0.0010*%
%ADD29R,0.1500X0.0010*%
%ADD30R,0.1530X0.0010*%
%ADD31R,0.1570X0.0010*%
%ADD32R,0.1630X0.0010*%
%ADD33R,0.1670X0.0010*%
%ADD34R,0.1710X0.0010*%
%ADD35R,0.1750X0.0010*%
%ADD36R,0.1790X0.0010*%
%ADD37R,0.1820X0.0010*%
%ADD38R,0.1860X0.0010*%
%ADD39R,0.1890X0.0010*%
%ADD40R,0.1930X0.0010*%
%ADD41R,0.1950X0.0010*%
%ADD42R,0.1990X0.0010*%
%ADD43R,0.2030X0.0010*%
%ADD44R,0.2050X0.0010*%
%ADD45R,0.2090X0.0010*%
%ADD46R,0.2120X0.0010*%
%ADD47R,0.0910X0.0010*%
%ADD48R,0.0860X0.0010*%
%ADD49R,0.0790X0.0010*%
%ADD50R,0.0760X0.0010*%
%ADD51R,0.0770X0.0010*%
%ADD52R,0.0740X0.0010*%
%ADD53R,0.0710X0.0010*%
%ADD54R,0.0720X0.0010*%
%ADD55R,0.0690X0.0010*%
%ADD56R,0.0670X0.0010*%
%ADD57R,0.0650X0.0010*%
%ADD58R,0.0630X0.0010*%
%ADD59R,0.0610X0.0010*%
%ADD60R,0.0050X0.0010*%
%ADD61R,0.0620X0.0010*%
%ADD62R,0.0600X0.0010*%
%ADD63R,0.0090X0.0010*%
%ADD64R,0.0080X0.0010*%
%ADD65R,0.0110X0.0010*%
%ADD66R,0.0590X0.0010*%
%ADD67R,0.0580X0.0010*%
%ADD68R,0.0150X0.0010*%
%ADD69R,0.0140X0.0010*%
%ADD70R,0.0570X0.0010*%
%ADD71R,0.0180X0.0010*%
%ADD72R,0.0190X0.0010*%
%ADD73R,0.0200X0.0010*%
%ADD74R,0.0550X0.0010*%
%ADD75R,0.0210X0.0010*%
%ADD76R,0.0220X0.0010*%
%ADD77R,0.0540X0.0010*%
%ADD78R,0.0230X0.0010*%
%ADD79R,0.0240X0.0010*%
%ADD80R,0.0250X0.0010*%
%ADD81R,0.0260X0.0010*%
%ADD82R,0.0530X0.0010*%
%ADD83R,0.0280X0.0010*%
%ADD84R,0.0270X0.0010*%
%ADD85R,0.0520X0.0010*%
%ADD86R,0.0290X0.0010*%
%ADD87R,0.0310X0.0010*%
%ADD88R,0.0300X0.0010*%
%ADD89R,0.0510X0.0010*%
%ADD90R,0.0500X0.0010*%
%ADD91R,0.0330X0.0010*%
%ADD92R,0.0350X0.0010*%
%ADD93R,0.0490X0.0010*%
%ADD94R,0.0360X0.0010*%
%ADD95R,0.0370X0.0010*%
%ADD96R,0.0480X0.0010*%
%ADD97R,0.0470X0.0010*%
%ADD98R,0.0460X0.0010*%
%ADD99R,0.0450X0.0010*%
%ADD100R,0.0440X0.0010*%
%ADD101R,0.0430X0.0010*%
%ADD102R,0.0410X0.0010*%
%ADD103R,0.0750X0.0010*%
%ADD104R,0.0640X0.0010*%
%ADD105R,0.0730X0.0010*%
%ADD106R,0.0700X0.0010*%
%ADD107R,0.0400X0.0010*%
%ADD108R,0.0830X0.0010*%
%ADD109R,0.0870X0.0010*%
%ADD110R,0.0390X0.0010*%
%ADD111R,0.0660X0.0010*%
%ADD112R,0.0990X0.0010*%
%ADD113R,0.1010X0.0010*%
%ADD114R,0.1040X0.0010*%
%ADD115R,0.1070X0.0010*%
%ADD116R,0.1130X0.0010*%
%ADD117R,0.0380X0.0010*%
%ADD118R,0.1190X0.0010*%
%ADD119R,0.0170X0.0010*%
%ADD120R,0.1250X0.0010*%
%ADD121R,0.1270X0.0010*%
%ADD122R,0.0160X0.0010*%
%ADD123R,0.1310X0.0010*%
%ADD124R,0.1330X0.0010*%
%ADD125R,0.1350X0.0010*%
%ADD126R,0.1370X0.0010*%
%ADD127R,0.1390X0.0010*%
%ADD128R,0.1430X0.0010*%
%ADD129R,0.1470X0.0010*%
%ADD130R,0.1480X0.0010*%
%ADD131R,0.1510X0.0010*%
%ADD132R,0.0030X0.0010*%
%ADD133R,0.1540X0.0010*%
%ADD134R,0.1550X0.0010*%
%ADD135R,0.1590X0.0010*%
%ADD136R,0.1600X0.0010*%
%ADD137R,0.1610X0.0010*%
%ADD138R,0.1640X0.0010*%
%ADD139R,0.1660X0.0010*%
%ADD140R,0.1680X0.0010*%
%ADD141R,0.1690X0.0010*%
%ADD142R,0.1700X0.0010*%
%ADD143R,0.1720X0.0010*%
%ADD144R,0.1230X0.0010*%
%ADD145R,0.0020X0.0010*%
%ADD146R,0.0130X0.0010*%
%ADD147R,0.0100X0.0010*%
%ADD148R,0.0040X0.0010*%
%ADD149R,0.0010X0.0010*%
%ADD150R,0.0070X0.0010*%
%ADD151R,0.0060X0.0010*%
%ADD152R,0.1340X0.0010*%
%ADD153R,0.1920X0.0010*%
%ADD154R,0.1910X0.0010*%
%ADD155R,0.1900X0.0010*%
%ADD156R,0.1880X0.0010*%
%ADD157R,0.1050X0.0010*%
%ADD158R,0.1210X0.0010*%
%ADD159R,0.1580X0.0010*%
%ADD160R,0.1730X0.0010*%
%ADD161R,0.1810X0.0010*%
%ADD162R,0.1870X0.0010*%
%ADD163R,0.1960X0.0010*%
%ADD164R,0.2130X0.0010*%
%ADD165R,0.2170X0.0010*%
%ADD166R,0.2190X0.0010*%
%ADD167R,0.2210X0.0010*%
%ADD168R,0.1080X0.0010*%
%ADD169R,0.1000X0.0010*%
%ADD170R,0.0940X0.0010*%
%ADD171R,0.0800X0.0010*%
%ADD172R,0.0810X0.0010*%
%ADD173R,0.1170X0.0010*%
%ADD174R,0.1280X0.0010*%
%ADD175R,0.1560X0.0010*%
%ADD176R,0.1520X0.0010*%
%ADD177R,0.1460X0.0010*%
%ADD178R,0.1440X0.0010*%
%ADD179R,0.0820X0.0010*%
%ADD180R,0.0930X0.0010*%
%ADD181R,0.2110X0.0010*%
%ADD182R,0.2080X0.0010*%
%ADD183R,0.2020X0.0010*%
%ADD184R,0.1850X0.0010*%
%ADD185R,0.1780X0.0010*%
%ADD186R,0.1740X0.0010*%
%ADD187R,0.1650X0.0010*%
%ADD188R,0.1490X0.0010*%
%ADD189R,0.1380X0.0010*%
D10*
X000551Y000206D02*
X025551Y000206D01*
X025587Y000202D01*
X025624Y000203D01*
X025660Y000207D01*
X025696Y000215D01*
X025730Y000226D01*
X025763Y000241D01*
X025795Y000260D01*
X025824Y000281D01*
X025851Y000306D01*
X025876Y000333D01*
X025897Y000362D01*
X025916Y000394D01*
X025931Y000427D01*
X025942Y000461D01*
X025950Y000497D01*
X025954Y000533D01*
X025955Y000570D01*
X025951Y000606D01*
X025951Y020806D01*
X025955Y020842D01*
X025954Y020879D01*
X025950Y020915D01*
X025942Y020951D01*
X025931Y020985D01*
X025916Y021018D01*
X025897Y021050D01*
X025876Y021079D01*
X025851Y021106D01*
X025824Y021131D01*
X025795Y021152D01*
X025763Y021171D01*
X025730Y021186D01*
X025696Y021197D01*
X025660Y021205D01*
X025624Y021209D01*
X025587Y021210D01*
X025551Y021206D01*
X000551Y021206D01*
X000512Y021205D01*
X000474Y021199D01*
X000436Y021191D01*
X000399Y021178D01*
X000364Y021163D01*
X000330Y021144D01*
X000298Y021121D01*
X000268Y021096D01*
X000241Y021068D01*
X000217Y021038D01*
X000196Y021006D01*
X000178Y020971D01*
X000163Y020935D01*
X000152Y020898D01*
X000145Y020860D01*
X000141Y020822D01*
X000140Y020783D01*
X000144Y020744D01*
X000151Y020706D01*
X000151Y020703D02*
X000151Y000606D01*
X000157Y000566D01*
X000167Y000526D01*
X000180Y000488D01*
X000197Y000451D01*
X000217Y000415D01*
X000240Y000382D01*
X000267Y000350D01*
X000295Y000322D01*
X000327Y000295D01*
X000360Y000272D01*
X000396Y000252D01*
X000433Y000235D01*
X000471Y000222D01*
X000511Y000212D01*
X000551Y000206D01*
D11*
X012604Y009936D02*
X013031Y009936D01*
X012604Y010364D01*
X012604Y010470D01*
X012711Y010577D01*
X012924Y010577D01*
X013031Y010470D01*
X013462Y010577D02*
X013462Y009936D01*
X013675Y009936D02*
X013248Y009936D01*
X013675Y010364D02*
X013462Y010577D01*
X013893Y010470D02*
X013893Y010043D01*
X014000Y009936D01*
X014213Y009936D01*
X014320Y010043D01*
X013893Y010470D01*
X014000Y010577D01*
X014213Y010577D01*
X014320Y010470D01*
X014320Y010043D01*
X014538Y009936D02*
X014965Y009936D01*
X014538Y010364D01*
X014538Y010470D01*
X014644Y010577D01*
X014858Y010577D01*
X014965Y010470D01*
X015182Y010364D02*
X015182Y009936D01*
X015609Y009936D02*
X015609Y010364D01*
X015396Y010577D01*
X015182Y010364D01*
X015182Y010257D02*
X015609Y010257D01*
X015827Y010257D02*
X016254Y010257D01*
X015933Y010577D01*
X015933Y009936D01*
X016471Y010470D02*
X016898Y010043D01*
X016898Y009936D01*
X017116Y009936D02*
X017543Y009936D01*
X017116Y010364D01*
X017116Y010470D01*
X017223Y010577D01*
X017436Y010577D01*
X017543Y010470D01*
X017760Y010364D02*
X017867Y010364D01*
X018187Y010364D01*
X018187Y010150D02*
X017760Y010150D01*
X017867Y009936D02*
X017867Y010577D01*
X018081Y010577D02*
X018081Y009936D01*
X018405Y009936D02*
X018405Y010364D01*
X018618Y010577D01*
X018832Y010364D01*
X018832Y009936D01*
X019049Y010043D02*
X019156Y009936D01*
X019370Y009936D01*
X019476Y010043D01*
X019476Y010470D01*
X019370Y010577D01*
X019156Y010577D01*
X019049Y010470D01*
X018832Y010257D02*
X018405Y010257D01*
X018384Y011023D02*
X018384Y011363D01*
X018214Y011363D01*
X018158Y011307D01*
X018158Y011193D01*
X018214Y011136D01*
X018384Y011136D01*
X018526Y011193D02*
X018526Y011307D01*
X018583Y011363D01*
X018696Y011363D01*
X018753Y011307D01*
X018753Y011193D01*
X018696Y011136D01*
X018583Y011136D01*
X018526Y011193D01*
X018016Y011193D02*
X018016Y011363D01*
X018016Y011193D02*
X017959Y011136D01*
X017789Y011136D01*
X017789Y011080D02*
X017846Y011023D01*
X017903Y011023D01*
X017789Y011080D02*
X017789Y011363D01*
X017648Y011363D02*
X017648Y011136D01*
X017648Y011250D02*
X017534Y011363D01*
X017478Y011363D01*
X017341Y011363D02*
X017284Y011363D01*
X017284Y011136D01*
X017341Y011136D02*
X017227Y011136D01*
X017095Y011193D02*
X017039Y011136D01*
X016868Y011136D01*
X016868Y011080D02*
X016868Y011363D01*
X017039Y011363D01*
X017095Y011307D01*
X017095Y011193D01*
X016982Y011023D02*
X016925Y011023D01*
X016868Y011080D01*
X016727Y011136D02*
X016727Y011477D01*
X016670Y011363D02*
X016727Y011307D01*
X016670Y011363D02*
X016557Y011363D01*
X016500Y011307D01*
X016500Y011136D01*
X016302Y011193D02*
X016302Y011420D01*
X016359Y011363D02*
X016245Y011363D01*
X016302Y011193D02*
X016245Y011136D01*
X015745Y011193D02*
X015745Y011420D01*
X015688Y011477D01*
X015575Y011477D01*
X015518Y011420D01*
X015518Y011307D01*
X015575Y011250D01*
X015575Y011363D01*
X015688Y011363D01*
X015688Y011250D01*
X015575Y011250D01*
X015518Y011193D02*
X015575Y011136D01*
X015688Y011136D01*
X015745Y011193D01*
X015376Y011136D02*
X015150Y011363D01*
X015150Y011420D01*
X015206Y011477D01*
X015320Y011477D01*
X015376Y011420D01*
X015376Y011136D02*
X015150Y011136D01*
X015008Y011193D02*
X015008Y011420D01*
X014951Y011477D01*
X014838Y011477D01*
X014781Y011420D01*
X015008Y011193D01*
X014951Y011136D01*
X014838Y011136D01*
X014781Y011193D01*
X014781Y011420D01*
X014640Y011363D02*
X014526Y011477D01*
X014526Y011136D01*
X014413Y011136D02*
X014640Y011136D01*
X014272Y011136D02*
X014045Y011363D01*
X014045Y011420D01*
X014101Y011477D01*
X014215Y011477D01*
X014272Y011420D01*
X014272Y011136D02*
X014045Y011136D01*
X014018Y011936D02*
X013911Y012043D01*
X014018Y012150D01*
X014232Y012150D01*
X014338Y012257D01*
X014232Y012364D01*
X013911Y012364D01*
X013694Y012043D02*
X013587Y012043D01*
X013587Y011936D01*
X013694Y011936D01*
X013694Y012043D01*
X013372Y012043D02*
X013372Y012257D01*
X013265Y012364D01*
X012945Y012364D01*
X012727Y012257D02*
X012727Y012043D01*
X012620Y011936D01*
X012407Y011936D01*
X012300Y012043D01*
X012300Y012257D01*
X012407Y012364D01*
X012620Y012364D01*
X012727Y012257D01*
X012945Y011936D02*
X013265Y011936D01*
X013372Y012043D01*
X014018Y011936D02*
X014338Y011936D01*
X014555Y011936D02*
X014661Y012043D01*
X014661Y012470D01*
X014555Y012364D02*
X014768Y012364D01*
X014986Y012257D02*
X014986Y011936D01*
X014986Y012257D02*
X015092Y012364D01*
X015413Y012364D01*
X015413Y011936D01*
X015630Y012150D02*
X016057Y012150D01*
X016057Y012043D02*
X016057Y012257D01*
X015950Y012364D01*
X015737Y012364D01*
X015630Y012257D01*
X015630Y012150D01*
X015737Y011936D02*
X015950Y011936D01*
X016057Y012043D01*
X016275Y011936D02*
X016595Y011936D01*
X016702Y012043D01*
X016702Y012257D01*
X016595Y012364D01*
X016275Y012364D01*
X016275Y011830D01*
X016381Y011723D01*
X016488Y011723D01*
X016919Y011936D02*
X016919Y012364D01*
X017133Y012577D01*
X017346Y012364D01*
X017346Y011936D01*
X017564Y011936D02*
X017564Y012257D01*
X017671Y012364D01*
X017991Y012364D01*
X017991Y011936D01*
X018208Y012364D02*
X018314Y012364D01*
X018528Y012150D01*
X018528Y011936D02*
X018528Y012364D01*
X018745Y012257D02*
X018745Y012150D01*
X019172Y012150D01*
X019172Y012043D02*
X019172Y012257D01*
X019066Y012364D01*
X018852Y012364D01*
X018745Y012257D01*
X018852Y011936D02*
X019066Y011936D01*
X019172Y012043D01*
X019389Y011936D02*
X019495Y012043D01*
X019495Y012470D01*
X019389Y012364D02*
X019602Y012364D01*
X019818Y012364D02*
X020032Y012364D01*
X019925Y012470D02*
X019925Y012043D01*
X019818Y011936D01*
X020249Y011936D02*
X020249Y012257D01*
X020356Y012364D01*
X020570Y012364D01*
X020570Y012150D02*
X020249Y012150D01*
X020249Y011936D02*
X020570Y011936D01*
X020676Y012043D01*
X020570Y012150D01*
X020894Y012257D02*
X020894Y012470D01*
X021001Y012577D01*
X021321Y012577D01*
X021321Y011936D01*
X021321Y012150D02*
X021001Y012150D01*
X020894Y012257D01*
X019921Y013836D02*
X019921Y014477D01*
X019601Y014477D01*
X019494Y014370D01*
X019494Y014157D01*
X019601Y014050D01*
X019921Y014050D01*
X019707Y014050D02*
X019494Y013836D01*
X019276Y013943D02*
X019276Y014157D01*
X019170Y014264D01*
X018956Y014264D01*
X018849Y014157D01*
X018849Y014050D01*
X019276Y014050D01*
X019276Y013943D02*
X019170Y013836D01*
X018956Y013836D01*
X018632Y014264D02*
X018418Y013836D01*
X018205Y014264D01*
X017987Y014264D02*
X017881Y014264D01*
X017881Y013836D01*
X017987Y013836D02*
X017774Y013836D01*
X017558Y013836D02*
X017237Y013836D01*
X017131Y013943D01*
X017237Y014050D01*
X017451Y014050D01*
X017558Y014157D01*
X017451Y014264D01*
X017131Y014264D01*
X016913Y014264D02*
X016806Y014264D01*
X016806Y013836D01*
X016700Y013836D02*
X016913Y013836D01*
X016483Y013943D02*
X016377Y013836D01*
X016163Y013836D01*
X016056Y013943D01*
X016056Y014157D01*
X016163Y014264D01*
X016377Y014264D01*
X016483Y014157D01*
X016483Y013943D01*
X016806Y014477D02*
X016806Y014584D01*
X017097Y014943D02*
X017097Y015157D01*
X017204Y015264D01*
X017417Y015264D01*
X017524Y015157D01*
X017524Y014943D01*
X017417Y014836D01*
X017204Y014836D01*
X017097Y014943D01*
X017740Y014836D02*
X017847Y014943D01*
X017847Y015370D01*
X017954Y015264D02*
X017740Y015264D01*
X017881Y014584D02*
X017881Y014477D01*
X018816Y014943D02*
X018923Y014836D01*
X019136Y014836D01*
X019243Y014943D01*
X019136Y015157D02*
X018923Y015157D01*
X018816Y015050D01*
X018816Y014943D01*
X019136Y015157D02*
X019243Y015264D01*
X019243Y015370D01*
X019136Y015477D01*
X018923Y015477D01*
X018816Y015370D01*
X019460Y015157D02*
X019887Y015157D01*
X020105Y015477D02*
X020105Y014836D01*
X020532Y014836D02*
X020532Y015477D01*
X020318Y015264D01*
X020105Y015477D01*
X020749Y015370D02*
X020749Y015157D01*
X020856Y015050D01*
X021176Y015050D01*
X021176Y014836D02*
X021176Y015477D01*
X020856Y015477D01*
X020749Y015370D01*
X021394Y015370D02*
X021501Y015477D01*
X021714Y015477D01*
X021821Y015370D01*
X021821Y014943D01*
X021714Y014836D01*
X021501Y014836D01*
X021394Y014943D01*
X017346Y012257D02*
X016919Y012257D01*
X017284Y011534D02*
X017284Y011477D01*
X016898Y010577D02*
X016471Y010577D01*
X016471Y010470D01*
X018894Y011193D02*
X018951Y011136D01*
X019064Y011136D01*
X019121Y011193D01*
X019121Y011420D01*
X019064Y011477D01*
X018951Y011477D01*
X018894Y011420D01*
X019801Y010577D02*
X019694Y010470D01*
X019694Y010257D01*
X019801Y010150D01*
X020121Y010150D01*
X020121Y009936D02*
X020121Y010577D01*
X019801Y010577D01*
X015839Y013836D02*
X015839Y014264D01*
X015519Y014264D01*
X015412Y014157D01*
X015412Y013836D01*
X014550Y013836D02*
X014123Y013836D01*
X014336Y013836D02*
X014336Y014477D01*
X014550Y014264D01*
X013905Y013943D02*
X013905Y013836D01*
X013798Y013836D01*
X013798Y013943D01*
X013905Y013943D01*
X013583Y013943D02*
X013476Y013836D01*
X013263Y013836D01*
X013156Y013943D01*
X013156Y014050D01*
X013263Y014157D01*
X013369Y014157D01*
X013263Y014157D02*
X013156Y014264D01*
X013156Y014370D01*
X013263Y014477D01*
X013476Y014477D01*
X013583Y014370D01*
X013658Y014836D02*
X013872Y014836D01*
X013765Y014836D02*
X013765Y015477D01*
X013872Y015477D01*
X014089Y015157D02*
X014196Y015264D01*
X014409Y015264D01*
X014516Y015157D01*
X014516Y014943D01*
X014409Y014836D01*
X014196Y014836D01*
X014089Y015050D02*
X014516Y015050D01*
X014732Y014836D02*
X014946Y014836D01*
X014839Y014836D02*
X014839Y015264D01*
X014946Y015264D01*
X014839Y015477D02*
X014839Y015584D01*
X015163Y015157D02*
X015163Y014836D01*
X015163Y015157D02*
X015270Y015264D01*
X015484Y015264D01*
X015590Y015157D01*
X015808Y015050D02*
X015808Y014943D01*
X015915Y014836D01*
X016128Y014836D01*
X016235Y014943D01*
X016128Y015157D02*
X015915Y015157D01*
X015808Y015050D01*
X015590Y014836D02*
X015590Y015477D01*
X015808Y015370D02*
X015915Y015477D01*
X016128Y015477D01*
X016235Y015370D01*
X016235Y015264D01*
X016128Y015157D01*
X014089Y015157D02*
X014089Y015050D01*
X013442Y014943D02*
X013442Y015157D01*
X013335Y015264D01*
X013015Y015264D01*
X013015Y015477D02*
X013015Y014836D01*
X013335Y014836D01*
X013442Y014943D01*
X012153Y014836D02*
X011832Y014836D01*
X011726Y014943D01*
X011726Y015050D01*
X011832Y015157D01*
X012153Y015157D01*
X012153Y015477D02*
X012153Y014836D01*
X011832Y015157D02*
X011726Y015264D01*
X011726Y015370D01*
X011832Y015477D01*
X012153Y015477D01*
X011401Y015264D02*
X011188Y015264D01*
X011081Y015157D01*
X011081Y014836D01*
X011401Y014836D01*
X011508Y014943D01*
X011401Y015050D01*
X011081Y015050D01*
X010864Y015157D02*
X010757Y015264D01*
X010437Y015264D01*
X010219Y015264D02*
X010112Y015264D01*
X010112Y014836D01*
X010006Y014836D02*
X010219Y014836D01*
X010437Y014943D02*
X010543Y015050D01*
X010757Y015050D01*
X010864Y015157D01*
X010864Y014836D02*
X010543Y014836D01*
X010437Y014943D01*
X009789Y014943D02*
X009683Y014836D01*
X009362Y014836D01*
X009362Y015264D02*
X009683Y015264D01*
X009789Y015157D01*
X009789Y014943D01*
X010112Y015477D02*
X010112Y015584D01*
X011762Y012364D02*
X011655Y012257D01*
X011655Y011936D01*
X011869Y011936D02*
X011869Y012257D01*
X011762Y012364D01*
X011869Y012257D02*
X011976Y012364D01*
X012082Y012364D01*
X012082Y011936D01*
D12*
X021068Y010296D03*
X021068Y010286D03*
X021068Y010276D03*
X021068Y010266D03*
X021058Y010206D03*
X021058Y010196D03*
X021058Y010186D03*
X021058Y010176D03*
X021058Y010166D03*
X021058Y010156D03*
X021078Y010336D03*
X021078Y010346D03*
X021058Y009906D03*
X021058Y009896D03*
X021058Y009886D03*
X021058Y009876D03*
X021058Y009866D03*
X021058Y009856D03*
X021068Y009796D03*
X021068Y009786D03*
X021068Y009776D03*
X021068Y009766D03*
X021068Y009756D03*
X021078Y009726D03*
X021078Y009716D03*
X021078Y009706D03*
X021978Y009866D03*
X021978Y009876D03*
X022358Y009856D03*
X022358Y009566D03*
X022068Y009476D03*
X022058Y009486D03*
X022788Y009616D03*
X022778Y009806D03*
X023208Y009566D03*
X023598Y009876D03*
X023598Y009886D03*
X024518Y009936D03*
X024518Y009946D03*
X024518Y009956D03*
X024518Y009966D03*
X024518Y009976D03*
X024518Y009986D03*
X024518Y009996D03*
X024518Y010006D03*
X024518Y010016D03*
X024518Y010026D03*
X024518Y010036D03*
X024518Y010046D03*
X024518Y010056D03*
X024518Y010066D03*
X024518Y010076D03*
X024518Y010086D03*
X024518Y010096D03*
X024518Y010106D03*
X024518Y010116D03*
X024518Y010126D03*
X024498Y010296D03*
X024488Y010356D03*
X024488Y010366D03*
X023098Y008696D03*
X022468Y008696D03*
X022288Y008776D03*
X021798Y010486D03*
X022418Y011336D03*
X024508Y007976D03*
D13*
X024508Y007986D03*
X024508Y007996D03*
X024508Y008006D03*
X024508Y008016D03*
X024508Y008026D03*
X024508Y008036D03*
X024508Y008046D03*
X024508Y008056D03*
X024508Y008066D03*
X024508Y008076D03*
X024508Y008086D03*
X024508Y008096D03*
X024508Y008106D03*
X024508Y008116D03*
X024508Y008126D03*
X024508Y008136D03*
X024508Y008146D03*
X024508Y008156D03*
X024508Y008166D03*
X024508Y008176D03*
X024508Y008186D03*
X024508Y008196D03*
X024508Y008206D03*
X024508Y008216D03*
X024508Y008226D03*
X024508Y008236D03*
X024508Y008246D03*
X024508Y008256D03*
X024508Y008266D03*
X024508Y008276D03*
X024508Y008286D03*
X024508Y008296D03*
X024508Y008306D03*
X024508Y008316D03*
X024508Y008326D03*
X024508Y008336D03*
X024508Y008346D03*
X024508Y008356D03*
X024508Y008366D03*
X024508Y008376D03*
X024508Y008386D03*
X024508Y008396D03*
X024508Y008406D03*
X024508Y008416D03*
X024508Y008426D03*
X024508Y008436D03*
X024508Y008446D03*
X024508Y008456D03*
X024508Y008466D03*
X024508Y008476D03*
X024508Y008486D03*
X024508Y008496D03*
X024508Y008506D03*
X024508Y008516D03*
X024508Y008526D03*
X024508Y008536D03*
X024508Y008546D03*
X024508Y008556D03*
X024508Y008566D03*
X024508Y008576D03*
X024508Y008586D03*
X024508Y008596D03*
X024508Y008606D03*
X024508Y008616D03*
X024508Y008626D03*
X024508Y008636D03*
X024508Y008646D03*
X024508Y008656D03*
X024508Y008666D03*
X024508Y008676D03*
X024508Y008686D03*
X024508Y008696D03*
X024508Y008706D03*
X024508Y008716D03*
X024508Y008726D03*
X024508Y008736D03*
X024508Y008746D03*
X024508Y008756D03*
X024508Y008766D03*
X024508Y008776D03*
X024508Y008786D03*
X024508Y008796D03*
X024508Y008806D03*
X024508Y008816D03*
X024508Y008826D03*
X024508Y008836D03*
X024508Y008846D03*
X024508Y008856D03*
X024508Y008866D03*
X024508Y008876D03*
X024508Y008886D03*
X024508Y008896D03*
X024508Y008906D03*
X024508Y008916D03*
X024508Y009766D03*
X024508Y009776D03*
X024508Y009786D03*
X024508Y009796D03*
X024508Y009806D03*
X024508Y009816D03*
X023578Y009916D03*
X023488Y009456D03*
X022788Y009596D03*
X022788Y009836D03*
X022358Y009846D03*
X021988Y009896D03*
X021988Y009906D03*
X022088Y009456D03*
X021158Y009426D03*
X021148Y009456D03*
X021138Y009486D03*
X021128Y009506D03*
X021128Y009516D03*
X021128Y009526D03*
X021118Y009546D03*
X021118Y009556D03*
X021098Y009626D03*
X021098Y010436D03*
X021108Y010476D03*
X021118Y010506D03*
X021118Y010516D03*
X021128Y010536D03*
X021128Y010546D03*
X021128Y010556D03*
X021138Y010576D03*
X021148Y010596D03*
X021148Y010606D03*
X021158Y010636D03*
X022418Y011326D03*
X023758Y010496D03*
X024398Y010666D03*
X024408Y010646D03*
X024408Y010636D03*
X024418Y010616D03*
X024428Y010596D03*
X024428Y010586D03*
X024428Y010576D03*
X024438Y010566D03*
X024438Y010556D03*
X024438Y010546D03*
X024448Y010526D03*
X024448Y010516D03*
X023228Y008756D03*
X023118Y008706D03*
D14*
X022888Y008596D03*
X022778Y008136D03*
X022358Y009516D03*
X022478Y009596D03*
X022358Y009696D03*
X022358Y009706D03*
X022358Y009716D03*
X022358Y009726D03*
X022478Y009826D03*
X022708Y009656D03*
X023088Y009596D03*
X023098Y009586D03*
X023208Y009676D03*
X023208Y009726D03*
X023208Y009736D03*
X023098Y009836D03*
X023338Y009826D03*
X023338Y009596D03*
X024138Y009786D03*
X024148Y009756D03*
X024158Y009726D03*
X023688Y010596D03*
X021418Y009746D03*
D15*
X021758Y009246D03*
X021768Y009236D03*
X021778Y009226D03*
X021428Y008956D03*
X021448Y008926D03*
X021458Y008916D03*
X021468Y008906D03*
X021478Y008896D03*
X022778Y008146D03*
X023788Y009226D03*
X023798Y009236D03*
X024108Y008916D03*
X024098Y008906D03*
X024468Y009466D03*
X024468Y009476D03*
X024468Y009486D03*
X023728Y010476D03*
X024148Y011096D03*
X024138Y011106D03*
X024128Y011116D03*
X023238Y011146D03*
X023158Y011326D03*
X022788Y011166D03*
X022418Y011286D03*
X022788Y011916D03*
X021458Y011136D03*
X021448Y011126D03*
X021438Y011116D03*
X021428Y011106D03*
X021418Y011086D03*
X021408Y011076D03*
X022798Y009886D03*
D16*
X022788Y009476D03*
X022788Y008956D03*
X022788Y008156D03*
X023778Y008626D03*
X024398Y009196D03*
X023788Y011426D03*
X021768Y011416D03*
X021778Y008636D03*
D17*
X022778Y008166D03*
X024338Y009026D03*
X022188Y010106D03*
X021968Y010396D03*
X021958Y011526D03*
X023608Y011526D03*
D18*
X023508Y011566D03*
X022788Y008996D03*
X022778Y008176D03*
D19*
X022778Y008186D03*
X023488Y010376D03*
D20*
X022788Y009036D03*
X022788Y008196D03*
D21*
X022788Y008206D03*
D22*
X022778Y008216D03*
X022788Y009086D03*
D23*
X022788Y009106D03*
X022778Y008226D03*
X022788Y011836D03*
D24*
X022788Y011826D03*
X022778Y010676D03*
X022788Y009126D03*
X022778Y008236D03*
D25*
X022783Y008246D03*
X022783Y009156D03*
D26*
X022788Y008256D03*
D27*
X022783Y008266D03*
X022783Y009216D03*
X022793Y010706D03*
D28*
X022783Y010996D03*
X022783Y009236D03*
X022783Y008276D03*
D29*
X022778Y008286D03*
X022788Y009266D03*
X022778Y010916D03*
X022778Y010926D03*
D30*
X022773Y010876D03*
X022773Y010866D03*
X022803Y010726D03*
X022783Y011766D03*
X022783Y009286D03*
X022783Y008296D03*
D31*
X022783Y008306D03*
X022783Y009316D03*
X022773Y010786D03*
X022773Y010796D03*
X022773Y010806D03*
X022783Y011756D03*
D32*
X022783Y009356D03*
X022783Y008316D03*
D33*
X022783Y008326D03*
X022783Y009386D03*
X022783Y010236D03*
D34*
X022783Y009426D03*
X022783Y008336D03*
D35*
X022783Y008346D03*
D36*
X022783Y008356D03*
D37*
X022788Y008366D03*
D38*
X022778Y008376D03*
D39*
X022783Y008386D03*
X022783Y010076D03*
X022783Y010086D03*
X022783Y011676D03*
D40*
X022783Y008396D03*
D41*
X022783Y008406D03*
X022783Y011656D03*
D42*
X022783Y011646D03*
X022783Y010286D03*
X022783Y008416D03*
D43*
X022783Y008426D03*
X022783Y010296D03*
D44*
X022783Y011626D03*
X022783Y008436D03*
D45*
X022783Y008446D03*
X022783Y010306D03*
D46*
X022788Y008456D03*
D47*
X023403Y008466D03*
X022783Y009026D03*
X022163Y008466D03*
X022773Y010636D03*
D48*
X023438Y011586D03*
X022788Y011876D03*
X023448Y008476D03*
X022128Y008476D03*
D49*
X022073Y008486D03*
X023493Y008486D03*
X022063Y011566D03*
X022783Y011886D03*
D50*
X022038Y011556D03*
X024298Y008946D03*
X024298Y008936D03*
X023518Y008496D03*
D51*
X024293Y008926D03*
X022053Y008496D03*
D52*
X022028Y008506D03*
X022788Y008986D03*
X023548Y008506D03*
X024308Y008966D03*
X023568Y010396D03*
D53*
X024323Y008996D03*
X023573Y008516D03*
D54*
X024318Y008986D03*
X022778Y009976D03*
X022768Y010616D03*
X023558Y011546D03*
X021998Y008516D03*
D55*
X021973Y008526D03*
X023593Y008526D03*
X024333Y009016D03*
X023383Y010106D03*
D56*
X023613Y010416D03*
X023633Y011516D03*
X022403Y011026D03*
X021943Y011516D03*
X024343Y009036D03*
X023613Y008536D03*
X021953Y008536D03*
X021933Y008546D03*
D57*
X021913Y008556D03*
X023633Y008546D03*
X023653Y008556D03*
X024353Y009066D03*
X021913Y011506D03*
D58*
X021893Y011496D03*
X022383Y011036D03*
X023113Y011206D03*
X023673Y011496D03*
X023693Y011486D03*
X022783Y009966D03*
X023673Y008566D03*
X024363Y009086D03*
X024363Y009096D03*
X021893Y008566D03*
D59*
X023693Y008576D03*
X024373Y009116D03*
X022783Y010166D03*
X023183Y011036D03*
X023723Y011466D03*
X022383Y011046D03*
X021863Y011476D03*
D60*
X023653Y010616D03*
X023213Y009656D03*
X022843Y008576D03*
X022733Y008576D03*
D61*
X021878Y008576D03*
X023638Y010426D03*
X023708Y011476D03*
X021878Y011486D03*
X024368Y009106D03*
D62*
X024378Y009126D03*
X024378Y009136D03*
X023728Y008596D03*
X023708Y008586D03*
X021858Y008586D03*
X021918Y010416D03*
X021848Y011466D03*
X023118Y011216D03*
X023738Y011456D03*
D63*
X023673Y010606D03*
X023373Y009776D03*
X023383Y009756D03*
X023383Y009746D03*
X023383Y009676D03*
X023383Y009666D03*
X023373Y009656D03*
X023373Y009646D03*
X023043Y009656D03*
X023043Y009666D03*
X023043Y009676D03*
X023033Y009696D03*
X023033Y009706D03*
X023033Y009716D03*
X023033Y009726D03*
X023043Y009756D03*
X023043Y009766D03*
X023053Y009786D03*
X022533Y009746D03*
X022533Y009736D03*
X022533Y009726D03*
X022533Y009716D03*
X022533Y009706D03*
X022533Y009696D03*
X022533Y009686D03*
X022533Y009676D03*
X022533Y009666D03*
X022523Y009656D03*
X022523Y009646D03*
X022523Y009766D03*
X022523Y009776D03*
X022353Y009756D03*
X022193Y009766D03*
X022193Y009776D03*
X022183Y009736D03*
X022183Y009726D03*
X022183Y009716D03*
X022183Y009706D03*
X022183Y009696D03*
X022193Y009666D03*
X022193Y009656D03*
X022203Y009636D03*
X022363Y009976D03*
X021753Y010226D03*
X022413Y011416D03*
X022863Y008586D03*
D64*
X022708Y008586D03*
X022358Y009666D03*
X022188Y009676D03*
X022188Y009686D03*
X022188Y009746D03*
X022188Y009756D03*
X023038Y009746D03*
X023038Y009736D03*
X023038Y009686D03*
X023208Y009666D03*
X023388Y009686D03*
X023388Y009696D03*
X023388Y009706D03*
X023388Y009716D03*
X023388Y009726D03*
X023388Y009736D03*
X023378Y009766D03*
X021888Y010606D03*
X022778Y011106D03*
D65*
X023183Y011446D03*
X022783Y011926D03*
X022783Y010156D03*
X023083Y009826D03*
X023073Y009816D03*
X023073Y009606D03*
X023343Y009606D03*
X023353Y009616D03*
X023363Y009626D03*
X022503Y009616D03*
X022493Y009606D03*
X022363Y009686D03*
X022353Y009736D03*
X022233Y009826D03*
X022223Y009816D03*
X022213Y009806D03*
X022223Y009606D03*
X022233Y009596D03*
X022493Y009816D03*
X022503Y009806D03*
X022683Y008596D03*
D66*
X021843Y008596D03*
X021823Y008606D03*
X022793Y009466D03*
X024383Y009146D03*
X023193Y011046D03*
X023123Y011226D03*
X023753Y011446D03*
X022373Y011056D03*
X021833Y011456D03*
D67*
X021818Y011446D03*
X023128Y011236D03*
X023658Y010436D03*
X022788Y009956D03*
X023748Y008606D03*
X024388Y009156D03*
X024388Y009166D03*
X021808Y008616D03*
D68*
X022913Y008606D03*
X023603Y009166D03*
X023303Y009576D03*
X024003Y010026D03*
X024013Y010016D03*
X024023Y010006D03*
X024033Y009986D03*
X024043Y009976D03*
X024053Y009956D03*
X024063Y009946D03*
X024073Y009926D03*
X024153Y009696D03*
X023803Y010216D03*
X021583Y010046D03*
X021573Y010036D03*
X021563Y010026D03*
X021553Y010006D03*
X021543Y009996D03*
X021533Y009986D03*
X021523Y009966D03*
X021513Y009956D03*
X021503Y009936D03*
D69*
X021498Y009926D03*
X021488Y009916D03*
X021488Y009906D03*
X021478Y009896D03*
X021468Y009876D03*
X021458Y009856D03*
X021448Y009826D03*
X021418Y009696D03*
X021508Y009946D03*
X021528Y009976D03*
X021758Y010216D03*
X021838Y010576D03*
X022408Y011406D03*
X023708Y010586D03*
X024028Y009996D03*
X024048Y009966D03*
X024068Y009936D03*
X024078Y009916D03*
X024088Y009906D03*
X024088Y009896D03*
X024118Y009836D03*
X024158Y009706D03*
X022788Y008916D03*
X022658Y008606D03*
X021968Y009166D03*
X022468Y009586D03*
D70*
X023463Y009986D03*
X024393Y009186D03*
X024393Y009176D03*
X023763Y008616D03*
X021793Y008626D03*
X022373Y011066D03*
X021793Y011436D03*
X021783Y011426D03*
X023203Y011056D03*
X023773Y011436D03*
D71*
X023728Y010566D03*
X023928Y010106D03*
X023938Y010096D03*
X023948Y010086D03*
X023908Y009446D03*
X023898Y009436D03*
X023888Y009426D03*
X023878Y009416D03*
X023868Y009406D03*
X023858Y009396D03*
X023848Y009386D03*
X023818Y009116D03*
X023808Y009106D03*
X023798Y009096D03*
X022938Y008616D03*
X022628Y008616D03*
X021758Y009106D03*
X021748Y009116D03*
X021738Y009126D03*
X021758Y009356D03*
X021748Y009366D03*
X021738Y009376D03*
X021728Y009386D03*
X021688Y009416D03*
X021678Y009426D03*
X021668Y009436D03*
X021658Y009446D03*
X021648Y009456D03*
X021638Y009466D03*
X021628Y009476D03*
X021618Y009486D03*
X021428Y009666D03*
X021628Y010086D03*
X021638Y010096D03*
X021648Y010106D03*
X021658Y010116D03*
X021818Y010556D03*
X021988Y009666D03*
X022408Y011396D03*
D72*
X021673Y010126D03*
X021553Y009546D03*
X021563Y009536D03*
X021573Y009526D03*
X021583Y009516D03*
X021593Y009506D03*
X021603Y009496D03*
X021773Y009096D03*
X021783Y009086D03*
X021793Y009076D03*
X021803Y009066D03*
X022963Y008626D03*
X023753Y009056D03*
X023763Y009066D03*
X023773Y009076D03*
X023783Y009086D03*
X023923Y009456D03*
X023933Y009466D03*
X023943Y009476D03*
X023953Y009486D03*
X023963Y009496D03*
X023973Y009506D03*
X023983Y009516D03*
X023993Y009526D03*
X024003Y009536D03*
X024143Y009666D03*
X023913Y010116D03*
D73*
X023898Y010126D03*
X023798Y010206D03*
X023738Y010556D03*
X022788Y011116D03*
X022628Y011206D03*
X023178Y011426D03*
X021768Y010206D03*
X021688Y010136D03*
X022358Y009896D03*
X022358Y009526D03*
X021868Y009016D03*
X021838Y009036D03*
X021828Y009046D03*
X021818Y009056D03*
X021538Y009556D03*
X021528Y009566D03*
X021518Y009576D03*
X022608Y008626D03*
X023208Y009526D03*
X023718Y009026D03*
X023728Y009036D03*
X023738Y009046D03*
X024018Y009546D03*
X024028Y009556D03*
X024038Y009566D03*
X024138Y009656D03*
D74*
X024403Y009216D03*
X024403Y009206D03*
X023793Y008636D03*
X022783Y009946D03*
X023443Y010116D03*
X022363Y011076D03*
X021753Y011406D03*
X022783Y011906D03*
X023133Y011246D03*
X023803Y011416D03*
X022123Y010116D03*
X021893Y010426D03*
X021763Y008646D03*
D75*
X021883Y009006D03*
X021853Y009026D03*
X021503Y009586D03*
X021493Y009596D03*
X021483Y009606D03*
X021433Y009656D03*
X021703Y010146D03*
X021793Y010536D03*
X021803Y010546D03*
X022413Y011386D03*
X023883Y010136D03*
X024133Y009646D03*
X024123Y009636D03*
X024113Y009626D03*
X024103Y009616D03*
X024093Y009606D03*
X024063Y009586D03*
X024053Y009576D03*
X023633Y009176D03*
X023703Y009016D03*
X023673Y008996D03*
X022983Y008636D03*
X023213Y009896D03*
D76*
X023608Y009646D03*
X023618Y009656D03*
X023598Y009606D03*
X024078Y009596D03*
X023688Y009006D03*
X023658Y008986D03*
X023648Y008976D03*
X023618Y008956D03*
X022588Y008636D03*
X021938Y008966D03*
X021928Y008976D03*
X021908Y008986D03*
X021898Y008996D03*
X021938Y009176D03*
X021468Y009616D03*
X021458Y009626D03*
X021448Y009636D03*
X021438Y009646D03*
X021718Y010156D03*
X021788Y010526D03*
X023848Y010156D03*
X023868Y010146D03*
D77*
X024408Y009236D03*
X024408Y009226D03*
X023818Y008656D03*
X023808Y008646D03*
X021748Y008656D03*
X023208Y011066D03*
X023138Y011256D03*
X023818Y011406D03*
X023828Y011396D03*
X023848Y011386D03*
X022438Y011216D03*
X021738Y011396D03*
X021728Y011386D03*
D78*
X022413Y011376D03*
X023183Y011416D03*
X022753Y010596D03*
X023213Y009886D03*
X023213Y009536D03*
X023583Y009566D03*
X023583Y009576D03*
X023593Y009586D03*
X023593Y009596D03*
X023603Y009616D03*
X023603Y009626D03*
X023603Y009636D03*
X023633Y008966D03*
X023603Y008946D03*
X023593Y008936D03*
X023573Y008926D03*
X023543Y008906D03*
X023003Y008646D03*
X021993Y008926D03*
X021983Y008936D03*
X021963Y008946D03*
X021953Y008956D03*
X022363Y009536D03*
X021973Y009626D03*
X021963Y009646D03*
X021963Y009656D03*
X023753Y010546D03*
X023763Y010536D03*
D79*
X023768Y010526D03*
X023628Y009766D03*
X023628Y009756D03*
X023628Y009746D03*
X023578Y009556D03*
X023568Y009546D03*
X023568Y009536D03*
X023558Y008916D03*
X023528Y008896D03*
X023508Y008886D03*
X022568Y008646D03*
X022048Y008896D03*
X022028Y008906D03*
X022008Y008916D03*
X021988Y009586D03*
X021988Y009596D03*
X021978Y009606D03*
X021978Y009616D03*
X021968Y009636D03*
X022358Y009886D03*
X021978Y010156D03*
X021778Y010516D03*
D80*
X021783Y010196D03*
X021953Y009756D03*
X022063Y008886D03*
X022083Y008876D03*
X022093Y008866D03*
X023023Y008656D03*
X023453Y008856D03*
X023473Y008866D03*
X023493Y008876D03*
X023553Y009516D03*
X023563Y009526D03*
X023623Y009776D03*
X023623Y009786D03*
X023593Y010156D03*
X023783Y010196D03*
D81*
X023768Y010516D03*
X023618Y009806D03*
X023618Y009796D03*
X023658Y009186D03*
X022548Y008656D03*
X022138Y008846D03*
X022118Y008856D03*
X022008Y009556D03*
X021998Y009576D03*
X021958Y009766D03*
X021958Y009776D03*
X022358Y009876D03*
X022358Y009546D03*
X021778Y010506D03*
X022418Y011366D03*
X022788Y011126D03*
X023178Y011406D03*
D82*
X023213Y011076D03*
X023863Y011376D03*
X023683Y010446D03*
X022783Y009486D03*
X023833Y008666D03*
X024413Y009246D03*
X022363Y011086D03*
X021713Y011376D03*
X021723Y008676D03*
X021733Y008666D03*
D83*
X022178Y008826D03*
X022028Y009526D03*
X022018Y009536D03*
X021958Y009796D03*
X022788Y009756D03*
X023528Y009486D03*
X023538Y009496D03*
X023608Y009826D03*
X023608Y009836D03*
X023408Y008836D03*
X023388Y008826D03*
X023378Y008816D03*
X023048Y008666D03*
X022418Y011356D03*
D84*
X023213Y009876D03*
X023213Y009546D03*
X023543Y009506D03*
X023613Y009816D03*
X023433Y008846D03*
X022523Y008666D03*
X022153Y008836D03*
X022013Y009546D03*
X022003Y009566D03*
X021963Y009786D03*
D85*
X021878Y010436D03*
X022438Y011226D03*
X021698Y011366D03*
X023138Y011266D03*
X023878Y011366D03*
X023888Y011356D03*
X022788Y009936D03*
X023858Y008686D03*
X023848Y008676D03*
X024418Y009256D03*
X024418Y009266D03*
X021708Y008686D03*
D86*
X022193Y008816D03*
X022503Y008676D03*
X023063Y008676D03*
X023353Y008806D03*
X023213Y009556D03*
X022783Y009776D03*
X022783Y009786D03*
X023213Y009866D03*
X023603Y009846D03*
X022033Y009516D03*
X021963Y009806D03*
X021963Y009816D03*
X021963Y009826D03*
X021963Y009836D03*
X021783Y010496D03*
X023173Y011396D03*
D87*
X023173Y011386D03*
X022793Y011136D03*
X023563Y010146D03*
X023773Y010186D03*
X023603Y009866D03*
X023213Y009856D03*
X022783Y009796D03*
X022793Y009636D03*
X022793Y009626D03*
X023503Y009466D03*
X023303Y008786D03*
X023283Y008776D03*
X023083Y008686D03*
X022263Y008786D03*
X021973Y009856D03*
D88*
X021968Y009846D03*
X022008Y010146D03*
X021798Y010186D03*
X022358Y009866D03*
X022358Y009556D03*
X022048Y009496D03*
X022038Y009506D03*
X022218Y008806D03*
X022238Y008796D03*
X022488Y008686D03*
X023328Y008796D03*
X023518Y009476D03*
X023598Y009856D03*
X023768Y010506D03*
X022788Y009766D03*
X022788Y009646D03*
X022418Y011346D03*
D89*
X022433Y011236D03*
X022353Y011096D03*
X021683Y011356D03*
X021673Y011346D03*
X023223Y011086D03*
X023903Y011346D03*
X022793Y009926D03*
X022783Y009496D03*
X023873Y008696D03*
X024423Y009276D03*
X021693Y008696D03*
X021683Y008706D03*
D90*
X021668Y008716D03*
X021658Y008726D03*
X022788Y009916D03*
X022758Y010606D03*
X022798Y011196D03*
X023148Y011276D03*
X023908Y011336D03*
X023698Y010456D03*
X024428Y009306D03*
X024428Y009296D03*
X024428Y009286D03*
X023898Y008716D03*
X023888Y008706D03*
X021638Y011316D03*
X021648Y011326D03*
X021658Y011336D03*
D91*
X021123Y010526D03*
X021113Y010496D03*
X021113Y010486D03*
X021103Y010466D03*
X021103Y010456D03*
X021103Y010446D03*
X021093Y010426D03*
X021093Y010416D03*
X021093Y010406D03*
X021093Y010396D03*
X021083Y010386D03*
X021083Y010376D03*
X021083Y010366D03*
X021083Y010356D03*
X021073Y010326D03*
X021073Y010316D03*
X021073Y010306D03*
X021063Y010256D03*
X021063Y010246D03*
X021063Y010236D03*
X021063Y010226D03*
X021063Y010216D03*
X021053Y010146D03*
X021053Y010136D03*
X021053Y010126D03*
X021053Y010116D03*
X021053Y010106D03*
X021053Y010096D03*
X021053Y010086D03*
X021053Y010076D03*
X021053Y010066D03*
X021053Y010056D03*
X021053Y010046D03*
X021053Y010036D03*
X021053Y010026D03*
X021053Y010016D03*
X021053Y010006D03*
X021053Y009996D03*
X021053Y009986D03*
X021053Y009976D03*
X021053Y009966D03*
X021053Y009956D03*
X021053Y009946D03*
X021053Y009936D03*
X021053Y009926D03*
X021053Y009916D03*
X021063Y009846D03*
X021063Y009836D03*
X021063Y009826D03*
X021063Y009816D03*
X021063Y009806D03*
X021073Y009746D03*
X021073Y009736D03*
X021083Y009696D03*
X021083Y009686D03*
X021083Y009676D03*
X021093Y009666D03*
X021093Y009656D03*
X021093Y009646D03*
X021093Y009636D03*
X021103Y009616D03*
X021103Y009606D03*
X021103Y009596D03*
X021103Y009586D03*
X021113Y009576D03*
X021113Y009566D03*
X021123Y009536D03*
X021983Y009886D03*
X022073Y009466D03*
X022793Y009606D03*
X022783Y009816D03*
X022783Y009826D03*
X023213Y009846D03*
X023583Y009906D03*
X023593Y009896D03*
X024513Y009896D03*
X024513Y009886D03*
X024513Y009876D03*
X024513Y009866D03*
X024513Y009856D03*
X024513Y009846D03*
X024513Y009836D03*
X024513Y009826D03*
X024513Y009906D03*
X024513Y009916D03*
X024513Y009926D03*
X024513Y010136D03*
X024513Y010146D03*
X024513Y010156D03*
X024513Y010166D03*
X024513Y010176D03*
X024513Y010186D03*
X024513Y010196D03*
X024513Y010206D03*
X024513Y010216D03*
X024513Y010226D03*
X024503Y010236D03*
X024503Y010246D03*
X024503Y010256D03*
X024503Y010266D03*
X024503Y010276D03*
X024503Y010286D03*
X024493Y010306D03*
X024493Y010316D03*
X024493Y010326D03*
X024493Y010336D03*
X024493Y010346D03*
X024483Y010376D03*
X024483Y010386D03*
X024483Y010396D03*
X024483Y010406D03*
X024473Y010416D03*
X024473Y010426D03*
X024473Y010436D03*
X024473Y010446D03*
X024463Y010456D03*
X024463Y010466D03*
X024463Y010476D03*
X024463Y010486D03*
X024453Y010496D03*
X024453Y010506D03*
X024443Y010536D03*
X023173Y011376D03*
X023253Y008766D03*
X022453Y008706D03*
X022313Y008766D03*
D92*
X022343Y008756D03*
X022433Y008716D03*
X022783Y008926D03*
X023133Y008716D03*
X023153Y008726D03*
X024503Y009696D03*
X024503Y009706D03*
X024503Y009716D03*
X024503Y009726D03*
X024503Y009736D03*
X024503Y009746D03*
X024503Y009756D03*
X024423Y010606D03*
X024413Y010626D03*
X024403Y010656D03*
X024393Y010676D03*
X024393Y010686D03*
X024383Y010696D03*
X024383Y010706D03*
X024373Y010716D03*
X024373Y010726D03*
X024363Y010746D03*
X023163Y011366D03*
X022793Y011146D03*
X022413Y011316D03*
X021213Y010766D03*
X021193Y010716D03*
X021183Y010696D03*
X021183Y010686D03*
X021173Y010676D03*
X021173Y010666D03*
X021163Y010656D03*
X021163Y010646D03*
X021153Y010626D03*
X021153Y010616D03*
X021143Y010586D03*
X021133Y010566D03*
X021993Y009916D03*
X022783Y009846D03*
X021203Y009316D03*
X021193Y009346D03*
X021183Y009366D03*
X021183Y009376D03*
X021173Y009386D03*
X021173Y009396D03*
X021163Y009406D03*
X021163Y009416D03*
X021153Y009436D03*
X021153Y009446D03*
X021143Y009466D03*
X021143Y009476D03*
X021133Y009496D03*
D93*
X021633Y008746D03*
X021643Y008736D03*
X022783Y008946D03*
X022783Y009506D03*
X023913Y008726D03*
X023923Y008736D03*
X024433Y009316D03*
X024433Y009326D03*
X023223Y011096D03*
X023923Y011326D03*
X023933Y011316D03*
X023943Y011306D03*
X022433Y011246D03*
X022353Y011106D03*
X021623Y011306D03*
X021613Y011296D03*
D94*
X021238Y010816D03*
X021238Y010806D03*
X021228Y010796D03*
X021228Y010786D03*
X021218Y010776D03*
X021208Y010756D03*
X021208Y010746D03*
X021198Y010736D03*
X021198Y010726D03*
X021188Y010706D03*
X021808Y010476D03*
X022338Y011196D03*
X022338Y011206D03*
X023168Y011356D03*
X023248Y011196D03*
X024318Y010836D03*
X024328Y010816D03*
X024338Y010806D03*
X024338Y010796D03*
X024348Y010786D03*
X024348Y010776D03*
X024358Y010766D03*
X024358Y010756D03*
X024368Y010736D03*
X023568Y009926D03*
X022788Y009856D03*
X022788Y009586D03*
X022788Y009576D03*
X023198Y008746D03*
X022418Y008726D03*
X021238Y009246D03*
X021228Y009266D03*
X021218Y009276D03*
X021218Y009286D03*
X021208Y009296D03*
X021208Y009306D03*
X021198Y009326D03*
X021198Y009336D03*
X021188Y009356D03*
X024498Y009656D03*
X024498Y009666D03*
X024498Y009676D03*
X024498Y009686D03*
D95*
X024493Y009646D03*
X024493Y009636D03*
X024493Y009626D03*
X024493Y009616D03*
X023753Y010176D03*
X023563Y009936D03*
X023463Y009446D03*
X023173Y008736D03*
X022403Y008736D03*
X022373Y008746D03*
X021293Y009146D03*
X021283Y009166D03*
X021273Y009186D03*
X021263Y009196D03*
X021263Y009206D03*
X021253Y009216D03*
X021253Y009226D03*
X021243Y009236D03*
X021233Y009256D03*
X022003Y009926D03*
X022043Y010136D03*
X021813Y010176D03*
X021243Y010826D03*
X021253Y010836D03*
X021253Y010846D03*
X021263Y010856D03*
X021273Y010866D03*
X021273Y010876D03*
X021283Y010886D03*
X021283Y010896D03*
X021293Y010906D03*
X022413Y011306D03*
X024283Y010896D03*
X024293Y010886D03*
X024293Y010876D03*
X024303Y010866D03*
X024303Y010856D03*
X024313Y010846D03*
X024323Y010826D03*
D96*
X023978Y011276D03*
X023968Y011286D03*
X023958Y011296D03*
X023228Y011106D03*
X023148Y011286D03*
X022798Y011186D03*
X022348Y011116D03*
X021608Y011286D03*
X021598Y008776D03*
X021608Y008766D03*
X021618Y008756D03*
X023938Y008746D03*
X023948Y008756D03*
X023958Y008766D03*
X024438Y009336D03*
X024438Y009346D03*
D97*
X024443Y009356D03*
X024443Y009366D03*
X023993Y008796D03*
X023983Y008786D03*
X023973Y008776D03*
X021853Y010446D03*
X021583Y011266D03*
X021593Y011276D03*
X022423Y011256D03*
X023153Y011296D03*
X023233Y011116D03*
X023993Y011266D03*
X024003Y011256D03*
X024013Y011246D03*
D98*
X024018Y011236D03*
X023708Y010466D03*
X022788Y009906D03*
X022778Y009516D03*
X022058Y009976D03*
X021568Y008806D03*
X021578Y008796D03*
X021588Y008786D03*
X024008Y008806D03*
X024448Y009376D03*
X024448Y009386D03*
X022348Y011126D03*
X021568Y011256D03*
X021558Y011246D03*
X021548Y011236D03*
X021538Y011226D03*
D99*
X021533Y011216D03*
X021523Y011206D03*
X021513Y011196D03*
X021503Y011186D03*
X022343Y011136D03*
X022423Y011266D03*
X022793Y011176D03*
X023153Y011306D03*
X023233Y011126D03*
X024033Y011226D03*
X024043Y011216D03*
X024053Y011206D03*
X023493Y010126D03*
X024453Y009406D03*
X024453Y009396D03*
X024053Y008856D03*
X024043Y008846D03*
X024033Y008836D03*
X024023Y008826D03*
X024013Y008816D03*
X022043Y009966D03*
X022073Y010126D03*
X021523Y008846D03*
X021533Y008836D03*
X021543Y008826D03*
X021553Y008816D03*
D100*
X021518Y008856D03*
X021508Y008866D03*
X021498Y008876D03*
X021818Y009186D03*
X021808Y009196D03*
X021798Y009206D03*
X022788Y009896D03*
X023528Y009976D03*
X023758Y009196D03*
X024068Y008876D03*
X024058Y008866D03*
X024458Y009416D03*
X024458Y009426D03*
X024458Y009436D03*
X024088Y011166D03*
X024078Y011176D03*
X024068Y011186D03*
X024058Y011196D03*
X023238Y011136D03*
X022348Y011146D03*
X021838Y010456D03*
D101*
X021833Y010166D03*
X021793Y009216D03*
X021483Y008886D03*
X022783Y009526D03*
X023733Y010166D03*
X024463Y009456D03*
X024463Y009446D03*
X023783Y009216D03*
X023773Y009206D03*
X024083Y008886D03*
X024093Y008896D03*
X024123Y011126D03*
X024113Y011136D03*
X024103Y011146D03*
X024093Y011156D03*
X023153Y011316D03*
X022423Y011276D03*
X022343Y011156D03*
X021493Y011176D03*
X021483Y011166D03*
X021473Y011156D03*
X021463Y011146D03*
D102*
X021423Y011096D03*
X021403Y011066D03*
X021393Y011056D03*
X022343Y011166D03*
X023243Y011156D03*
X024153Y011086D03*
X024163Y011076D03*
X024183Y011046D03*
X024193Y011036D03*
X023543Y009966D03*
X023833Y009266D03*
X023823Y009256D03*
X023813Y009246D03*
X024473Y009496D03*
X024473Y009506D03*
X024473Y009516D03*
X022783Y009536D03*
X022783Y008936D03*
X021753Y009256D03*
X021413Y008976D03*
X021423Y008966D03*
X021433Y008946D03*
X021443Y008936D03*
X021403Y008986D03*
X022023Y009956D03*
D103*
X023533Y011556D03*
X024303Y008956D03*
D104*
X024358Y009076D03*
X022788Y008966D03*
X022778Y009456D03*
X021938Y010406D03*
X023178Y011026D03*
D105*
X022013Y011546D03*
X021993Y010386D03*
X024313Y008976D03*
D106*
X024328Y009006D03*
X022788Y008976D03*
X023588Y010406D03*
X023148Y011016D03*
X023588Y011536D03*
X022418Y011016D03*
X021978Y011536D03*
D107*
X021388Y011046D03*
X021378Y011036D03*
X021368Y011026D03*
X022018Y009946D03*
X021728Y009276D03*
X021738Y009266D03*
X021398Y008996D03*
X021388Y009006D03*
X021378Y009016D03*
X021368Y009036D03*
X021358Y009046D03*
X021338Y009076D03*
X022788Y009546D03*
X023548Y009956D03*
X023838Y009276D03*
X024478Y009526D03*
X024478Y009536D03*
X024208Y011016D03*
X024198Y011026D03*
X024178Y011056D03*
X024168Y011066D03*
D108*
X022763Y010626D03*
X022783Y009006D03*
D109*
X022783Y009016D03*
X022783Y010176D03*
X022073Y010366D03*
X022133Y011586D03*
D110*
X022413Y011296D03*
X022343Y011176D03*
X022793Y011156D03*
X023163Y011336D03*
X023243Y011176D03*
X023243Y011166D03*
X024213Y011006D03*
X024223Y010996D03*
X024233Y010986D03*
X024233Y010976D03*
X024243Y010966D03*
X024253Y010946D03*
X023553Y009946D03*
X022793Y009876D03*
X022013Y009936D03*
X021823Y010466D03*
X021313Y010946D03*
X021333Y010976D03*
X021343Y010986D03*
X021343Y010996D03*
X021353Y011006D03*
X021363Y011016D03*
X021303Y009126D03*
X021313Y009116D03*
X021323Y009096D03*
X021333Y009086D03*
X021343Y009066D03*
X021353Y009056D03*
X021373Y009026D03*
X024483Y009546D03*
X024483Y009556D03*
X024483Y009566D03*
D111*
X024348Y009056D03*
X024348Y009046D03*
X023648Y011506D03*
X022788Y011896D03*
D112*
X022773Y010646D03*
X022783Y009046D03*
D113*
X022783Y009056D03*
X022783Y011856D03*
D114*
X022788Y009066D03*
D115*
X022783Y009076D03*
D116*
X022783Y009096D03*
D117*
X022788Y009556D03*
X022788Y009566D03*
X022788Y009866D03*
X023528Y010136D03*
X023738Y010486D03*
X024268Y010916D03*
X024268Y010926D03*
X024258Y010936D03*
X024248Y010956D03*
X024278Y010906D03*
X023248Y011186D03*
X023168Y011346D03*
X022338Y011186D03*
X021328Y010966D03*
X021318Y010956D03*
X021308Y010936D03*
X021298Y010926D03*
X021298Y010916D03*
X021278Y009176D03*
X021288Y009156D03*
X021298Y009136D03*
X021318Y009106D03*
X024488Y009576D03*
X024488Y009586D03*
X024488Y009596D03*
X024488Y009606D03*
D118*
X022783Y009116D03*
D119*
X023213Y009906D03*
X023953Y010076D03*
X023963Y010066D03*
X023973Y010056D03*
X023983Y010046D03*
X023993Y010036D03*
X024143Y009676D03*
X023833Y009376D03*
X023823Y009366D03*
X023813Y009356D03*
X023803Y009346D03*
X023793Y009336D03*
X023863Y009156D03*
X023853Y009146D03*
X023843Y009136D03*
X023833Y009126D03*
X021793Y009326D03*
X021783Y009336D03*
X021773Y009346D03*
X021713Y009396D03*
X021703Y009406D03*
X021423Y009676D03*
X021603Y010066D03*
X021613Y010076D03*
X021693Y009166D03*
X021703Y009156D03*
X021713Y009146D03*
X021723Y009136D03*
D120*
X022783Y009136D03*
D121*
X022783Y009146D03*
X022783Y011816D03*
D122*
X023178Y011436D03*
X023718Y010576D03*
X024148Y009686D03*
X023778Y009326D03*
X023768Y009316D03*
X023748Y009306D03*
X023738Y009296D03*
X023728Y009286D03*
X023888Y009186D03*
X023888Y009176D03*
X023878Y009166D03*
X023128Y009576D03*
X022448Y009576D03*
X022268Y009576D03*
X022358Y009906D03*
X021588Y010056D03*
X021558Y010016D03*
X021418Y009686D03*
X021808Y009316D03*
X021818Y009306D03*
X021828Y009296D03*
X021838Y009286D03*
X021688Y009176D03*
X021828Y010566D03*
D123*
X022783Y009166D03*
D124*
X022783Y009176D03*
X022783Y010206D03*
X022783Y011806D03*
D125*
X022783Y009186D03*
D126*
X022783Y009196D03*
D127*
X022783Y009206D03*
D128*
X022783Y009226D03*
D129*
X022783Y009246D03*
X022783Y010216D03*
X022793Y010716D03*
D130*
X022778Y010936D03*
X022778Y010946D03*
X022778Y010956D03*
X022778Y010966D03*
X022788Y009256D03*
D131*
X022783Y009276D03*
X022773Y010906D03*
D132*
X021543Y009286D03*
X024023Y009286D03*
D133*
X022788Y009296D03*
X022778Y010856D03*
D134*
X022773Y010846D03*
X022773Y010836D03*
X022783Y009306D03*
D135*
X022783Y009326D03*
X022783Y010746D03*
X022773Y010756D03*
X022773Y010766D03*
X022773Y010776D03*
D136*
X022788Y009336D03*
D137*
X022783Y009346D03*
X022783Y011746D03*
D138*
X022788Y009366D03*
D139*
X022788Y009376D03*
D140*
X022788Y009396D03*
D141*
X022783Y009406D03*
X022783Y011726D03*
D142*
X022788Y009416D03*
D143*
X022788Y009436D03*
D144*
X022533Y009446D03*
D145*
X022358Y009506D03*
X023218Y009506D03*
X023528Y009736D03*
D146*
X023323Y009836D03*
X023203Y009716D03*
X023213Y009706D03*
X023213Y009696D03*
X023213Y009686D03*
X023323Y009586D03*
X023213Y009516D03*
X022473Y009836D03*
X022253Y009836D03*
X022243Y009586D03*
X021473Y009886D03*
X021463Y009866D03*
X021453Y009846D03*
X021453Y009836D03*
X021443Y009816D03*
X021443Y009806D03*
X021433Y009796D03*
X021433Y009786D03*
X021433Y009776D03*
X021423Y009766D03*
X021423Y009756D03*
X021413Y009736D03*
X021413Y009726D03*
X021413Y009716D03*
X021413Y009706D03*
X021853Y010586D03*
X024093Y009886D03*
X024103Y009876D03*
X024103Y009866D03*
X024113Y009856D03*
X024113Y009846D03*
X024123Y009826D03*
X024123Y009816D03*
X024133Y009806D03*
X024133Y009796D03*
X024143Y009776D03*
X024143Y009766D03*
X024153Y009746D03*
X024153Y009736D03*
X024153Y009716D03*
D147*
X023808Y010226D03*
X023368Y009796D03*
X023368Y009786D03*
X023358Y009806D03*
X023348Y009816D03*
X023208Y009746D03*
X023068Y009806D03*
X023058Y009796D03*
X023048Y009776D03*
X023048Y009646D03*
X023058Y009636D03*
X023058Y009626D03*
X023068Y009616D03*
X023368Y009636D03*
X022528Y009756D03*
X022518Y009786D03*
X022508Y009796D03*
X022358Y009746D03*
X022358Y009676D03*
X022218Y009616D03*
X022208Y009626D03*
X022198Y009646D03*
X022198Y009786D03*
X022208Y009796D03*
X022508Y009626D03*
X022518Y009636D03*
X021868Y010596D03*
D148*
X021898Y010616D03*
X021748Y010236D03*
X021848Y009746D03*
X022838Y009656D03*
D149*
X022783Y009656D03*
X021853Y009666D03*
X023643Y010626D03*
D150*
X023203Y009756D03*
D151*
X023218Y009916D03*
X023818Y010236D03*
X022358Y009916D03*
X022358Y009766D03*
D152*
X022498Y009986D03*
X022788Y010696D03*
D153*
X022788Y010016D03*
X022788Y010006D03*
X022788Y009996D03*
X022788Y011666D03*
D154*
X022783Y010056D03*
X022783Y010046D03*
X022783Y010036D03*
X022783Y010026D03*
D155*
X022788Y010066D03*
D156*
X022788Y010096D03*
D157*
X022783Y010186D03*
D158*
X022783Y010196D03*
D159*
X022778Y010226D03*
D160*
X022783Y010246D03*
D161*
X022783Y010256D03*
X022783Y011696D03*
D162*
X022783Y010266D03*
D163*
X022778Y010276D03*
D164*
X022783Y010316D03*
D165*
X022783Y010326D03*
D166*
X022783Y010336D03*
D167*
X022783Y010346D03*
D168*
X022778Y010656D03*
X023358Y010356D03*
X022788Y011846D03*
D169*
X022158Y010356D03*
D170*
X023448Y010366D03*
X022788Y011866D03*
D171*
X022038Y010376D03*
D172*
X023533Y010386D03*
D173*
X022783Y010666D03*
D174*
X022788Y010686D03*
D175*
X022788Y010736D03*
X022778Y010816D03*
X022778Y010826D03*
D176*
X022778Y010886D03*
X022778Y010896D03*
D177*
X022778Y010976D03*
X022778Y010986D03*
D178*
X022778Y011006D03*
X022788Y011786D03*
D179*
X023468Y011576D03*
X022098Y011576D03*
D180*
X022183Y011596D03*
X023393Y011596D03*
D181*
X022783Y011606D03*
D182*
X022788Y011616D03*
D183*
X022788Y011636D03*
D184*
X022783Y011686D03*
D185*
X022788Y011706D03*
D186*
X022788Y011716D03*
D187*
X022783Y011736D03*
D188*
X022783Y011776D03*
D189*
X022788Y011796D03*
M02*
