G75*
G70*
%OFA0B0*%
%FSLAX24Y24*%
%IPPOS*%
%LPD*%
%AMOC8*
5,1,8,0,0,1.08239X$1,22.5*
%
%ADD10OC8,0.0720*%
%ADD11R,0.0820X0.0820*%
%ADD12C,0.0820*%
D10*
X001151Y001206D03*
X002151Y001206D03*
X002151Y002206D03*
X001151Y002206D03*
X001151Y003206D03*
X002151Y003206D03*
X002151Y004206D03*
X001151Y004206D03*
X001151Y005206D03*
X002151Y005206D03*
X002151Y006206D03*
X001151Y006206D03*
X001151Y007206D03*
X002151Y007206D03*
X002151Y008206D03*
X001151Y008206D03*
X001151Y009206D03*
X002151Y009206D03*
X002151Y010206D03*
X001151Y010206D03*
X001151Y011206D03*
X002151Y011206D03*
X002151Y012206D03*
X001151Y012206D03*
X001151Y013206D03*
X002151Y013206D03*
X002151Y014206D03*
X001151Y014206D03*
X001151Y015206D03*
X002151Y015206D03*
X002151Y016206D03*
X001151Y016206D03*
X001151Y017206D03*
X002151Y017206D03*
X002151Y018206D03*
X001151Y018206D03*
X001151Y019206D03*
X002151Y019206D03*
X002151Y020206D03*
X001151Y020206D03*
X020651Y017006D03*
X021651Y017006D03*
X022651Y017006D03*
X021651Y014206D03*
X020651Y014206D03*
X023151Y003406D03*
X023151Y002406D03*
X024151Y001206D03*
X025151Y001206D03*
D11*
X016151Y001206D03*
X007651Y001206D03*
X012651Y020206D03*
X021651Y020206D03*
D12*
X020651Y020206D03*
X019651Y020206D03*
X018651Y020206D03*
X017651Y020206D03*
X016651Y020206D03*
X015651Y020206D03*
X014651Y020206D03*
X011651Y020206D03*
X010651Y020206D03*
X009651Y020206D03*
X008651Y020206D03*
X007651Y020206D03*
X006651Y020206D03*
X005651Y020206D03*
X008651Y001206D03*
X009651Y001206D03*
X010651Y001206D03*
X011651Y001206D03*
X012651Y001206D03*
X013651Y001206D03*
X014651Y001206D03*
X017151Y001206D03*
X018151Y001206D03*
X019151Y001206D03*
X020151Y001206D03*
X021151Y001206D03*
X022151Y001206D03*
X023151Y001206D03*
M02*
