G75*
G70*
%OFA0B0*%
%FSLAX24Y24*%
%IPPOS*%
%LPD*%
%AMOC8*
5,1,8,0,0,1.08239X$1,22.5*
%
%ADD10OC8,0.0640*%
%ADD11R,0.0740X0.0740*%
%ADD12C,0.0740*%
%ADD13C,0.0320*%
%ADD14C,0.0160*%
%ADD15C,0.0436*%
%ADD16C,0.0100*%
%ADD17C,0.0400*%
D10*
X001151Y001206D03*
X002151Y001206D03*
X002151Y002206D03*
X001151Y002206D03*
X001151Y003206D03*
X002151Y003206D03*
X002151Y004206D03*
X001151Y004206D03*
X001151Y005206D03*
X002151Y005206D03*
X002151Y006206D03*
X001151Y006206D03*
X001151Y007206D03*
X002151Y007206D03*
X002151Y008206D03*
X001151Y008206D03*
X001151Y009206D03*
X002151Y009206D03*
X002151Y010206D03*
X001151Y010206D03*
X001151Y011206D03*
X002151Y011206D03*
X002151Y012206D03*
X001151Y012206D03*
X001151Y013206D03*
X002151Y013206D03*
X002151Y014206D03*
X001151Y014206D03*
X001151Y015206D03*
X002151Y015206D03*
X002151Y016206D03*
X001151Y016206D03*
X001151Y017206D03*
X002151Y017206D03*
X002151Y018206D03*
X001151Y018206D03*
X001151Y019206D03*
X002151Y019206D03*
X002151Y020206D03*
X001151Y020206D03*
X020651Y017006D03*
X021651Y017006D03*
X022651Y017006D03*
X021651Y014206D03*
X020651Y014206D03*
X023151Y003406D03*
X023151Y002406D03*
X024151Y001206D03*
X025151Y001206D03*
D11*
X016151Y001206D03*
X007651Y001206D03*
X012651Y020206D03*
X021651Y020206D03*
D12*
X020651Y020206D03*
X019651Y020206D03*
X018651Y020206D03*
X017651Y020206D03*
X016651Y020206D03*
X015651Y020206D03*
X014651Y020206D03*
X011651Y020206D03*
X010651Y020206D03*
X009651Y020206D03*
X008651Y020206D03*
X007651Y020206D03*
X006651Y020206D03*
X005651Y020206D03*
X008651Y001206D03*
X009651Y001206D03*
X010651Y001206D03*
X011651Y001206D03*
X012651Y001206D03*
X013651Y001206D03*
X014651Y001206D03*
X017151Y001206D03*
X018151Y001206D03*
X019151Y001206D03*
X020151Y001206D03*
X021151Y001206D03*
X022151Y001206D03*
X023151Y001206D03*
D13*
X024151Y001206D02*
X024151Y005006D01*
X023651Y005506D01*
X018251Y005506D01*
X013851Y009906D01*
X012051Y009906D01*
X012651Y010506D02*
X014051Y010506D01*
X018451Y006106D01*
X023951Y006106D01*
X025151Y004906D01*
X025151Y001206D01*
X023151Y003406D02*
X019551Y003406D01*
X013851Y009106D01*
X011451Y009106D01*
X010151Y008306D02*
X013851Y008306D01*
X020251Y001906D01*
X020951Y001906D01*
X021151Y001706D01*
X021151Y001206D01*
X020151Y001206D02*
X020151Y001306D01*
X013651Y007806D01*
X009751Y007806D01*
X009251Y008306D01*
X009251Y011906D01*
X006951Y014206D01*
X002151Y014206D01*
X002551Y014706D02*
X007251Y014706D01*
X009751Y012206D01*
X009751Y008706D01*
X010151Y008306D01*
X009251Y007306D02*
X013351Y007306D01*
X019051Y001606D01*
X019051Y001306D01*
X019151Y001206D01*
X018151Y001206D02*
X018151Y001706D01*
X013051Y006806D01*
X008951Y006806D01*
X008251Y007506D01*
X008251Y011406D01*
X006451Y013206D01*
X002151Y013206D01*
X002651Y012706D02*
X006251Y012706D01*
X007751Y011206D01*
X007751Y006806D01*
X008251Y006306D01*
X012751Y006306D01*
X017151Y001906D01*
X017151Y001206D01*
X016151Y001206D02*
X016151Y002106D01*
X012551Y005706D01*
X008051Y005706D01*
X007251Y006506D01*
X007251Y011006D01*
X006051Y012206D01*
X002151Y012206D01*
X002651Y010706D02*
X005651Y010706D01*
X006651Y009706D01*
X006651Y006206D01*
X007651Y005206D01*
X012151Y005206D01*
X014651Y002706D01*
X014651Y001206D01*
X013651Y001206D02*
X013651Y002706D01*
X011651Y004706D01*
X007151Y004706D01*
X006151Y005706D01*
X006151Y009206D01*
X005151Y010206D01*
X002151Y010206D01*
X002651Y009706D02*
X004651Y009706D01*
X005651Y008706D01*
X005651Y005206D01*
X006651Y004206D01*
X011151Y004206D01*
X012651Y002706D01*
X012651Y001206D01*
X011651Y001206D02*
X011651Y002706D01*
X010651Y003706D01*
X006151Y003706D01*
X005151Y004706D01*
X005151Y008206D01*
X004151Y009206D01*
X002151Y009206D01*
X002651Y008706D02*
X003651Y008706D01*
X004651Y007706D01*
X004651Y004206D01*
X005651Y003206D01*
X010151Y003206D01*
X010651Y002706D01*
X010651Y001206D01*
X009651Y001206D02*
X009651Y002206D01*
X009151Y002706D01*
X005151Y002706D01*
X004151Y003706D01*
X004151Y007206D01*
X003151Y008206D01*
X002151Y008206D01*
X002651Y007706D02*
X003651Y006706D01*
X003651Y003206D01*
X004651Y002206D01*
X008151Y002206D01*
X008651Y001706D01*
X008651Y001206D01*
X007651Y001206D02*
X007151Y001706D01*
X004151Y001706D01*
X003151Y002706D01*
X003151Y006206D01*
X002151Y007206D01*
X008751Y007806D02*
X009251Y007306D01*
X008751Y007806D02*
X008751Y011706D01*
X006751Y013706D01*
X002651Y013706D01*
X002151Y017206D02*
X012151Y017206D01*
X012651Y017706D01*
X012651Y020206D01*
X011651Y020206D02*
X011651Y018206D01*
X011151Y017706D01*
X002651Y017706D01*
X002151Y018206D02*
X010151Y018206D01*
X010651Y018706D01*
X010651Y020206D01*
X009651Y020206D02*
X009651Y019206D01*
X009151Y018706D01*
X002651Y018706D01*
X002151Y020206D02*
X004551Y020206D01*
X005051Y019356D01*
X006151Y019356D01*
X006651Y020206D01*
X006951Y019206D02*
X007651Y019206D01*
X008651Y020206D01*
X013651Y015606D02*
X022851Y015606D01*
X023651Y016406D01*
X023651Y018306D01*
X023351Y018606D01*
X022051Y018606D01*
X021651Y019006D01*
X021651Y020206D01*
X020651Y014206D02*
X010851Y014206D01*
D14*
X001651Y000506D02*
X000451Y000506D01*
X000451Y001706D01*
X001151Y002206D01*
X000451Y002706D01*
X000451Y005706D01*
X001151Y006206D01*
X000451Y006706D01*
X000451Y010706D01*
X001151Y011206D01*
X000451Y011706D01*
X000451Y015706D01*
X001151Y016206D01*
X000451Y016706D01*
X000451Y020906D01*
X015651Y020906D01*
X015651Y020206D01*
X015651Y020906D02*
X016151Y020906D01*
X016651Y020406D01*
X016651Y020206D01*
X002651Y018706D02*
X001651Y018706D01*
X001151Y018206D01*
X001651Y017706D02*
X002651Y017706D01*
X001651Y017706D02*
X001151Y017206D01*
X001651Y014706D02*
X002551Y014706D01*
X001651Y014706D02*
X001151Y014206D01*
X001651Y013706D02*
X002651Y013706D01*
X001651Y013706D02*
X001151Y013206D01*
X001651Y012706D02*
X002651Y012706D01*
X001651Y012706D02*
X001151Y012206D01*
X001651Y010706D02*
X002651Y010706D01*
X001651Y010706D02*
X001151Y010206D01*
X001651Y009706D02*
X002651Y009706D01*
X001651Y009706D02*
X001151Y009206D01*
X001651Y008706D02*
X002651Y008706D01*
X002651Y007706D02*
X001651Y007706D01*
X001151Y007206D01*
X001151Y008206D02*
X001651Y008706D01*
X002151Y001206D02*
X002851Y000506D01*
X021451Y000506D01*
X022151Y001206D01*
X002151Y001206D02*
X001651Y000506D01*
D15*
X011451Y009106D03*
X012051Y009906D03*
X012651Y010506D03*
X010851Y014206D03*
X013651Y015606D03*
X013151Y017006D03*
X014151Y017906D03*
X017651Y017906D03*
X018651Y017006D03*
X006951Y019206D03*
D16*
X006541Y019076D02*
X006394Y019076D01*
X006394Y019077D01*
X006433Y019105D01*
X006446Y019128D01*
X006465Y019147D01*
X006483Y019191D01*
X006523Y019259D01*
X006523Y019121D01*
X006541Y019076D01*
X006511Y019076D02*
X006511Y019239D01*
X006523Y019166D02*
X006473Y019166D01*
X006701Y019562D02*
X006739Y019626D01*
X006766Y019626D01*
X006980Y019715D01*
X007143Y019878D01*
X007151Y019898D01*
X007159Y019878D01*
X007322Y019715D01*
X007536Y019626D01*
X007548Y019626D01*
X007498Y019576D01*
X007176Y019576D01*
X007036Y019635D01*
X006866Y019635D01*
X006708Y019569D01*
X006701Y019562D01*
X006751Y019587D02*
X006751Y019626D01*
X006815Y019646D02*
X007487Y019646D01*
X007471Y019653D02*
X007471Y019576D01*
X007351Y019576D02*
X007351Y019703D01*
X007271Y019766D02*
X007031Y019766D01*
X006991Y019726D02*
X006991Y019635D01*
X006871Y019635D02*
X006871Y019670D01*
X007111Y019604D02*
X007111Y019846D01*
X007146Y019886D02*
X007156Y019886D01*
X007231Y019806D02*
X007231Y019576D01*
X008044Y019076D02*
X008594Y019626D01*
X008766Y019626D01*
X008980Y019715D01*
X009143Y019878D01*
X009151Y019898D01*
X009151Y019230D01*
X009208Y019286D02*
X008254Y019286D01*
X008311Y019343D02*
X008311Y019076D01*
X008431Y019076D02*
X008431Y019463D01*
X008374Y019406D02*
X009281Y019406D01*
X009281Y019360D02*
X008998Y019076D01*
X008044Y019076D01*
X008071Y019076D02*
X008071Y019103D01*
X008134Y019166D02*
X009088Y019166D01*
X009031Y019110D02*
X009031Y019766D01*
X009271Y019766D01*
X009271Y019350D01*
X009281Y019360D02*
X009281Y019756D01*
X009159Y019878D01*
X009151Y019898D01*
X009146Y019886D02*
X009156Y019886D01*
X008911Y019686D02*
X008911Y019076D01*
X008791Y019076D02*
X008791Y019637D01*
X008815Y019646D02*
X009281Y019646D01*
X009281Y019526D02*
X008494Y019526D01*
X008551Y019583D02*
X008551Y019076D01*
X008671Y019076D02*
X008671Y019626D01*
X008191Y019223D02*
X008191Y019076D01*
X009544Y018576D02*
X009861Y018893D01*
X009965Y018997D01*
X010021Y019133D01*
X010021Y019756D01*
X010143Y019878D01*
X010151Y019898D01*
X010159Y019878D01*
X010281Y019756D01*
X010281Y018860D01*
X009998Y018576D01*
X009544Y018576D01*
X009631Y018576D02*
X009631Y018663D01*
X009654Y018686D02*
X010108Y018686D01*
X010111Y018690D02*
X010111Y019846D01*
X010146Y019886D02*
X010156Y019886D01*
X010231Y019806D02*
X010231Y018810D01*
X010228Y018806D02*
X009774Y018806D01*
X009751Y018783D02*
X009751Y018576D01*
X009871Y018576D02*
X009871Y018903D01*
X009894Y018926D02*
X010281Y018926D01*
X010281Y019046D02*
X009985Y019046D01*
X009991Y019060D02*
X009991Y018576D01*
X010544Y018076D02*
X010861Y018393D01*
X010965Y018497D01*
X011021Y018633D01*
X011021Y019756D01*
X011143Y019878D01*
X011151Y019898D01*
X011159Y019878D01*
X011281Y019756D01*
X011281Y018360D01*
X010998Y018076D01*
X010544Y018076D01*
X010554Y018086D02*
X011008Y018086D01*
X010951Y018076D02*
X010951Y018483D01*
X010914Y018446D02*
X011281Y018446D01*
X011281Y018566D02*
X010993Y018566D01*
X011021Y018686D02*
X011281Y018686D01*
X011281Y018806D02*
X011021Y018806D01*
X011021Y018926D02*
X011281Y018926D01*
X011281Y019046D02*
X011021Y019046D01*
X011021Y019166D02*
X011281Y019166D01*
X011281Y019286D02*
X011021Y019286D01*
X011021Y019406D02*
X011281Y019406D01*
X011281Y019526D02*
X011021Y019526D01*
X011021Y019646D02*
X011281Y019646D01*
X011271Y019766D02*
X011031Y019766D01*
X011071Y019806D02*
X011071Y018150D01*
X011128Y018206D02*
X010674Y018206D01*
X010711Y018243D02*
X010711Y018076D01*
X010831Y018076D02*
X010831Y018363D01*
X010794Y018326D02*
X011248Y018326D01*
X011191Y018270D02*
X011191Y019846D01*
X011156Y019886D02*
X011146Y019886D01*
X011151Y020515D02*
X011143Y020535D01*
X010980Y020698D01*
X010766Y020786D01*
X010536Y020786D01*
X010322Y020698D01*
X010159Y020535D01*
X010151Y020515D01*
X010143Y020535D01*
X009980Y020698D01*
X009766Y020786D01*
X009536Y020786D01*
X009322Y020698D01*
X009159Y020535D01*
X009151Y020515D01*
X009151Y020956D01*
X009271Y020956D02*
X009271Y020647D01*
X009231Y020606D02*
X009071Y020606D01*
X009031Y020647D02*
X009031Y020956D01*
X008911Y020956D02*
X008911Y020727D01*
X008911Y020726D02*
X009391Y020726D01*
X009391Y020727D02*
X009391Y020956D01*
X009511Y020956D02*
X009511Y020776D01*
X009631Y020786D02*
X009631Y020956D01*
X009751Y020956D02*
X009751Y020786D01*
X009871Y020743D02*
X009871Y020956D01*
X009991Y020956D02*
X009991Y020687D01*
X009911Y020726D02*
X010391Y020726D01*
X010351Y020710D02*
X010351Y020956D01*
X010471Y020956D02*
X010471Y020760D01*
X010591Y020786D02*
X010591Y020956D01*
X010711Y020956D02*
X010711Y020786D01*
X010831Y020760D02*
X010831Y020956D01*
X010951Y020956D02*
X010951Y020710D01*
X010911Y020726D02*
X011391Y020726D01*
X011431Y020743D02*
X011431Y020956D01*
X011551Y020956D02*
X011551Y020786D01*
X011536Y020786D02*
X011322Y020698D01*
X011159Y020535D01*
X011151Y020515D01*
X011191Y020567D02*
X011191Y020956D01*
X011311Y020956D02*
X011311Y020687D01*
X011231Y020606D02*
X011071Y020606D01*
X011071Y020607D02*
X011071Y020956D01*
X011536Y020786D02*
X011766Y020786D01*
X011980Y020698D01*
X012071Y020607D01*
X012071Y020663D01*
X012194Y020786D01*
X013108Y020786D01*
X013231Y020663D01*
X013231Y019750D01*
X013108Y019626D01*
X013021Y019626D01*
X013021Y017633D01*
X012965Y017497D01*
X012861Y017393D01*
X012361Y016893D01*
X012225Y016836D01*
X002531Y016836D01*
X002401Y016706D01*
X002681Y016426D01*
X002681Y015987D01*
X002401Y015706D01*
X002681Y015426D01*
X002681Y015076D01*
X007325Y015076D01*
X007461Y015020D01*
X009961Y012520D01*
X010065Y012416D01*
X010121Y012280D01*
X010121Y008860D01*
X010304Y008676D01*
X013758Y008676D01*
X013698Y008736D01*
X011676Y008736D01*
X011536Y008678D01*
X011366Y008678D01*
X011208Y008744D01*
X011088Y008864D01*
X011023Y009021D01*
X011023Y009192D01*
X011088Y009349D01*
X011208Y009469D01*
X011366Y009535D01*
X011536Y009535D01*
X011676Y009476D01*
X013758Y009476D01*
X013698Y009536D01*
X012276Y009536D01*
X012136Y009478D01*
X011966Y009478D01*
X011808Y009544D01*
X011688Y009664D01*
X011623Y009821D01*
X011623Y009992D01*
X011688Y010149D01*
X011808Y010269D01*
X011966Y010335D01*
X012136Y010335D01*
X012276Y010276D01*
X012283Y010276D01*
X012223Y010421D01*
X012223Y010592D01*
X012288Y010749D01*
X012408Y010869D01*
X012566Y010935D01*
X012736Y010935D01*
X012876Y010876D01*
X014125Y010876D01*
X014261Y010820D01*
X014365Y010716D01*
X018604Y006476D01*
X024025Y006476D01*
X024161Y006420D01*
X024265Y006316D01*
X025465Y005116D01*
X025521Y004980D01*
X025521Y001586D01*
X025681Y001426D01*
X025681Y000987D01*
X025371Y000676D01*
X024931Y000676D01*
X024651Y000957D01*
X024371Y000676D01*
X023931Y000676D01*
X023668Y000940D01*
X023643Y000878D01*
X023480Y000715D01*
X023266Y000626D01*
X023036Y000626D01*
X022822Y000715D01*
X022659Y000878D01*
X022618Y000978D01*
X022596Y000934D01*
X022548Y000868D01*
X022490Y000810D01*
X022424Y000762D01*
X022351Y000725D01*
X022351Y000456D01*
X022471Y000456D02*
X022471Y000796D01*
X022485Y000806D02*
X022731Y000806D01*
X022711Y000826D02*
X022711Y000456D01*
X022831Y000456D02*
X022831Y000711D01*
X022891Y000686D02*
X021411Y000686D01*
X021391Y000678D02*
X021391Y000456D01*
X021511Y000456D02*
X021511Y000746D01*
X021480Y000715D02*
X021643Y000878D01*
X021684Y000978D01*
X021706Y000934D01*
X021754Y000868D01*
X021812Y000810D01*
X021878Y000762D01*
X021951Y000725D01*
X022029Y000699D01*
X022101Y000688D01*
X022101Y001156D01*
X022201Y001156D01*
X022201Y000688D01*
X022273Y000699D01*
X022351Y000725D01*
X022231Y000693D02*
X022231Y000456D01*
X022111Y000456D02*
X022111Y001156D01*
X022111Y001257D02*
X022111Y003036D01*
X022231Y003036D02*
X022231Y001720D01*
X022201Y001725D02*
X022201Y001257D01*
X022101Y001257D01*
X022101Y001725D01*
X022029Y001714D01*
X021951Y001688D01*
X021878Y001651D01*
X021812Y001603D01*
X021754Y001545D01*
X021706Y001479D01*
X021684Y001435D01*
X021643Y001535D01*
X021521Y001657D01*
X021521Y001780D01*
X021465Y001916D01*
X021265Y002116D01*
X021265Y002116D01*
X021161Y002220D01*
X021025Y002276D01*
X020404Y002276D01*
X019644Y003036D01*
X022771Y003036D01*
X022901Y002906D01*
X022621Y002626D01*
X022621Y002187D01*
X022931Y001876D01*
X023371Y001876D01*
X023681Y002187D01*
X023681Y002626D01*
X023401Y002906D01*
X023681Y003187D01*
X023681Y003626D01*
X023371Y003936D01*
X022931Y003936D01*
X022771Y003776D01*
X019704Y003776D01*
X018344Y005136D01*
X023498Y005136D01*
X023781Y004853D01*
X023781Y001586D01*
X023668Y001473D01*
X023643Y001535D01*
X023480Y001698D01*
X023266Y001786D01*
X023036Y001786D01*
X022822Y001698D01*
X022659Y001535D01*
X022618Y001435D01*
X022596Y001479D01*
X022548Y001545D01*
X022490Y001603D01*
X022424Y001651D01*
X022351Y001688D01*
X022351Y003036D01*
X022471Y003036D02*
X022471Y001617D01*
X022430Y001646D02*
X022771Y001646D01*
X022831Y001702D02*
X022831Y001977D01*
X022801Y002006D02*
X021374Y002006D01*
X021391Y001990D02*
X021391Y003036D01*
X021511Y003036D02*
X021511Y001804D01*
X021521Y001766D02*
X022987Y001766D01*
X022951Y001751D02*
X022951Y001876D01*
X022921Y001886D02*
X021477Y001886D01*
X021531Y001646D02*
X021872Y001646D01*
X021871Y001646D02*
X021871Y003036D01*
X021991Y003036D02*
X021991Y001701D01*
X022101Y001646D02*
X022201Y001646D01*
X022201Y001725D02*
X022273Y001714D01*
X022351Y001688D01*
X022201Y001526D02*
X022101Y001526D01*
X022101Y001406D02*
X022201Y001406D01*
X022201Y001286D02*
X022101Y001286D01*
X021751Y001541D02*
X021751Y003036D01*
X021631Y003036D02*
X021631Y001547D01*
X021646Y001526D02*
X021741Y001526D01*
X021271Y002110D02*
X021271Y003036D01*
X021151Y003036D02*
X021151Y002224D01*
X021097Y002246D02*
X022621Y002246D01*
X022621Y002366D02*
X020314Y002366D01*
X020311Y002370D02*
X020311Y003036D01*
X020431Y003036D02*
X020431Y002276D01*
X020551Y002276D02*
X020551Y003036D01*
X020671Y003036D02*
X020671Y002276D01*
X020791Y002276D02*
X020791Y003036D01*
X020911Y003036D02*
X020911Y002276D01*
X021031Y002274D02*
X021031Y003036D01*
X021031Y003776D02*
X021031Y005136D01*
X021151Y005136D02*
X021151Y003776D01*
X021271Y003776D02*
X021271Y005136D01*
X021391Y005136D02*
X021391Y003776D01*
X021511Y003776D02*
X021511Y005136D01*
X021631Y005136D02*
X021631Y003776D01*
X021751Y003776D02*
X021751Y005136D01*
X021871Y005136D02*
X021871Y003776D01*
X021991Y003776D02*
X021991Y005136D01*
X022111Y005136D02*
X022111Y003776D01*
X022231Y003776D02*
X022231Y005136D01*
X022351Y005136D02*
X022351Y003776D01*
X022471Y003776D02*
X022471Y005136D01*
X022591Y005136D02*
X022591Y003776D01*
X022711Y003776D02*
X022711Y005136D01*
X022831Y005136D02*
X022831Y003836D01*
X022801Y003806D02*
X019674Y003806D01*
X019711Y003776D02*
X019711Y005136D01*
X019831Y005136D02*
X019831Y003776D01*
X019951Y003776D02*
X019951Y005136D01*
X020071Y005136D02*
X020071Y003776D01*
X020191Y003776D02*
X020191Y005136D01*
X020311Y005136D02*
X020311Y003776D01*
X020431Y003776D02*
X020431Y005136D01*
X020551Y005136D02*
X020551Y003776D01*
X020671Y003776D02*
X020671Y005136D01*
X020791Y005136D02*
X020791Y003776D01*
X020911Y003776D02*
X020911Y005136D01*
X019591Y005136D02*
X019591Y003890D01*
X019554Y003926D02*
X022921Y003926D01*
X022951Y003936D02*
X022951Y005136D01*
X023071Y005136D02*
X023071Y003936D01*
X023191Y003936D02*
X023191Y005136D01*
X023311Y005136D02*
X023311Y003936D01*
X023381Y003926D02*
X023781Y003926D01*
X023781Y003806D02*
X023501Y003806D01*
X023551Y003756D02*
X023551Y005083D01*
X023508Y005126D02*
X018354Y005126D01*
X018391Y005136D02*
X018391Y005090D01*
X018474Y005006D02*
X023628Y005006D01*
X023671Y004963D02*
X023671Y003636D01*
X023681Y003566D02*
X023781Y003566D01*
X023781Y003446D02*
X023681Y003446D01*
X023681Y003326D02*
X023781Y003326D01*
X023781Y003206D02*
X023681Y003206D01*
X023671Y003177D02*
X023671Y002636D01*
X023681Y002606D02*
X023781Y002606D01*
X023781Y002486D02*
X023681Y002486D01*
X023681Y002366D02*
X023781Y002366D01*
X023781Y002246D02*
X023681Y002246D01*
X023671Y002177D02*
X023671Y001476D01*
X023646Y001526D02*
X023721Y001526D01*
X023781Y001646D02*
X023531Y001646D01*
X023551Y001627D02*
X023551Y002057D01*
X023501Y002006D02*
X023781Y002006D01*
X023781Y001886D02*
X023381Y001886D01*
X023311Y001876D02*
X023311Y001768D01*
X023315Y001766D02*
X023781Y001766D01*
X023781Y002126D02*
X023621Y002126D01*
X023431Y001937D02*
X023431Y001718D01*
X023191Y001786D02*
X023191Y001876D01*
X023071Y001876D02*
X023071Y001786D01*
X022711Y001587D02*
X022711Y002097D01*
X022681Y002126D02*
X021254Y002126D01*
X020661Y001536D02*
X020659Y001535D01*
X020651Y001515D01*
X020643Y001535D01*
X020641Y001536D01*
X020661Y001536D01*
X020656Y001526D02*
X020646Y001526D01*
X020651Y000898D02*
X020659Y000878D01*
X020822Y000715D01*
X021036Y000626D01*
X021266Y000626D01*
X021480Y000715D01*
X021571Y000806D02*
X021817Y000806D01*
X021871Y000767D02*
X021871Y000456D01*
X021991Y000456D02*
X021991Y000712D01*
X022101Y000806D02*
X022201Y000806D01*
X022201Y000926D02*
X022101Y000926D01*
X022101Y001046D02*
X022201Y001046D01*
X022590Y000926D02*
X022639Y000926D01*
X022591Y000927D02*
X022591Y000456D01*
X022951Y000456D02*
X022951Y000662D01*
X023071Y000626D02*
X023071Y000456D01*
X023191Y000456D02*
X023191Y000626D01*
X023311Y000645D02*
X023311Y000456D01*
X023431Y000456D02*
X023431Y000695D01*
X023411Y000686D02*
X023921Y000686D01*
X023911Y000697D02*
X023911Y000456D01*
X024031Y000456D02*
X024031Y000676D01*
X024151Y000676D02*
X024151Y000456D01*
X024271Y000456D02*
X024271Y000676D01*
X024381Y000686D02*
X024921Y000686D01*
X024991Y000676D02*
X024991Y000456D01*
X025111Y000456D02*
X025111Y000676D01*
X025231Y000676D02*
X025231Y000456D01*
X025351Y000456D02*
X025351Y000676D01*
X025381Y000686D02*
X025701Y000686D01*
X025701Y000638D02*
X025696Y000620D01*
X025701Y000589D01*
X025701Y000557D01*
X025704Y000549D01*
X025704Y000547D01*
X025689Y000502D01*
X025655Y000468D01*
X025610Y000453D01*
X025608Y000453D01*
X025601Y000456D01*
X025569Y000456D01*
X025537Y000461D01*
X025519Y000456D01*
X000571Y000456D01*
X000545Y000462D01*
X000484Y000491D01*
X000436Y000539D01*
X000406Y000601D01*
X000401Y000626D01*
X000401Y020687D01*
X000406Y020716D01*
X000401Y020736D01*
X000401Y020752D01*
X000393Y020770D01*
X000390Y020799D01*
X000405Y020868D01*
X000449Y020923D01*
X000513Y020953D01*
X000548Y020956D01*
X000549Y020956D01*
X000598Y020956D01*
X000599Y020956D01*
X025519Y020956D01*
X025537Y020952D01*
X025569Y020956D01*
X025601Y020956D01*
X025608Y020960D01*
X025610Y020960D01*
X025655Y020945D01*
X025689Y020911D01*
X025704Y020866D01*
X025704Y020864D01*
X025701Y020856D01*
X025701Y020824D01*
X025696Y020793D01*
X025701Y020775D01*
X025701Y000638D01*
X025701Y000566D02*
X000422Y000566D01*
X000401Y000686D02*
X000921Y000686D01*
X000931Y000676D02*
X001371Y000676D01*
X001681Y000987D01*
X001681Y001426D01*
X001371Y001736D01*
X000931Y001736D01*
X000621Y001426D01*
X000621Y000987D01*
X000931Y000676D01*
X000991Y000676D02*
X000991Y000456D01*
X001111Y000456D02*
X001111Y000676D01*
X001231Y000676D02*
X001231Y000456D01*
X001351Y000456D02*
X001351Y000676D01*
X001381Y000686D02*
X007134Y000686D01*
X007111Y000710D02*
X007111Y000456D01*
X007231Y000456D02*
X007231Y000626D01*
X007194Y000626D02*
X008108Y000626D01*
X008231Y000750D01*
X008231Y000806D01*
X008322Y000715D01*
X008536Y000626D01*
X008766Y000626D01*
X008980Y000715D01*
X009143Y000878D01*
X009151Y000898D01*
X009151Y000456D01*
X009271Y000456D02*
X009271Y000766D01*
X009231Y000806D02*
X009071Y000806D01*
X009031Y000766D02*
X009031Y000456D01*
X008911Y000456D02*
X008911Y000686D01*
X009391Y000686D01*
X009391Y000456D01*
X009511Y000456D02*
X009511Y000637D01*
X009536Y000626D02*
X009766Y000626D01*
X009980Y000715D01*
X010143Y000878D01*
X010151Y000898D01*
X010159Y000878D01*
X010322Y000715D01*
X010536Y000626D01*
X010766Y000626D01*
X010980Y000715D01*
X011143Y000878D01*
X011151Y000898D01*
X011159Y000878D01*
X011322Y000715D01*
X011536Y000626D01*
X011766Y000626D01*
X011980Y000715D01*
X012143Y000878D01*
X012151Y000898D01*
X012151Y000456D01*
X012271Y000456D02*
X012271Y000766D01*
X012231Y000806D02*
X012071Y000806D01*
X012031Y000766D02*
X012031Y000456D01*
X011911Y000456D02*
X011911Y000686D01*
X012391Y000686D01*
X012391Y000456D01*
X012511Y000456D02*
X012511Y000637D01*
X012536Y000626D02*
X012322Y000715D01*
X012159Y000878D01*
X012151Y000898D01*
X011791Y000637D02*
X011791Y000456D01*
X011671Y000456D02*
X011671Y000626D01*
X011551Y000626D02*
X011551Y000456D01*
X011431Y000456D02*
X011431Y000670D01*
X011391Y000686D02*
X010911Y000686D01*
X010951Y000703D02*
X010951Y000456D01*
X011071Y000456D02*
X011071Y000806D01*
X011231Y000806D01*
X011191Y000846D02*
X011191Y000456D01*
X011311Y000456D02*
X011311Y000726D01*
X010831Y000653D02*
X010831Y000456D01*
X010711Y000456D02*
X010711Y000626D01*
X010591Y000626D02*
X010591Y000456D01*
X010471Y000456D02*
X010471Y000653D01*
X010391Y000686D02*
X009911Y000686D01*
X009871Y000670D02*
X009871Y000456D01*
X009991Y000456D02*
X009991Y000726D01*
X010071Y000806D02*
X010231Y000806D01*
X010231Y000456D01*
X010351Y000456D02*
X010351Y000703D01*
X010111Y000846D02*
X010111Y000456D01*
X009751Y000456D02*
X009751Y000626D01*
X009631Y000626D02*
X009631Y000456D01*
X009536Y000626D02*
X009322Y000715D01*
X009159Y000878D01*
X009151Y000898D01*
X008791Y000637D02*
X008791Y000456D01*
X008671Y000456D02*
X008671Y000626D01*
X008551Y000626D02*
X008551Y000456D01*
X008431Y000456D02*
X008431Y000670D01*
X008391Y000686D02*
X008168Y000686D01*
X008191Y000710D02*
X008191Y000456D01*
X008311Y000456D02*
X008311Y000726D01*
X008071Y000626D02*
X008071Y000456D01*
X007951Y000456D02*
X007951Y000626D01*
X007831Y000626D02*
X007831Y000456D01*
X007711Y000456D02*
X007711Y000626D01*
X007591Y000626D02*
X007591Y000456D01*
X007471Y000456D02*
X007471Y000626D01*
X007351Y000626D02*
X007351Y000456D01*
X007194Y000626D02*
X007071Y000750D01*
X007071Y001263D01*
X006998Y001336D01*
X004077Y001336D01*
X003941Y001393D01*
X003837Y001497D01*
X003837Y001497D01*
X002837Y002497D01*
X002781Y002633D01*
X002781Y006053D01*
X002681Y006153D01*
X002681Y005987D01*
X002401Y005706D01*
X002681Y005426D01*
X002681Y004987D01*
X002401Y004706D01*
X002681Y004426D01*
X002681Y003987D01*
X002401Y003706D01*
X002681Y003426D01*
X002681Y002987D01*
X002401Y002706D01*
X002681Y002426D01*
X002681Y001987D01*
X002371Y001676D01*
X001931Y001676D01*
X001621Y001987D01*
X001621Y002426D01*
X001901Y002706D01*
X001651Y002957D01*
X001371Y002676D01*
X000931Y002676D01*
X000621Y002987D01*
X000621Y003426D01*
X000901Y003706D01*
X000621Y003987D01*
X000621Y004426D01*
X000901Y004706D01*
X000621Y004987D01*
X000621Y005426D01*
X000931Y005736D01*
X001371Y005736D01*
X001651Y005456D01*
X001901Y005706D01*
X001621Y005987D01*
X001621Y006426D01*
X001901Y006706D01*
X001651Y006957D01*
X001371Y006676D01*
X000931Y006676D01*
X000621Y006987D01*
X000621Y007426D01*
X000901Y007706D01*
X000621Y007987D01*
X000621Y008426D01*
X000901Y008706D01*
X000621Y008987D01*
X000621Y009426D01*
X000901Y009706D01*
X000621Y009987D01*
X000621Y010426D01*
X000931Y010736D01*
X001271Y010736D01*
X001271Y010736D01*
X001201Y010736D01*
X001201Y011156D01*
X001101Y011156D01*
X001101Y010736D01*
X000956Y010736D01*
X000681Y011012D01*
X000681Y011156D01*
X001101Y011156D01*
X001101Y011256D01*
X000681Y011256D01*
X000681Y011401D01*
X000956Y011676D01*
X001101Y011676D01*
X001101Y011257D01*
X001201Y011257D01*
X001201Y011676D01*
X001346Y011676D01*
X001621Y011401D01*
X001621Y011256D01*
X001201Y011256D01*
X001201Y011156D01*
X001621Y011156D01*
X001621Y011012D01*
X001606Y010996D01*
X001621Y010996D01*
X001621Y011426D01*
X001901Y011706D01*
X001651Y011957D01*
X001371Y011676D01*
X000931Y011676D01*
X000621Y011987D01*
X000621Y012426D01*
X000901Y012706D01*
X000621Y012987D01*
X000621Y013426D01*
X000901Y013706D01*
X000621Y013987D01*
X000621Y014426D01*
X000901Y014706D01*
X000621Y014987D01*
X000621Y015426D01*
X000931Y015736D01*
X001371Y015736D01*
X001651Y015456D01*
X001901Y015706D01*
X001621Y015987D01*
X001621Y016426D01*
X001901Y016706D01*
X001651Y016957D01*
X001371Y016676D01*
X000931Y016676D01*
X000621Y016987D01*
X000621Y017426D01*
X000901Y017706D01*
X000621Y017987D01*
X000621Y018426D01*
X000901Y018706D01*
X000621Y018987D01*
X000621Y019426D01*
X000901Y019706D01*
X000621Y019987D01*
X000621Y020426D01*
X000931Y020736D01*
X001371Y020736D01*
X001651Y020456D01*
X001931Y020736D01*
X002371Y020736D01*
X002531Y020576D01*
X004525Y020576D01*
X004573Y020583D01*
X004598Y020576D01*
X004625Y020576D01*
X004669Y020558D01*
X004715Y020546D01*
X004736Y020530D01*
X004761Y020520D01*
X004794Y020486D01*
X004833Y020458D01*
X004846Y020435D01*
X004865Y020416D01*
X004883Y020372D01*
X005125Y019960D01*
X005071Y020091D01*
X005071Y020052D01*
X005071Y020091D02*
X005071Y020322D01*
X005071Y020956D01*
X005191Y020956D02*
X005191Y020567D01*
X005159Y020535D02*
X005071Y020322D01*
X005089Y020366D02*
X004886Y020366D01*
X004831Y020459D02*
X004831Y020956D01*
X004951Y020956D02*
X004951Y020256D01*
X004957Y020246D02*
X005071Y020246D01*
X005071Y020126D02*
X005027Y020126D01*
X005098Y020006D02*
X005106Y020006D01*
X005194Y019843D02*
X005263Y019726D01*
X005311Y019726D01*
X005194Y019843D01*
X005239Y019766D02*
X005271Y019766D01*
X005139Y020486D02*
X004794Y020486D01*
X004711Y020547D02*
X004711Y020956D01*
X004591Y020956D02*
X004591Y020578D01*
X004471Y020576D02*
X004471Y020956D01*
X004351Y020956D02*
X004351Y020576D01*
X004231Y020576D02*
X004231Y020956D01*
X004111Y020956D02*
X004111Y020576D01*
X003991Y020576D02*
X003991Y020956D01*
X003871Y020956D02*
X003871Y020576D01*
X003751Y020576D02*
X003751Y020956D01*
X003631Y020956D02*
X003631Y020576D01*
X003511Y020576D02*
X003511Y020956D01*
X003391Y020956D02*
X003391Y020576D01*
X003271Y020576D02*
X003271Y020956D01*
X003151Y020956D02*
X003151Y020576D01*
X003031Y020576D02*
X003031Y020956D01*
X002911Y020956D02*
X002911Y020576D01*
X002791Y020576D02*
X002791Y020956D01*
X002671Y020956D02*
X002671Y020576D01*
X002551Y020576D02*
X002551Y020956D01*
X002431Y020956D02*
X002431Y020676D01*
X002381Y020726D02*
X005391Y020726D01*
X005431Y020743D02*
X005431Y020956D01*
X005551Y020956D02*
X005551Y020786D01*
X005536Y020786D02*
X005322Y020698D01*
X005159Y020535D01*
X005231Y020606D02*
X002501Y020606D01*
X002311Y020736D02*
X002311Y020956D01*
X002191Y020956D02*
X002191Y020736D01*
X002071Y020736D02*
X002071Y020956D01*
X001951Y020956D02*
X001951Y020736D01*
X001921Y020726D02*
X001381Y020726D01*
X001351Y020736D02*
X001351Y020956D01*
X001471Y020956D02*
X001471Y020636D01*
X001501Y020606D02*
X001801Y020606D01*
X001831Y020636D02*
X001831Y020956D01*
X001711Y020956D02*
X001711Y020516D01*
X001681Y020486D02*
X001621Y020486D01*
X001591Y020516D02*
X001591Y020956D01*
X001231Y020956D02*
X001231Y020736D01*
X001111Y020736D02*
X001111Y020956D01*
X000991Y020956D02*
X000991Y020736D01*
X000921Y020726D02*
X000403Y020726D01*
X000391Y020791D02*
X000391Y020804D01*
X000401Y020846D02*
X025701Y020846D01*
X025701Y020726D02*
X022168Y020726D01*
X022111Y020783D02*
X022111Y020956D01*
X022231Y020956D02*
X022231Y018976D01*
X022204Y018976D02*
X022021Y019160D01*
X022021Y019626D01*
X022108Y019626D01*
X022231Y019750D01*
X022231Y020663D01*
X022108Y020786D01*
X021194Y020786D01*
X021071Y020663D01*
X021071Y020607D01*
X020980Y020698D01*
X020766Y020786D01*
X020536Y020786D01*
X020322Y020698D01*
X020159Y020535D01*
X020151Y020515D01*
X020143Y020535D01*
X019980Y020698D01*
X019766Y020786D01*
X019536Y020786D01*
X019322Y020698D01*
X019159Y020535D01*
X019151Y020515D01*
X019143Y020535D01*
X018980Y020698D01*
X018766Y020786D01*
X018536Y020786D01*
X018322Y020698D01*
X018159Y020535D01*
X018151Y020515D01*
X018151Y020956D01*
X018271Y020956D02*
X018271Y020647D01*
X018231Y020606D02*
X018071Y020606D01*
X018031Y020647D02*
X018031Y020956D01*
X017911Y020956D02*
X017911Y020727D01*
X017911Y020726D02*
X018391Y020726D01*
X018391Y020727D02*
X018391Y020956D01*
X018511Y020956D02*
X018511Y020776D01*
X018631Y020786D02*
X018631Y020956D01*
X018751Y020956D02*
X018751Y020786D01*
X018871Y020743D02*
X018871Y020956D01*
X018991Y020956D02*
X018991Y020687D01*
X018911Y020726D02*
X019391Y020726D01*
X019351Y020710D02*
X019351Y020956D01*
X019471Y020956D02*
X019471Y020760D01*
X019591Y020786D02*
X019591Y020956D01*
X019711Y020956D02*
X019711Y020786D01*
X019831Y020760D02*
X019831Y020956D01*
X019951Y020956D02*
X019951Y020710D01*
X019911Y020726D02*
X020391Y020726D01*
X020431Y020743D02*
X020431Y020956D01*
X020551Y020956D02*
X020551Y020786D01*
X020671Y020786D02*
X020671Y020956D01*
X020791Y020956D02*
X020791Y020776D01*
X020911Y020727D02*
X020911Y020956D01*
X021031Y020956D02*
X021031Y020647D01*
X021134Y020726D02*
X020911Y020726D01*
X021151Y020743D02*
X021151Y020956D01*
X021271Y020956D02*
X021271Y020786D01*
X021391Y020786D02*
X021391Y020956D01*
X021511Y020956D02*
X021511Y020786D01*
X021631Y020786D02*
X021631Y020956D01*
X021751Y020956D02*
X021751Y020786D01*
X021871Y020786D02*
X021871Y020956D01*
X021991Y020956D02*
X021991Y020786D01*
X022231Y020606D02*
X025701Y020606D01*
X025701Y020486D02*
X022231Y020486D01*
X022231Y020366D02*
X025701Y020366D01*
X025701Y020246D02*
X022231Y020246D01*
X022231Y020126D02*
X025701Y020126D01*
X025701Y020006D02*
X022231Y020006D01*
X022231Y019886D02*
X025701Y019886D01*
X025701Y019766D02*
X022231Y019766D01*
X022128Y019646D02*
X025701Y019646D01*
X025701Y019526D02*
X022021Y019526D01*
X022021Y019406D02*
X025701Y019406D01*
X025701Y019286D02*
X022021Y019286D01*
X022021Y019166D02*
X025701Y019166D01*
X025701Y019046D02*
X022134Y019046D01*
X022111Y019070D02*
X022111Y019630D01*
X022204Y018976D02*
X023425Y018976D01*
X023561Y018920D01*
X023665Y018816D01*
X023965Y018516D01*
X024021Y018380D01*
X024021Y016333D01*
X023965Y016197D01*
X023861Y016093D01*
X023061Y015293D01*
X022925Y015236D01*
X013876Y015236D01*
X013736Y015178D01*
X013566Y015178D01*
X013408Y015244D01*
X013288Y015364D01*
X013223Y015521D01*
X013223Y015692D01*
X013288Y015849D01*
X013408Y015969D01*
X013566Y016035D01*
X013736Y016035D01*
X013876Y015976D01*
X022698Y015976D01*
X023281Y016560D01*
X023281Y018153D01*
X023198Y018236D01*
X022901Y018236D01*
X022999Y018139D01*
X023061Y017988D01*
X023061Y017346D01*
X023181Y017226D01*
X023181Y016787D01*
X022871Y016476D01*
X022431Y016476D01*
X022151Y016757D01*
X021871Y016476D01*
X021431Y016476D01*
X021151Y016757D01*
X020871Y016476D01*
X020431Y016476D01*
X020311Y016596D01*
X020311Y015976D01*
X020431Y015976D02*
X020431Y016477D01*
X020381Y016526D02*
X002581Y016526D01*
X002551Y016556D02*
X002551Y016836D01*
X002461Y016766D02*
X012787Y016766D01*
X012788Y016764D02*
X012908Y016644D01*
X013066Y016578D01*
X013236Y016578D01*
X013280Y016596D01*
X018522Y016596D01*
X018566Y016578D01*
X018736Y016578D01*
X018780Y016596D01*
X020311Y016596D01*
X020191Y016596D02*
X020191Y015976D01*
X020071Y015976D02*
X020071Y016596D01*
X019951Y016596D02*
X019951Y015976D01*
X019831Y015976D02*
X019831Y016596D01*
X019711Y016596D02*
X019711Y015976D01*
X019591Y015976D02*
X019591Y016596D01*
X019471Y016596D02*
X019471Y015976D01*
X019351Y015976D02*
X019351Y016596D01*
X019231Y016596D02*
X019231Y015976D01*
X019111Y015976D02*
X019111Y016596D01*
X018991Y016596D02*
X018991Y015976D01*
X018871Y015976D02*
X018871Y016596D01*
X018751Y016585D02*
X018751Y015976D01*
X018631Y015976D02*
X018631Y016578D01*
X018511Y016596D02*
X018511Y015976D01*
X018391Y015976D02*
X018391Y016596D01*
X018271Y016596D02*
X018271Y015976D01*
X018151Y015976D02*
X018151Y016596D01*
X018031Y016596D02*
X018031Y015976D01*
X017911Y015976D02*
X017911Y016596D01*
X017791Y016596D02*
X017791Y015976D01*
X017671Y015976D02*
X017671Y016596D01*
X017551Y016596D02*
X017551Y015976D01*
X017431Y015976D02*
X017431Y016596D01*
X017311Y016596D02*
X017311Y015976D01*
X017191Y015976D02*
X017191Y016596D01*
X017071Y016596D02*
X017071Y015976D01*
X016951Y015976D02*
X016951Y016596D01*
X016831Y016596D02*
X016831Y015976D01*
X016711Y015976D02*
X016711Y016596D01*
X016591Y016596D02*
X016591Y015976D01*
X016471Y015976D02*
X016471Y016596D01*
X016351Y016596D02*
X016351Y015976D01*
X016231Y015976D02*
X016231Y016596D01*
X016111Y016596D02*
X016111Y015976D01*
X015991Y015976D02*
X015991Y016596D01*
X015871Y016596D02*
X015871Y015976D01*
X015751Y015976D02*
X015751Y016596D01*
X015631Y016596D02*
X015631Y015976D01*
X015511Y015976D02*
X015511Y016596D01*
X015391Y016596D02*
X015391Y015976D01*
X015271Y015976D02*
X015271Y016596D01*
X015151Y016596D02*
X015151Y015976D01*
X015031Y015976D02*
X015031Y016596D01*
X014911Y016596D02*
X014911Y015976D01*
X014791Y015976D02*
X014791Y016596D01*
X014671Y016596D02*
X014671Y015976D01*
X014551Y015976D02*
X014551Y016596D01*
X014431Y016596D02*
X014431Y015976D01*
X014311Y015976D02*
X014311Y016596D01*
X014191Y016596D02*
X014191Y015976D01*
X014071Y015976D02*
X014071Y016596D01*
X013951Y016596D02*
X013951Y015976D01*
X013831Y015995D02*
X013831Y016596D01*
X013711Y016596D02*
X013711Y016035D01*
X013591Y016035D02*
X013591Y016596D01*
X013471Y016596D02*
X013471Y015995D01*
X013366Y015926D02*
X002621Y015926D01*
X002671Y015977D02*
X002671Y015436D01*
X002661Y015446D02*
X013254Y015446D01*
X013231Y015502D02*
X013231Y014576D01*
X013351Y014576D02*
X013351Y015301D01*
X013326Y015326D02*
X002681Y015326D01*
X002681Y015206D02*
X013498Y015206D01*
X013471Y015218D02*
X013471Y014576D01*
X013591Y014576D02*
X013591Y015178D01*
X013711Y015178D02*
X013711Y014576D01*
X013831Y014576D02*
X013831Y015218D01*
X013804Y015206D02*
X025701Y015206D01*
X025701Y015086D02*
X002681Y015086D01*
X002791Y015076D02*
X002791Y016836D01*
X002911Y016836D02*
X002911Y015076D01*
X003031Y015076D02*
X003031Y016836D01*
X003151Y016836D02*
X003151Y015076D01*
X003271Y015076D02*
X003271Y016836D01*
X003391Y016836D02*
X003391Y015076D01*
X003511Y015076D02*
X003511Y016836D01*
X003631Y016836D02*
X003631Y015076D01*
X003751Y015076D02*
X003751Y016836D01*
X003871Y016836D02*
X003871Y015076D01*
X003991Y015076D02*
X003991Y016836D01*
X004111Y016836D02*
X004111Y015076D01*
X004231Y015076D02*
X004231Y016836D01*
X004351Y016836D02*
X004351Y015076D01*
X004471Y015076D02*
X004471Y016836D01*
X004591Y016836D02*
X004591Y015076D01*
X004711Y015076D02*
X004711Y016836D01*
X004831Y016836D02*
X004831Y015076D01*
X004951Y015076D02*
X004951Y016836D01*
X005071Y016836D02*
X005071Y015076D01*
X005191Y015076D02*
X005191Y016836D01*
X005311Y016836D02*
X005311Y015076D01*
X005431Y015076D02*
X005431Y016836D01*
X005551Y016836D02*
X005551Y015076D01*
X005671Y015076D02*
X005671Y016836D01*
X005791Y016836D02*
X005791Y015076D01*
X005911Y015076D02*
X005911Y016836D01*
X006031Y016836D02*
X006031Y015076D01*
X006151Y015076D02*
X006151Y016836D01*
X006271Y016836D02*
X006271Y015076D01*
X006391Y015076D02*
X006391Y016836D01*
X006511Y016836D02*
X006511Y015076D01*
X006631Y015076D02*
X006631Y016836D01*
X006751Y016836D02*
X006751Y015076D01*
X006871Y015076D02*
X006871Y016836D01*
X006991Y016836D02*
X006991Y015076D01*
X007111Y015076D02*
X007111Y016836D01*
X007231Y016836D02*
X007231Y015076D01*
X007351Y015066D02*
X007351Y016836D01*
X007471Y016836D02*
X007471Y015010D01*
X007514Y014966D02*
X025701Y014966D01*
X025701Y014846D02*
X007634Y014846D01*
X007591Y014890D02*
X007591Y016836D01*
X007711Y016836D02*
X007711Y014770D01*
X007754Y014726D02*
X020421Y014726D01*
X020431Y014736D02*
X020431Y015236D01*
X020551Y015236D02*
X020551Y014736D01*
X020431Y014736D02*
X020271Y014576D01*
X011076Y014576D01*
X010936Y014635D01*
X010766Y014635D01*
X010608Y014569D01*
X010488Y014449D01*
X010423Y014292D01*
X010423Y014121D01*
X010488Y013964D01*
X010608Y013844D01*
X010766Y013778D01*
X010936Y013778D01*
X011076Y013836D01*
X020271Y013836D01*
X020431Y013676D01*
X020871Y013676D01*
X021151Y013957D01*
X021431Y013676D01*
X021871Y013676D01*
X022181Y013987D01*
X022181Y014426D01*
X021871Y014736D01*
X021871Y015236D01*
X021991Y015236D02*
X021991Y014616D01*
X022001Y014606D02*
X025701Y014606D01*
X025701Y014486D02*
X022121Y014486D01*
X022111Y014496D02*
X022111Y015236D01*
X022231Y015236D02*
X022231Y006476D01*
X022351Y006476D02*
X022351Y015236D01*
X022471Y015236D02*
X022471Y006476D01*
X022591Y006476D02*
X022591Y015236D01*
X022711Y015236D02*
X022711Y006476D01*
X022831Y006476D02*
X022831Y015236D01*
X022951Y015247D02*
X022951Y006476D01*
X023071Y006476D02*
X023071Y015303D01*
X023094Y015326D02*
X025701Y015326D01*
X025701Y015446D02*
X023214Y015446D01*
X023191Y015423D02*
X023191Y006476D01*
X023311Y006476D02*
X023311Y015543D01*
X023334Y015566D02*
X025701Y015566D01*
X025701Y015686D02*
X023454Y015686D01*
X023431Y015663D02*
X023431Y006476D01*
X023551Y006476D02*
X023551Y015783D01*
X023574Y015806D02*
X025701Y015806D01*
X025701Y015926D02*
X023694Y015926D01*
X023671Y015903D02*
X023671Y006476D01*
X023791Y006476D02*
X023791Y016023D01*
X023814Y016046D02*
X025701Y016046D01*
X025701Y016166D02*
X023934Y016166D01*
X023911Y016143D02*
X023911Y006476D01*
X024031Y006474D02*
X024031Y020956D01*
X024151Y020956D02*
X024151Y006424D01*
X024097Y006446D02*
X025701Y006446D01*
X025701Y006326D02*
X024254Y006326D01*
X024271Y006310D02*
X024271Y020956D01*
X024391Y020956D02*
X024391Y006190D01*
X024374Y006206D02*
X025701Y006206D01*
X025701Y006086D02*
X024494Y006086D01*
X024511Y006070D02*
X024511Y020956D01*
X024631Y020956D02*
X024631Y005950D01*
X024614Y005966D02*
X025701Y005966D01*
X025701Y005846D02*
X024734Y005846D01*
X024751Y005830D02*
X024751Y020956D01*
X024871Y020956D02*
X024871Y005710D01*
X024854Y005726D02*
X025701Y005726D01*
X025701Y005606D02*
X024974Y005606D01*
X024991Y005590D02*
X024991Y020956D01*
X025111Y020956D02*
X025111Y005470D01*
X025094Y005486D02*
X025701Y005486D01*
X025701Y005366D02*
X025214Y005366D01*
X025231Y005350D02*
X025231Y020956D01*
X025351Y020956D02*
X025351Y005230D01*
X025334Y005246D02*
X025701Y005246D01*
X025701Y005126D02*
X025454Y005126D01*
X025471Y005101D02*
X025471Y020956D01*
X025591Y020956D02*
X025591Y001516D01*
X025581Y001526D02*
X025701Y001526D01*
X025701Y001406D02*
X025681Y001406D01*
X025681Y001286D02*
X025701Y001286D01*
X025701Y001166D02*
X025681Y001166D01*
X025681Y001046D02*
X025701Y001046D01*
X025701Y000926D02*
X025621Y000926D01*
X025591Y000897D02*
X025591Y000456D01*
X025471Y000456D02*
X025471Y000777D01*
X025501Y000806D02*
X025701Y000806D01*
X024871Y000737D02*
X024871Y000456D01*
X024751Y000456D02*
X024751Y000857D01*
X024801Y000806D02*
X024501Y000806D01*
X024511Y000817D02*
X024511Y000456D01*
X024631Y000456D02*
X024631Y000937D01*
X024621Y000926D02*
X024681Y000926D01*
X024391Y000697D02*
X024391Y000456D01*
X023791Y000456D02*
X023791Y000817D01*
X023801Y000806D02*
X023571Y000806D01*
X023551Y000786D02*
X023551Y000456D01*
X023671Y000456D02*
X023671Y000937D01*
X023663Y000926D02*
X023681Y000926D01*
X024521Y001586D02*
X024521Y005013D01*
X024781Y004753D01*
X024781Y001586D01*
X024651Y001456D01*
X024521Y001586D01*
X024521Y001646D02*
X024781Y001646D01*
X024751Y001556D02*
X024751Y004783D01*
X024768Y004766D02*
X024521Y004766D01*
X024521Y004646D02*
X024781Y004646D01*
X024781Y004526D02*
X024521Y004526D01*
X024521Y004406D02*
X024781Y004406D01*
X024781Y004286D02*
X024521Y004286D01*
X024521Y004166D02*
X024781Y004166D01*
X024781Y004046D02*
X024521Y004046D01*
X024521Y003926D02*
X024781Y003926D01*
X024781Y003806D02*
X024521Y003806D01*
X024521Y003686D02*
X024781Y003686D01*
X024781Y003566D02*
X024521Y003566D01*
X024521Y003446D02*
X024781Y003446D01*
X024781Y003326D02*
X024521Y003326D01*
X024521Y003206D02*
X024781Y003206D01*
X024781Y003086D02*
X024521Y003086D01*
X024521Y002966D02*
X024781Y002966D01*
X024781Y002846D02*
X024521Y002846D01*
X024521Y002726D02*
X024781Y002726D01*
X024781Y002606D02*
X024521Y002606D01*
X024521Y002486D02*
X024781Y002486D01*
X024781Y002366D02*
X024521Y002366D01*
X024521Y002246D02*
X024781Y002246D01*
X024781Y002126D02*
X024521Y002126D01*
X024521Y002006D02*
X024781Y002006D01*
X024781Y001886D02*
X024521Y001886D01*
X024521Y001766D02*
X024781Y001766D01*
X024721Y001526D02*
X024581Y001526D01*
X024631Y001476D02*
X024631Y004903D01*
X024648Y004886D02*
X024521Y004886D01*
X024521Y005006D02*
X024528Y005006D01*
X023781Y004766D02*
X018714Y004766D01*
X018751Y004730D02*
X018751Y005136D01*
X018871Y005136D02*
X018871Y004610D01*
X018834Y004646D02*
X023781Y004646D01*
X023781Y004526D02*
X018954Y004526D01*
X018991Y004490D02*
X018991Y005136D01*
X019111Y005136D02*
X019111Y004370D01*
X019074Y004406D02*
X023781Y004406D01*
X023781Y004286D02*
X019194Y004286D01*
X019231Y004250D02*
X019231Y005136D01*
X019351Y005136D02*
X019351Y004130D01*
X019314Y004166D02*
X023781Y004166D01*
X023781Y004046D02*
X019434Y004046D01*
X019471Y004010D02*
X019471Y005136D01*
X018631Y005136D02*
X018631Y004850D01*
X018594Y004886D02*
X023748Y004886D01*
X023431Y005136D02*
X023431Y003876D01*
X023621Y003686D02*
X023781Y003686D01*
X023781Y003086D02*
X023581Y003086D01*
X023551Y003057D02*
X023551Y002756D01*
X023581Y002726D02*
X023781Y002726D01*
X023781Y002846D02*
X023461Y002846D01*
X023431Y002876D02*
X023431Y002937D01*
X023461Y002966D02*
X023781Y002966D01*
X022841Y002966D02*
X019714Y002966D01*
X019711Y002970D02*
X019711Y003036D01*
X019831Y003036D02*
X019831Y002850D01*
X019834Y002846D02*
X022841Y002846D01*
X022831Y002836D02*
X022831Y002977D01*
X022711Y003036D02*
X022711Y002716D01*
X022721Y002726D02*
X019954Y002726D01*
X019951Y002730D02*
X019951Y003036D01*
X020071Y003036D02*
X020071Y002610D01*
X020074Y002606D02*
X022621Y002606D01*
X022621Y002486D02*
X020194Y002486D01*
X020191Y002490D02*
X020191Y003036D01*
X022591Y003036D02*
X022591Y001486D01*
X022561Y001526D02*
X022656Y001526D01*
X021751Y000872D02*
X021751Y000456D01*
X021631Y000456D02*
X021631Y000866D01*
X021663Y000926D02*
X021712Y000926D01*
X021271Y000628D02*
X021271Y000456D01*
X021151Y000456D02*
X021151Y000626D01*
X021031Y000628D02*
X021031Y000456D01*
X020911Y000456D02*
X020911Y000678D01*
X020891Y000686D02*
X020411Y000686D01*
X020431Y000695D02*
X020431Y000456D01*
X020551Y000456D02*
X020551Y000786D01*
X020571Y000806D02*
X020731Y000806D01*
X020791Y000746D02*
X020791Y000456D01*
X020671Y000456D02*
X020671Y000866D01*
X020643Y000878D02*
X020651Y000898D01*
X020643Y000878D02*
X020480Y000715D01*
X020266Y000626D01*
X020036Y000626D01*
X019822Y000715D01*
X019659Y000878D01*
X019651Y000898D01*
X019643Y000878D01*
X019480Y000715D01*
X019266Y000626D01*
X019036Y000626D01*
X018822Y000715D01*
X018659Y000878D01*
X018651Y000898D01*
X018643Y000878D01*
X018480Y000715D01*
X018266Y000626D01*
X018036Y000626D01*
X017822Y000715D01*
X017659Y000878D01*
X017651Y000898D01*
X017643Y000878D01*
X017480Y000715D01*
X017266Y000626D01*
X017036Y000626D01*
X016822Y000715D01*
X016731Y000806D01*
X016731Y000750D01*
X016608Y000626D01*
X015694Y000626D01*
X015571Y000750D01*
X015571Y001663D01*
X015694Y001786D01*
X015781Y001786D01*
X015781Y001953D01*
X015021Y002713D01*
X015021Y001657D01*
X015143Y001535D01*
X015231Y001322D01*
X015231Y001091D01*
X015143Y000878D01*
X014980Y000715D01*
X014766Y000626D01*
X014536Y000626D01*
X014322Y000715D01*
X014159Y000878D01*
X014151Y000898D01*
X014143Y000878D01*
X013980Y000715D01*
X013766Y000626D01*
X013536Y000626D01*
X013322Y000715D01*
X013159Y000878D01*
X013151Y000898D01*
X013143Y000878D01*
X012980Y000715D01*
X012766Y000626D01*
X012536Y000626D01*
X012631Y000626D02*
X012631Y000456D01*
X012751Y000456D02*
X012751Y000626D01*
X012871Y000670D02*
X012871Y000456D01*
X012991Y000456D02*
X012991Y000726D01*
X012911Y000686D02*
X013391Y000686D01*
X013351Y000703D02*
X013351Y000456D01*
X013471Y000456D02*
X013471Y000653D01*
X013591Y000626D02*
X013591Y000456D01*
X013711Y000456D02*
X013711Y000626D01*
X013831Y000653D02*
X013831Y000456D01*
X013951Y000456D02*
X013951Y000703D01*
X013911Y000686D02*
X014391Y000686D01*
X014431Y000670D02*
X014431Y000456D01*
X014551Y000456D02*
X014551Y000626D01*
X014671Y000626D02*
X014671Y000456D01*
X014791Y000456D02*
X014791Y000637D01*
X014911Y000686D02*
X014911Y000456D01*
X015031Y000456D02*
X015031Y000766D01*
X015071Y000806D02*
X015571Y000806D01*
X015571Y000926D02*
X015163Y000926D01*
X015151Y000898D02*
X015151Y000456D01*
X015271Y000456D02*
X015271Y002463D01*
X015248Y002486D02*
X015021Y002486D01*
X015021Y002366D02*
X015368Y002366D01*
X015391Y002343D02*
X015391Y000456D01*
X015511Y000456D02*
X015511Y002223D01*
X015488Y002246D02*
X015021Y002246D01*
X015021Y002126D02*
X015608Y002126D01*
X015631Y002103D02*
X015631Y001723D01*
X015674Y001766D02*
X015021Y001766D01*
X015031Y001647D02*
X015031Y002703D01*
X015021Y002606D02*
X015128Y002606D01*
X015151Y002583D02*
X015151Y001515D01*
X015146Y001526D02*
X015571Y001526D01*
X015571Y001406D02*
X015196Y001406D01*
X015231Y001286D02*
X015571Y001286D01*
X015571Y001166D02*
X015231Y001166D01*
X015213Y001046D02*
X015571Y001046D01*
X015631Y000690D02*
X015631Y000456D01*
X015751Y000456D02*
X015751Y000626D01*
X015871Y000626D02*
X015871Y000456D01*
X015991Y000456D02*
X015991Y000626D01*
X016111Y000626D02*
X016111Y000456D01*
X016231Y000456D02*
X016231Y000626D01*
X016351Y000626D02*
X016351Y000456D01*
X016471Y000456D02*
X016471Y000626D01*
X016591Y000626D02*
X016591Y000456D01*
X016711Y000456D02*
X016711Y000730D01*
X016668Y000686D02*
X016891Y000686D01*
X016951Y000662D02*
X016951Y000456D01*
X017071Y000456D02*
X017071Y000626D01*
X017191Y000626D02*
X017191Y000456D01*
X017311Y000456D02*
X017311Y000645D01*
X017411Y000686D02*
X017891Y000686D01*
X017911Y000678D02*
X017911Y000456D01*
X018031Y000456D02*
X018031Y000628D01*
X018151Y000626D02*
X018151Y000456D01*
X018271Y000456D02*
X018271Y000628D01*
X018391Y000678D02*
X018391Y000456D01*
X018511Y000456D02*
X018511Y000746D01*
X018571Y000806D02*
X018731Y000806D01*
X018751Y000786D02*
X018751Y000456D01*
X018871Y000456D02*
X018871Y000695D01*
X018891Y000686D02*
X018411Y000686D01*
X018631Y000866D02*
X018631Y000456D01*
X018991Y000456D02*
X018991Y000645D01*
X019111Y000626D02*
X019111Y000456D01*
X019231Y000456D02*
X019231Y000626D01*
X019351Y000662D02*
X019351Y000456D01*
X019471Y000456D02*
X019471Y000711D01*
X019411Y000686D02*
X019891Y000686D01*
X019951Y000662D02*
X019951Y000456D01*
X020071Y000456D02*
X020071Y000626D01*
X020191Y000626D02*
X020191Y000456D01*
X020311Y000456D02*
X020311Y000645D01*
X019831Y000711D02*
X019831Y000456D01*
X019711Y000456D02*
X019711Y000826D01*
X019731Y000806D02*
X019571Y000806D01*
X019591Y000826D02*
X019591Y000456D01*
X017791Y000456D02*
X017791Y000746D01*
X017731Y000806D02*
X017571Y000806D01*
X017551Y000786D02*
X017551Y000456D01*
X017671Y000456D02*
X017671Y000866D01*
X017431Y000695D02*
X017431Y000456D01*
X016831Y000456D02*
X016831Y000711D01*
X016731Y001607D02*
X016731Y001663D01*
X016608Y001786D01*
X016521Y001786D01*
X016521Y002013D01*
X016781Y001753D01*
X016781Y001657D01*
X016731Y001607D01*
X016731Y001646D02*
X016771Y001646D01*
X016711Y001683D02*
X016711Y001823D01*
X016768Y001766D02*
X016628Y001766D01*
X016591Y001786D02*
X016591Y001943D01*
X016648Y001886D02*
X016521Y001886D01*
X016521Y002006D02*
X016528Y002006D01*
X015781Y001886D02*
X015021Y001886D01*
X015021Y002006D02*
X015728Y002006D01*
X015751Y001983D02*
X015751Y001786D01*
X015571Y001646D02*
X015031Y001646D01*
X014281Y001657D02*
X014159Y001535D01*
X014151Y001515D01*
X014143Y001535D01*
X014021Y001657D01*
X014021Y002780D01*
X013998Y002837D01*
X014281Y002553D01*
X014281Y001657D01*
X014271Y001646D02*
X014031Y001646D01*
X014071Y001607D02*
X014071Y002763D01*
X014108Y002726D02*
X014021Y002726D01*
X014021Y002606D02*
X014228Y002606D01*
X014191Y002643D02*
X014191Y001567D01*
X014156Y001526D02*
X014146Y001526D01*
X014021Y001766D02*
X014281Y001766D01*
X014281Y001886D02*
X014021Y001886D01*
X014021Y002006D02*
X014281Y002006D01*
X014281Y002126D02*
X014021Y002126D01*
X014021Y002246D02*
X014281Y002246D01*
X014281Y002366D02*
X014021Y002366D01*
X014021Y002486D02*
X014281Y002486D01*
X013281Y002486D02*
X013021Y002486D01*
X013021Y002366D02*
X013281Y002366D01*
X013281Y002246D02*
X013021Y002246D01*
X013021Y002126D02*
X013281Y002126D01*
X013281Y002006D02*
X013021Y002006D01*
X013021Y001886D02*
X013281Y001886D01*
X013281Y001766D02*
X013021Y001766D01*
X013021Y001657D02*
X013021Y002780D01*
X012998Y002837D01*
X013281Y002553D01*
X013281Y001657D01*
X013159Y001535D01*
X013151Y001515D01*
X013143Y001535D01*
X013021Y001657D01*
X013031Y001646D02*
X013271Y001646D01*
X013231Y001607D02*
X013231Y002603D01*
X013228Y002606D02*
X013021Y002606D01*
X013021Y002726D02*
X013108Y002726D01*
X013111Y002723D02*
X013111Y001567D01*
X013146Y001526D02*
X013156Y001526D01*
X012281Y001657D02*
X012159Y001535D01*
X012151Y001515D01*
X012151Y002683D01*
X012108Y002726D02*
X012021Y002726D01*
X012021Y002780D02*
X011998Y002837D01*
X012281Y002553D01*
X012281Y001657D01*
X012271Y001647D02*
X012271Y002563D01*
X012228Y002606D02*
X012021Y002606D01*
X012021Y002486D02*
X012281Y002486D01*
X012281Y002366D02*
X012021Y002366D01*
X012021Y002246D02*
X012281Y002246D01*
X012281Y002126D02*
X012021Y002126D01*
X012021Y002006D02*
X012281Y002006D01*
X012281Y001886D02*
X012021Y001886D01*
X012021Y001766D02*
X012281Y001766D01*
X012271Y001646D02*
X012031Y001646D01*
X012031Y001647D02*
X012031Y002803D01*
X012021Y002780D02*
X012021Y001657D01*
X012143Y001535D01*
X012151Y001515D01*
X012146Y001526D02*
X012156Y001526D01*
X011281Y001657D02*
X011159Y001535D01*
X011151Y001515D01*
X011143Y001535D01*
X011021Y001657D01*
X011021Y002780D01*
X010998Y002837D01*
X011281Y002553D01*
X011281Y001657D01*
X011271Y001646D02*
X011031Y001646D01*
X011071Y001607D02*
X011071Y002763D01*
X011108Y002726D02*
X011021Y002726D01*
X011021Y002606D02*
X011228Y002606D01*
X011191Y002643D02*
X011191Y001567D01*
X011156Y001526D02*
X011146Y001526D01*
X011021Y001766D02*
X011281Y001766D01*
X011281Y001886D02*
X011021Y001886D01*
X011021Y002006D02*
X011281Y002006D01*
X011281Y002126D02*
X011021Y002126D01*
X011021Y002246D02*
X011281Y002246D01*
X011281Y002366D02*
X011021Y002366D01*
X011021Y002486D02*
X011281Y002486D01*
X010281Y002486D02*
X009894Y002486D01*
X009871Y002510D02*
X009871Y002836D01*
X009991Y002836D02*
X009991Y002353D01*
X009985Y002366D02*
X010281Y002366D01*
X010281Y002246D02*
X010021Y002246D01*
X010021Y002280D02*
X009965Y002416D01*
X009861Y002520D01*
X009544Y002836D01*
X009998Y002836D01*
X010281Y002553D01*
X010281Y001657D01*
X010159Y001535D01*
X010151Y001515D01*
X010143Y001535D01*
X010021Y001657D01*
X010021Y002280D01*
X010021Y002126D02*
X010281Y002126D01*
X010281Y002006D02*
X010021Y002006D01*
X010021Y001886D02*
X010281Y001886D01*
X010281Y001766D02*
X010021Y001766D01*
X010031Y001646D02*
X010271Y001646D01*
X010231Y001607D02*
X010231Y002603D01*
X010228Y002606D02*
X009774Y002606D01*
X009751Y002630D02*
X009751Y002836D01*
X009631Y002836D02*
X009631Y002750D01*
X009654Y002726D02*
X010108Y002726D01*
X010111Y002723D02*
X010111Y001567D01*
X010146Y001526D02*
X010156Y001526D01*
X009281Y001657D02*
X009159Y001535D01*
X009151Y001515D01*
X009151Y002183D01*
X009208Y002126D02*
X008754Y002126D01*
X008791Y002090D02*
X008791Y002336D01*
X008911Y002336D02*
X008911Y001970D01*
X008874Y002006D02*
X009281Y002006D01*
X009281Y002053D02*
X009281Y001657D01*
X009271Y001647D02*
X009271Y002063D01*
X009281Y002053D02*
X008998Y002336D01*
X008544Y002336D01*
X008861Y002020D01*
X008965Y001916D01*
X009021Y001780D01*
X009021Y001657D01*
X009143Y001535D01*
X009151Y001515D01*
X009146Y001526D02*
X009156Y001526D01*
X009271Y001646D02*
X009031Y001646D01*
X009031Y001647D02*
X009031Y002303D01*
X009088Y002246D02*
X008634Y002246D01*
X008671Y002210D02*
X008671Y002336D01*
X008551Y002330D02*
X008551Y002336D01*
X008977Y001886D02*
X009281Y001886D01*
X009281Y001766D02*
X009021Y001766D01*
X008048Y001786D02*
X007594Y001786D01*
X007544Y001836D01*
X007998Y001836D01*
X008048Y001786D01*
X007951Y001786D02*
X007951Y001836D01*
X007831Y001836D02*
X007831Y001786D01*
X007711Y001786D02*
X007711Y001836D01*
X007591Y001836D02*
X007591Y001790D01*
X007048Y001286D02*
X002621Y001286D01*
X002621Y001256D02*
X002621Y001401D01*
X002346Y001676D01*
X002201Y001676D01*
X002201Y001257D01*
X002101Y001257D01*
X002101Y001676D01*
X001956Y001676D01*
X001681Y001401D01*
X001681Y001256D01*
X002101Y001256D01*
X002101Y001156D01*
X002201Y001156D01*
X002201Y000736D01*
X002346Y000736D01*
X002621Y001012D01*
X002621Y001156D01*
X002201Y001156D01*
X002201Y001256D01*
X002621Y001256D01*
X002551Y001256D02*
X002551Y001156D01*
X002431Y001156D02*
X002431Y001256D01*
X002311Y001256D02*
X002311Y001156D01*
X002201Y001166D02*
X007071Y001166D01*
X007071Y001046D02*
X002621Y001046D01*
X002551Y000942D02*
X002551Y000456D01*
X002671Y000456D02*
X002671Y001977D01*
X002681Y002006D02*
X003328Y002006D01*
X003271Y002063D02*
X003271Y000456D01*
X003391Y000456D02*
X003391Y001943D01*
X003448Y001886D02*
X002581Y001886D01*
X002551Y001857D02*
X002551Y001471D01*
X002496Y001526D02*
X003808Y001526D01*
X003751Y001583D02*
X003751Y000456D01*
X003871Y000456D02*
X003871Y001463D01*
X003928Y001406D02*
X002616Y001406D01*
X002431Y001591D02*
X002431Y001737D01*
X002461Y001766D02*
X003568Y001766D01*
X003511Y001823D02*
X003511Y000456D01*
X003631Y000456D02*
X003631Y001703D01*
X003688Y001646D02*
X002376Y001646D01*
X002311Y001676D02*
X002311Y001676D01*
X002201Y001646D02*
X002101Y001646D01*
X002071Y001676D02*
X002071Y001676D01*
X002191Y001676D02*
X002191Y001257D01*
X002201Y001286D02*
X002101Y001286D01*
X002071Y001256D02*
X002071Y001156D01*
X002101Y001156D02*
X001681Y001156D01*
X001681Y001012D01*
X001956Y000736D01*
X002101Y000736D01*
X002101Y001156D01*
X002101Y001166D02*
X001681Y001166D01*
X001711Y001156D02*
X001711Y001256D01*
X001681Y001286D02*
X001681Y001286D01*
X001681Y001406D02*
X001686Y001406D01*
X001711Y001431D02*
X001711Y001897D01*
X001721Y001886D02*
X001496Y001886D01*
X001471Y001862D02*
X001471Y001636D01*
X001461Y001646D02*
X001926Y001646D01*
X001951Y001671D02*
X001951Y001676D01*
X001841Y001766D02*
X001376Y001766D01*
X001351Y001742D02*
X001351Y001736D01*
X001346Y001736D02*
X001621Y002012D01*
X001621Y002156D01*
X001201Y002156D01*
X001201Y001736D01*
X001346Y001736D01*
X001231Y001736D02*
X001231Y001736D01*
X001201Y001766D02*
X001101Y001766D01*
X001101Y001736D02*
X001101Y002156D01*
X001201Y002156D01*
X001201Y002256D01*
X001621Y002256D01*
X001621Y002401D01*
X001346Y002676D01*
X001201Y002676D01*
X001201Y002257D01*
X001101Y002257D01*
X001101Y002676D01*
X000956Y002676D01*
X000681Y002401D01*
X000681Y002256D01*
X001101Y002256D01*
X001101Y002156D01*
X000681Y002156D01*
X000681Y002012D01*
X000956Y001736D01*
X001101Y001736D01*
X001111Y001736D02*
X001111Y002156D01*
X001101Y002126D02*
X001201Y002126D01*
X001231Y002156D02*
X001231Y002256D01*
X001201Y002246D02*
X001621Y002246D01*
X001591Y002256D02*
X001591Y002156D01*
X001621Y002126D02*
X001621Y002126D01*
X001616Y002006D02*
X001621Y002006D01*
X001591Y001982D02*
X001591Y001516D01*
X001581Y001526D02*
X001806Y001526D01*
X001831Y001551D02*
X001831Y001777D01*
X002101Y001526D02*
X002201Y001526D01*
X002201Y001406D02*
X002101Y001406D01*
X001951Y001256D02*
X001951Y001156D01*
X001831Y001156D02*
X001831Y001256D01*
X001681Y001046D02*
X001681Y001046D01*
X001711Y000982D02*
X001711Y000456D01*
X001831Y000456D02*
X001831Y000862D01*
X001886Y000806D02*
X001501Y000806D01*
X001471Y000777D02*
X001471Y000456D01*
X001591Y000456D02*
X001591Y000897D01*
X001621Y000926D02*
X001766Y000926D01*
X001951Y000742D02*
X001951Y000456D01*
X002071Y000456D02*
X002071Y000736D01*
X002101Y000806D02*
X002201Y000806D01*
X002201Y000926D02*
X002101Y000926D01*
X002101Y001046D02*
X002201Y001046D01*
X002191Y001156D02*
X002191Y000456D01*
X002311Y000456D02*
X002311Y000736D01*
X002416Y000806D02*
X007071Y000806D01*
X007071Y000926D02*
X002536Y000926D01*
X002431Y000822D02*
X002431Y000456D01*
X002791Y000456D02*
X002791Y002609D01*
X002792Y002606D02*
X002501Y002606D01*
X002551Y002556D02*
X002551Y002857D01*
X002541Y002846D02*
X002781Y002846D01*
X002781Y002726D02*
X002421Y002726D01*
X002431Y002737D02*
X002431Y002676D01*
X002621Y002486D02*
X002848Y002486D01*
X002911Y002423D02*
X002911Y000456D01*
X003031Y000456D02*
X003031Y002303D01*
X003088Y002246D02*
X002681Y002246D01*
X002681Y002126D02*
X003208Y002126D01*
X003151Y002183D02*
X003151Y000456D01*
X003991Y000456D02*
X003991Y001372D01*
X004111Y001336D02*
X004111Y000456D01*
X004231Y000456D02*
X004231Y001336D01*
X004351Y001336D02*
X004351Y000456D01*
X004471Y000456D02*
X004471Y001336D01*
X004591Y001336D02*
X004591Y000456D01*
X004711Y000456D02*
X004711Y001336D01*
X004831Y001336D02*
X004831Y000456D01*
X004951Y000456D02*
X004951Y001336D01*
X005071Y001336D02*
X005071Y000456D01*
X005191Y000456D02*
X005191Y001336D01*
X005311Y001336D02*
X005311Y000456D01*
X005431Y000456D02*
X005431Y001336D01*
X005551Y001336D02*
X005551Y000456D01*
X005671Y000456D02*
X005671Y001336D01*
X005791Y001336D02*
X005791Y000456D01*
X005911Y000456D02*
X005911Y001336D01*
X006031Y001336D02*
X006031Y000456D01*
X006151Y000456D02*
X006151Y001336D01*
X006271Y001336D02*
X006271Y000456D01*
X006391Y000456D02*
X006391Y001336D01*
X006511Y001336D02*
X006511Y000456D01*
X006631Y000456D02*
X006631Y001336D01*
X006751Y001336D02*
X006751Y000456D01*
X006871Y000456D02*
X006871Y001336D01*
X006991Y001336D02*
X006991Y000456D01*
X002968Y002366D02*
X002681Y002366D01*
X002671Y002436D02*
X002671Y002977D01*
X002661Y002966D02*
X002781Y002966D01*
X002781Y003086D02*
X002681Y003086D01*
X002681Y003206D02*
X002781Y003206D01*
X002781Y003326D02*
X002681Y003326D01*
X002671Y003436D02*
X002671Y003977D01*
X002681Y004046D02*
X002781Y004046D01*
X002781Y003926D02*
X002621Y003926D01*
X002551Y003857D02*
X002551Y003556D01*
X002541Y003566D02*
X002781Y003566D01*
X002781Y003446D02*
X002661Y003446D01*
X002781Y003686D02*
X002421Y003686D01*
X002431Y003676D02*
X002431Y003737D01*
X002501Y003806D02*
X002781Y003806D01*
X002781Y004166D02*
X002681Y004166D01*
X002681Y004286D02*
X002781Y004286D01*
X002781Y004406D02*
X002681Y004406D01*
X002671Y004436D02*
X002671Y004977D01*
X002681Y005006D02*
X002781Y005006D01*
X002781Y004886D02*
X002581Y004886D01*
X002551Y004857D02*
X002551Y004556D01*
X002581Y004526D02*
X002781Y004526D01*
X002781Y004646D02*
X002461Y004646D01*
X002431Y004676D02*
X002431Y004737D01*
X002461Y004766D02*
X002781Y004766D01*
X002781Y005126D02*
X002681Y005126D01*
X002681Y005246D02*
X002781Y005246D01*
X002781Y005366D02*
X002681Y005366D01*
X002671Y005436D02*
X002671Y005977D01*
X002661Y005966D02*
X002781Y005966D01*
X002781Y005846D02*
X002541Y005846D01*
X002551Y005857D02*
X002551Y005556D01*
X002501Y005606D02*
X002781Y005606D01*
X002781Y005486D02*
X002621Y005486D01*
X002431Y005676D02*
X002431Y005737D01*
X002421Y005726D02*
X002781Y005726D01*
X002748Y006086D02*
X002681Y006086D01*
X001881Y005726D02*
X001381Y005726D01*
X001351Y005736D02*
X001351Y005742D01*
X001346Y005736D02*
X001621Y006012D01*
X001621Y006156D01*
X001201Y006156D01*
X001201Y005736D01*
X001346Y005736D01*
X001231Y005736D02*
X001231Y005736D01*
X001201Y005846D02*
X001101Y005846D01*
X001101Y005736D02*
X000956Y005736D01*
X000681Y006012D01*
X000681Y006156D01*
X001101Y006156D01*
X001201Y006156D01*
X001201Y006256D01*
X001621Y006256D01*
X001621Y006401D01*
X001346Y006676D01*
X001201Y006676D01*
X001201Y006257D01*
X001101Y006257D01*
X001101Y006676D01*
X000956Y006676D01*
X000681Y006401D01*
X000681Y006256D01*
X001101Y006256D01*
X001101Y006156D01*
X001101Y005736D01*
X001111Y005736D02*
X001111Y006156D01*
X001101Y006206D02*
X000401Y006206D01*
X000401Y006086D02*
X000681Y006086D01*
X000751Y006156D02*
X000751Y006256D01*
X000681Y006326D02*
X000401Y006326D01*
X000401Y006446D02*
X000726Y006446D01*
X000751Y006471D02*
X000751Y006857D01*
X000801Y006806D02*
X000401Y006806D01*
X000401Y006686D02*
X000921Y006686D01*
X000991Y006676D02*
X000991Y006676D01*
X001111Y006676D02*
X001111Y006257D01*
X001101Y006326D02*
X001201Y006326D01*
X001231Y006256D02*
X001231Y006156D01*
X001201Y006206D02*
X001621Y006206D01*
X001591Y006156D02*
X001591Y006256D01*
X001621Y006326D02*
X001621Y006326D01*
X001591Y006431D02*
X001591Y006897D01*
X001621Y006926D02*
X001681Y006926D01*
X001711Y006897D02*
X001711Y006516D01*
X001761Y006566D02*
X001456Y006566D01*
X001471Y006551D02*
X001471Y006777D01*
X001501Y006806D02*
X001801Y006806D01*
X001831Y006777D02*
X001831Y006636D01*
X001881Y006686D02*
X001381Y006686D01*
X001351Y006676D02*
X001351Y006671D01*
X001231Y006676D02*
X001231Y006676D01*
X001201Y006566D02*
X001101Y006566D01*
X001101Y006446D02*
X001201Y006446D01*
X001351Y006256D02*
X001351Y006156D01*
X001471Y006156D02*
X001471Y006256D01*
X001576Y006446D02*
X001641Y006446D01*
X001621Y006086D02*
X001621Y006086D01*
X001591Y005982D02*
X001591Y005516D01*
X001621Y005486D02*
X001681Y005486D01*
X001711Y005516D02*
X001711Y005897D01*
X001761Y005846D02*
X001456Y005846D01*
X001471Y005862D02*
X001471Y005636D01*
X001501Y005606D02*
X001801Y005606D01*
X001831Y005636D02*
X001831Y005777D01*
X001641Y005966D02*
X001576Y005966D01*
X001201Y005966D02*
X001101Y005966D01*
X001101Y006086D02*
X001201Y006086D01*
X000991Y006156D02*
X000991Y006256D01*
X000871Y006256D02*
X000871Y006156D01*
X000726Y005966D02*
X000401Y005966D01*
X000401Y005846D02*
X000846Y005846D01*
X000871Y005822D02*
X000871Y005676D01*
X000921Y005726D02*
X000401Y005726D01*
X000401Y005606D02*
X000801Y005606D01*
X000751Y005556D02*
X000751Y005942D01*
X000991Y005736D02*
X000991Y005736D01*
X000681Y005486D02*
X000401Y005486D01*
X000401Y005366D02*
X000621Y005366D01*
X000631Y005436D02*
X000631Y006977D01*
X000621Y007046D02*
X000401Y007046D01*
X000401Y006926D02*
X000681Y006926D01*
X000621Y007166D02*
X000401Y007166D01*
X000401Y007286D02*
X000621Y007286D01*
X000621Y007406D02*
X000401Y007406D01*
X000401Y007526D02*
X000721Y007526D01*
X000751Y007556D02*
X000751Y007857D01*
X000721Y007886D02*
X000401Y007886D01*
X000401Y007766D02*
X000841Y007766D01*
X000871Y007737D02*
X000871Y007676D01*
X000841Y007646D02*
X000401Y007646D01*
X000631Y007436D02*
X000631Y007977D01*
X000621Y008006D02*
X000401Y008006D01*
X000401Y008126D02*
X000621Y008126D01*
X000621Y008246D02*
X000401Y008246D01*
X000401Y008366D02*
X000621Y008366D01*
X000631Y008436D02*
X000631Y008977D01*
X000641Y008966D02*
X000401Y008966D01*
X000401Y008846D02*
X000761Y008846D01*
X000751Y008857D02*
X000751Y008556D01*
X000801Y008606D02*
X000401Y008606D01*
X000401Y008486D02*
X000681Y008486D01*
X000871Y008676D02*
X000871Y008737D01*
X000881Y008726D02*
X000401Y008726D01*
X000401Y009086D02*
X000621Y009086D01*
X000621Y009206D02*
X000401Y009206D01*
X000401Y009326D02*
X000621Y009326D01*
X000631Y009436D02*
X000631Y009977D01*
X000621Y010046D02*
X000401Y010046D01*
X000401Y009926D02*
X000681Y009926D01*
X000751Y009857D02*
X000751Y009556D01*
X000761Y009566D02*
X000401Y009566D01*
X000401Y009446D02*
X000641Y009446D01*
X000871Y009676D02*
X000871Y009737D01*
X000881Y009686D02*
X000401Y009686D01*
X000401Y009806D02*
X000801Y009806D01*
X000621Y010166D02*
X000401Y010166D01*
X000401Y010286D02*
X000621Y010286D01*
X000621Y010406D02*
X000401Y010406D01*
X000401Y010526D02*
X000721Y010526D01*
X000751Y010556D02*
X000751Y010942D01*
X000806Y010886D02*
X000401Y010886D01*
X000401Y010766D02*
X000926Y010766D01*
X000991Y010736D02*
X000991Y010736D01*
X001101Y010766D02*
X001201Y010766D01*
X001231Y010736D02*
X001231Y010736D01*
X001111Y010736D02*
X001111Y011156D01*
X001101Y011126D02*
X001201Y011126D01*
X001231Y011156D02*
X001231Y011256D01*
X001201Y011246D02*
X001621Y011246D01*
X001591Y011256D02*
X001591Y011156D01*
X001621Y011126D02*
X001621Y011126D01*
X001616Y011006D02*
X001621Y011006D01*
X001471Y011156D02*
X001471Y011256D01*
X001351Y011256D02*
X001351Y011156D01*
X001201Y011006D02*
X001101Y011006D01*
X001101Y010886D02*
X001201Y010886D01*
X000871Y010822D02*
X000871Y010676D01*
X000841Y010646D02*
X000401Y010646D01*
X000631Y010436D02*
X000631Y011977D01*
X000641Y011966D02*
X000401Y011966D01*
X000401Y011846D02*
X000761Y011846D01*
X000751Y011857D02*
X000751Y011471D01*
X000766Y011486D02*
X000401Y011486D01*
X000401Y011366D02*
X000681Y011366D01*
X000751Y011256D02*
X000751Y011156D01*
X000681Y011126D02*
X000401Y011126D01*
X000401Y011006D02*
X000686Y011006D01*
X000871Y011156D02*
X000871Y011256D01*
X000991Y011256D02*
X000991Y011156D01*
X001101Y011246D02*
X000401Y011246D01*
X000401Y011606D02*
X000886Y011606D01*
X000871Y011591D02*
X000871Y011737D01*
X000881Y011726D02*
X000401Y011726D01*
X000401Y012086D02*
X000621Y012086D01*
X000621Y012206D02*
X000401Y012206D01*
X000401Y012326D02*
X000621Y012326D01*
X000631Y012436D02*
X000631Y012977D01*
X000621Y013046D02*
X000401Y013046D01*
X000401Y012926D02*
X000681Y012926D01*
X000751Y012857D02*
X000751Y012556D01*
X000761Y012566D02*
X000401Y012566D01*
X000401Y012446D02*
X000641Y012446D01*
X000871Y012676D02*
X000871Y012737D01*
X000881Y012686D02*
X000401Y012686D01*
X000401Y012806D02*
X000801Y012806D01*
X000621Y013166D02*
X000401Y013166D01*
X000401Y013286D02*
X000621Y013286D01*
X000621Y013406D02*
X000401Y013406D01*
X000401Y013526D02*
X000721Y013526D01*
X000751Y013556D02*
X000751Y013857D01*
X000721Y013886D02*
X000401Y013886D01*
X000401Y013766D02*
X000841Y013766D01*
X000871Y013737D02*
X000871Y013676D01*
X000841Y013646D02*
X000401Y013646D01*
X000631Y013436D02*
X000631Y013977D01*
X000621Y014006D02*
X000401Y014006D01*
X000401Y014126D02*
X000621Y014126D01*
X000621Y014246D02*
X000401Y014246D01*
X000401Y014366D02*
X000621Y014366D01*
X000631Y014436D02*
X000631Y014977D01*
X000641Y014966D02*
X000401Y014966D01*
X000401Y014846D02*
X000761Y014846D01*
X000751Y014857D02*
X000751Y014556D01*
X000801Y014606D02*
X000401Y014606D01*
X000401Y014486D02*
X000681Y014486D01*
X000871Y014676D02*
X000871Y014737D01*
X000881Y014726D02*
X000401Y014726D01*
X000401Y015086D02*
X000621Y015086D01*
X000621Y015206D02*
X000401Y015206D01*
X000401Y015326D02*
X000621Y015326D01*
X000631Y015436D02*
X000631Y016977D01*
X000621Y017006D02*
X000401Y017006D01*
X000401Y016886D02*
X000721Y016886D01*
X000751Y016857D02*
X000751Y016471D01*
X000806Y016526D02*
X000401Y016526D01*
X000401Y016406D02*
X000686Y016406D01*
X000681Y016401D02*
X000681Y016256D01*
X001101Y016256D01*
X001101Y016156D01*
X001201Y016156D01*
X001201Y015736D01*
X001346Y015736D01*
X001621Y016012D01*
X001621Y016156D01*
X001201Y016156D01*
X001201Y016256D01*
X001621Y016256D01*
X001621Y016401D01*
X001346Y016676D01*
X001201Y016676D01*
X001201Y016257D01*
X001101Y016257D01*
X001101Y016676D01*
X000956Y016676D01*
X000681Y016401D01*
X000681Y016286D02*
X000401Y016286D01*
X000401Y016166D02*
X001101Y016166D01*
X001101Y016156D02*
X000681Y016156D01*
X000681Y016012D01*
X000956Y015736D01*
X001101Y015736D01*
X001101Y016156D01*
X001111Y016156D02*
X001111Y015736D01*
X001101Y015806D02*
X001201Y015806D01*
X001231Y015736D02*
X001231Y015736D01*
X001351Y015736D02*
X001351Y015742D01*
X001421Y015686D02*
X001881Y015686D01*
X001831Y015636D02*
X001831Y015777D01*
X001801Y015806D02*
X001416Y015806D01*
X001471Y015862D02*
X001471Y015636D01*
X001541Y015566D02*
X001761Y015566D01*
X001711Y015516D02*
X001711Y015897D01*
X001681Y015926D02*
X001536Y015926D01*
X001591Y015982D02*
X001591Y015516D01*
X001201Y015926D02*
X001101Y015926D01*
X001101Y016046D02*
X001201Y016046D01*
X001231Y016156D02*
X001231Y016256D01*
X001201Y016286D02*
X001101Y016286D01*
X001111Y016257D02*
X001111Y016676D01*
X001101Y016646D02*
X001201Y016646D01*
X001231Y016676D02*
X001231Y016676D01*
X001351Y016671D02*
X001351Y016676D01*
X001376Y016646D02*
X001841Y016646D01*
X001831Y016636D02*
X001831Y016777D01*
X001841Y016766D02*
X001461Y016766D01*
X001471Y016777D02*
X001471Y016551D01*
X001496Y016526D02*
X001721Y016526D01*
X001711Y016516D02*
X001711Y016897D01*
X001721Y016886D02*
X001581Y016886D01*
X001591Y016897D02*
X001591Y016431D01*
X001616Y016406D02*
X001621Y016406D01*
X001621Y016286D02*
X001621Y016286D01*
X001591Y016256D02*
X001591Y016156D01*
X001621Y016166D02*
X001201Y016166D01*
X001351Y016156D02*
X001351Y016256D01*
X001471Y016256D02*
X001471Y016156D01*
X001621Y016046D02*
X001621Y016046D01*
X001201Y016406D02*
X001101Y016406D01*
X001101Y016526D02*
X001201Y016526D01*
X000991Y016676D02*
X000991Y016676D01*
X000926Y016646D02*
X000401Y016646D01*
X000401Y016766D02*
X000841Y016766D01*
X000871Y016737D02*
X000871Y016591D01*
X000871Y016256D02*
X000871Y016156D01*
X000991Y016156D02*
X000991Y016256D01*
X000751Y016256D02*
X000751Y016156D01*
X000681Y016046D02*
X000401Y016046D01*
X000401Y015926D02*
X000766Y015926D01*
X000751Y015942D02*
X000751Y015556D01*
X000761Y015566D02*
X000401Y015566D01*
X000401Y015446D02*
X000641Y015446D01*
X000871Y015676D02*
X000871Y015822D01*
X000886Y015806D02*
X000401Y015806D01*
X000401Y015686D02*
X000881Y015686D01*
X000991Y015736D02*
X000991Y015736D01*
X002421Y015686D02*
X013223Y015686D01*
X013231Y015711D02*
X013231Y016578D01*
X013111Y016578D02*
X013111Y014576D01*
X012991Y014576D02*
X012991Y016609D01*
X012906Y016646D02*
X002461Y016646D01*
X002431Y016676D02*
X002431Y016737D01*
X002671Y016836D02*
X002671Y016436D01*
X002681Y016406D02*
X023128Y016406D01*
X023071Y016350D02*
X023071Y016677D01*
X023041Y016646D02*
X023281Y016646D01*
X023281Y016766D02*
X023161Y016766D01*
X023181Y016886D02*
X023281Y016886D01*
X023281Y017006D02*
X023181Y017006D01*
X023181Y017126D02*
X023281Y017126D01*
X023281Y017246D02*
X023161Y017246D01*
X023071Y017336D02*
X023071Y018236D01*
X023191Y018236D02*
X023191Y016470D01*
X023248Y016526D02*
X022921Y016526D01*
X022951Y016557D02*
X022951Y016230D01*
X023008Y016286D02*
X002681Y016286D01*
X002681Y016166D02*
X022888Y016166D01*
X022831Y016110D02*
X022831Y016476D01*
X022711Y016476D02*
X022711Y015990D01*
X022768Y016046D02*
X002681Y016046D01*
X002551Y015857D02*
X002551Y015556D01*
X002541Y015566D02*
X013223Y015566D01*
X013270Y015806D02*
X002501Y015806D01*
X002431Y015737D02*
X002431Y015676D01*
X000621Y017126D02*
X000401Y017126D01*
X000401Y017246D02*
X000621Y017246D01*
X000621Y017366D02*
X000401Y017366D01*
X000401Y017486D02*
X000681Y017486D01*
X000631Y017436D02*
X000631Y017977D01*
X000641Y017966D02*
X000401Y017966D01*
X000401Y017846D02*
X000761Y017846D01*
X000751Y017857D02*
X000751Y017556D01*
X000801Y017606D02*
X000401Y017606D01*
X000401Y017726D02*
X000881Y017726D01*
X000871Y017737D02*
X000871Y017676D01*
X000621Y018086D02*
X000401Y018086D01*
X000401Y018206D02*
X000621Y018206D01*
X000621Y018326D02*
X000401Y018326D01*
X000401Y018446D02*
X000641Y018446D01*
X000631Y018436D02*
X000631Y018977D01*
X000621Y019046D02*
X000401Y019046D01*
X000401Y018926D02*
X000681Y018926D01*
X000751Y018857D02*
X000751Y018556D01*
X000761Y018566D02*
X000401Y018566D01*
X000401Y018686D02*
X000881Y018686D01*
X000871Y018676D02*
X000871Y018737D01*
X000801Y018806D02*
X000401Y018806D01*
X000401Y019166D02*
X000621Y019166D01*
X000621Y019286D02*
X000401Y019286D01*
X000401Y019406D02*
X000621Y019406D01*
X000631Y019436D02*
X000631Y019977D01*
X000621Y020006D02*
X000401Y020006D01*
X000401Y019886D02*
X000721Y019886D01*
X000751Y019857D02*
X000751Y019556D01*
X000721Y019526D02*
X000401Y019526D01*
X000401Y019646D02*
X000841Y019646D01*
X000871Y019676D02*
X000871Y019737D01*
X000841Y019766D02*
X000401Y019766D01*
X000401Y020126D02*
X000621Y020126D01*
X000621Y020246D02*
X000401Y020246D01*
X000401Y020366D02*
X000621Y020366D01*
X000631Y020436D02*
X000631Y020956D01*
X000751Y020956D02*
X000751Y020556D01*
X000801Y020606D02*
X000401Y020606D01*
X000401Y020486D02*
X000681Y020486D01*
X000871Y020676D02*
X000871Y020956D01*
X000511Y020952D02*
X000511Y000478D01*
X000631Y000456D02*
X000631Y000977D01*
X000621Y001046D02*
X000401Y001046D01*
X000401Y000926D02*
X000681Y000926D01*
X000751Y000857D02*
X000751Y000456D01*
X000871Y000456D02*
X000871Y000737D01*
X000801Y000806D02*
X000401Y000806D01*
X000401Y001166D02*
X000621Y001166D01*
X000621Y001286D02*
X000401Y001286D01*
X000401Y001406D02*
X000621Y001406D01*
X000631Y001436D02*
X000631Y002977D01*
X000641Y002966D02*
X000401Y002966D01*
X000401Y002846D02*
X000761Y002846D01*
X000751Y002857D02*
X000751Y002471D01*
X000766Y002486D02*
X000401Y002486D01*
X000401Y002366D02*
X000681Y002366D01*
X000751Y002256D02*
X000751Y002156D01*
X000681Y002126D02*
X000401Y002126D01*
X000401Y002006D02*
X000686Y002006D01*
X000751Y001942D02*
X000751Y001556D01*
X000721Y001526D02*
X000401Y001526D01*
X000401Y001646D02*
X000841Y001646D01*
X000871Y001676D02*
X000871Y001822D01*
X000926Y001766D02*
X000401Y001766D01*
X000401Y001886D02*
X000806Y001886D01*
X000991Y001736D02*
X000991Y001736D01*
X001101Y001886D02*
X001201Y001886D01*
X001201Y002006D02*
X001101Y002006D01*
X000991Y002156D02*
X000991Y002256D01*
X001101Y002246D02*
X000401Y002246D01*
X000401Y002606D02*
X000886Y002606D01*
X000871Y002591D02*
X000871Y002737D01*
X000881Y002726D02*
X000401Y002726D01*
X000401Y003086D02*
X000621Y003086D01*
X000621Y003206D02*
X000401Y003206D01*
X000401Y003326D02*
X000621Y003326D01*
X000631Y003436D02*
X000631Y003977D01*
X000621Y004046D02*
X000401Y004046D01*
X000401Y003926D02*
X000681Y003926D01*
X000751Y003857D02*
X000751Y003556D01*
X000761Y003566D02*
X000401Y003566D01*
X000401Y003446D02*
X000641Y003446D01*
X000871Y003676D02*
X000871Y003737D01*
X000881Y003686D02*
X000401Y003686D01*
X000401Y003806D02*
X000801Y003806D01*
X000621Y004166D02*
X000401Y004166D01*
X000401Y004286D02*
X000621Y004286D01*
X000621Y004406D02*
X000401Y004406D01*
X000401Y004526D02*
X000721Y004526D01*
X000751Y004556D02*
X000751Y004857D01*
X000721Y004886D02*
X000401Y004886D01*
X000401Y004766D02*
X000841Y004766D01*
X000871Y004737D02*
X000871Y004676D01*
X000841Y004646D02*
X000401Y004646D01*
X000631Y004436D02*
X000631Y004977D01*
X000621Y005006D02*
X000401Y005006D01*
X000401Y005126D02*
X000621Y005126D01*
X000621Y005246D02*
X000401Y005246D01*
X001401Y004706D02*
X001651Y004456D01*
X001901Y004706D01*
X001651Y004957D01*
X001401Y004706D01*
X001461Y004646D02*
X001841Y004646D01*
X001831Y004636D02*
X001831Y004777D01*
X001841Y004766D02*
X001461Y004766D01*
X001471Y004777D02*
X001471Y004636D01*
X001581Y004526D02*
X001721Y004526D01*
X001711Y004516D02*
X001711Y004897D01*
X001721Y004886D02*
X001581Y004886D01*
X001591Y004897D02*
X001591Y004516D01*
X001651Y003957D02*
X001901Y003706D01*
X001651Y003456D01*
X001401Y003706D01*
X001651Y003957D01*
X001621Y003926D02*
X001681Y003926D01*
X001711Y003897D02*
X001711Y003516D01*
X001761Y003566D02*
X001541Y003566D01*
X001591Y003516D02*
X001591Y003897D01*
X001501Y003806D02*
X001801Y003806D01*
X001831Y003777D02*
X001831Y003636D01*
X001881Y003686D02*
X001421Y003686D01*
X001471Y003636D02*
X001471Y003777D01*
X001591Y002897D02*
X001591Y002431D01*
X001621Y002366D02*
X001621Y002366D01*
X001681Y002486D02*
X001536Y002486D01*
X001471Y002551D02*
X001471Y002777D01*
X001421Y002726D02*
X001881Y002726D01*
X001831Y002777D02*
X001831Y002636D01*
X001801Y002606D02*
X001416Y002606D01*
X001351Y002671D02*
X001351Y002676D01*
X001231Y002676D02*
X001231Y002676D01*
X001201Y002606D02*
X001101Y002606D01*
X001111Y002676D02*
X001111Y002257D01*
X001101Y002366D02*
X001201Y002366D01*
X001201Y002486D02*
X001101Y002486D01*
X000991Y002676D02*
X000991Y002676D01*
X000871Y002256D02*
X000871Y002156D01*
X001351Y002156D02*
X001351Y002256D01*
X001471Y002256D02*
X001471Y002156D01*
X001711Y002516D02*
X001711Y002897D01*
X001761Y002846D02*
X001541Y002846D01*
X000846Y006566D02*
X000401Y006566D01*
X000871Y006591D02*
X000871Y006737D01*
X005994Y010886D02*
X006848Y010886D01*
X006871Y010863D02*
X006871Y010010D01*
X006881Y010000D02*
X006861Y010020D01*
X005861Y011020D01*
X005725Y011076D01*
X002681Y011076D01*
X002681Y011426D01*
X002401Y011706D01*
X002531Y011836D01*
X005898Y011836D01*
X006881Y010853D01*
X006881Y010000D01*
X006881Y010046D02*
X006834Y010046D01*
X006751Y010130D02*
X006751Y010983D01*
X006728Y011006D02*
X005874Y011006D01*
X005911Y010970D02*
X005911Y011823D01*
X005791Y011836D02*
X005791Y011049D01*
X005671Y011076D02*
X005671Y011836D01*
X005551Y011836D02*
X005551Y011076D01*
X005431Y011076D02*
X005431Y011836D01*
X005311Y011836D02*
X005311Y011076D01*
X005191Y011076D02*
X005191Y011836D01*
X005071Y011836D02*
X005071Y011076D01*
X004951Y011076D02*
X004951Y011836D01*
X004831Y011836D02*
X004831Y011076D01*
X004711Y011076D02*
X004711Y011836D01*
X004591Y011836D02*
X004591Y011076D01*
X004471Y011076D02*
X004471Y011836D01*
X004351Y011836D02*
X004351Y011076D01*
X004231Y011076D02*
X004231Y011836D01*
X004111Y011836D02*
X004111Y011076D01*
X003991Y011076D02*
X003991Y011836D01*
X003871Y011836D02*
X003871Y011076D01*
X003751Y011076D02*
X003751Y011836D01*
X003631Y011836D02*
X003631Y011076D01*
X003511Y011076D02*
X003511Y011836D01*
X003391Y011836D02*
X003391Y011076D01*
X003271Y011076D02*
X003271Y011836D01*
X003151Y011836D02*
X003151Y011076D01*
X003031Y011076D02*
X003031Y011836D01*
X002911Y011836D02*
X002911Y011076D01*
X002791Y011076D02*
X002791Y011836D01*
X002671Y011836D02*
X002671Y011436D01*
X002681Y011366D02*
X006368Y011366D01*
X006391Y011343D02*
X006391Y010490D01*
X006354Y010526D02*
X006881Y010526D01*
X006881Y010406D02*
X006474Y010406D01*
X006511Y010370D02*
X006511Y011223D01*
X006488Y011246D02*
X002681Y011246D01*
X002681Y011126D02*
X006608Y011126D01*
X006631Y011103D02*
X006631Y010250D01*
X006594Y010286D02*
X006881Y010286D01*
X006881Y010166D02*
X006714Y010166D01*
X006881Y010646D02*
X006234Y010646D01*
X006271Y010610D02*
X006271Y011463D01*
X006248Y011486D02*
X002621Y011486D01*
X002551Y011556D02*
X002551Y011836D01*
X002431Y011737D02*
X002431Y011676D01*
X002421Y011726D02*
X006008Y011726D01*
X006031Y011703D02*
X006031Y010850D01*
X006114Y010766D02*
X006881Y010766D01*
X006151Y010730D02*
X006151Y011583D01*
X006128Y011606D02*
X002501Y011606D01*
X001881Y011726D02*
X001421Y011726D01*
X001471Y011777D02*
X001471Y011551D01*
X001416Y011606D02*
X001801Y011606D01*
X001831Y011636D02*
X001831Y011777D01*
X001761Y011846D02*
X001541Y011846D01*
X001591Y011897D02*
X001591Y011431D01*
X001621Y011366D02*
X001621Y011366D01*
X001681Y011486D02*
X001536Y011486D01*
X001711Y011516D02*
X001711Y011897D01*
X001351Y011676D02*
X001351Y011671D01*
X001231Y011676D02*
X001231Y011676D01*
X001201Y011606D02*
X001101Y011606D01*
X001111Y011676D02*
X001111Y011257D01*
X001101Y011366D02*
X001201Y011366D01*
X001201Y011486D02*
X001101Y011486D01*
X000991Y011676D02*
X000991Y011676D01*
X007831Y014650D02*
X007831Y016836D01*
X007951Y016836D02*
X007951Y014530D01*
X007994Y014486D02*
X010526Y014486D01*
X010591Y014552D02*
X010591Y016836D01*
X010711Y016836D02*
X010711Y014612D01*
X010698Y014606D02*
X007874Y014606D01*
X008071Y014410D02*
X008071Y016836D01*
X008191Y016836D02*
X008191Y014290D01*
X008234Y014246D02*
X010423Y014246D01*
X010423Y014126D02*
X008354Y014126D01*
X008311Y014170D02*
X008311Y016836D01*
X008431Y016836D02*
X008431Y014050D01*
X008474Y014006D02*
X010470Y014006D01*
X010471Y014005D02*
X010471Y008676D01*
X010591Y008676D02*
X010591Y013861D01*
X010566Y013886D02*
X008594Y013886D01*
X008551Y013930D02*
X008551Y016836D01*
X008671Y016836D02*
X008671Y013810D01*
X008714Y013766D02*
X020341Y013766D01*
X020311Y013797D02*
X020311Y006476D01*
X020431Y006476D02*
X020431Y013677D01*
X020551Y013676D02*
X020551Y006476D01*
X020671Y006476D02*
X020671Y013676D01*
X020791Y013676D02*
X020791Y006476D01*
X020911Y006476D02*
X020911Y013717D01*
X020961Y013766D02*
X021341Y013766D01*
X021391Y013717D02*
X021391Y006476D01*
X021511Y006476D02*
X021511Y013676D01*
X021631Y013676D02*
X021631Y006476D01*
X021751Y006476D02*
X021751Y013676D01*
X021871Y013677D02*
X021871Y006476D01*
X021991Y006476D02*
X021991Y013797D01*
X021961Y013766D02*
X025701Y013766D01*
X025701Y013646D02*
X008834Y013646D01*
X008791Y013690D02*
X008791Y016836D01*
X008911Y016836D02*
X008911Y013570D01*
X008954Y013526D02*
X025701Y013526D01*
X025701Y013406D02*
X009074Y013406D01*
X009031Y013450D02*
X009031Y016836D01*
X009151Y016836D02*
X009151Y013330D01*
X009194Y013286D02*
X025701Y013286D01*
X025701Y013166D02*
X009314Y013166D01*
X009271Y013210D02*
X009271Y016836D01*
X009391Y016836D02*
X009391Y013090D01*
X009434Y013046D02*
X025701Y013046D01*
X025701Y012926D02*
X009554Y012926D01*
X009511Y012970D02*
X009511Y016836D01*
X009631Y016836D02*
X009631Y012850D01*
X009674Y012806D02*
X025701Y012806D01*
X025701Y012686D02*
X009794Y012686D01*
X009751Y012730D02*
X009751Y016836D01*
X009871Y016836D02*
X009871Y012610D01*
X009914Y012566D02*
X025701Y012566D01*
X025701Y012446D02*
X010034Y012446D01*
X009991Y012490D02*
X009991Y016836D01*
X010111Y016836D02*
X010111Y012304D01*
X010102Y012326D02*
X025701Y012326D01*
X025701Y012206D02*
X010121Y012206D01*
X010121Y012086D02*
X025701Y012086D01*
X025701Y011966D02*
X010121Y011966D01*
X010121Y011846D02*
X025701Y011846D01*
X025701Y011726D02*
X010121Y011726D01*
X010121Y011606D02*
X025701Y011606D01*
X025701Y011486D02*
X010121Y011486D01*
X010121Y011366D02*
X025701Y011366D01*
X025701Y011246D02*
X010121Y011246D01*
X010121Y011126D02*
X025701Y011126D01*
X025701Y011006D02*
X010121Y011006D01*
X010121Y010886D02*
X012450Y010886D01*
X012511Y010912D02*
X012511Y013836D01*
X012631Y013836D02*
X012631Y010935D01*
X012751Y010928D02*
X012751Y013836D01*
X012871Y013836D02*
X012871Y010879D01*
X012852Y010886D02*
X025701Y010886D01*
X025701Y010766D02*
X014314Y010766D01*
X014311Y010770D02*
X014311Y013836D01*
X014431Y013836D02*
X014431Y010650D01*
X014434Y010646D02*
X025701Y010646D01*
X025701Y010526D02*
X014554Y010526D01*
X014551Y010530D02*
X014551Y013836D01*
X014671Y013836D02*
X014671Y010410D01*
X014674Y010406D02*
X025701Y010406D01*
X025701Y010286D02*
X014794Y010286D01*
X014791Y010290D02*
X014791Y013836D01*
X014911Y013836D02*
X014911Y010170D01*
X014914Y010166D02*
X025701Y010166D01*
X025701Y010046D02*
X015034Y010046D01*
X015031Y010050D02*
X015031Y013836D01*
X015151Y013836D02*
X015151Y009930D01*
X015154Y009926D02*
X025701Y009926D01*
X025701Y009806D02*
X015274Y009806D01*
X015271Y009810D02*
X015271Y013836D01*
X015391Y013836D02*
X015391Y009690D01*
X015394Y009686D02*
X025701Y009686D01*
X025701Y009566D02*
X015514Y009566D01*
X015511Y009570D02*
X015511Y013836D01*
X015631Y013836D02*
X015631Y009450D01*
X015634Y009446D02*
X025701Y009446D01*
X025701Y009326D02*
X015754Y009326D01*
X015751Y009330D02*
X015751Y013836D01*
X015871Y013836D02*
X015871Y009210D01*
X015874Y009206D02*
X025701Y009206D01*
X025701Y009086D02*
X015994Y009086D01*
X015991Y009090D02*
X015991Y013836D01*
X016111Y013836D02*
X016111Y008970D01*
X016114Y008966D02*
X025701Y008966D01*
X025701Y008846D02*
X016234Y008846D01*
X016231Y008850D02*
X016231Y013836D01*
X016351Y013836D02*
X016351Y008730D01*
X016354Y008726D02*
X025701Y008726D01*
X025701Y008606D02*
X016474Y008606D01*
X016471Y008610D02*
X016471Y013836D01*
X016591Y013836D02*
X016591Y008490D01*
X016594Y008486D02*
X025701Y008486D01*
X025701Y008366D02*
X016714Y008366D01*
X016711Y008370D02*
X016711Y013836D01*
X016831Y013836D02*
X016831Y008250D01*
X016834Y008246D02*
X025701Y008246D01*
X025701Y008126D02*
X016954Y008126D01*
X016951Y008130D02*
X016951Y013836D01*
X017071Y013836D02*
X017071Y008010D01*
X017074Y008006D02*
X025701Y008006D01*
X025701Y007886D02*
X017194Y007886D01*
X017191Y007890D02*
X017191Y013836D01*
X017311Y013836D02*
X017311Y007770D01*
X017314Y007766D02*
X025701Y007766D01*
X025701Y007646D02*
X017434Y007646D01*
X017431Y007650D02*
X017431Y013836D01*
X017551Y013836D02*
X017551Y007530D01*
X017554Y007526D02*
X025701Y007526D01*
X025701Y007406D02*
X017674Y007406D01*
X017671Y007410D02*
X017671Y013836D01*
X017791Y013836D02*
X017791Y007290D01*
X017794Y007286D02*
X025701Y007286D01*
X025701Y007166D02*
X017914Y007166D01*
X017911Y007170D02*
X017911Y013836D01*
X018031Y013836D02*
X018031Y007050D01*
X018034Y007046D02*
X025701Y007046D01*
X025701Y006926D02*
X018154Y006926D01*
X018151Y006930D02*
X018151Y013836D01*
X018271Y013836D02*
X018271Y006810D01*
X018274Y006806D02*
X025701Y006806D01*
X025701Y006686D02*
X018394Y006686D01*
X018391Y006690D02*
X018391Y013836D01*
X018511Y013836D02*
X018511Y006570D01*
X018514Y006566D02*
X025701Y006566D01*
X025701Y005006D02*
X025510Y005006D01*
X025521Y004886D02*
X025701Y004886D01*
X025701Y004766D02*
X025521Y004766D01*
X025521Y004646D02*
X025701Y004646D01*
X025701Y004526D02*
X025521Y004526D01*
X025521Y004406D02*
X025701Y004406D01*
X025701Y004286D02*
X025521Y004286D01*
X025521Y004166D02*
X025701Y004166D01*
X025701Y004046D02*
X025521Y004046D01*
X025521Y003926D02*
X025701Y003926D01*
X025701Y003806D02*
X025521Y003806D01*
X025521Y003686D02*
X025701Y003686D01*
X025701Y003566D02*
X025521Y003566D01*
X025521Y003446D02*
X025701Y003446D01*
X025701Y003326D02*
X025521Y003326D01*
X025521Y003206D02*
X025701Y003206D01*
X025701Y003086D02*
X025521Y003086D01*
X025521Y002966D02*
X025701Y002966D01*
X025701Y002846D02*
X025521Y002846D01*
X025521Y002726D02*
X025701Y002726D01*
X025701Y002606D02*
X025521Y002606D01*
X025521Y002486D02*
X025701Y002486D01*
X025701Y002366D02*
X025521Y002366D01*
X025521Y002246D02*
X025701Y002246D01*
X025701Y002126D02*
X025521Y002126D01*
X025521Y002006D02*
X025701Y002006D01*
X025701Y001886D02*
X025521Y001886D01*
X025521Y001766D02*
X025701Y001766D01*
X025701Y001646D02*
X025521Y001646D01*
X022111Y006476D02*
X022111Y013917D01*
X022081Y013886D02*
X025701Y013886D01*
X025701Y014006D02*
X022181Y014006D01*
X022181Y014126D02*
X025701Y014126D01*
X025701Y014246D02*
X022181Y014246D01*
X022181Y014366D02*
X025701Y014366D01*
X025701Y014726D02*
X021881Y014726D01*
X021871Y014736D02*
X021431Y014736D01*
X021151Y014456D01*
X021151Y015236D01*
X021271Y015236D02*
X021271Y014576D01*
X021301Y014606D02*
X021001Y014606D01*
X021031Y014576D02*
X021031Y015236D01*
X020911Y015236D02*
X020911Y014696D01*
X020881Y014726D02*
X021421Y014726D01*
X021391Y014696D02*
X021391Y015236D01*
X021511Y015236D02*
X021511Y014736D01*
X021631Y014736D02*
X021631Y015236D01*
X021751Y015236D02*
X021751Y014736D01*
X021181Y014486D02*
X021121Y014486D01*
X021151Y014456D02*
X020871Y014736D01*
X020431Y014736D01*
X020311Y014616D02*
X020311Y015236D01*
X020191Y015236D02*
X020191Y014576D01*
X020301Y014606D02*
X011004Y014606D01*
X010951Y014628D02*
X010951Y016836D01*
X011071Y016836D02*
X011071Y014579D01*
X011191Y014576D02*
X011191Y016836D01*
X011311Y016836D02*
X011311Y014576D01*
X011431Y014576D02*
X011431Y016836D01*
X011551Y016836D02*
X011551Y014576D01*
X011671Y014576D02*
X011671Y016836D01*
X011791Y016836D02*
X011791Y014576D01*
X011911Y014576D02*
X011911Y016836D01*
X012031Y016836D02*
X012031Y014576D01*
X012151Y014576D02*
X012151Y016836D01*
X012271Y016856D02*
X012271Y014576D01*
X012391Y014576D02*
X012391Y016923D01*
X012345Y016886D02*
X012737Y016886D01*
X012751Y016853D02*
X012751Y014576D01*
X012871Y014576D02*
X012871Y016681D01*
X012788Y016764D02*
X012723Y016921D01*
X012723Y017092D01*
X012788Y017249D01*
X012908Y017369D01*
X013066Y017435D01*
X013236Y017435D01*
X013280Y017416D01*
X018522Y017416D01*
X018566Y017435D01*
X018736Y017435D01*
X018780Y017416D01*
X020311Y017416D01*
X020311Y017496D01*
X020381Y017486D02*
X017756Y017486D01*
X017736Y017478D02*
X017780Y017496D01*
X020391Y017496D01*
X020311Y017416D01*
X020191Y017416D02*
X020191Y017496D01*
X020071Y017496D02*
X020071Y017416D01*
X019951Y017416D02*
X019951Y017496D01*
X019831Y017496D02*
X019831Y017416D01*
X019711Y017416D02*
X019711Y017496D01*
X019591Y017496D02*
X019591Y017416D01*
X019471Y017416D02*
X019471Y017496D01*
X019351Y017496D02*
X019351Y017416D01*
X019231Y017416D02*
X019231Y017496D01*
X019111Y017496D02*
X019111Y017416D01*
X018991Y017416D02*
X018991Y017496D01*
X018871Y017496D02*
X018871Y017416D01*
X018751Y017428D02*
X018751Y017496D01*
X018631Y017496D02*
X018631Y017435D01*
X018511Y017416D02*
X018511Y017496D01*
X018391Y017496D02*
X018391Y017416D01*
X018271Y017416D02*
X018271Y017496D01*
X018151Y017496D02*
X018151Y017416D01*
X018031Y017416D02*
X018031Y017496D01*
X017911Y017496D02*
X017911Y017416D01*
X017791Y017416D02*
X017791Y017496D01*
X017736Y017478D02*
X017566Y017478D01*
X017522Y017496D01*
X014280Y017496D01*
X014236Y017478D01*
X014066Y017478D01*
X013908Y017544D01*
X013788Y017664D01*
X013723Y017821D01*
X013723Y017992D01*
X013788Y018149D01*
X013908Y018269D01*
X014066Y018335D01*
X014236Y018335D01*
X014280Y018316D01*
X017522Y018316D01*
X017566Y018335D01*
X017736Y018335D01*
X017780Y018316D01*
X021818Y018316D01*
X021441Y018693D01*
X021337Y018797D01*
X021281Y018933D01*
X021281Y019626D01*
X021194Y019626D01*
X021071Y019750D01*
X021071Y019806D01*
X020980Y019715D01*
X020766Y019626D01*
X020536Y019626D01*
X020322Y019715D01*
X020159Y019878D01*
X020151Y019898D01*
X020143Y019878D01*
X019980Y019715D01*
X019766Y019626D01*
X019536Y019626D01*
X019322Y019715D01*
X019159Y019878D01*
X019151Y019898D01*
X019143Y019878D01*
X018980Y019715D01*
X018766Y019626D01*
X018536Y019626D01*
X018322Y019715D01*
X018159Y019878D01*
X018151Y019898D01*
X018151Y018316D01*
X018271Y018316D02*
X018271Y019766D01*
X018031Y019766D01*
X018031Y018316D01*
X017911Y018316D02*
X017911Y019686D01*
X017980Y019715D02*
X018143Y019878D01*
X018151Y019898D01*
X018146Y019886D02*
X018156Y019886D01*
X017980Y019715D02*
X017766Y019626D01*
X017536Y019626D01*
X017322Y019715D01*
X017159Y019878D01*
X017118Y019978D01*
X017096Y019934D01*
X017048Y019868D01*
X016990Y019810D01*
X016924Y019762D01*
X016851Y019725D01*
X016773Y019699D01*
X016701Y019688D01*
X016701Y020156D01*
X016601Y020156D01*
X016601Y019688D01*
X016529Y019699D01*
X016451Y019725D01*
X016378Y019762D01*
X016312Y019810D01*
X016254Y019868D01*
X016206Y019934D01*
X016169Y020007D01*
X016151Y020063D01*
X016133Y020007D01*
X016096Y019934D01*
X016048Y019868D01*
X015990Y019810D01*
X015924Y019762D01*
X015851Y019725D01*
X015773Y019699D01*
X015701Y019688D01*
X015701Y020156D01*
X015601Y020156D01*
X015601Y019688D01*
X015529Y019699D01*
X015451Y019725D01*
X015378Y019762D01*
X015312Y019810D01*
X015254Y019868D01*
X015206Y019934D01*
X015184Y019978D01*
X015143Y019878D01*
X014980Y019715D01*
X014766Y019626D01*
X014536Y019626D01*
X014322Y019715D01*
X014159Y019878D01*
X014071Y020091D01*
X014071Y018335D01*
X014046Y018326D02*
X013021Y018326D01*
X013021Y018206D02*
X013846Y018206D01*
X013831Y018192D02*
X013831Y020956D01*
X013951Y020956D02*
X013951Y018287D01*
X014191Y018335D02*
X014191Y019846D01*
X014156Y019886D02*
X013231Y019886D01*
X013231Y019766D02*
X014271Y019766D01*
X014311Y019726D02*
X014311Y018316D01*
X014256Y018326D02*
X017546Y018326D01*
X017551Y018328D02*
X017551Y019626D01*
X017487Y019646D02*
X014815Y019646D01*
X014791Y019637D02*
X014791Y018316D01*
X014911Y018316D02*
X014911Y019686D01*
X015031Y019766D02*
X015031Y018316D01*
X015151Y018316D02*
X015151Y019898D01*
X015146Y019886D02*
X015241Y019886D01*
X015271Y019851D02*
X015271Y018316D01*
X015391Y018316D02*
X015391Y019755D01*
X015372Y019766D02*
X015031Y019766D01*
X014671Y019626D02*
X014671Y018316D01*
X014551Y018316D02*
X014551Y019626D01*
X014487Y019646D02*
X013128Y019646D01*
X013111Y019630D02*
X013111Y017435D01*
X013231Y017435D02*
X013231Y020956D01*
X013351Y020956D02*
X013351Y017416D01*
X013471Y017416D02*
X013471Y020956D01*
X013591Y020956D02*
X013591Y017416D01*
X013711Y017416D02*
X013711Y020956D01*
X014071Y020956D02*
X014071Y020322D01*
X014071Y020091D01*
X014071Y020126D02*
X013231Y020126D01*
X013231Y020006D02*
X014106Y020006D01*
X014071Y020246D02*
X013231Y020246D01*
X013231Y020366D02*
X014089Y020366D01*
X014071Y020322D02*
X014159Y020535D01*
X014322Y020698D01*
X014536Y020786D01*
X014766Y020786D01*
X014980Y020698D01*
X015143Y020535D01*
X015184Y020435D01*
X015206Y020479D01*
X015254Y020545D01*
X015312Y020603D01*
X015378Y020651D01*
X015451Y020688D01*
X015529Y020714D01*
X015601Y020725D01*
X015601Y020257D01*
X015701Y020257D01*
X015701Y020725D01*
X015773Y020714D01*
X015851Y020688D01*
X015924Y020651D01*
X015990Y020603D01*
X016048Y020545D01*
X016096Y020479D01*
X016133Y020406D01*
X016151Y020350D01*
X016169Y020406D01*
X016206Y020479D01*
X016254Y020545D01*
X016312Y020603D01*
X016378Y020651D01*
X016451Y020688D01*
X016529Y020714D01*
X016601Y020725D01*
X016601Y020257D01*
X016701Y020257D01*
X016701Y020725D01*
X016773Y020714D01*
X016851Y020688D01*
X016924Y020651D01*
X016990Y020603D01*
X017048Y020545D01*
X017096Y020479D01*
X017118Y020435D01*
X017159Y020535D01*
X017322Y020698D01*
X017536Y020786D01*
X017766Y020786D01*
X017980Y020698D01*
X018143Y020535D01*
X018151Y020515D01*
X017791Y020776D02*
X017791Y020956D01*
X017671Y020956D02*
X017671Y020786D01*
X017551Y020786D02*
X017551Y020956D01*
X017431Y020956D02*
X017431Y020743D01*
X017391Y020726D02*
X014911Y020726D01*
X014911Y020727D02*
X014911Y020956D01*
X015031Y020956D02*
X015031Y020647D01*
X015071Y020606D02*
X015317Y020606D01*
X015271Y020562D02*
X015271Y020956D01*
X015391Y020956D02*
X015391Y020658D01*
X015511Y020708D02*
X015511Y020956D01*
X015631Y020956D02*
X015631Y020257D01*
X015701Y020256D02*
X016170Y020256D01*
X016601Y020256D01*
X016601Y020156D01*
X015701Y020156D01*
X015701Y020256D01*
X015701Y020246D02*
X016601Y020246D01*
X016591Y020256D02*
X016591Y020156D01*
X016601Y020126D02*
X016701Y020126D01*
X016701Y020006D02*
X016601Y020006D01*
X016601Y019886D02*
X016701Y019886D01*
X016701Y019766D02*
X016601Y019766D01*
X016591Y019690D02*
X016591Y018316D01*
X016711Y018316D02*
X016711Y019690D01*
X016831Y019718D02*
X016831Y018316D01*
X016951Y018316D02*
X016951Y019782D01*
X016930Y019766D02*
X017271Y019766D01*
X017311Y019726D02*
X017311Y018316D01*
X017431Y018316D02*
X017431Y019670D01*
X017671Y019626D02*
X017671Y018335D01*
X017756Y018326D02*
X021808Y018326D01*
X021751Y018316D02*
X021751Y018383D01*
X021688Y018446D02*
X013021Y018446D01*
X013021Y018566D02*
X021568Y018566D01*
X021511Y018623D02*
X021511Y018316D01*
X021631Y018316D02*
X021631Y018503D01*
X021448Y018686D02*
X013021Y018686D01*
X013021Y018806D02*
X021333Y018806D01*
X021391Y018743D02*
X021391Y018316D01*
X021271Y018316D02*
X021271Y019626D01*
X021174Y019646D02*
X020815Y019646D01*
X020791Y019637D02*
X020791Y018316D01*
X020911Y018316D02*
X020911Y019686D01*
X021031Y019766D02*
X021031Y018316D01*
X021151Y018316D02*
X021151Y019670D01*
X021071Y019766D02*
X021031Y019766D01*
X021281Y019526D02*
X013021Y019526D01*
X013021Y019406D02*
X021281Y019406D01*
X021281Y019286D02*
X013021Y019286D01*
X013021Y019166D02*
X021281Y019166D01*
X021281Y019046D02*
X013021Y019046D01*
X013021Y018926D02*
X021284Y018926D01*
X020671Y018316D02*
X020671Y019626D01*
X020551Y019626D02*
X020551Y018316D01*
X020431Y018316D02*
X020431Y019670D01*
X020487Y019646D02*
X019815Y019646D01*
X019831Y019653D02*
X019831Y018316D01*
X019951Y018316D02*
X019951Y019703D01*
X020031Y019766D02*
X020271Y019766D01*
X020311Y019726D02*
X020311Y018316D01*
X020191Y018316D02*
X020191Y019846D01*
X020156Y019886D02*
X020146Y019886D01*
X020071Y019806D02*
X020071Y018316D01*
X019711Y018316D02*
X019711Y019626D01*
X019591Y019626D02*
X019591Y018316D01*
X019471Y018316D02*
X019471Y019653D01*
X019487Y019646D02*
X018815Y019646D01*
X018871Y019670D02*
X018871Y018316D01*
X018991Y018316D02*
X018991Y019726D01*
X019031Y019766D02*
X019271Y019766D01*
X019231Y019806D02*
X019231Y018316D01*
X019351Y018316D02*
X019351Y019703D01*
X019156Y019886D02*
X019146Y019886D01*
X019111Y019846D02*
X019111Y018316D01*
X018751Y018316D02*
X018751Y019626D01*
X018631Y019626D02*
X018631Y018316D01*
X018511Y018316D02*
X018511Y019637D01*
X018487Y019646D02*
X017815Y019646D01*
X017791Y019637D02*
X017791Y018316D01*
X018391Y018316D02*
X018391Y019686D01*
X019111Y020567D02*
X019111Y020956D01*
X019231Y020956D02*
X019231Y020607D01*
X019231Y020606D02*
X019071Y020606D01*
X020071Y020607D02*
X020071Y020956D01*
X020191Y020956D02*
X020191Y020567D01*
X020231Y020606D02*
X020071Y020606D01*
X020311Y020687D02*
X020311Y020956D01*
X022351Y020956D02*
X022351Y018976D01*
X022471Y018976D02*
X022471Y020956D01*
X022591Y020956D02*
X022591Y018976D01*
X022711Y018976D02*
X022711Y020956D01*
X022831Y020956D02*
X022831Y018976D01*
X022951Y018976D02*
X022951Y020956D01*
X023071Y020956D02*
X023071Y018976D01*
X023191Y018976D02*
X023191Y020956D01*
X023311Y020956D02*
X023311Y018976D01*
X023431Y018974D02*
X023431Y020956D01*
X023551Y020956D02*
X023551Y018924D01*
X023545Y018926D02*
X025701Y018926D01*
X025701Y018806D02*
X023674Y018806D01*
X023671Y018810D02*
X023671Y020956D01*
X023791Y020956D02*
X023791Y018690D01*
X023794Y018686D02*
X025701Y018686D01*
X025701Y018566D02*
X023914Y018566D01*
X023911Y018570D02*
X023911Y020956D01*
X023993Y018446D02*
X025701Y018446D01*
X025701Y018326D02*
X024021Y018326D01*
X024021Y018206D02*
X025701Y018206D01*
X025701Y018086D02*
X024021Y018086D01*
X024021Y017966D02*
X025701Y017966D01*
X025701Y017846D02*
X024021Y017846D01*
X024021Y017726D02*
X025701Y017726D01*
X025701Y017606D02*
X024021Y017606D01*
X024021Y017486D02*
X025701Y017486D01*
X025701Y017366D02*
X024021Y017366D01*
X024021Y017246D02*
X025701Y017246D01*
X025701Y017126D02*
X024021Y017126D01*
X024021Y017006D02*
X025701Y017006D01*
X025701Y016886D02*
X024021Y016886D01*
X024021Y016766D02*
X025701Y016766D01*
X025701Y016646D02*
X024021Y016646D01*
X024021Y016526D02*
X025701Y016526D01*
X025701Y016406D02*
X024021Y016406D01*
X024002Y016286D02*
X025701Y016286D01*
X023281Y017366D02*
X023061Y017366D01*
X023061Y017486D02*
X023281Y017486D01*
X023281Y017606D02*
X023061Y017606D01*
X023061Y017726D02*
X023281Y017726D01*
X023281Y017846D02*
X023061Y017846D01*
X023061Y017966D02*
X023281Y017966D01*
X023281Y018086D02*
X023020Y018086D01*
X022951Y018186D02*
X022951Y018236D01*
X022931Y018206D02*
X023228Y018206D01*
X022241Y017496D02*
X022241Y017346D01*
X022151Y017256D01*
X021911Y017496D01*
X022241Y017496D01*
X022241Y017486D02*
X021921Y017486D01*
X021991Y017496D02*
X021991Y017416D01*
X022041Y017366D02*
X022241Y017366D01*
X022231Y017336D02*
X022231Y017496D01*
X022111Y017496D02*
X022111Y017296D01*
X022111Y016717D02*
X022111Y015976D01*
X022231Y015976D02*
X022231Y016677D01*
X022261Y016646D02*
X022041Y016646D01*
X021991Y016597D02*
X021991Y015976D01*
X021871Y015976D02*
X021871Y016477D01*
X021921Y016526D02*
X022381Y016526D01*
X022351Y016557D02*
X022351Y015976D01*
X022471Y015976D02*
X022471Y016476D01*
X022591Y016476D02*
X022591Y015976D01*
X021751Y015976D02*
X021751Y016476D01*
X021631Y016476D02*
X021631Y015976D01*
X021511Y015976D02*
X021511Y016476D01*
X021391Y016517D02*
X021391Y015976D01*
X021271Y015976D02*
X021271Y016637D01*
X021261Y016646D02*
X021041Y016646D01*
X021031Y016637D02*
X021031Y015976D01*
X021151Y015976D02*
X021151Y016757D01*
X020921Y016526D02*
X021381Y016526D01*
X020911Y016517D02*
X020911Y015976D01*
X020791Y015976D02*
X020791Y016476D01*
X020671Y016476D02*
X020671Y015976D01*
X020551Y015976D02*
X020551Y016476D01*
X021151Y017256D02*
X021391Y017496D01*
X021391Y017496D01*
X020911Y017496D01*
X020911Y017496D01*
X021151Y017256D01*
X021151Y017496D01*
X021271Y017496D02*
X021271Y017376D01*
X021261Y017366D02*
X021041Y017366D01*
X021031Y017376D02*
X021031Y017496D01*
X020921Y017486D02*
X021381Y017486D01*
X020791Y015236D02*
X020791Y014736D01*
X020671Y014736D02*
X020671Y015236D01*
X020071Y015236D02*
X020071Y014576D01*
X019951Y014576D02*
X019951Y015236D01*
X019831Y015236D02*
X019831Y014576D01*
X019711Y014576D02*
X019711Y015236D01*
X019591Y015236D02*
X019591Y014576D01*
X019471Y014576D02*
X019471Y015236D01*
X019351Y015236D02*
X019351Y014576D01*
X019231Y014576D02*
X019231Y015236D01*
X019111Y015236D02*
X019111Y014576D01*
X018991Y014576D02*
X018991Y015236D01*
X018871Y015236D02*
X018871Y014576D01*
X018751Y014576D02*
X018751Y015236D01*
X018631Y015236D02*
X018631Y014576D01*
X018511Y014576D02*
X018511Y015236D01*
X018391Y015236D02*
X018391Y014576D01*
X018271Y014576D02*
X018271Y015236D01*
X018151Y015236D02*
X018151Y014576D01*
X018031Y014576D02*
X018031Y015236D01*
X017911Y015236D02*
X017911Y014576D01*
X017791Y014576D02*
X017791Y015236D01*
X017671Y015236D02*
X017671Y014576D01*
X017551Y014576D02*
X017551Y015236D01*
X017431Y015236D02*
X017431Y014576D01*
X017311Y014576D02*
X017311Y015236D01*
X017191Y015236D02*
X017191Y014576D01*
X017071Y014576D02*
X017071Y015236D01*
X016951Y015236D02*
X016951Y014576D01*
X016831Y014576D02*
X016831Y015236D01*
X016711Y015236D02*
X016711Y014576D01*
X016591Y014576D02*
X016591Y015236D01*
X016471Y015236D02*
X016471Y014576D01*
X016351Y014576D02*
X016351Y015236D01*
X016231Y015236D02*
X016231Y014576D01*
X016111Y014576D02*
X016111Y015236D01*
X015991Y015236D02*
X015991Y014576D01*
X015871Y014576D02*
X015871Y015236D01*
X015751Y015236D02*
X015751Y014576D01*
X015631Y014576D02*
X015631Y015236D01*
X015511Y015236D02*
X015511Y014576D01*
X015391Y014576D02*
X015391Y015236D01*
X015271Y015236D02*
X015271Y014576D01*
X015151Y014576D02*
X015151Y015236D01*
X015031Y015236D02*
X015031Y014576D01*
X014911Y014576D02*
X014911Y015236D01*
X014791Y015236D02*
X014791Y014576D01*
X014671Y014576D02*
X014671Y015236D01*
X014551Y015236D02*
X014551Y014576D01*
X014431Y014576D02*
X014431Y015236D01*
X014311Y015236D02*
X014311Y014576D01*
X014191Y014576D02*
X014191Y015236D01*
X014071Y015236D02*
X014071Y014576D01*
X013951Y014576D02*
X013951Y015236D01*
X013351Y015912D02*
X013351Y016596D01*
X012723Y017006D02*
X012474Y017006D01*
X012511Y017043D02*
X012511Y014576D01*
X012631Y014576D02*
X012631Y017163D01*
X012594Y017126D02*
X012737Y017126D01*
X012751Y017160D02*
X012751Y017283D01*
X012787Y017246D02*
X012714Y017246D01*
X012834Y017366D02*
X012906Y017366D01*
X012871Y017332D02*
X012871Y017403D01*
X012954Y017486D02*
X014046Y017486D01*
X014071Y017478D02*
X014071Y017416D01*
X014191Y017416D02*
X014191Y017478D01*
X014256Y017486D02*
X017546Y017486D01*
X017551Y017485D02*
X017551Y017416D01*
X017671Y017416D02*
X017671Y017478D01*
X017431Y017496D02*
X017431Y017416D01*
X017311Y017416D02*
X017311Y017496D01*
X017191Y017496D02*
X017191Y017416D01*
X017071Y017416D02*
X017071Y017496D01*
X016951Y017496D02*
X016951Y017416D01*
X016831Y017416D02*
X016831Y017496D01*
X016711Y017496D02*
X016711Y017416D01*
X016591Y017416D02*
X016591Y017496D01*
X016471Y017496D02*
X016471Y017416D01*
X016351Y017416D02*
X016351Y017496D01*
X016231Y017496D02*
X016231Y017416D01*
X016111Y017416D02*
X016111Y017496D01*
X015991Y017496D02*
X015991Y017416D01*
X015871Y017416D02*
X015871Y017496D01*
X015751Y017496D02*
X015751Y017416D01*
X015631Y017416D02*
X015631Y017496D01*
X015511Y017496D02*
X015511Y017416D01*
X015391Y017416D02*
X015391Y017496D01*
X015271Y017496D02*
X015271Y017416D01*
X015151Y017416D02*
X015151Y017496D01*
X015031Y017496D02*
X015031Y017416D01*
X014911Y017416D02*
X014911Y017496D01*
X014791Y017496D02*
X014791Y017416D01*
X014671Y017416D02*
X014671Y017496D01*
X014551Y017496D02*
X014551Y017416D01*
X014431Y017416D02*
X014431Y017496D01*
X014311Y017496D02*
X014311Y017416D01*
X013951Y017416D02*
X013951Y017526D01*
X013846Y017606D02*
X013010Y017606D01*
X012991Y017560D02*
X012991Y017404D01*
X013021Y017726D02*
X013762Y017726D01*
X013831Y017621D02*
X013831Y017416D01*
X013723Y017846D02*
X013021Y017846D01*
X013021Y017966D02*
X013723Y017966D01*
X013762Y018086D02*
X013021Y018086D01*
X012281Y018086D02*
X012002Y018086D01*
X012021Y018133D02*
X011965Y017997D01*
X011861Y017893D01*
X011861Y017893D01*
X011544Y017576D01*
X011998Y017576D01*
X012281Y017860D01*
X012281Y019626D01*
X012194Y019626D01*
X012071Y019750D01*
X012071Y019806D01*
X012021Y019756D01*
X012021Y018133D01*
X012021Y018206D02*
X012281Y018206D01*
X012281Y018326D02*
X012021Y018326D01*
X012021Y018446D02*
X012281Y018446D01*
X012281Y018566D02*
X012021Y018566D01*
X012021Y018686D02*
X012281Y018686D01*
X012281Y018806D02*
X012021Y018806D01*
X012021Y018926D02*
X012281Y018926D01*
X012281Y019046D02*
X012021Y019046D01*
X012021Y019166D02*
X012281Y019166D01*
X012281Y019286D02*
X012021Y019286D01*
X012021Y019406D02*
X012281Y019406D01*
X012281Y019526D02*
X012021Y019526D01*
X012021Y019646D02*
X012174Y019646D01*
X012151Y019670D02*
X012151Y017730D01*
X012148Y017726D02*
X011694Y017726D01*
X011671Y017703D02*
X011671Y017576D01*
X011574Y017606D02*
X012028Y017606D01*
X012031Y017610D02*
X012031Y019766D01*
X012071Y019766D01*
X012271Y019626D02*
X012271Y017850D01*
X012268Y017846D02*
X011814Y017846D01*
X011791Y017823D02*
X011791Y017576D01*
X011911Y017576D02*
X011911Y017943D01*
X011934Y017966D02*
X012281Y017966D01*
X011551Y017583D02*
X011551Y017576D01*
X010831Y016836D02*
X010831Y014635D01*
X010471Y014408D02*
X010471Y016836D01*
X010351Y016836D02*
X010351Y008676D01*
X010254Y008726D02*
X011250Y008726D01*
X011311Y008701D02*
X011311Y008676D01*
X011431Y008676D02*
X011431Y008678D01*
X011551Y008676D02*
X011551Y008685D01*
X011652Y008726D02*
X013708Y008726D01*
X013711Y008723D02*
X013711Y008676D01*
X013591Y008676D02*
X013591Y008736D01*
X013471Y008736D02*
X013471Y008676D01*
X013351Y008676D02*
X013351Y008736D01*
X013231Y008736D02*
X013231Y008676D01*
X013111Y008676D02*
X013111Y008736D01*
X012991Y008736D02*
X012991Y008676D01*
X012871Y008676D02*
X012871Y008736D01*
X012751Y008736D02*
X012751Y008676D01*
X012631Y008676D02*
X012631Y008736D01*
X012511Y008736D02*
X012511Y008676D01*
X012391Y008676D02*
X012391Y008736D01*
X012271Y008736D02*
X012271Y008676D01*
X012151Y008676D02*
X012151Y008736D01*
X012031Y008736D02*
X012031Y008676D01*
X011911Y008676D02*
X011911Y008736D01*
X011791Y008736D02*
X011791Y008676D01*
X011671Y008676D02*
X011671Y008734D01*
X011191Y008761D02*
X011191Y008676D01*
X011071Y008676D02*
X011071Y008905D01*
X011046Y008966D02*
X010121Y008966D01*
X010134Y008846D02*
X011106Y008846D01*
X010951Y008676D02*
X010951Y013785D01*
X010831Y013778D02*
X010831Y008676D01*
X010711Y008676D02*
X010711Y013801D01*
X011071Y013834D02*
X011071Y009308D01*
X011079Y009326D02*
X010121Y009326D01*
X010121Y009206D02*
X011029Y009206D01*
X011023Y009086D02*
X010121Y009086D01*
X010231Y008750D02*
X010231Y016836D01*
X010591Y018076D02*
X010591Y018123D01*
X010281Y019166D02*
X010021Y019166D01*
X010021Y019286D02*
X010281Y019286D01*
X010281Y019406D02*
X010021Y019406D01*
X010021Y019526D02*
X010281Y019526D01*
X010281Y019646D02*
X010021Y019646D01*
X010031Y019766D02*
X010271Y019766D01*
X010111Y020567D02*
X010111Y020956D01*
X010231Y020956D02*
X010231Y020607D01*
X010231Y020606D02*
X010071Y020606D01*
X009151Y020515D02*
X009143Y020535D01*
X008980Y020698D01*
X008766Y020786D01*
X008536Y020786D01*
X008322Y020698D01*
X008159Y020535D01*
X008151Y020515D01*
X008143Y020535D01*
X007980Y020698D01*
X007766Y020786D01*
X007536Y020786D01*
X007322Y020698D01*
X007159Y020535D01*
X007151Y020515D01*
X007143Y020535D01*
X006980Y020698D01*
X006766Y020786D01*
X006536Y020786D01*
X006322Y020698D01*
X006159Y020535D01*
X006151Y020515D01*
X006151Y020956D01*
X006271Y020956D02*
X006271Y020647D01*
X006231Y020606D02*
X006071Y020606D01*
X006031Y020647D02*
X006031Y020956D01*
X005911Y020956D02*
X005911Y020727D01*
X005911Y020726D02*
X006391Y020726D01*
X006391Y020727D02*
X006391Y020956D01*
X006511Y020956D02*
X006511Y020776D01*
X006631Y020786D02*
X006631Y020956D01*
X006751Y020956D02*
X006751Y020786D01*
X006871Y020743D02*
X006871Y020956D01*
X006991Y020956D02*
X006991Y020687D01*
X006911Y020726D02*
X007391Y020726D01*
X007351Y020710D02*
X007351Y020956D01*
X007471Y020956D02*
X007471Y020760D01*
X007591Y020786D02*
X007591Y020956D01*
X007711Y020956D02*
X007711Y020786D01*
X007831Y020760D02*
X007831Y020956D01*
X007951Y020956D02*
X007951Y020710D01*
X007911Y020726D02*
X008391Y020726D01*
X008431Y020743D02*
X008431Y020956D01*
X008551Y020956D02*
X008551Y020786D01*
X008671Y020786D02*
X008671Y020956D01*
X008791Y020956D02*
X008791Y020776D01*
X008311Y020687D02*
X008311Y020956D01*
X008191Y020956D02*
X008191Y020567D01*
X008231Y020606D02*
X008071Y020606D01*
X008071Y020607D02*
X008071Y020956D01*
X007231Y020956D02*
X007231Y020607D01*
X007231Y020606D02*
X007071Y020606D01*
X007111Y020567D02*
X007111Y020956D01*
X006143Y020535D02*
X005980Y020698D01*
X005766Y020786D01*
X005536Y020786D01*
X005671Y020786D02*
X005671Y020956D01*
X005791Y020956D02*
X005791Y020776D01*
X006143Y020535D02*
X006151Y020515D01*
X005311Y020687D02*
X005311Y020956D01*
X004339Y019836D02*
X004719Y019191D01*
X004737Y019147D01*
X004756Y019128D01*
X004769Y019105D01*
X004808Y019077D01*
X004808Y019076D01*
X002681Y019076D01*
X002681Y019426D01*
X002401Y019706D01*
X002531Y019836D01*
X004339Y019836D01*
X004351Y019817D02*
X004351Y019076D01*
X004471Y019076D02*
X004471Y019613D01*
X004451Y019646D02*
X002461Y019646D01*
X002431Y019676D02*
X002431Y019737D01*
X002461Y019766D02*
X004381Y019766D01*
X004231Y019836D02*
X004231Y019076D01*
X004111Y019076D02*
X004111Y019836D01*
X003991Y019836D02*
X003991Y019076D01*
X003871Y019076D02*
X003871Y019836D01*
X003751Y019836D02*
X003751Y019076D01*
X003631Y019076D02*
X003631Y019836D01*
X003511Y019836D02*
X003511Y019076D01*
X003391Y019076D02*
X003391Y019836D01*
X003271Y019836D02*
X003271Y019076D01*
X003151Y019076D02*
X003151Y019836D01*
X003031Y019836D02*
X003031Y019076D01*
X002911Y019076D02*
X002911Y019836D01*
X002791Y019836D02*
X002791Y019076D01*
X002681Y019166D02*
X004729Y019166D01*
X004711Y019205D02*
X004711Y019076D01*
X004591Y019076D02*
X004591Y019409D01*
X004592Y019406D02*
X002681Y019406D01*
X002671Y019436D02*
X002671Y019836D01*
X002551Y019836D02*
X002551Y019556D01*
X002581Y019526D02*
X004522Y019526D01*
X004663Y019286D02*
X002681Y019286D01*
X001901Y019706D02*
X001651Y019456D01*
X001401Y019706D01*
X001651Y019957D01*
X001901Y019706D01*
X001841Y019646D02*
X001461Y019646D01*
X001471Y019636D02*
X001471Y019777D01*
X001461Y019766D02*
X001841Y019766D01*
X001831Y019777D02*
X001831Y019636D01*
X001721Y019526D02*
X001581Y019526D01*
X001591Y019516D02*
X001591Y019897D01*
X001581Y019886D02*
X001721Y019886D01*
X001711Y019897D02*
X001711Y019516D01*
X008114Y014366D02*
X010454Y014366D01*
X011191Y013836D02*
X011191Y009452D01*
X011186Y009446D02*
X010121Y009446D01*
X010121Y009566D02*
X011786Y009566D01*
X011791Y009561D02*
X011791Y009476D01*
X011911Y009476D02*
X011911Y009501D01*
X012031Y009476D02*
X012031Y009478D01*
X012151Y009476D02*
X012151Y009485D01*
X012271Y009476D02*
X012271Y009534D01*
X012391Y009536D02*
X012391Y009476D01*
X012511Y009476D02*
X012511Y009536D01*
X012631Y009536D02*
X012631Y009476D01*
X012751Y009476D02*
X012751Y009536D01*
X012871Y009536D02*
X012871Y009476D01*
X012991Y009476D02*
X012991Y009536D01*
X013111Y009536D02*
X013111Y009476D01*
X013231Y009476D02*
X013231Y009536D01*
X013351Y009536D02*
X013351Y009476D01*
X013471Y009476D02*
X013471Y009536D01*
X013591Y009536D02*
X013591Y009476D01*
X013711Y009476D02*
X013711Y009523D01*
X012279Y010286D02*
X012252Y010286D01*
X012271Y010279D02*
X012271Y010305D01*
X012229Y010406D02*
X010121Y010406D01*
X010121Y010286D02*
X011850Y010286D01*
X011911Y010312D02*
X011911Y013836D01*
X012031Y013836D02*
X012031Y010335D01*
X012151Y010328D02*
X012151Y013836D01*
X012271Y013836D02*
X012271Y010708D01*
X012246Y010646D02*
X010121Y010646D01*
X010121Y010526D02*
X012223Y010526D01*
X012306Y010766D02*
X010121Y010766D01*
X010121Y010166D02*
X011706Y010166D01*
X011671Y010108D02*
X011671Y013836D01*
X011791Y013836D02*
X011791Y010252D01*
X011646Y010046D02*
X010121Y010046D01*
X010121Y009926D02*
X011623Y009926D01*
X011629Y009806D02*
X010121Y009806D01*
X010121Y009686D02*
X011679Y009686D01*
X011671Y009705D02*
X011671Y009479D01*
X011551Y009528D02*
X011551Y013836D01*
X011431Y013836D02*
X011431Y009535D01*
X011311Y009512D02*
X011311Y013836D01*
X012391Y013836D02*
X012391Y010852D01*
X012991Y010876D02*
X012991Y013836D01*
X013111Y013836D02*
X013111Y010876D01*
X013231Y010876D02*
X013231Y013836D01*
X013351Y013836D02*
X013351Y010876D01*
X013471Y010876D02*
X013471Y013836D01*
X013591Y013836D02*
X013591Y010876D01*
X013711Y010876D02*
X013711Y013836D01*
X013831Y013836D02*
X013831Y010876D01*
X013951Y010876D02*
X013951Y013836D01*
X014071Y013836D02*
X014071Y010876D01*
X014191Y010849D02*
X014191Y013836D01*
X018631Y013836D02*
X018631Y006476D01*
X018751Y006476D02*
X018751Y013836D01*
X018871Y013836D02*
X018871Y006476D01*
X018991Y006476D02*
X018991Y013836D01*
X019111Y013836D02*
X019111Y006476D01*
X019231Y006476D02*
X019231Y013836D01*
X019351Y013836D02*
X019351Y006476D01*
X019471Y006476D02*
X019471Y013836D01*
X019591Y013836D02*
X019591Y006476D01*
X019711Y006476D02*
X019711Y013836D01*
X019831Y013836D02*
X019831Y006476D01*
X019951Y006476D02*
X019951Y013836D01*
X020071Y013836D02*
X020071Y006476D01*
X020191Y006476D02*
X020191Y013836D01*
X021031Y013837D02*
X021031Y006476D01*
X021151Y006476D02*
X021151Y013957D01*
X021081Y013886D02*
X021221Y013886D01*
X021271Y013837D02*
X021271Y006476D01*
X018511Y005136D02*
X018511Y004970D01*
X017521Y001813D02*
X017729Y001605D01*
X017659Y001535D01*
X017651Y001515D01*
X017643Y001535D01*
X017521Y001657D01*
X017521Y001813D01*
X017551Y001783D02*
X017551Y001627D01*
X017531Y001646D02*
X017688Y001646D01*
X017671Y001663D02*
X017671Y001547D01*
X017656Y001526D02*
X017646Y001526D01*
X017568Y001766D02*
X017521Y001766D01*
X015634Y000686D02*
X014911Y000686D01*
X014311Y000726D02*
X014311Y000456D01*
X014191Y000456D02*
X014191Y000846D01*
X014231Y000806D02*
X014071Y000806D01*
X014071Y000456D01*
X013231Y000456D02*
X013231Y000806D01*
X013071Y000806D01*
X013111Y000846D02*
X013111Y000456D01*
X008558Y006676D02*
X008404Y006676D01*
X008121Y006960D01*
X008121Y007113D01*
X008558Y006676D01*
X008551Y006676D02*
X008551Y006683D01*
X008548Y006686D02*
X008394Y006686D01*
X008431Y006676D02*
X008431Y006803D01*
X008428Y006806D02*
X008274Y006806D01*
X008311Y006770D02*
X008311Y006923D01*
X008308Y006926D02*
X008154Y006926D01*
X008191Y006890D02*
X008191Y007043D01*
X008188Y007046D02*
X008121Y007046D01*
X014431Y018316D02*
X014431Y019670D01*
X014139Y020486D02*
X013231Y020486D01*
X013231Y020606D02*
X014231Y020606D01*
X014191Y020567D02*
X014191Y020956D01*
X014311Y020956D02*
X014311Y020687D01*
X014391Y020726D02*
X013168Y020726D01*
X013111Y020783D02*
X013111Y020956D01*
X012991Y020956D02*
X012991Y020786D01*
X012871Y020786D02*
X012871Y020956D01*
X012751Y020956D02*
X012751Y020786D01*
X012631Y020786D02*
X012631Y020956D01*
X012511Y020956D02*
X012511Y020786D01*
X012391Y020786D02*
X012391Y020956D01*
X012271Y020956D02*
X012271Y020786D01*
X012151Y020743D02*
X012151Y020956D01*
X012031Y020956D02*
X012031Y020647D01*
X012134Y020726D02*
X011911Y020726D01*
X011911Y020727D02*
X011911Y020956D01*
X011791Y020956D02*
X011791Y020776D01*
X011671Y020786D02*
X011671Y020956D01*
X014431Y020956D02*
X014431Y020743D01*
X014551Y020786D02*
X014551Y020956D01*
X014671Y020956D02*
X014671Y020786D01*
X014791Y020776D02*
X014791Y020956D01*
X015151Y020956D02*
X015151Y020515D01*
X015163Y020486D02*
X015212Y020486D01*
X015601Y020486D02*
X015701Y020486D01*
X015701Y020366D02*
X015601Y020366D01*
X015751Y020256D02*
X015751Y020156D01*
X015701Y020126D02*
X015601Y020126D01*
X015631Y020156D02*
X015631Y018316D01*
X015751Y018316D02*
X015751Y019696D01*
X015701Y019766D02*
X015601Y019766D01*
X015511Y019705D02*
X015511Y018316D01*
X015871Y018316D02*
X015871Y019735D01*
X015930Y019766D02*
X016372Y019766D01*
X016351Y019782D02*
X016351Y018316D01*
X016471Y018316D02*
X016471Y019718D01*
X016241Y019886D02*
X016061Y019886D01*
X016111Y019964D02*
X016111Y018316D01*
X016231Y018316D02*
X016231Y019900D01*
X016169Y020006D02*
X016133Y020006D01*
X016111Y020156D02*
X016111Y020256D01*
X016146Y020366D02*
X016156Y020366D01*
X016111Y020449D02*
X016111Y020956D01*
X016231Y020956D02*
X016231Y020513D01*
X016212Y020486D02*
X016090Y020486D01*
X015991Y020602D02*
X015991Y020956D01*
X015871Y020956D02*
X015871Y020678D01*
X015751Y020717D02*
X015751Y020956D01*
X015701Y020606D02*
X015601Y020606D01*
X015985Y020606D02*
X016317Y020606D01*
X016351Y020631D02*
X016351Y020956D01*
X016471Y020956D02*
X016471Y020695D01*
X016591Y020723D02*
X016591Y020956D01*
X016711Y020956D02*
X016711Y020723D01*
X016701Y020606D02*
X016601Y020606D01*
X016601Y020486D02*
X016701Y020486D01*
X016701Y020366D02*
X016601Y020366D01*
X016471Y020256D02*
X016471Y020156D01*
X016351Y020156D02*
X016351Y020256D01*
X016231Y020256D02*
X016231Y020156D01*
X015991Y020156D02*
X015991Y020256D01*
X015871Y020256D02*
X015871Y020156D01*
X015701Y020006D02*
X015601Y020006D01*
X015601Y019886D02*
X015701Y019886D01*
X015991Y019811D02*
X015991Y018316D01*
X017071Y018316D02*
X017071Y019900D01*
X017061Y019886D02*
X017156Y019886D01*
X017191Y019846D02*
X017191Y018316D01*
X017139Y020486D02*
X017090Y020486D01*
X017071Y020513D02*
X017071Y020956D01*
X017191Y020956D02*
X017191Y020567D01*
X017231Y020606D02*
X016985Y020606D01*
X016951Y020631D02*
X016951Y020956D01*
X016831Y020956D02*
X016831Y020695D01*
X017311Y020687D02*
X017311Y020956D01*
D17*
X017651Y017906D02*
X014151Y017906D01*
X013151Y017006D02*
X018651Y017006D01*
X020651Y017006D01*
X022651Y017006D02*
X022651Y017906D01*
X017651Y017906D01*
M02*
