G75*
G70*
%OFA0B0*%
%FSLAX24Y24*%
%IPPOS*%
%LPD*%
%AMOC8*
5,1,8,0,0,1.08239X$1,22.5*
%
%ADD10OC8,0.0720*%
%ADD11R,0.0820X0.0820*%
%ADD12C,0.0820*%
%ADD13C,0.0500*%
%ADD14C,0.0671*%
D10*
X001151Y001206D03*
X002151Y001206D03*
X002151Y002206D03*
X001151Y002206D03*
X001151Y003206D03*
X002151Y003206D03*
X002151Y004206D03*
X001151Y004206D03*
X001151Y005206D03*
X002151Y005206D03*
X002151Y006206D03*
X001151Y006206D03*
X001151Y007206D03*
X002151Y007206D03*
X002151Y008206D03*
X001151Y008206D03*
X001151Y009206D03*
X002151Y009206D03*
X002151Y010206D03*
X001151Y010206D03*
X001151Y011206D03*
X002151Y011206D03*
X002151Y012206D03*
X001151Y012206D03*
X001151Y013206D03*
X002151Y013206D03*
X002151Y014206D03*
X001151Y014206D03*
X001151Y015206D03*
X002151Y015206D03*
X002151Y016206D03*
X001151Y016206D03*
X001151Y017206D03*
X002151Y017206D03*
X002151Y018206D03*
X001151Y018206D03*
X001151Y019206D03*
X002151Y019206D03*
X002151Y020206D03*
X001151Y020206D03*
X020651Y017006D03*
X021651Y017006D03*
X022651Y017006D03*
X021651Y014206D03*
X020651Y014206D03*
X023151Y003406D03*
X023151Y002406D03*
X024151Y001206D03*
X025151Y001206D03*
D11*
X016151Y001206D03*
X007651Y001206D03*
X012651Y020206D03*
X021651Y020206D03*
D12*
X020651Y020206D03*
X019651Y020206D03*
X018651Y020206D03*
X017651Y020206D03*
X016651Y020206D03*
X015651Y020206D03*
X014651Y020206D03*
X011651Y020206D03*
X010651Y020206D03*
X009651Y020206D03*
X008651Y020206D03*
X007651Y020206D03*
X006651Y020206D03*
X005651Y020206D03*
X008651Y001206D03*
X009651Y001206D03*
X010651Y001206D03*
X011651Y001206D03*
X012651Y001206D03*
X013651Y001206D03*
X014651Y001206D03*
X017151Y001206D03*
X018151Y001206D03*
X019151Y001206D03*
X020151Y001206D03*
X021151Y001206D03*
X022151Y001206D03*
X023151Y001206D03*
D13*
X024995Y004706D02*
X024997Y004743D01*
X025003Y004780D01*
X025012Y004816D01*
X025026Y004851D01*
X025043Y004884D01*
X025063Y004915D01*
X025086Y004944D01*
X025113Y004971D01*
X025142Y004994D01*
X025173Y005014D01*
X025206Y005031D01*
X025241Y005045D01*
X025277Y005054D01*
X025314Y005060D01*
X025351Y005062D01*
X025388Y005060D01*
X025425Y005054D01*
X025461Y005045D01*
X025496Y005031D01*
X025529Y005014D01*
X025560Y004994D01*
X025589Y004971D01*
X025616Y004944D01*
X025639Y004915D01*
X025659Y004884D01*
X025676Y004851D01*
X025690Y004816D01*
X025699Y004780D01*
X025705Y004743D01*
X025707Y004706D01*
X025705Y004669D01*
X025699Y004632D01*
X025690Y004596D01*
X025676Y004561D01*
X025659Y004528D01*
X025639Y004497D01*
X025616Y004468D01*
X025589Y004441D01*
X025560Y004418D01*
X025529Y004398D01*
X025496Y004381D01*
X025461Y004367D01*
X025425Y004358D01*
X025388Y004352D01*
X025351Y004350D01*
X025314Y004352D01*
X025277Y004358D01*
X025241Y004367D01*
X025206Y004381D01*
X025173Y004398D01*
X025142Y004418D01*
X025113Y004441D01*
X025086Y004468D01*
X025063Y004497D01*
X025043Y004528D01*
X025026Y004561D01*
X025012Y004596D01*
X025003Y004632D01*
X024997Y004669D01*
X024995Y004706D01*
X024995Y020606D02*
X024997Y020643D01*
X025003Y020680D01*
X025012Y020716D01*
X025026Y020751D01*
X025043Y020784D01*
X025063Y020815D01*
X025086Y020844D01*
X025113Y020871D01*
X025142Y020894D01*
X025173Y020914D01*
X025206Y020931D01*
X025241Y020945D01*
X025277Y020954D01*
X025314Y020960D01*
X025351Y020962D01*
X025388Y020960D01*
X025425Y020954D01*
X025461Y020945D01*
X025496Y020931D01*
X025529Y020914D01*
X025560Y020894D01*
X025589Y020871D01*
X025616Y020844D01*
X025639Y020815D01*
X025659Y020784D01*
X025676Y020751D01*
X025690Y020716D01*
X025699Y020680D01*
X025705Y020643D01*
X025707Y020606D01*
X025705Y020569D01*
X025699Y020532D01*
X025690Y020496D01*
X025676Y020461D01*
X025659Y020428D01*
X025639Y020397D01*
X025616Y020368D01*
X025589Y020341D01*
X025560Y020318D01*
X025529Y020298D01*
X025496Y020281D01*
X025461Y020267D01*
X025425Y020258D01*
X025388Y020252D01*
X025351Y020250D01*
X025314Y020252D01*
X025277Y020258D01*
X025241Y020267D01*
X025206Y020281D01*
X025173Y020298D01*
X025142Y020318D01*
X025113Y020341D01*
X025086Y020368D01*
X025063Y020397D01*
X025043Y020428D01*
X025026Y020461D01*
X025012Y020496D01*
X025003Y020532D01*
X024997Y020569D01*
X024995Y020606D01*
X003795Y016306D02*
X003797Y016343D01*
X003803Y016380D01*
X003812Y016416D01*
X003826Y016451D01*
X003843Y016484D01*
X003863Y016515D01*
X003886Y016544D01*
X003913Y016571D01*
X003942Y016594D01*
X003973Y016614D01*
X004006Y016631D01*
X004041Y016645D01*
X004077Y016654D01*
X004114Y016660D01*
X004151Y016662D01*
X004188Y016660D01*
X004225Y016654D01*
X004261Y016645D01*
X004296Y016631D01*
X004329Y016614D01*
X004360Y016594D01*
X004389Y016571D01*
X004416Y016544D01*
X004439Y016515D01*
X004459Y016484D01*
X004476Y016451D01*
X004490Y016416D01*
X004499Y016380D01*
X004505Y016343D01*
X004507Y016306D01*
X004505Y016269D01*
X004499Y016232D01*
X004490Y016196D01*
X004476Y016161D01*
X004459Y016128D01*
X004439Y016097D01*
X004416Y016068D01*
X004389Y016041D01*
X004360Y016018D01*
X004329Y015998D01*
X004296Y015981D01*
X004261Y015967D01*
X004225Y015958D01*
X004188Y015952D01*
X004151Y015950D01*
X004114Y015952D01*
X004077Y015958D01*
X004041Y015967D01*
X004006Y015981D01*
X003973Y015998D01*
X003942Y016018D01*
X003913Y016041D01*
X003886Y016068D01*
X003863Y016097D01*
X003843Y016128D01*
X003826Y016161D01*
X003812Y016196D01*
X003803Y016232D01*
X003797Y016269D01*
X003795Y016306D01*
X003695Y000706D02*
X003697Y000743D01*
X003703Y000780D01*
X003712Y000816D01*
X003726Y000851D01*
X003743Y000884D01*
X003763Y000915D01*
X003786Y000944D01*
X003813Y000971D01*
X003842Y000994D01*
X003873Y001014D01*
X003906Y001031D01*
X003941Y001045D01*
X003977Y001054D01*
X004014Y001060D01*
X004051Y001062D01*
X004088Y001060D01*
X004125Y001054D01*
X004161Y001045D01*
X004196Y001031D01*
X004229Y001014D01*
X004260Y000994D01*
X004289Y000971D01*
X004316Y000944D01*
X004339Y000915D01*
X004359Y000884D01*
X004376Y000851D01*
X004390Y000816D01*
X004399Y000780D01*
X004405Y000743D01*
X004407Y000706D01*
X004405Y000669D01*
X004399Y000632D01*
X004390Y000596D01*
X004376Y000561D01*
X004359Y000528D01*
X004339Y000497D01*
X004316Y000468D01*
X004289Y000441D01*
X004260Y000418D01*
X004229Y000398D01*
X004196Y000381D01*
X004161Y000367D01*
X004125Y000358D01*
X004088Y000352D01*
X004051Y000350D01*
X004014Y000352D01*
X003977Y000358D01*
X003941Y000367D01*
X003906Y000381D01*
X003873Y000398D01*
X003842Y000418D01*
X003813Y000441D01*
X003786Y000468D01*
X003763Y000497D01*
X003743Y000528D01*
X003726Y000561D01*
X003712Y000596D01*
X003703Y000632D01*
X003697Y000669D01*
X003695Y000706D01*
D14*
X004051Y000706D03*
X004151Y016306D03*
X025351Y020606D03*
X025351Y004706D03*
M02*
