G75*
G70*
%OFA0B0*%
%FSLAX24Y24*%
%IPPOS*%
%LPD*%
%AMOC8*
5,1,8,0,0,1.08239X$1,22.5*
%
%ADD10OC8,0.0640*%
%ADD11R,0.0740X0.0740*%
%ADD12C,0.0740*%
%ADD13C,0.0591*%
%ADD14C,0.0160*%
%ADD15C,0.0320*%
%ADD16C,0.0436*%
%ADD17C,0.0400*%
%ADD18C,0.0100*%
%ADD19C,0.0080*%
D10*
X001151Y001206D03*
X002151Y001206D03*
X002151Y002206D03*
X001151Y002206D03*
X001151Y003206D03*
X002151Y003206D03*
X002151Y004206D03*
X001151Y004206D03*
X001151Y005206D03*
X002151Y005206D03*
X002151Y006206D03*
X001151Y006206D03*
X001151Y007206D03*
X002151Y007206D03*
X002151Y008206D03*
X001151Y008206D03*
X001151Y009206D03*
X002151Y009206D03*
X002151Y010206D03*
X001151Y010206D03*
X001151Y011206D03*
X002151Y011206D03*
X002151Y012206D03*
X001151Y012206D03*
X001151Y013206D03*
X002151Y013206D03*
X002151Y014206D03*
X001151Y014206D03*
X001151Y015206D03*
X002151Y015206D03*
X002151Y016206D03*
X001151Y016206D03*
X001151Y017206D03*
X002151Y017206D03*
X002151Y018206D03*
X001151Y018206D03*
X001151Y019206D03*
X002151Y019206D03*
X002151Y020206D03*
X001151Y020206D03*
X020651Y017006D03*
X021651Y017006D03*
X022651Y017006D03*
X021651Y014206D03*
X020651Y014206D03*
X023151Y003406D03*
X023151Y002406D03*
X024151Y001206D03*
X025151Y001206D03*
D11*
X016151Y001206D03*
X007651Y001206D03*
X012651Y020206D03*
X021651Y020206D03*
D12*
X020651Y020206D03*
X019651Y020206D03*
X018651Y020206D03*
X017651Y020206D03*
X016651Y020206D03*
X015651Y020206D03*
X014651Y020206D03*
X011651Y020206D03*
X010651Y020206D03*
X009651Y020206D03*
X008651Y020206D03*
X007651Y020206D03*
X006651Y020206D03*
X005651Y020206D03*
X008651Y001206D03*
X009651Y001206D03*
X010651Y001206D03*
X011651Y001206D03*
X012651Y001206D03*
X013651Y001206D03*
X014651Y001206D03*
X017151Y001206D03*
X018151Y001206D03*
X019151Y001206D03*
X020151Y001206D03*
X021151Y001206D03*
X022151Y001206D03*
X023151Y001206D03*
D13*
X025351Y004706D03*
X025351Y020606D03*
X004151Y016306D03*
X004051Y000706D03*
D14*
X002651Y001706D02*
X001651Y001706D01*
X001151Y001206D01*
X001151Y003206D02*
X001651Y003706D01*
X002651Y003706D01*
X002651Y004706D02*
X001651Y004706D01*
X001151Y004206D01*
X001151Y005206D02*
X001651Y005706D01*
X002551Y005706D01*
X002651Y018706D02*
X001651Y018706D01*
X001151Y019206D01*
X001151Y020206D02*
X001851Y020906D01*
D15*
X004951Y020906D01*
X005651Y020206D01*
X006951Y019206D02*
X002151Y019206D01*
X002651Y018706D02*
X007451Y018706D01*
X007651Y018906D01*
X007651Y020206D01*
X013651Y015606D02*
X013651Y007306D01*
X012551Y006206D01*
X007651Y006206D01*
X006551Y005106D01*
X006551Y003806D01*
X005951Y003206D01*
X002151Y003206D01*
X002651Y003706D02*
X005651Y003706D01*
X006151Y004206D01*
X006151Y005706D01*
X007151Y006706D01*
X012151Y006706D01*
X013151Y007706D01*
X012651Y008106D02*
X012651Y010506D01*
X012051Y009906D02*
X012051Y008306D01*
X011451Y007706D01*
X006651Y007706D01*
X005151Y006206D01*
X005151Y004906D01*
X004951Y004706D01*
X002651Y004706D01*
X002151Y005206D02*
X004451Y005206D01*
X004651Y005406D01*
X004651Y006406D01*
X006451Y008206D01*
X011051Y008206D01*
X011451Y008606D01*
X011451Y009106D01*
X010851Y008906D02*
X010851Y014206D01*
X010851Y008906D02*
X010651Y008706D01*
X006251Y008706D01*
X004051Y006506D01*
X004051Y005906D01*
X003851Y005706D01*
X002551Y005706D01*
X002151Y004206D02*
X005251Y004206D01*
X005651Y004606D01*
X005651Y005906D01*
X006951Y007206D01*
X011751Y007206D01*
X012651Y008106D01*
X021651Y014206D02*
X021651Y015106D01*
X021351Y015406D01*
X020151Y015406D01*
X019651Y015906D01*
X019651Y020206D01*
X020651Y020206D02*
X020651Y018706D01*
X021651Y017706D01*
X021651Y017006D01*
X017651Y017906D02*
X017651Y020206D01*
D16*
X017651Y017906D03*
X018651Y017006D03*
X014151Y017906D03*
X013151Y017006D03*
X013651Y015606D03*
X010851Y014206D03*
X012651Y010506D03*
X012051Y009906D03*
X011451Y009106D03*
X006951Y019206D03*
D17*
X013151Y017006D02*
X013151Y007706D01*
X014151Y006706D02*
X013151Y005706D01*
X008151Y005706D01*
X007151Y004706D01*
X007151Y003206D01*
X006151Y002206D01*
X002151Y002206D01*
X002651Y001706D02*
X006651Y001706D01*
X007651Y002706D01*
X007651Y004206D01*
X008651Y005206D01*
X013651Y005206D01*
X014651Y006206D01*
X014651Y020206D01*
X014151Y017906D02*
X014151Y006706D01*
X023151Y002406D02*
X023151Y001206D01*
X018651Y017006D02*
X018651Y020206D01*
D18*
X000436Y000539D02*
X000484Y000491D01*
X000545Y000462D01*
X000571Y000456D01*
X003608Y000456D01*
X003546Y000606D01*
X003546Y000807D01*
X003623Y000993D01*
X003765Y001135D01*
X003950Y001212D01*
X004151Y001212D01*
X004337Y001135D01*
X004479Y000993D01*
X004556Y000807D01*
X004556Y000606D01*
X004494Y000456D01*
X025519Y000456D01*
X025537Y000461D01*
X025569Y000456D01*
X025601Y000456D01*
X025608Y000453D01*
X025610Y000453D01*
X025655Y000468D01*
X025689Y000502D01*
X025704Y000547D01*
X025704Y000549D01*
X025701Y000557D01*
X025701Y000589D01*
X025696Y000620D01*
X025701Y000638D01*
X025701Y004342D01*
X025637Y004278D01*
X025451Y004201D01*
X025250Y004201D01*
X025065Y004278D01*
X024923Y004420D01*
X024846Y004606D01*
X024846Y004807D01*
X024923Y004993D01*
X025065Y005135D01*
X025250Y005212D01*
X025451Y005212D01*
X025637Y005135D01*
X025701Y005071D01*
X025701Y020242D01*
X025637Y020178D01*
X025451Y020101D01*
X025250Y020101D01*
X025065Y020178D01*
X024923Y020320D01*
X024846Y020506D01*
X024846Y020707D01*
X024923Y020893D01*
X024986Y020956D01*
X005424Y020956D01*
X005594Y020786D01*
X005766Y020786D01*
X005980Y020698D01*
X006143Y020535D01*
X006151Y020515D01*
X006151Y020956D01*
X006271Y020956D02*
X006271Y020647D01*
X006231Y020606D02*
X006071Y020606D01*
X006031Y020647D02*
X006031Y020956D01*
X005911Y020956D02*
X005911Y020727D01*
X005911Y020726D02*
X006391Y020726D01*
X006391Y020727D02*
X006391Y020956D01*
X006511Y020956D02*
X006511Y020776D01*
X006536Y020786D02*
X006322Y020698D01*
X006159Y020535D01*
X006151Y020515D01*
X005791Y020776D02*
X005791Y020956D01*
X005671Y020956D02*
X005671Y020786D01*
X005551Y020830D02*
X005551Y020956D01*
X005534Y020846D02*
X024903Y020846D01*
X024871Y020768D02*
X024871Y020956D01*
X024751Y020956D02*
X024751Y001556D01*
X024721Y001526D02*
X024581Y001526D01*
X024631Y001476D02*
X024631Y020956D01*
X024511Y020956D02*
X024511Y001596D01*
X024461Y001646D02*
X024841Y001646D01*
X024871Y001676D02*
X024871Y004545D01*
X024879Y004526D02*
X008551Y004526D01*
X008551Y004527D02*
X008551Y001786D01*
X008536Y001786D02*
X008322Y001698D01*
X008231Y001607D01*
X008231Y001663D01*
X008108Y001786D01*
X007311Y001786D01*
X007883Y002359D01*
X007999Y002474D01*
X008061Y002625D01*
X008061Y004037D01*
X008821Y004796D01*
X013733Y004796D01*
X013883Y004859D01*
X014883Y005859D01*
X014999Y005974D01*
X015061Y006125D01*
X015061Y019796D01*
X015143Y019878D01*
X015184Y019978D01*
X015206Y019934D01*
X015254Y019868D01*
X015312Y019810D01*
X015378Y019762D01*
X015451Y019725D01*
X015529Y019699D01*
X015601Y019688D01*
X015601Y020156D01*
X015701Y020156D01*
X015701Y019688D01*
X015773Y019699D01*
X015851Y019725D01*
X015924Y019762D01*
X015990Y019810D01*
X016048Y019868D01*
X016096Y019934D01*
X016133Y020007D01*
X016151Y020063D01*
X016169Y020007D01*
X016206Y019934D01*
X016254Y019868D01*
X016312Y019810D01*
X016378Y019762D01*
X016451Y019725D01*
X016529Y019699D01*
X016601Y019688D01*
X016601Y020156D01*
X016701Y020156D01*
X016701Y019688D01*
X016773Y019699D01*
X016851Y019725D01*
X016924Y019762D01*
X016990Y019810D01*
X017048Y019868D01*
X017096Y019934D01*
X017118Y019978D01*
X017159Y019878D01*
X017281Y019756D01*
X017281Y018132D01*
X017223Y017992D01*
X017223Y017821D01*
X017288Y017664D01*
X017408Y017544D01*
X017566Y017478D01*
X017736Y017478D01*
X017893Y017544D01*
X018014Y017664D01*
X018079Y017821D01*
X018079Y017992D01*
X018021Y018132D01*
X018021Y019756D01*
X018143Y019878D01*
X018151Y019898D01*
X018151Y001786D01*
X018266Y001786D02*
X018036Y001786D01*
X017822Y001698D01*
X017659Y001535D01*
X017651Y001515D01*
X017643Y001535D01*
X017480Y001698D01*
X017266Y001786D01*
X017036Y001786D01*
X016822Y001698D01*
X016731Y001607D01*
X016731Y001663D01*
X016608Y001786D01*
X015694Y001786D01*
X015571Y001663D01*
X015571Y000750D01*
X015694Y000626D01*
X016608Y000626D01*
X016731Y000750D01*
X016731Y000806D01*
X016822Y000715D01*
X017036Y000626D01*
X017266Y000626D01*
X017480Y000715D01*
X017643Y000878D01*
X017651Y000898D01*
X017659Y000878D01*
X017822Y000715D01*
X018036Y000626D01*
X018266Y000626D01*
X018480Y000715D01*
X018643Y000878D01*
X018651Y000898D01*
X018659Y000878D01*
X018822Y000715D01*
X019036Y000626D01*
X019266Y000626D01*
X019480Y000715D01*
X019643Y000878D01*
X019651Y000898D01*
X019659Y000878D01*
X019822Y000715D01*
X020036Y000626D01*
X020266Y000626D01*
X020480Y000715D01*
X020643Y000878D01*
X020651Y000898D01*
X020659Y000878D01*
X020822Y000715D01*
X021036Y000626D01*
X021266Y000626D01*
X021480Y000715D01*
X021643Y000878D01*
X021684Y000978D01*
X021706Y000934D01*
X021754Y000868D01*
X021812Y000810D01*
X021878Y000762D01*
X021951Y000725D01*
X022029Y000699D01*
X022101Y000688D01*
X022101Y001156D01*
X022201Y001156D01*
X022201Y000688D01*
X022273Y000699D01*
X022351Y000725D01*
X022351Y000456D01*
X022471Y000456D02*
X022471Y000796D01*
X022485Y000806D02*
X022731Y000806D01*
X022711Y000826D02*
X022711Y000456D01*
X022831Y000456D02*
X022831Y000711D01*
X022822Y000715D02*
X023036Y000626D01*
X023266Y000626D01*
X023480Y000715D01*
X023643Y000878D01*
X023668Y000940D01*
X023931Y000676D01*
X024371Y000676D01*
X024651Y000957D01*
X024931Y000676D01*
X025371Y000676D01*
X025681Y000987D01*
X025681Y001426D01*
X025371Y001736D01*
X024931Y001736D01*
X024651Y001456D01*
X024371Y001736D01*
X023931Y001736D01*
X023668Y001473D01*
X023643Y001535D01*
X023561Y001617D01*
X023561Y002067D01*
X023681Y002187D01*
X023681Y002626D01*
X023401Y002906D01*
X023681Y003187D01*
X023681Y003626D01*
X023371Y003936D01*
X022931Y003936D01*
X022621Y003626D01*
X022621Y003187D01*
X022901Y002906D01*
X022621Y002626D01*
X022621Y002187D01*
X022741Y002067D01*
X022741Y001617D01*
X022659Y001535D01*
X022618Y001435D01*
X022596Y001479D01*
X022548Y001545D01*
X022490Y001603D01*
X022424Y001651D01*
X022351Y001688D01*
X022351Y016557D01*
X022381Y016526D02*
X021921Y016526D01*
X021871Y016477D02*
X021871Y015410D01*
X021861Y015420D02*
X021861Y015420D01*
X021965Y015316D01*
X022021Y015180D01*
X022021Y014586D01*
X022181Y014426D01*
X022181Y013987D01*
X021871Y013676D01*
X021431Y013676D01*
X021151Y013957D01*
X020871Y013676D01*
X020431Y013676D01*
X020121Y013987D01*
X020121Y014426D01*
X020431Y014736D01*
X020431Y015036D01*
X020551Y015036D02*
X020551Y014736D01*
X020431Y014736D02*
X020871Y014736D01*
X021151Y014456D01*
X021151Y015036D01*
X021198Y015036D02*
X021281Y014953D01*
X021281Y014586D01*
X021151Y014456D01*
X021121Y014486D02*
X021181Y014486D01*
X021271Y014576D02*
X021271Y014963D01*
X021268Y014966D02*
X015061Y014966D01*
X015061Y014846D02*
X021281Y014846D01*
X021281Y014726D02*
X020881Y014726D01*
X020911Y014696D02*
X020911Y015036D01*
X021031Y015036D02*
X021031Y014576D01*
X021001Y014606D02*
X021281Y014606D01*
X021198Y015036D02*
X020077Y015036D01*
X019941Y015093D01*
X019837Y015197D01*
X019837Y015197D01*
X019441Y015593D01*
X019441Y015593D01*
X019337Y015697D01*
X019281Y015833D01*
X019281Y019756D01*
X019159Y019878D01*
X019151Y019898D01*
X019143Y019878D01*
X019061Y019796D01*
X019061Y017135D01*
X019079Y017092D01*
X019079Y016921D01*
X019014Y016764D01*
X018893Y016644D01*
X018736Y016578D01*
X018566Y016578D01*
X018408Y016644D01*
X018288Y016764D01*
X018223Y016921D01*
X018223Y017092D01*
X018241Y017135D01*
X018241Y019796D01*
X018159Y019878D01*
X018151Y019898D01*
X018146Y019886D02*
X018156Y019886D01*
X018241Y019766D02*
X018031Y019766D01*
X018031Y018108D01*
X018040Y018086D02*
X018241Y018086D01*
X018241Y017966D02*
X018079Y017966D01*
X018079Y017846D02*
X018241Y017846D01*
X018241Y017726D02*
X018040Y017726D01*
X018031Y017705D02*
X018031Y001785D01*
X017987Y001766D02*
X017315Y001766D01*
X017311Y001768D02*
X017311Y017641D01*
X017346Y017606D02*
X015061Y017606D01*
X015061Y017486D02*
X017546Y017486D01*
X017551Y017485D02*
X017551Y001627D01*
X017531Y001646D02*
X017771Y001646D01*
X017791Y001667D02*
X017791Y017501D01*
X017756Y017486D02*
X018241Y017486D01*
X018241Y017366D02*
X015061Y017366D01*
X015061Y017246D02*
X018241Y017246D01*
X018237Y017126D02*
X015061Y017126D01*
X015061Y017006D02*
X018223Y017006D01*
X018237Y016886D02*
X015061Y016886D01*
X015061Y016766D02*
X018287Y016766D01*
X018271Y016805D02*
X018271Y001785D01*
X018266Y001786D02*
X018480Y001698D01*
X018643Y001535D01*
X018651Y001515D01*
X018659Y001535D01*
X018822Y001698D01*
X019036Y001786D01*
X019266Y001786D01*
X019480Y001698D01*
X019643Y001535D01*
X019651Y001515D01*
X019659Y001535D01*
X019822Y001698D01*
X020036Y001786D01*
X020266Y001786D01*
X020480Y001698D01*
X020643Y001535D01*
X020651Y001515D01*
X020659Y001535D01*
X020822Y001698D01*
X021036Y001786D01*
X021266Y001786D01*
X021480Y001698D01*
X021643Y001535D01*
X021684Y001435D01*
X021706Y001479D01*
X021754Y001545D01*
X021812Y001603D01*
X021878Y001651D01*
X021951Y001688D01*
X022029Y001714D01*
X022101Y001725D01*
X022101Y001257D01*
X022201Y001257D01*
X022201Y001725D01*
X022273Y001714D01*
X022351Y001688D01*
X022430Y001646D02*
X022741Y001646D01*
X022711Y001587D02*
X022711Y002097D01*
X022681Y002126D02*
X007651Y002126D01*
X007591Y002067D02*
X007591Y001786D01*
X007711Y001786D02*
X007711Y002187D01*
X007771Y002246D02*
X022621Y002246D01*
X022621Y002366D02*
X007891Y002366D01*
X007831Y002307D02*
X007831Y001786D01*
X007951Y001786D02*
X007951Y002427D01*
X008004Y002486D02*
X022621Y002486D01*
X022621Y002606D02*
X008053Y002606D01*
X008061Y002726D02*
X022721Y002726D01*
X022711Y002716D02*
X022711Y003097D01*
X022721Y003086D02*
X008061Y003086D01*
X008061Y002966D02*
X022841Y002966D01*
X022831Y002977D02*
X022831Y002836D01*
X022841Y002846D02*
X008061Y002846D01*
X008061Y003206D02*
X022621Y003206D01*
X022621Y003326D02*
X008061Y003326D01*
X008061Y003446D02*
X022621Y003446D01*
X022621Y003566D02*
X008061Y003566D01*
X008061Y003686D02*
X022681Y003686D01*
X022711Y003716D02*
X022711Y016476D01*
X022831Y016476D02*
X022831Y003836D01*
X022801Y003806D02*
X008061Y003806D01*
X008061Y003926D02*
X022921Y003926D01*
X022951Y003936D02*
X022951Y016557D01*
X022921Y016526D02*
X025701Y016526D01*
X025701Y016406D02*
X020021Y016406D01*
X020021Y016286D02*
X025701Y016286D01*
X025701Y016166D02*
X020021Y016166D01*
X020021Y016060D02*
X020021Y019756D01*
X020143Y019878D01*
X020151Y019898D01*
X020159Y019878D01*
X020281Y019756D01*
X020281Y018633D01*
X020337Y018497D01*
X021281Y017553D01*
X021281Y017386D01*
X021151Y017256D01*
X021151Y017683D01*
X021108Y017726D02*
X020021Y017726D01*
X020021Y017606D02*
X021228Y017606D01*
X021271Y017563D02*
X021271Y017376D01*
X021261Y017366D02*
X021041Y017366D01*
X021031Y017376D02*
X021031Y017803D01*
X020988Y017846D02*
X020021Y017846D01*
X020021Y017966D02*
X020868Y017966D01*
X020911Y017923D02*
X020911Y017496D01*
X020921Y017486D02*
X021281Y017486D01*
X021151Y017256D02*
X020871Y017536D01*
X020431Y017536D01*
X020431Y018403D01*
X020388Y018446D02*
X020021Y018446D01*
X020021Y018326D02*
X020508Y018326D01*
X020551Y018283D02*
X020551Y017536D01*
X020431Y017536D02*
X020121Y017226D01*
X020121Y016787D01*
X020431Y016476D01*
X020871Y016476D01*
X021151Y016757D01*
X021431Y016476D01*
X021871Y016476D01*
X022151Y016757D01*
X022431Y016476D01*
X022871Y016476D01*
X023181Y016787D01*
X023181Y017226D01*
X022871Y017536D01*
X022431Y017536D01*
X022151Y017256D01*
X022021Y017386D01*
X022021Y017780D01*
X021965Y017916D01*
X021861Y018020D01*
X021021Y018860D01*
X021021Y019756D01*
X021071Y019806D01*
X021071Y019750D01*
X021194Y019626D01*
X022108Y019626D01*
X022231Y019750D01*
X022231Y020663D01*
X022108Y020786D01*
X021194Y020786D01*
X021071Y020663D01*
X021071Y020607D01*
X020980Y020698D01*
X020766Y020786D01*
X020536Y020786D01*
X020322Y020698D01*
X020159Y020535D01*
X020151Y020515D01*
X020143Y020535D01*
X019980Y020698D01*
X019766Y020786D01*
X019536Y020786D01*
X019322Y020698D01*
X019159Y020535D01*
X019151Y020515D01*
X019143Y020535D01*
X018980Y020698D01*
X018766Y020786D01*
X018536Y020786D01*
X018322Y020698D01*
X018159Y020535D01*
X018151Y020515D01*
X018151Y020956D01*
X018271Y020956D02*
X018271Y020647D01*
X018231Y020606D02*
X018071Y020606D01*
X018031Y020647D02*
X018031Y020956D01*
X017911Y020956D02*
X017911Y020727D01*
X017911Y020726D02*
X018391Y020726D01*
X018391Y020727D02*
X018391Y020956D01*
X018511Y020956D02*
X018511Y020776D01*
X018631Y020786D02*
X018631Y020956D01*
X018751Y020956D02*
X018751Y020786D01*
X018871Y020743D02*
X018871Y020956D01*
X018991Y020956D02*
X018991Y020687D01*
X018911Y020726D02*
X019391Y020726D01*
X019351Y020710D02*
X019351Y020956D01*
X019471Y020956D02*
X019471Y020760D01*
X019591Y020786D02*
X019591Y020956D01*
X019711Y020956D02*
X019711Y020786D01*
X019831Y020760D02*
X019831Y020956D01*
X019951Y020956D02*
X019951Y020710D01*
X019911Y020726D02*
X020391Y020726D01*
X020431Y020743D02*
X020431Y020956D01*
X020551Y020956D02*
X020551Y020786D01*
X020671Y020786D02*
X020671Y020956D01*
X020791Y020956D02*
X020791Y020776D01*
X020911Y020727D02*
X020911Y020956D01*
X021031Y020956D02*
X021031Y020647D01*
X021134Y020726D02*
X020911Y020726D01*
X021151Y020743D02*
X021151Y020956D01*
X021271Y020956D02*
X021271Y020786D01*
X021391Y020786D02*
X021391Y020956D01*
X021511Y020956D02*
X021511Y020786D01*
X021631Y020786D02*
X021631Y020956D01*
X021751Y020956D02*
X021751Y020786D01*
X021871Y020786D02*
X021871Y020956D01*
X021991Y020956D02*
X021991Y020786D01*
X022111Y020783D02*
X022111Y020956D01*
X022231Y020956D02*
X022231Y017336D01*
X022261Y017366D02*
X022041Y017366D01*
X022111Y017296D02*
X022111Y019630D01*
X022128Y019646D02*
X025701Y019646D01*
X025701Y019526D02*
X021021Y019526D01*
X021021Y019406D02*
X025701Y019406D01*
X025701Y019286D02*
X021021Y019286D01*
X021021Y019166D02*
X025701Y019166D01*
X025701Y019046D02*
X021021Y019046D01*
X021021Y018926D02*
X025701Y018926D01*
X025701Y018806D02*
X021074Y018806D01*
X021031Y018850D02*
X021031Y019766D01*
X021071Y019766D01*
X021151Y019670D02*
X021151Y018730D01*
X021194Y018686D02*
X025701Y018686D01*
X025701Y018566D02*
X021314Y018566D01*
X021271Y018610D02*
X021271Y019626D01*
X021174Y019646D02*
X021021Y019646D01*
X021391Y019626D02*
X021391Y018490D01*
X021434Y018446D02*
X025701Y018446D01*
X025701Y018326D02*
X021554Y018326D01*
X021511Y018370D02*
X021511Y019626D01*
X021631Y019626D02*
X021631Y018250D01*
X021674Y018206D02*
X025701Y018206D01*
X025701Y018086D02*
X021794Y018086D01*
X021751Y018130D02*
X021751Y019626D01*
X021871Y019626D02*
X021871Y018010D01*
X021914Y017966D02*
X025701Y017966D01*
X025701Y017846D02*
X021993Y017846D01*
X021991Y017853D02*
X021991Y019626D01*
X022231Y019766D02*
X025701Y019766D01*
X025701Y019886D02*
X022231Y019886D01*
X022231Y020006D02*
X025701Y020006D01*
X025701Y020126D02*
X025513Y020126D01*
X025471Y020109D02*
X025471Y005204D01*
X025351Y005212D02*
X025351Y020101D01*
X025231Y020109D02*
X025231Y005204D01*
X025111Y005154D02*
X025111Y020159D01*
X025189Y020126D02*
X022231Y020126D01*
X022231Y020246D02*
X024996Y020246D01*
X024991Y020252D02*
X024991Y005061D01*
X024936Y005006D02*
X014031Y005006D01*
X014071Y005047D02*
X014071Y001607D01*
X014031Y001646D02*
X014271Y001646D01*
X014311Y001687D02*
X014311Y005287D01*
X014271Y005246D02*
X025701Y005246D01*
X025701Y005126D02*
X025646Y005126D01*
X025591Y005154D02*
X025591Y020159D01*
X024903Y020366D02*
X022231Y020366D01*
X022231Y020486D02*
X024854Y020486D01*
X024871Y020445D02*
X024871Y004868D01*
X024879Y004886D02*
X013911Y004886D01*
X013951Y004927D02*
X013951Y001710D01*
X013980Y001698D02*
X013766Y001786D01*
X013536Y001786D01*
X013322Y001698D01*
X013159Y001535D01*
X013151Y001515D01*
X013143Y001535D01*
X012980Y001698D01*
X012766Y001786D01*
X012536Y001786D01*
X012322Y001698D01*
X012159Y001535D01*
X012151Y001515D01*
X012151Y004796D01*
X012271Y004796D02*
X012271Y001647D01*
X012271Y001646D02*
X012031Y001646D01*
X012031Y001647D02*
X012031Y004796D01*
X011911Y004796D02*
X011911Y001727D01*
X011980Y001698D02*
X011766Y001786D01*
X011536Y001786D01*
X011322Y001698D01*
X011159Y001535D01*
X011151Y001515D01*
X011143Y001535D01*
X010980Y001698D01*
X010766Y001786D01*
X010536Y001786D01*
X010322Y001698D01*
X010159Y001535D01*
X010151Y001515D01*
X010143Y001535D01*
X009980Y001698D01*
X009766Y001786D01*
X009536Y001786D01*
X009322Y001698D01*
X009159Y001535D01*
X009151Y001515D01*
X009151Y004796D01*
X009271Y004796D02*
X009271Y001647D01*
X009271Y001646D02*
X009031Y001646D01*
X009031Y001647D02*
X009031Y004796D01*
X008911Y004796D02*
X008911Y001727D01*
X008980Y001698D02*
X008766Y001786D01*
X008536Y001786D01*
X008487Y001766D02*
X008128Y001766D01*
X008071Y001786D02*
X008071Y004047D01*
X008071Y004046D02*
X025701Y004046D01*
X025701Y003926D02*
X023381Y003926D01*
X023431Y003876D02*
X023431Y020956D01*
X023551Y020956D02*
X023551Y003756D01*
X023501Y003806D02*
X025701Y003806D01*
X025701Y003686D02*
X023621Y003686D01*
X023671Y003636D02*
X023671Y020956D01*
X023791Y020956D02*
X023791Y001596D01*
X023841Y001646D02*
X023561Y001646D01*
X023561Y001766D02*
X025701Y001766D01*
X025701Y001646D02*
X025461Y001646D01*
X025471Y001636D02*
X025471Y004209D01*
X025351Y004201D02*
X025351Y001736D01*
X025231Y001736D02*
X025231Y004209D01*
X025111Y004259D02*
X025111Y001736D01*
X024991Y001736D02*
X024991Y004352D01*
X024936Y004406D02*
X008431Y004406D01*
X008431Y004407D02*
X008431Y001743D01*
X008311Y001687D02*
X008311Y004287D01*
X008311Y004286D02*
X025056Y004286D01*
X024846Y004646D02*
X008671Y004646D01*
X008671Y004647D02*
X008671Y001786D01*
X008791Y001776D02*
X008791Y004767D01*
X008791Y004766D02*
X024846Y004766D01*
X025056Y005126D02*
X014151Y005126D01*
X014191Y005167D02*
X014191Y001567D01*
X014159Y001535D02*
X014151Y001515D01*
X014143Y001535D01*
X013980Y001698D01*
X013831Y001760D02*
X013831Y004837D01*
X013711Y004796D02*
X013711Y001786D01*
X013815Y001766D02*
X014487Y001766D01*
X014536Y001786D02*
X014322Y001698D01*
X014159Y001535D01*
X014156Y001526D02*
X014146Y001526D01*
X014431Y001743D02*
X014431Y005407D01*
X014391Y005366D02*
X025701Y005366D01*
X025701Y005486D02*
X014511Y005486D01*
X014551Y005527D02*
X014551Y001786D01*
X014536Y001786D02*
X014766Y001786D01*
X014980Y001698D01*
X015143Y001535D01*
X015231Y001322D01*
X015231Y001091D01*
X015143Y000878D01*
X014980Y000715D01*
X014766Y000626D01*
X014536Y000626D01*
X014322Y000715D01*
X014159Y000878D01*
X014151Y000898D01*
X014143Y000878D01*
X013980Y000715D01*
X013766Y000626D01*
X013536Y000626D01*
X013322Y000715D01*
X013159Y000878D01*
X013151Y000898D01*
X013143Y000878D01*
X012980Y000715D01*
X012766Y000626D01*
X012536Y000626D01*
X012322Y000715D01*
X012159Y000878D01*
X012151Y000898D01*
X012151Y000456D01*
X012271Y000456D02*
X012271Y000766D01*
X012231Y000806D02*
X012071Y000806D01*
X012031Y000766D02*
X012031Y000456D01*
X011911Y000456D02*
X011911Y000686D01*
X012391Y000686D01*
X012391Y000456D01*
X012511Y000456D02*
X012511Y000637D01*
X012631Y000626D02*
X012631Y000456D01*
X012751Y000456D02*
X012751Y000626D01*
X012871Y000670D02*
X012871Y000456D01*
X012991Y000456D02*
X012991Y000726D01*
X012911Y000686D02*
X013391Y000686D01*
X013351Y000703D02*
X013351Y000456D01*
X013471Y000456D02*
X013471Y000653D01*
X013591Y000626D02*
X013591Y000456D01*
X013711Y000456D02*
X013711Y000626D01*
X013831Y000653D02*
X013831Y000456D01*
X013951Y000456D02*
X013951Y000703D01*
X013911Y000686D02*
X014391Y000686D01*
X014431Y000670D02*
X014431Y000456D01*
X014551Y000456D02*
X014551Y000626D01*
X014671Y000626D02*
X014671Y000456D01*
X014791Y000456D02*
X014791Y000637D01*
X014911Y000686D02*
X014911Y000456D01*
X015031Y000456D02*
X015031Y000766D01*
X015071Y000806D02*
X015571Y000806D01*
X015571Y000926D02*
X015163Y000926D01*
X015151Y000898D02*
X015151Y000456D01*
X015271Y000456D02*
X015271Y019851D01*
X015241Y019886D02*
X015146Y019886D01*
X015151Y019898D02*
X015151Y001515D01*
X015146Y001526D02*
X015571Y001526D01*
X015571Y001406D02*
X015196Y001406D01*
X015231Y001286D02*
X015571Y001286D01*
X015571Y001166D02*
X015231Y001166D01*
X015213Y001046D02*
X015571Y001046D01*
X015631Y000690D02*
X015631Y000456D01*
X015751Y000456D02*
X015751Y000626D01*
X015871Y000626D02*
X015871Y000456D01*
X015991Y000456D02*
X015991Y000626D01*
X016111Y000626D02*
X016111Y000456D01*
X016231Y000456D02*
X016231Y000626D01*
X016351Y000626D02*
X016351Y000456D01*
X016471Y000456D02*
X016471Y000626D01*
X016591Y000626D02*
X016591Y000456D01*
X016711Y000456D02*
X016711Y000730D01*
X016668Y000686D02*
X016891Y000686D01*
X016951Y000662D02*
X016951Y000456D01*
X017071Y000456D02*
X017071Y000626D01*
X017191Y000626D02*
X017191Y000456D01*
X017311Y000456D02*
X017311Y000645D01*
X017411Y000686D02*
X017891Y000686D01*
X017911Y000678D02*
X017911Y000456D01*
X018031Y000456D02*
X018031Y000628D01*
X018151Y000626D02*
X018151Y000456D01*
X018271Y000456D02*
X018271Y000628D01*
X018391Y000678D02*
X018391Y000456D01*
X018511Y000456D02*
X018511Y000746D01*
X018571Y000806D02*
X018731Y000806D01*
X018751Y000786D02*
X018751Y000456D01*
X018871Y000456D02*
X018871Y000695D01*
X018891Y000686D02*
X018411Y000686D01*
X018631Y000866D02*
X018631Y000456D01*
X018991Y000456D02*
X018991Y000645D01*
X019111Y000626D02*
X019111Y000456D01*
X019231Y000456D02*
X019231Y000626D01*
X019351Y000662D02*
X019351Y000456D01*
X019471Y000456D02*
X019471Y000711D01*
X019411Y000686D02*
X019891Y000686D01*
X019951Y000662D02*
X019951Y000456D01*
X020071Y000456D02*
X020071Y000626D01*
X020191Y000626D02*
X020191Y000456D01*
X020311Y000456D02*
X020311Y000645D01*
X020411Y000686D02*
X020891Y000686D01*
X020911Y000678D02*
X020911Y000456D01*
X021031Y000456D02*
X021031Y000628D01*
X021151Y000626D02*
X021151Y000456D01*
X021271Y000456D02*
X021271Y000628D01*
X021391Y000678D02*
X021391Y000456D01*
X021511Y000456D02*
X021511Y000746D01*
X021571Y000806D02*
X021817Y000806D01*
X021871Y000767D02*
X021871Y000456D01*
X021991Y000456D02*
X021991Y000712D01*
X022101Y000806D02*
X022201Y000806D01*
X022231Y000693D02*
X022231Y000456D01*
X022111Y000456D02*
X022111Y001156D01*
X022111Y001257D02*
X022111Y013917D01*
X022081Y013886D02*
X025701Y013886D01*
X025701Y013766D02*
X021961Y013766D01*
X021991Y013797D02*
X021991Y001701D01*
X022101Y001646D02*
X022201Y001646D01*
X022231Y001720D02*
X022231Y016677D01*
X022261Y016646D02*
X022041Y016646D01*
X021991Y016597D02*
X021991Y015253D01*
X022010Y015206D02*
X025701Y015206D01*
X025701Y015086D02*
X022021Y015086D01*
X022021Y014966D02*
X025701Y014966D01*
X025701Y014846D02*
X022021Y014846D01*
X022021Y014726D02*
X025701Y014726D01*
X025701Y014606D02*
X022021Y014606D01*
X022111Y014496D02*
X022111Y016717D01*
X021751Y016476D02*
X021751Y015530D01*
X021714Y015566D02*
X025701Y015566D01*
X025701Y015446D02*
X021834Y015446D01*
X021861Y015420D02*
X021561Y015720D01*
X021425Y015776D01*
X020304Y015776D01*
X020021Y016060D01*
X020034Y016046D02*
X025701Y016046D01*
X025701Y015926D02*
X020154Y015926D01*
X020191Y015890D02*
X020191Y016717D01*
X020141Y016766D02*
X020021Y016766D01*
X020021Y016646D02*
X020261Y016646D01*
X020311Y016597D02*
X020311Y015776D01*
X020274Y015806D02*
X025701Y015806D01*
X025701Y015686D02*
X021594Y015686D01*
X021631Y015650D02*
X021631Y016476D01*
X021511Y016476D02*
X021511Y015741D01*
X021391Y015776D02*
X021391Y016517D01*
X021381Y016526D02*
X020921Y016526D01*
X020911Y016517D02*
X020911Y015776D01*
X021031Y015776D02*
X021031Y016637D01*
X021041Y016646D02*
X021261Y016646D01*
X021271Y016637D02*
X021271Y015776D01*
X021151Y015776D02*
X021151Y016757D01*
X020791Y016476D02*
X020791Y015776D01*
X020671Y015776D02*
X020671Y016476D01*
X020551Y016476D02*
X020551Y015776D01*
X020431Y015776D02*
X020431Y016477D01*
X020381Y016526D02*
X020021Y016526D01*
X020021Y016886D02*
X020121Y016886D01*
X020121Y017006D02*
X020021Y017006D01*
X020021Y017126D02*
X020121Y017126D01*
X020141Y017246D02*
X020021Y017246D01*
X020021Y017366D02*
X020261Y017366D01*
X020311Y017416D02*
X020311Y018560D01*
X020308Y018566D02*
X020021Y018566D01*
X020021Y018686D02*
X020281Y018686D01*
X020281Y018806D02*
X020021Y018806D01*
X020021Y018926D02*
X020281Y018926D01*
X020281Y019046D02*
X020021Y019046D01*
X020021Y019166D02*
X020281Y019166D01*
X020281Y019286D02*
X020021Y019286D01*
X020021Y019406D02*
X020281Y019406D01*
X020281Y019526D02*
X020021Y019526D01*
X020021Y019646D02*
X020281Y019646D01*
X020271Y019766D02*
X020031Y019766D01*
X020071Y019806D02*
X020071Y016010D01*
X019588Y015446D02*
X015061Y015446D01*
X015061Y015326D02*
X019708Y015326D01*
X019711Y015323D02*
X019711Y001587D01*
X019656Y001526D02*
X019646Y001526D01*
X019591Y001587D02*
X019591Y015443D01*
X019471Y015563D02*
X019471Y001702D01*
X019531Y001646D02*
X019771Y001646D01*
X019831Y001702D02*
X019831Y015203D01*
X019828Y015206D02*
X015061Y015206D01*
X015061Y015086D02*
X019957Y015086D01*
X019951Y015089D02*
X019951Y001751D01*
X019987Y001766D02*
X019315Y001766D01*
X019351Y001751D02*
X019351Y015683D01*
X019348Y015686D02*
X015061Y015686D01*
X015061Y015566D02*
X019468Y015566D01*
X019292Y015806D02*
X015061Y015806D01*
X015061Y015926D02*
X019281Y015926D01*
X019281Y016046D02*
X015061Y016046D01*
X015061Y016166D02*
X019281Y016166D01*
X019281Y016286D02*
X015061Y016286D01*
X015061Y016406D02*
X019281Y016406D01*
X019281Y016526D02*
X015061Y016526D01*
X015061Y016646D02*
X018406Y016646D01*
X018391Y016661D02*
X018391Y001735D01*
X018315Y001766D02*
X018987Y001766D01*
X018991Y001768D02*
X018991Y016741D01*
X019015Y016766D02*
X019281Y016766D01*
X019281Y016646D02*
X018896Y016646D01*
X018871Y016634D02*
X018871Y001718D01*
X018771Y001646D02*
X018531Y001646D01*
X018511Y001667D02*
X018511Y016601D01*
X018631Y016578D02*
X018631Y001547D01*
X018646Y001526D02*
X018656Y001526D01*
X018751Y001627D02*
X018751Y016585D01*
X019065Y016886D02*
X019281Y016886D01*
X019281Y017006D02*
X019079Y017006D01*
X019065Y017126D02*
X019281Y017126D01*
X019281Y017246D02*
X019061Y017246D01*
X019061Y017366D02*
X019281Y017366D01*
X019281Y017486D02*
X019061Y017486D01*
X019061Y017606D02*
X019281Y017606D01*
X019281Y017726D02*
X019061Y017726D01*
X019061Y017846D02*
X019281Y017846D01*
X019281Y017966D02*
X019061Y017966D01*
X019061Y018086D02*
X019281Y018086D01*
X019281Y018206D02*
X019061Y018206D01*
X019061Y018326D02*
X019281Y018326D01*
X019281Y018446D02*
X019061Y018446D01*
X019061Y018566D02*
X019281Y018566D01*
X019281Y018686D02*
X019061Y018686D01*
X019061Y018806D02*
X019281Y018806D01*
X019281Y018926D02*
X019061Y018926D01*
X019061Y019046D02*
X019281Y019046D01*
X019281Y019166D02*
X019061Y019166D01*
X019061Y019286D02*
X019281Y019286D01*
X019281Y019406D02*
X019061Y019406D01*
X019061Y019526D02*
X019281Y019526D01*
X019281Y019646D02*
X019061Y019646D01*
X019061Y019766D02*
X019271Y019766D01*
X019231Y019806D02*
X019231Y001786D01*
X019111Y001786D02*
X019111Y019846D01*
X019146Y019886D02*
X019156Y019886D01*
X019111Y020567D02*
X019111Y020956D01*
X019231Y020956D02*
X019231Y020607D01*
X019231Y020606D02*
X019071Y020606D01*
X020071Y020607D02*
X020071Y020956D01*
X020191Y020956D02*
X020191Y020567D01*
X020231Y020606D02*
X020071Y020606D01*
X020311Y020687D02*
X020311Y020956D01*
X020156Y019886D02*
X020146Y019886D01*
X020191Y019846D02*
X020191Y017296D01*
X020021Y017486D02*
X020381Y017486D01*
X020671Y017536D02*
X020671Y018163D01*
X020628Y018206D02*
X020021Y018206D01*
X020021Y018086D02*
X020748Y018086D01*
X020791Y018043D02*
X020791Y017536D01*
X022021Y017486D02*
X022381Y017486D01*
X022351Y017456D02*
X022351Y020956D01*
X022471Y020956D02*
X022471Y017536D01*
X022591Y017536D02*
X022591Y020956D01*
X022711Y020956D02*
X022711Y017536D01*
X022831Y017536D02*
X022831Y020956D01*
X022951Y020956D02*
X022951Y017456D01*
X022921Y017486D02*
X025701Y017486D01*
X025701Y017366D02*
X023041Y017366D01*
X023071Y017336D02*
X023071Y020956D01*
X023191Y020956D02*
X023191Y003936D01*
X023311Y003936D02*
X023311Y020956D01*
X023911Y020956D02*
X023911Y001716D01*
X024031Y001736D02*
X024031Y020956D01*
X024151Y020956D02*
X024151Y001736D01*
X024271Y001736D02*
X024271Y020956D01*
X024391Y020956D02*
X024391Y001716D01*
X023721Y001526D02*
X023646Y001526D01*
X023671Y001476D02*
X023671Y002177D01*
X023681Y002246D02*
X025701Y002246D01*
X025701Y002126D02*
X023621Y002126D01*
X023561Y002006D02*
X025701Y002006D01*
X025701Y001886D02*
X023561Y001886D01*
X023681Y002366D02*
X025701Y002366D01*
X025701Y002486D02*
X023681Y002486D01*
X023681Y002606D02*
X025701Y002606D01*
X025701Y002726D02*
X023581Y002726D01*
X023551Y002756D02*
X023551Y003057D01*
X023581Y003086D02*
X025701Y003086D01*
X025701Y002966D02*
X023461Y002966D01*
X023431Y002937D02*
X023431Y002876D01*
X023461Y002846D02*
X025701Y002846D01*
X025701Y003206D02*
X023681Y003206D01*
X023671Y003177D02*
X023671Y002636D01*
X023681Y003326D02*
X025701Y003326D01*
X025701Y003446D02*
X023681Y003446D01*
X023681Y003566D02*
X025701Y003566D01*
X025701Y004166D02*
X008191Y004166D01*
X008191Y004167D02*
X008191Y001703D01*
X008231Y001646D02*
X008271Y001646D01*
X008815Y001766D02*
X009487Y001766D01*
X009511Y001776D02*
X009511Y004796D01*
X009631Y004796D02*
X009631Y001786D01*
X009751Y001786D02*
X009751Y004796D01*
X009871Y004796D02*
X009871Y001743D01*
X009815Y001766D02*
X010487Y001766D01*
X010471Y001760D02*
X010471Y004796D01*
X010591Y004796D02*
X010591Y001786D01*
X010711Y001786D02*
X010711Y004796D01*
X010831Y004796D02*
X010831Y001760D01*
X010815Y001766D02*
X011487Y001766D01*
X011431Y001743D02*
X011431Y004796D01*
X011551Y004796D02*
X011551Y001786D01*
X011671Y001786D02*
X011671Y004796D01*
X011791Y004796D02*
X011791Y001776D01*
X011815Y001766D02*
X012487Y001766D01*
X012511Y001776D02*
X012511Y004796D01*
X012631Y004796D02*
X012631Y001786D01*
X012751Y001786D02*
X012751Y004796D01*
X012871Y004796D02*
X012871Y001743D01*
X012815Y001766D02*
X013487Y001766D01*
X013471Y001760D02*
X013471Y004796D01*
X013591Y004796D02*
X013591Y001786D01*
X013351Y001710D02*
X013351Y004796D01*
X013231Y004796D02*
X013231Y001607D01*
X013271Y001646D02*
X013031Y001646D01*
X012991Y001687D02*
X012991Y004796D01*
X013111Y004796D02*
X013111Y001567D01*
X013146Y001526D02*
X013156Y001526D01*
X012391Y001727D02*
X012391Y004796D01*
X011311Y004796D02*
X011311Y001687D01*
X011271Y001646D02*
X011031Y001646D01*
X011071Y001607D02*
X011071Y004796D01*
X011191Y004796D02*
X011191Y001567D01*
X011156Y001526D02*
X011146Y001526D01*
X010951Y001710D02*
X010951Y004796D01*
X010351Y004796D02*
X010351Y001710D01*
X010271Y001646D02*
X010031Y001646D01*
X009991Y001687D02*
X009991Y004796D01*
X010111Y004796D02*
X010111Y001567D01*
X010146Y001526D02*
X010156Y001526D01*
X010231Y001607D02*
X010231Y004796D01*
X009391Y004796D02*
X009391Y001727D01*
X009156Y001526D02*
X009146Y001526D01*
X009143Y001535D02*
X008980Y001698D01*
X009143Y001535D02*
X009151Y001515D01*
X009151Y000898D02*
X009159Y000878D01*
X009322Y000715D01*
X009536Y000626D01*
X009766Y000626D01*
X009980Y000715D01*
X010143Y000878D01*
X010151Y000898D01*
X010159Y000878D01*
X010322Y000715D01*
X010536Y000626D01*
X010766Y000626D01*
X010980Y000715D01*
X011143Y000878D01*
X011151Y000898D01*
X011159Y000878D01*
X011322Y000715D01*
X011536Y000626D01*
X011766Y000626D01*
X011980Y000715D01*
X012143Y000878D01*
X012151Y000898D01*
X011791Y000637D02*
X011791Y000456D01*
X011671Y000456D02*
X011671Y000626D01*
X011551Y000626D02*
X011551Y000456D01*
X011431Y000456D02*
X011431Y000670D01*
X011391Y000686D02*
X010911Y000686D01*
X010951Y000703D02*
X010951Y000456D01*
X011071Y000456D02*
X011071Y000806D01*
X011231Y000806D01*
X011191Y000846D02*
X011191Y000456D01*
X011311Y000456D02*
X011311Y000726D01*
X010831Y000653D02*
X010831Y000456D01*
X010711Y000456D02*
X010711Y000626D01*
X010591Y000626D02*
X010591Y000456D01*
X010471Y000456D02*
X010471Y000653D01*
X010391Y000686D02*
X009911Y000686D01*
X009871Y000670D02*
X009871Y000456D01*
X009991Y000456D02*
X009991Y000726D01*
X010071Y000806D02*
X010231Y000806D01*
X010231Y000456D01*
X010351Y000456D02*
X010351Y000703D01*
X010111Y000846D02*
X010111Y000456D01*
X009751Y000456D02*
X009751Y000626D01*
X009631Y000626D02*
X009631Y000456D01*
X009511Y000456D02*
X009511Y000637D01*
X009391Y000686D02*
X009391Y000456D01*
X009271Y000456D02*
X009271Y000766D01*
X009231Y000806D02*
X009071Y000806D01*
X009031Y000766D02*
X009031Y000456D01*
X009151Y000456D02*
X009151Y000898D01*
X009143Y000878D01*
X008980Y000715D01*
X008766Y000626D01*
X008536Y000626D01*
X008322Y000715D01*
X008231Y000806D01*
X008231Y000750D01*
X008108Y000626D01*
X007194Y000626D01*
X007071Y000750D01*
X007071Y001547D01*
X006999Y001474D01*
X006999Y001474D01*
X006883Y001359D01*
X006733Y001296D01*
X002621Y001296D01*
X002621Y001256D01*
X002201Y001256D01*
X002201Y001156D01*
X002201Y000736D01*
X002346Y000736D01*
X002621Y001012D01*
X002621Y001156D01*
X002201Y001156D01*
X002101Y001156D01*
X002101Y000736D01*
X001956Y000736D01*
X001681Y001012D01*
X001681Y001156D01*
X002101Y001156D01*
X002101Y001256D01*
X001681Y001256D01*
X001681Y001326D01*
X001681Y001326D01*
X001681Y000987D01*
X001371Y000676D01*
X000931Y000676D01*
X000621Y000987D01*
X000621Y001426D01*
X000931Y001736D01*
X001271Y001736D01*
X001271Y001736D01*
X001201Y001736D01*
X001201Y002156D01*
X001101Y002156D01*
X001101Y001736D01*
X000956Y001736D01*
X000681Y002012D01*
X000681Y002156D01*
X001101Y002156D01*
X001101Y002256D01*
X000681Y002256D01*
X000681Y002401D01*
X000956Y002676D01*
X001101Y002676D01*
X001101Y002257D01*
X001201Y002257D01*
X001201Y002676D01*
X001346Y002676D01*
X001621Y002401D01*
X001621Y002256D01*
X001201Y002256D01*
X001201Y002156D01*
X001621Y002156D01*
X001621Y002012D01*
X001606Y001996D01*
X001621Y001996D01*
X001621Y002426D01*
X001901Y002706D01*
X001651Y002957D01*
X001371Y002676D01*
X000931Y002676D01*
X000621Y002987D01*
X000621Y003426D01*
X000901Y003706D01*
X000621Y003987D01*
X000621Y004426D01*
X000901Y004706D01*
X000621Y004987D01*
X000621Y005426D01*
X000931Y005736D01*
X001271Y005736D01*
X001271Y005736D01*
X001201Y005736D01*
X001201Y006156D01*
X001101Y006156D01*
X001101Y005736D01*
X000956Y005736D01*
X000681Y006012D01*
X000681Y006156D01*
X001101Y006156D01*
X001101Y006256D01*
X000681Y006256D01*
X000681Y006401D01*
X000956Y006676D01*
X001101Y006676D01*
X001101Y006257D01*
X001201Y006257D01*
X001201Y006676D01*
X001346Y006676D01*
X001621Y006401D01*
X001621Y006256D01*
X001201Y006256D01*
X001201Y006156D01*
X001621Y006156D01*
X001621Y006012D01*
X001606Y005996D01*
X001621Y005996D01*
X001621Y006426D01*
X001901Y006706D01*
X001651Y006957D01*
X001371Y006676D01*
X000931Y006676D01*
X000621Y006987D01*
X000621Y007426D01*
X000901Y007706D01*
X000621Y007987D01*
X000621Y008426D01*
X000901Y008706D01*
X000621Y008987D01*
X000621Y009426D01*
X000901Y009706D01*
X000621Y009987D01*
X000621Y010426D01*
X000931Y010736D01*
X001371Y010736D01*
X001651Y010456D01*
X001901Y010706D01*
X001621Y010987D01*
X001621Y011426D01*
X001901Y011706D01*
X001651Y011957D01*
X001371Y011676D01*
X000931Y011676D01*
X000621Y011987D01*
X000621Y012426D01*
X000901Y012706D01*
X000621Y012987D01*
X000621Y013426D01*
X000901Y013706D01*
X000621Y013987D01*
X000621Y014426D01*
X000901Y014706D01*
X000621Y014987D01*
X000621Y015426D01*
X000931Y015736D01*
X001371Y015736D01*
X001651Y015456D01*
X001901Y015706D01*
X001621Y015987D01*
X001621Y016426D01*
X001901Y016706D01*
X001651Y016957D01*
X001371Y016676D01*
X000931Y016676D01*
X000621Y016987D01*
X000621Y017426D01*
X000901Y017706D01*
X000621Y017987D01*
X000621Y018426D01*
X000901Y018706D01*
X000621Y018987D01*
X000621Y019426D01*
X000901Y019706D01*
X000621Y019987D01*
X000621Y020426D01*
X000931Y020736D01*
X001271Y020736D01*
X001481Y020947D01*
X001481Y020956D01*
X000599Y020956D01*
X000598Y020956D01*
X000549Y020956D01*
X000548Y020956D01*
X000513Y020953D01*
X000449Y020923D01*
X000405Y020868D01*
X000390Y020799D01*
X000393Y020770D01*
X000401Y020752D01*
X000401Y020736D01*
X000406Y020716D01*
X000401Y020687D01*
X000401Y000626D01*
X000406Y000601D01*
X000436Y000539D01*
X000422Y000566D02*
X003562Y000566D01*
X003511Y000456D02*
X003511Y001296D01*
X003631Y001296D02*
X003631Y001001D01*
X003676Y001046D02*
X002621Y001046D01*
X002551Y000942D02*
X002551Y000456D01*
X002671Y000456D02*
X002671Y001296D01*
X002621Y001286D02*
X007071Y001286D01*
X007071Y001166D02*
X004261Y001166D01*
X004231Y001179D02*
X004231Y001296D01*
X004351Y001296D02*
X004351Y001121D01*
X004426Y001046D02*
X007071Y001046D01*
X007071Y000926D02*
X004507Y000926D01*
X004471Y001001D02*
X004471Y001296D01*
X004591Y001296D02*
X004591Y000456D01*
X004711Y000456D02*
X004711Y001296D01*
X004831Y001296D02*
X004831Y000456D01*
X004951Y000456D02*
X004951Y001296D01*
X005071Y001296D02*
X005071Y000456D01*
X005191Y000456D02*
X005191Y001296D01*
X005311Y001296D02*
X005311Y000456D01*
X005431Y000456D02*
X005431Y001296D01*
X005551Y001296D02*
X005551Y000456D01*
X005671Y000456D02*
X005671Y001296D01*
X005791Y001296D02*
X005791Y000456D01*
X005911Y000456D02*
X005911Y001296D01*
X006031Y001296D02*
X006031Y000456D01*
X006151Y000456D02*
X006151Y001296D01*
X006271Y001296D02*
X006271Y000456D01*
X006391Y000456D02*
X006391Y001296D01*
X006511Y001296D02*
X006511Y000456D01*
X006631Y000456D02*
X006631Y001296D01*
X006751Y001304D02*
X006751Y000456D01*
X006871Y000456D02*
X006871Y001354D01*
X006931Y001406D02*
X007071Y001406D01*
X006991Y001467D02*
X006991Y000456D01*
X007111Y000456D02*
X007111Y000710D01*
X007134Y000686D02*
X004556Y000686D01*
X004556Y000806D02*
X007071Y000806D01*
X007231Y000626D02*
X007231Y000456D01*
X007351Y000456D02*
X007351Y000626D01*
X007471Y000626D02*
X007471Y000456D01*
X007591Y000456D02*
X007591Y000626D01*
X007711Y000626D02*
X007711Y000456D01*
X007831Y000456D02*
X007831Y000626D01*
X007951Y000626D02*
X007951Y000456D01*
X008071Y000456D02*
X008071Y000626D01*
X008168Y000686D02*
X008391Y000686D01*
X008431Y000670D02*
X008431Y000456D01*
X008551Y000456D02*
X008551Y000626D01*
X008671Y000626D02*
X008671Y000456D01*
X008791Y000456D02*
X008791Y000637D01*
X008911Y000686D02*
X008911Y000456D01*
X008911Y000686D02*
X009391Y000686D01*
X008311Y000726D02*
X008311Y000456D01*
X008191Y000456D02*
X008191Y000710D01*
X007071Y001526D02*
X007051Y001526D01*
X007351Y001786D02*
X007351Y001827D01*
X007411Y001886D02*
X022741Y001886D01*
X022741Y001766D02*
X021315Y001766D01*
X021271Y001785D02*
X021271Y013837D01*
X021221Y013886D02*
X021081Y013886D01*
X021031Y013837D02*
X021031Y001785D01*
X020987Y001766D02*
X020315Y001766D01*
X020311Y001768D02*
X020311Y013797D01*
X020341Y013766D02*
X015061Y013766D01*
X015061Y013646D02*
X025701Y013646D01*
X025701Y013526D02*
X015061Y013526D01*
X015061Y013406D02*
X025701Y013406D01*
X025701Y013286D02*
X015061Y013286D01*
X015061Y013166D02*
X025701Y013166D01*
X025701Y013046D02*
X015061Y013046D01*
X015061Y012926D02*
X025701Y012926D01*
X025701Y012806D02*
X015061Y012806D01*
X015061Y012686D02*
X025701Y012686D01*
X025701Y012566D02*
X015061Y012566D01*
X015061Y012446D02*
X025701Y012446D01*
X025701Y012326D02*
X015061Y012326D01*
X015061Y012206D02*
X025701Y012206D01*
X025701Y012086D02*
X015061Y012086D01*
X015061Y011966D02*
X025701Y011966D01*
X025701Y011846D02*
X015061Y011846D01*
X015061Y011726D02*
X025701Y011726D01*
X025701Y011606D02*
X015061Y011606D01*
X015061Y011486D02*
X025701Y011486D01*
X025701Y011366D02*
X015061Y011366D01*
X015061Y011246D02*
X025701Y011246D01*
X025701Y011126D02*
X015061Y011126D01*
X015061Y011006D02*
X025701Y011006D01*
X025701Y010886D02*
X015061Y010886D01*
X015061Y010766D02*
X025701Y010766D01*
X025701Y010646D02*
X015061Y010646D01*
X015061Y010526D02*
X025701Y010526D01*
X025701Y010406D02*
X015061Y010406D01*
X015061Y010286D02*
X025701Y010286D01*
X025701Y010166D02*
X015061Y010166D01*
X015061Y010046D02*
X025701Y010046D01*
X025701Y009926D02*
X015061Y009926D01*
X015061Y009806D02*
X025701Y009806D01*
X025701Y009686D02*
X015061Y009686D01*
X015061Y009566D02*
X025701Y009566D01*
X025701Y009446D02*
X015061Y009446D01*
X015061Y009326D02*
X025701Y009326D01*
X025701Y009206D02*
X015061Y009206D01*
X015061Y009086D02*
X025701Y009086D01*
X025701Y008966D02*
X015061Y008966D01*
X015061Y008846D02*
X025701Y008846D01*
X025701Y008726D02*
X015061Y008726D01*
X015061Y008606D02*
X025701Y008606D01*
X025701Y008486D02*
X015061Y008486D01*
X015061Y008366D02*
X025701Y008366D01*
X025701Y008246D02*
X015061Y008246D01*
X015061Y008126D02*
X025701Y008126D01*
X025701Y008006D02*
X015061Y008006D01*
X015061Y007886D02*
X025701Y007886D01*
X025701Y007766D02*
X015061Y007766D01*
X015061Y007646D02*
X025701Y007646D01*
X025701Y007526D02*
X015061Y007526D01*
X015061Y007406D02*
X025701Y007406D01*
X025701Y007286D02*
X015061Y007286D01*
X015061Y007166D02*
X025701Y007166D01*
X025701Y007046D02*
X015061Y007046D01*
X015061Y006926D02*
X025701Y006926D01*
X025701Y006806D02*
X015061Y006806D01*
X015061Y006686D02*
X025701Y006686D01*
X025701Y006566D02*
X015061Y006566D01*
X015061Y006446D02*
X025701Y006446D01*
X025701Y006326D02*
X015061Y006326D01*
X015061Y006206D02*
X025701Y006206D01*
X025701Y006086D02*
X015045Y006086D01*
X015031Y006053D02*
X015031Y001647D01*
X015031Y001646D02*
X015571Y001646D01*
X015631Y001723D02*
X015631Y020156D01*
X015601Y020126D02*
X015701Y020126D01*
X015701Y020156D02*
X015701Y020256D01*
X016170Y020256D01*
X016601Y020256D01*
X016601Y020156D01*
X015701Y020156D01*
X015751Y020156D02*
X015751Y020256D01*
X015701Y020257D02*
X015601Y020257D01*
X015601Y020725D01*
X015529Y020714D01*
X015451Y020688D01*
X015378Y020651D01*
X015312Y020603D01*
X015254Y020545D01*
X015206Y020479D01*
X015184Y020435D01*
X015143Y020535D01*
X014980Y020698D01*
X014766Y020786D01*
X014536Y020786D01*
X014322Y020698D01*
X014159Y020535D01*
X014071Y020322D01*
X014071Y020956D01*
X014191Y020956D02*
X014191Y020567D01*
X014231Y020606D02*
X013231Y020606D01*
X013231Y020663D02*
X013108Y020786D01*
X012194Y020786D01*
X012071Y020663D01*
X012071Y020607D01*
X011980Y020698D01*
X011766Y020786D01*
X011536Y020786D01*
X011322Y020698D01*
X011159Y020535D01*
X011151Y020515D01*
X011143Y020535D01*
X010980Y020698D01*
X010766Y020786D01*
X010536Y020786D01*
X010322Y020698D01*
X010159Y020535D01*
X010151Y020515D01*
X010143Y020535D01*
X009980Y020698D01*
X009766Y020786D01*
X009536Y020786D01*
X009322Y020698D01*
X009159Y020535D01*
X009151Y020515D01*
X009151Y020956D01*
X009271Y020956D02*
X009271Y020647D01*
X009231Y020606D02*
X009071Y020606D01*
X009031Y020647D02*
X009031Y020956D01*
X008911Y020956D02*
X008911Y020727D01*
X008911Y020726D02*
X009391Y020726D01*
X009391Y020727D02*
X009391Y020956D01*
X009511Y020956D02*
X009511Y020776D01*
X009631Y020786D02*
X009631Y020956D01*
X009751Y020956D02*
X009751Y020786D01*
X009871Y020743D02*
X009871Y020956D01*
X009991Y020956D02*
X009991Y020687D01*
X009911Y020726D02*
X010391Y020726D01*
X010351Y020710D02*
X010351Y020956D01*
X010471Y020956D02*
X010471Y020760D01*
X010591Y020786D02*
X010591Y020956D01*
X010711Y020956D02*
X010711Y020786D01*
X010831Y020760D02*
X010831Y020956D01*
X010951Y020956D02*
X010951Y020710D01*
X010911Y020726D02*
X011391Y020726D01*
X011431Y020743D02*
X011431Y020956D01*
X011551Y020956D02*
X011551Y020786D01*
X011671Y020786D02*
X011671Y020956D01*
X011791Y020956D02*
X011791Y020776D01*
X011911Y020727D02*
X011911Y020956D01*
X012031Y020956D02*
X012031Y020647D01*
X012134Y020726D02*
X011911Y020726D01*
X012151Y020743D02*
X012151Y020956D01*
X012271Y020956D02*
X012271Y020786D01*
X012391Y020786D02*
X012391Y020956D01*
X012511Y020956D02*
X012511Y020786D01*
X012631Y020786D02*
X012631Y020956D01*
X012751Y020956D02*
X012751Y020786D01*
X012871Y020786D02*
X012871Y020956D01*
X012991Y020956D02*
X012991Y020786D01*
X013111Y020783D02*
X013111Y020956D01*
X013231Y020956D02*
X013231Y017435D01*
X013236Y017435D02*
X013066Y017435D01*
X012908Y017369D01*
X012788Y017249D01*
X012723Y017092D01*
X012723Y016921D01*
X012741Y016878D01*
X012741Y010933D01*
X012736Y010935D01*
X012566Y010935D01*
X012408Y010869D01*
X012288Y010749D01*
X012223Y010592D01*
X012223Y010421D01*
X012281Y010281D01*
X012281Y010275D01*
X012136Y010335D01*
X011966Y010335D01*
X011808Y010269D01*
X011688Y010149D01*
X011623Y009992D01*
X011623Y009821D01*
X011681Y009681D01*
X011681Y009475D01*
X011536Y009535D01*
X011366Y009535D01*
X011221Y009475D01*
X011221Y013981D01*
X011279Y014121D01*
X011279Y014292D01*
X011214Y014449D01*
X011093Y014569D01*
X010936Y014635D01*
X010766Y014635D01*
X010608Y014569D01*
X010488Y014449D01*
X010423Y014292D01*
X010423Y014121D01*
X010481Y013981D01*
X010481Y009076D01*
X006177Y009076D01*
X006041Y009020D01*
X005937Y008916D01*
X003737Y006716D01*
X003681Y006580D01*
X003681Y006076D01*
X002681Y006076D01*
X002681Y006426D01*
X002401Y006706D01*
X002681Y006987D01*
X002681Y007426D01*
X002401Y007706D01*
X002681Y007987D01*
X002681Y008426D01*
X002401Y008706D01*
X002681Y008987D01*
X002681Y009426D01*
X002401Y009706D01*
X002681Y009987D01*
X002681Y010426D01*
X002401Y010706D01*
X002681Y010987D01*
X002681Y011426D01*
X002401Y011706D01*
X002681Y011987D01*
X002681Y012426D01*
X002401Y012706D01*
X002681Y012987D01*
X002681Y013426D01*
X002401Y013706D01*
X002681Y013987D01*
X002681Y014426D01*
X002401Y014706D01*
X002681Y014987D01*
X002681Y015426D01*
X002401Y015706D01*
X002681Y015987D01*
X002681Y016426D01*
X002401Y016706D01*
X002681Y016987D01*
X002681Y017426D01*
X002401Y017706D01*
X002681Y017987D01*
X002681Y018336D01*
X007525Y018336D01*
X007661Y018393D01*
X007965Y018697D01*
X008021Y018833D01*
X008021Y019756D01*
X008143Y019878D01*
X008151Y019898D01*
X008159Y019878D01*
X008322Y019715D01*
X008536Y019626D01*
X008766Y019626D01*
X008980Y019715D01*
X009143Y019878D01*
X009151Y019898D01*
X009151Y009076D01*
X009271Y009076D02*
X009271Y019766D01*
X009031Y019766D01*
X009031Y009076D01*
X008911Y009076D02*
X008911Y019686D01*
X008815Y019646D02*
X009487Y019646D01*
X009511Y019637D02*
X009511Y009076D01*
X009631Y009076D02*
X009631Y019626D01*
X009536Y019626D02*
X009766Y019626D01*
X009980Y019715D01*
X010143Y019878D01*
X010151Y019898D01*
X010159Y019878D01*
X010322Y019715D01*
X010536Y019626D01*
X010766Y019626D01*
X010980Y019715D01*
X011143Y019878D01*
X011151Y019898D01*
X011159Y019878D01*
X011322Y019715D01*
X011536Y019626D01*
X011766Y019626D01*
X011980Y019715D01*
X012071Y019806D01*
X012071Y019750D01*
X012194Y019626D01*
X013108Y019626D01*
X013231Y019750D01*
X013231Y020663D01*
X013168Y020726D02*
X014391Y020726D01*
X014431Y020743D02*
X014431Y020956D01*
X014551Y020956D02*
X014551Y020786D01*
X014671Y020786D02*
X014671Y020956D01*
X014791Y020956D02*
X014791Y020776D01*
X014911Y020727D02*
X014911Y020956D01*
X015031Y020956D02*
X015031Y020647D01*
X015071Y020606D02*
X015317Y020606D01*
X015271Y020562D02*
X015271Y020956D01*
X015391Y020956D02*
X015391Y020658D01*
X015511Y020708D02*
X015511Y020956D01*
X015631Y020956D02*
X015631Y020257D01*
X015701Y020257D02*
X015701Y020725D01*
X015773Y020714D01*
X015851Y020688D01*
X015924Y020651D01*
X015990Y020603D01*
X016048Y020545D01*
X016096Y020479D01*
X016133Y020406D01*
X016151Y020350D01*
X016169Y020406D01*
X016206Y020479D01*
X016254Y020545D01*
X016312Y020603D01*
X016378Y020651D01*
X016451Y020688D01*
X016529Y020714D01*
X016601Y020725D01*
X016601Y020257D01*
X016701Y020257D01*
X016701Y020725D01*
X016773Y020714D01*
X016851Y020688D01*
X016924Y020651D01*
X016990Y020603D01*
X017048Y020545D01*
X017096Y020479D01*
X017118Y020435D01*
X017159Y020535D01*
X017322Y020698D01*
X017536Y020786D01*
X017766Y020786D01*
X017980Y020698D01*
X018143Y020535D01*
X018151Y020515D01*
X017791Y020776D02*
X017791Y020956D01*
X017671Y020956D02*
X017671Y020786D01*
X017551Y020786D02*
X017551Y020956D01*
X017431Y020956D02*
X017431Y020743D01*
X017391Y020726D02*
X014911Y020726D01*
X015151Y020515D02*
X015151Y020956D01*
X015601Y020606D02*
X015701Y020606D01*
X015701Y020486D02*
X015601Y020486D01*
X015601Y020366D02*
X015701Y020366D01*
X015701Y020246D02*
X016601Y020246D01*
X016591Y020256D02*
X016591Y020156D01*
X016601Y020126D02*
X016701Y020126D01*
X016701Y020006D02*
X016601Y020006D01*
X016601Y019886D02*
X016701Y019886D01*
X016701Y019766D02*
X016601Y019766D01*
X016591Y019690D02*
X016591Y001786D01*
X016628Y001766D02*
X016987Y001766D01*
X016951Y001751D02*
X016951Y019782D01*
X016930Y019766D02*
X017271Y019766D01*
X017191Y019846D02*
X017191Y001786D01*
X017071Y001786D02*
X017071Y019900D01*
X017061Y019886D02*
X017156Y019886D01*
X016831Y019718D02*
X016831Y001702D01*
X016771Y001646D02*
X016731Y001646D01*
X016711Y001683D02*
X016711Y019690D01*
X016471Y019718D02*
X016471Y001786D01*
X016351Y001786D02*
X016351Y019782D01*
X016372Y019766D02*
X015930Y019766D01*
X015871Y019735D02*
X015871Y001786D01*
X015991Y001786D02*
X015991Y019811D01*
X016061Y019886D02*
X016241Y019886D01*
X016231Y019900D02*
X016231Y001786D01*
X016111Y001786D02*
X016111Y019964D01*
X016133Y020006D02*
X016169Y020006D01*
X016111Y020156D02*
X016111Y020256D01*
X016146Y020366D02*
X016156Y020366D01*
X016111Y020449D02*
X016111Y020956D01*
X016231Y020956D02*
X016231Y020513D01*
X016212Y020486D02*
X016090Y020486D01*
X015991Y020602D02*
X015991Y020956D01*
X015871Y020956D02*
X015871Y020678D01*
X015751Y020717D02*
X015751Y020956D01*
X015985Y020606D02*
X016317Y020606D01*
X016351Y020631D02*
X016351Y020956D01*
X016471Y020956D02*
X016471Y020695D01*
X016591Y020723D02*
X016591Y020956D01*
X016711Y020956D02*
X016711Y020723D01*
X016701Y020606D02*
X016601Y020606D01*
X016601Y020486D02*
X016701Y020486D01*
X016701Y020366D02*
X016601Y020366D01*
X016471Y020256D02*
X016471Y020156D01*
X016351Y020156D02*
X016351Y020256D01*
X016231Y020256D02*
X016231Y020156D01*
X015991Y020156D02*
X015991Y020256D01*
X015871Y020256D02*
X015871Y020156D01*
X015701Y020006D02*
X015601Y020006D01*
X015601Y019886D02*
X015701Y019886D01*
X015701Y019766D02*
X015601Y019766D01*
X015511Y019705D02*
X015511Y000456D01*
X015391Y000456D02*
X015391Y019755D01*
X015372Y019766D02*
X015061Y019766D01*
X015061Y019646D02*
X017281Y019646D01*
X017281Y019526D02*
X015061Y019526D01*
X015061Y019406D02*
X017281Y019406D01*
X017281Y019286D02*
X015061Y019286D01*
X015061Y019166D02*
X017281Y019166D01*
X017281Y019046D02*
X015061Y019046D01*
X015061Y018926D02*
X017281Y018926D01*
X017281Y018806D02*
X015061Y018806D01*
X015061Y018686D02*
X017281Y018686D01*
X017281Y018566D02*
X015061Y018566D01*
X015061Y018446D02*
X017281Y018446D01*
X017281Y018326D02*
X015061Y018326D01*
X015061Y018206D02*
X017281Y018206D01*
X017262Y018086D02*
X015061Y018086D01*
X015061Y017966D02*
X017223Y017966D01*
X017223Y017846D02*
X015061Y017846D01*
X015061Y017726D02*
X017262Y017726D01*
X017431Y017534D02*
X017431Y001718D01*
X017646Y001526D02*
X017656Y001526D01*
X017671Y001547D02*
X017671Y017478D01*
X017911Y017561D02*
X017911Y001735D01*
X017671Y000866D02*
X017671Y000456D01*
X017791Y000456D02*
X017791Y000746D01*
X017731Y000806D02*
X017571Y000806D01*
X017551Y000786D02*
X017551Y000456D01*
X017431Y000456D02*
X017431Y000695D01*
X016831Y000711D02*
X016831Y000456D01*
X015634Y000686D02*
X014911Y000686D01*
X014311Y000726D02*
X014311Y000456D01*
X014191Y000456D02*
X014191Y000846D01*
X014231Y000806D02*
X014071Y000806D01*
X014071Y000456D01*
X013231Y000456D02*
X013231Y000806D01*
X013071Y000806D01*
X013111Y000846D02*
X013111Y000456D01*
X012151Y001515D02*
X012143Y001535D01*
X011980Y001698D01*
X012146Y001526D02*
X012156Y001526D01*
X014671Y001786D02*
X014671Y005647D01*
X014631Y005606D02*
X025701Y005606D01*
X025701Y005726D02*
X014751Y005726D01*
X014791Y005767D02*
X014791Y001776D01*
X014815Y001766D02*
X015674Y001766D01*
X015751Y001786D02*
X015751Y019696D01*
X015212Y020486D02*
X015163Y020486D01*
X014311Y020687D02*
X014311Y020956D01*
X013951Y020956D02*
X013951Y018287D01*
X013908Y018269D02*
X013788Y018149D01*
X013723Y017992D01*
X013723Y017821D01*
X013741Y017778D01*
X013741Y016033D01*
X013736Y016035D01*
X013566Y016035D01*
X013561Y016033D01*
X013561Y016878D01*
X013579Y016921D01*
X013579Y017092D01*
X013514Y017249D01*
X013393Y017369D01*
X013236Y017435D01*
X013351Y017387D02*
X013351Y020956D01*
X013471Y020956D02*
X013471Y017292D01*
X013515Y017246D02*
X013741Y017246D01*
X013741Y017126D02*
X013565Y017126D01*
X013579Y017006D02*
X013741Y017006D01*
X013741Y016886D02*
X013565Y016886D01*
X013561Y016766D02*
X013741Y016766D01*
X013741Y016646D02*
X013561Y016646D01*
X013561Y016526D02*
X013741Y016526D01*
X013741Y016406D02*
X013561Y016406D01*
X013561Y016286D02*
X013741Y016286D01*
X013741Y016166D02*
X013561Y016166D01*
X013561Y016046D02*
X013741Y016046D01*
X013711Y016035D02*
X013711Y020956D01*
X013831Y020956D02*
X013831Y018192D01*
X013846Y018206D02*
X002681Y018206D01*
X002681Y018086D02*
X013762Y018086D01*
X013723Y017966D02*
X002661Y017966D01*
X002671Y017977D02*
X002671Y017436D01*
X002681Y017366D02*
X012906Y017366D01*
X012871Y017332D02*
X012871Y019626D01*
X012991Y019626D02*
X012991Y017404D01*
X013111Y017435D02*
X013111Y019630D01*
X013128Y019646D02*
X014241Y019646D01*
X014241Y019526D02*
X008021Y019526D01*
X008021Y019406D02*
X014241Y019406D01*
X014241Y019286D02*
X008021Y019286D01*
X008021Y019166D02*
X014241Y019166D01*
X014241Y019046D02*
X008021Y019046D01*
X008021Y018926D02*
X014241Y018926D01*
X014241Y018806D02*
X008010Y018806D01*
X007954Y018686D02*
X014241Y018686D01*
X014241Y018566D02*
X007834Y018566D01*
X007831Y018563D02*
X007831Y009076D01*
X007951Y009076D02*
X007951Y018683D01*
X007714Y018446D02*
X014241Y018446D01*
X014236Y018335D02*
X014066Y018335D01*
X013908Y018269D01*
X014046Y018326D02*
X002681Y018326D01*
X002791Y018336D02*
X002791Y006076D01*
X002681Y006086D02*
X003681Y006086D01*
X003631Y006076D02*
X003631Y018336D01*
X003751Y018336D02*
X003751Y016621D01*
X003776Y016646D02*
X002461Y016646D01*
X002431Y016676D02*
X002431Y016737D01*
X002461Y016766D02*
X003941Y016766D01*
X003991Y016787D02*
X003991Y018336D01*
X004111Y018336D02*
X004111Y016812D01*
X004050Y016812D02*
X003865Y016735D01*
X003723Y016593D01*
X003646Y016407D01*
X003646Y016206D01*
X003723Y016020D01*
X003865Y015878D01*
X004050Y015801D01*
X004251Y015801D01*
X004437Y015878D01*
X004579Y016020D01*
X004656Y016206D01*
X004656Y016407D01*
X004579Y016593D01*
X004437Y016735D01*
X004251Y016812D01*
X004050Y016812D01*
X004231Y016812D02*
X004231Y018336D01*
X004351Y018336D02*
X004351Y016771D01*
X004361Y016766D02*
X012741Y016766D01*
X012741Y016646D02*
X004526Y016646D01*
X004471Y016701D02*
X004471Y018336D01*
X004591Y018336D02*
X004591Y016565D01*
X004607Y016526D02*
X012741Y016526D01*
X012741Y016406D02*
X004656Y016406D01*
X004656Y016286D02*
X012741Y016286D01*
X012741Y016166D02*
X004640Y016166D01*
X004591Y016048D02*
X004591Y007570D01*
X004548Y007526D02*
X002581Y007526D01*
X002551Y007556D02*
X002551Y007857D01*
X002581Y007886D02*
X004908Y007886D01*
X004951Y007930D02*
X004951Y018336D01*
X005071Y018336D02*
X005071Y008050D01*
X005028Y008006D02*
X002681Y008006D01*
X002671Y007977D02*
X002671Y007436D01*
X002681Y007406D02*
X004428Y007406D01*
X004471Y007450D02*
X004471Y015912D01*
X004486Y015926D02*
X012741Y015926D01*
X012741Y015806D02*
X004264Y015806D01*
X004231Y015801D02*
X004231Y007210D01*
X004188Y007166D02*
X002681Y007166D01*
X002681Y007046D02*
X004068Y007046D01*
X004111Y007090D02*
X004111Y015801D01*
X004038Y015806D02*
X002501Y015806D01*
X002551Y015857D02*
X002551Y015556D01*
X002541Y015566D02*
X012741Y015566D01*
X012741Y015446D02*
X002661Y015446D01*
X002671Y015436D02*
X002671Y015977D01*
X002681Y016046D02*
X003712Y016046D01*
X003751Y015992D02*
X003751Y006730D01*
X003725Y006686D02*
X002421Y006686D01*
X002431Y006676D02*
X002431Y006737D01*
X002501Y006806D02*
X003828Y006806D01*
X003871Y006850D02*
X003871Y015876D01*
X003816Y015926D02*
X002621Y015926D01*
X002681Y016166D02*
X003662Y016166D01*
X003646Y016286D02*
X002681Y016286D01*
X002681Y016406D02*
X003646Y016406D01*
X003695Y016526D02*
X002581Y016526D01*
X002551Y016556D02*
X002551Y016857D01*
X002581Y016886D02*
X012737Y016886D01*
X012723Y017006D02*
X002681Y017006D01*
X002671Y016977D02*
X002671Y016436D01*
X002431Y015737D02*
X002431Y015676D01*
X002421Y015686D02*
X012741Y015686D01*
X012741Y015326D02*
X002681Y015326D01*
X002681Y015206D02*
X012741Y015206D01*
X012741Y015086D02*
X002681Y015086D01*
X002671Y014977D02*
X002671Y014436D01*
X002681Y014366D02*
X010454Y014366D01*
X010471Y014408D02*
X010471Y019653D01*
X010487Y019646D02*
X009815Y019646D01*
X009871Y019670D02*
X009871Y009076D01*
X009991Y009076D02*
X009991Y019726D01*
X010031Y019766D02*
X010271Y019766D01*
X010231Y019806D02*
X010231Y009076D01*
X010351Y009076D02*
X010351Y019703D01*
X010591Y019626D02*
X010591Y014552D01*
X010526Y014486D02*
X002621Y014486D01*
X002551Y014556D02*
X002551Y014857D01*
X002541Y014846D02*
X012741Y014846D01*
X012741Y014726D02*
X002421Y014726D01*
X002431Y014737D02*
X002431Y014676D01*
X002501Y014606D02*
X010698Y014606D01*
X010711Y014612D02*
X010711Y019626D01*
X010815Y019646D02*
X011487Y019646D01*
X011431Y019670D02*
X011431Y009535D01*
X011551Y009528D02*
X011551Y019626D01*
X011671Y019626D02*
X011671Y010108D01*
X011646Y010046D02*
X011221Y010046D01*
X011221Y009926D02*
X011623Y009926D01*
X011629Y009806D02*
X011221Y009806D01*
X011221Y009686D02*
X011679Y009686D01*
X011671Y009705D02*
X011671Y009479D01*
X011681Y009566D02*
X011221Y009566D01*
X011311Y009512D02*
X011311Y019726D01*
X011271Y019766D02*
X011031Y019766D01*
X011071Y019806D02*
X011071Y014579D01*
X011004Y014606D02*
X012741Y014606D01*
X012741Y014486D02*
X011176Y014486D01*
X011191Y014472D02*
X011191Y019846D01*
X011156Y019886D02*
X011146Y019886D01*
X010951Y019703D02*
X010951Y014628D01*
X010831Y014635D02*
X010831Y019653D01*
X010156Y019886D02*
X010146Y019886D01*
X010111Y019846D02*
X010111Y009076D01*
X009751Y009076D02*
X009751Y019626D01*
X009536Y019626D02*
X009322Y019715D01*
X009159Y019878D01*
X009151Y019898D01*
X009146Y019886D02*
X009156Y019886D01*
X009391Y019686D02*
X009391Y009076D01*
X008791Y009076D02*
X008791Y019637D01*
X008671Y019626D02*
X008671Y009076D01*
X008551Y009076D02*
X008551Y019626D01*
X008487Y019646D02*
X008021Y019646D01*
X008031Y019766D02*
X008271Y019766D01*
X008311Y019726D02*
X008311Y009076D01*
X008431Y009076D02*
X008431Y019670D01*
X008191Y019846D02*
X008191Y009076D01*
X008071Y009076D02*
X008071Y019806D01*
X008146Y019886D02*
X008156Y019886D01*
X008151Y020515D02*
X008143Y020535D01*
X007980Y020698D01*
X007766Y020786D01*
X007536Y020786D01*
X007322Y020698D01*
X007159Y020535D01*
X007151Y020515D01*
X007143Y020535D01*
X006980Y020698D01*
X006766Y020786D01*
X006536Y020786D01*
X006631Y020786D02*
X006631Y020956D01*
X006751Y020956D02*
X006751Y020786D01*
X006871Y020743D02*
X006871Y020956D01*
X006991Y020956D02*
X006991Y020687D01*
X006911Y020726D02*
X007391Y020726D01*
X007351Y020710D02*
X007351Y020956D01*
X007471Y020956D02*
X007471Y020760D01*
X007591Y020786D02*
X007591Y020956D01*
X007711Y020956D02*
X007711Y020786D01*
X007831Y020760D02*
X007831Y020956D01*
X007951Y020956D02*
X007951Y020710D01*
X007911Y020726D02*
X008391Y020726D01*
X008431Y020743D02*
X008431Y020956D01*
X008551Y020956D02*
X008551Y020786D01*
X008536Y020786D02*
X008322Y020698D01*
X008159Y020535D01*
X008151Y020515D01*
X008191Y020567D02*
X008191Y020956D01*
X008311Y020956D02*
X008311Y020687D01*
X008231Y020606D02*
X008071Y020606D01*
X008071Y020607D02*
X008071Y020956D01*
X008536Y020786D02*
X008766Y020786D01*
X008980Y020698D01*
X009143Y020535D01*
X009151Y020515D01*
X008791Y020776D02*
X008791Y020956D01*
X008671Y020956D02*
X008671Y020786D01*
X010071Y020606D02*
X010231Y020606D01*
X010231Y020607D02*
X010231Y020956D01*
X010111Y020956D02*
X010111Y020567D01*
X011071Y020607D02*
X011071Y020956D01*
X011191Y020956D02*
X011191Y020567D01*
X011231Y020606D02*
X011071Y020606D01*
X011311Y020687D02*
X011311Y020956D01*
X012031Y019766D02*
X012071Y019766D01*
X012031Y019766D02*
X012031Y010335D01*
X012151Y010328D02*
X012151Y019670D01*
X012174Y019646D02*
X011815Y019646D01*
X011791Y019637D02*
X011791Y010252D01*
X011850Y010286D02*
X011221Y010286D01*
X011221Y010166D02*
X011706Y010166D01*
X011911Y010312D02*
X011911Y019686D01*
X012271Y019626D02*
X012271Y010708D01*
X012246Y010646D02*
X011221Y010646D01*
X011221Y010526D02*
X012223Y010526D01*
X012229Y010406D02*
X011221Y010406D01*
X011221Y010766D02*
X012306Y010766D01*
X012391Y010852D02*
X012391Y019626D01*
X012511Y019626D02*
X012511Y010912D01*
X012450Y010886D02*
X011221Y010886D01*
X011221Y011006D02*
X012741Y011006D01*
X012741Y011126D02*
X011221Y011126D01*
X011221Y011246D02*
X012741Y011246D01*
X012741Y011366D02*
X011221Y011366D01*
X011221Y011486D02*
X012741Y011486D01*
X012741Y011606D02*
X011221Y011606D01*
X011221Y011726D02*
X012741Y011726D01*
X012741Y011846D02*
X011221Y011846D01*
X011221Y011966D02*
X012741Y011966D01*
X012741Y012086D02*
X011221Y012086D01*
X011221Y012206D02*
X012741Y012206D01*
X012741Y012326D02*
X011221Y012326D01*
X011221Y012446D02*
X012741Y012446D01*
X012741Y012566D02*
X011221Y012566D01*
X011221Y012686D02*
X012741Y012686D01*
X012741Y012806D02*
X011221Y012806D01*
X011221Y012926D02*
X012741Y012926D01*
X012741Y013046D02*
X011221Y013046D01*
X011221Y013166D02*
X012741Y013166D01*
X012741Y013286D02*
X011221Y013286D01*
X011221Y013406D02*
X012741Y013406D01*
X012741Y013526D02*
X011221Y013526D01*
X011221Y013646D02*
X012741Y013646D01*
X012741Y013766D02*
X011221Y013766D01*
X011221Y013886D02*
X012741Y013886D01*
X012741Y014006D02*
X011232Y014006D01*
X011279Y014126D02*
X012741Y014126D01*
X012741Y014246D02*
X011279Y014246D01*
X011248Y014366D02*
X012741Y014366D01*
X012741Y014966D02*
X002661Y014966D01*
X001901Y014706D02*
X001651Y014456D01*
X001401Y014706D01*
X001651Y014957D01*
X001901Y014706D01*
X001881Y014726D02*
X001421Y014726D01*
X001471Y014777D02*
X001471Y014636D01*
X001501Y014606D02*
X001801Y014606D01*
X001831Y014636D02*
X001831Y014777D01*
X001761Y014846D02*
X001541Y014846D01*
X001591Y014897D02*
X001591Y014516D01*
X001621Y014486D02*
X001681Y014486D01*
X001711Y014516D02*
X001711Y014897D01*
X001711Y015516D02*
X001711Y015897D01*
X001681Y015926D02*
X001536Y015926D01*
X001591Y015982D02*
X001591Y015516D01*
X001541Y015566D02*
X001761Y015566D01*
X001831Y015636D02*
X001831Y015777D01*
X001801Y015806D02*
X001416Y015806D01*
X001471Y015862D02*
X001471Y015636D01*
X001421Y015686D02*
X001881Y015686D01*
X001621Y016012D02*
X001621Y016156D01*
X001201Y016156D01*
X001201Y015736D01*
X001346Y015736D01*
X001621Y016012D01*
X001621Y016046D02*
X001621Y016046D01*
X001591Y016156D02*
X001591Y016256D01*
X001621Y016256D02*
X001621Y016401D01*
X001346Y016676D01*
X001201Y016676D01*
X001201Y016257D01*
X001101Y016257D01*
X001101Y016676D01*
X000956Y016676D01*
X000681Y016401D01*
X000681Y016256D01*
X001101Y016256D01*
X001101Y016156D01*
X001201Y016156D01*
X001201Y016256D01*
X001621Y016256D01*
X001621Y016286D02*
X001621Y016286D01*
X001621Y016166D02*
X001201Y016166D01*
X001231Y016156D02*
X001231Y016256D01*
X001201Y016286D02*
X001101Y016286D01*
X001111Y016257D02*
X001111Y016676D01*
X001101Y016646D02*
X001201Y016646D01*
X001231Y016676D02*
X001231Y016676D01*
X001351Y016671D02*
X001351Y016676D01*
X001376Y016646D02*
X001841Y016646D01*
X001831Y016636D02*
X001831Y016777D01*
X001841Y016766D02*
X001461Y016766D01*
X001471Y016777D02*
X001471Y016551D01*
X001496Y016526D02*
X001721Y016526D01*
X001711Y016516D02*
X001711Y016897D01*
X001721Y016886D02*
X001581Y016886D01*
X001591Y016897D02*
X001591Y016431D01*
X001616Y016406D02*
X001621Y016406D01*
X001471Y016256D02*
X001471Y016156D01*
X001351Y016156D02*
X001351Y016256D01*
X001201Y016406D02*
X001101Y016406D01*
X001101Y016526D02*
X001201Y016526D01*
X000991Y016676D02*
X000991Y016676D01*
X000926Y016646D02*
X000401Y016646D01*
X000401Y016526D02*
X000806Y016526D01*
X000751Y016471D02*
X000751Y016857D01*
X000721Y016886D02*
X000401Y016886D01*
X000401Y016766D02*
X000841Y016766D01*
X000871Y016737D02*
X000871Y016591D01*
X000686Y016406D02*
X000401Y016406D01*
X000401Y016286D02*
X000681Y016286D01*
X000751Y016256D02*
X000751Y016156D01*
X000681Y016156D02*
X000681Y016012D01*
X000956Y015736D01*
X001101Y015736D01*
X001101Y016156D01*
X000681Y016156D01*
X000681Y016046D02*
X000401Y016046D01*
X000401Y015926D02*
X000766Y015926D01*
X000751Y015942D02*
X000751Y015556D01*
X000761Y015566D02*
X000401Y015566D01*
X000401Y015446D02*
X000641Y015446D01*
X000631Y015436D02*
X000631Y016977D01*
X000621Y017006D02*
X000401Y017006D01*
X000401Y017126D02*
X000621Y017126D01*
X000621Y017246D02*
X000401Y017246D01*
X000401Y017366D02*
X000621Y017366D01*
X000631Y017436D02*
X000631Y017977D01*
X000641Y017966D02*
X000401Y017966D01*
X000401Y017846D02*
X000761Y017846D01*
X000751Y017857D02*
X000751Y017556D01*
X000801Y017606D02*
X000401Y017606D01*
X000401Y017486D02*
X000681Y017486D01*
X000871Y017676D02*
X000871Y017737D01*
X000881Y017726D02*
X000401Y017726D01*
X000401Y018086D02*
X000621Y018086D01*
X000621Y018206D02*
X000401Y018206D01*
X000401Y018326D02*
X000621Y018326D01*
X000631Y018436D02*
X000631Y018977D01*
X000621Y019046D02*
X000401Y019046D01*
X000401Y018926D02*
X000681Y018926D01*
X000751Y018857D02*
X000751Y018556D01*
X000761Y018566D02*
X000401Y018566D01*
X000401Y018446D02*
X000641Y018446D01*
X000871Y018676D02*
X000871Y018737D01*
X000881Y018686D02*
X000401Y018686D01*
X000401Y018806D02*
X000801Y018806D01*
X000621Y019166D02*
X000401Y019166D01*
X000401Y019286D02*
X000621Y019286D01*
X000621Y019406D02*
X000401Y019406D01*
X000401Y019526D02*
X000721Y019526D01*
X000751Y019556D02*
X000751Y019857D01*
X000721Y019886D02*
X000401Y019886D01*
X000401Y019766D02*
X000841Y019766D01*
X000871Y019737D02*
X000871Y019676D01*
X000841Y019646D02*
X000401Y019646D01*
X000631Y019436D02*
X000631Y019977D01*
X000621Y020006D02*
X000401Y020006D01*
X000401Y020126D02*
X000621Y020126D01*
X000621Y020246D02*
X000401Y020246D01*
X000401Y020366D02*
X000621Y020366D01*
X000631Y020436D02*
X000631Y020956D01*
X000751Y020956D02*
X000751Y020556D01*
X000801Y020606D02*
X000401Y020606D01*
X000401Y020486D02*
X000681Y020486D01*
X000871Y020676D02*
X000871Y020956D01*
X000991Y020956D02*
X000991Y020736D01*
X000921Y020726D02*
X000403Y020726D01*
X000391Y020791D02*
X000391Y020804D01*
X000401Y020846D02*
X001381Y020846D01*
X001351Y020817D02*
X001351Y020956D01*
X001471Y020956D02*
X001471Y020937D01*
X001231Y020956D02*
X001231Y020736D01*
X001111Y020736D02*
X001111Y020956D01*
X000511Y020952D02*
X000511Y000478D01*
X000631Y000456D02*
X000631Y000977D01*
X000621Y001046D02*
X000401Y001046D01*
X000401Y000926D02*
X000681Y000926D01*
X000751Y000857D02*
X000751Y000456D01*
X000871Y000456D02*
X000871Y000737D01*
X000921Y000686D02*
X000401Y000686D01*
X000401Y000806D02*
X000801Y000806D01*
X000991Y000676D02*
X000991Y000456D01*
X001111Y000456D02*
X001111Y000676D01*
X001231Y000676D02*
X001231Y000456D01*
X001351Y000456D02*
X001351Y000676D01*
X001381Y000686D02*
X003546Y000686D01*
X003546Y000806D02*
X002416Y000806D01*
X002431Y000822D02*
X002431Y000456D01*
X002311Y000456D02*
X002311Y000736D01*
X002201Y000806D02*
X002101Y000806D01*
X002071Y000736D02*
X002071Y000456D01*
X002191Y000456D02*
X002191Y001156D01*
X002201Y001166D02*
X003841Y001166D01*
X003871Y001179D02*
X003871Y001296D01*
X003991Y001296D02*
X003991Y001212D01*
X004111Y001212D02*
X004111Y001296D01*
X003751Y001296D02*
X003751Y001121D01*
X003595Y000926D02*
X002536Y000926D01*
X002551Y001156D02*
X002551Y001256D01*
X002431Y001256D02*
X002431Y001156D01*
X002311Y001156D02*
X002311Y001256D01*
X002101Y001166D02*
X001681Y001166D01*
X001711Y001156D02*
X001711Y001256D01*
X001681Y001286D02*
X001681Y001286D01*
X001831Y001256D02*
X001831Y001156D01*
X001951Y001156D02*
X001951Y001256D01*
X002071Y001256D02*
X002071Y001156D01*
X002101Y001046D02*
X002201Y001046D01*
X002201Y000926D02*
X002101Y000926D01*
X001951Y000742D02*
X001951Y000456D01*
X001831Y000456D02*
X001831Y000862D01*
X001886Y000806D02*
X001501Y000806D01*
X001471Y000777D02*
X001471Y000456D01*
X001591Y000456D02*
X001591Y000897D01*
X001621Y000926D02*
X001766Y000926D01*
X001711Y000982D02*
X001711Y000456D01*
X001681Y001046D02*
X001681Y001046D01*
X000871Y001676D02*
X000871Y001822D01*
X000926Y001766D02*
X000401Y001766D01*
X000401Y001646D02*
X000841Y001646D01*
X000751Y001556D02*
X000751Y001942D01*
X000806Y001886D02*
X000401Y001886D01*
X000401Y002006D02*
X000686Y002006D01*
X000681Y002126D02*
X000401Y002126D01*
X000401Y002246D02*
X001101Y002246D01*
X001111Y002257D02*
X001111Y002676D01*
X001101Y002606D02*
X001201Y002606D01*
X001231Y002676D02*
X001231Y002676D01*
X001351Y002671D02*
X001351Y002676D01*
X001421Y002726D02*
X001881Y002726D01*
X001831Y002777D02*
X001831Y002636D01*
X001801Y002606D02*
X001416Y002606D01*
X001471Y002551D02*
X001471Y002777D01*
X001541Y002846D02*
X001761Y002846D01*
X001711Y002897D02*
X001711Y002516D01*
X001681Y002486D02*
X001536Y002486D01*
X001591Y002431D02*
X001591Y002897D01*
X001621Y002366D02*
X001621Y002366D01*
X001591Y002256D02*
X001591Y002156D01*
X001621Y002126D02*
X001621Y002126D01*
X001616Y002006D02*
X001621Y002006D01*
X001471Y002156D02*
X001471Y002256D01*
X001351Y002256D02*
X001351Y002156D01*
X001231Y002156D02*
X001231Y002256D01*
X001201Y002246D02*
X001621Y002246D01*
X001201Y002126D02*
X001101Y002126D01*
X001111Y002156D02*
X001111Y001736D01*
X001101Y001766D02*
X001201Y001766D01*
X001231Y001736D02*
X001231Y001736D01*
X001201Y001886D02*
X001101Y001886D01*
X001101Y002006D02*
X001201Y002006D01*
X000991Y002156D02*
X000991Y002256D01*
X000871Y002256D02*
X000871Y002156D01*
X000751Y002156D02*
X000751Y002256D01*
X000681Y002366D02*
X000401Y002366D01*
X000401Y002486D02*
X000766Y002486D01*
X000751Y002471D02*
X000751Y002857D01*
X000761Y002846D02*
X000401Y002846D01*
X000401Y002726D02*
X000881Y002726D01*
X000871Y002737D02*
X000871Y002591D01*
X000886Y002606D02*
X000401Y002606D01*
X000401Y002966D02*
X000641Y002966D01*
X000631Y002977D02*
X000631Y001436D01*
X000621Y001406D02*
X000401Y001406D01*
X000401Y001286D02*
X000621Y001286D01*
X000621Y001166D02*
X000401Y001166D01*
X000401Y001526D02*
X000721Y001526D01*
X000991Y001736D02*
X000991Y001736D01*
X001101Y002366D02*
X001201Y002366D01*
X001201Y002486D02*
X001101Y002486D01*
X000991Y002676D02*
X000991Y002676D01*
X000621Y003086D02*
X000401Y003086D01*
X000401Y003206D02*
X000621Y003206D01*
X000621Y003326D02*
X000401Y003326D01*
X000401Y003446D02*
X000641Y003446D01*
X000631Y003436D02*
X000631Y003977D01*
X000621Y004046D02*
X000401Y004046D01*
X000401Y003926D02*
X000681Y003926D01*
X000751Y003857D02*
X000751Y003556D01*
X000761Y003566D02*
X000401Y003566D01*
X000401Y003686D02*
X000881Y003686D01*
X000871Y003676D02*
X000871Y003737D01*
X000801Y003806D02*
X000401Y003806D01*
X000401Y004166D02*
X000621Y004166D01*
X000621Y004286D02*
X000401Y004286D01*
X000401Y004406D02*
X000621Y004406D01*
X000631Y004436D02*
X000631Y004977D01*
X000621Y005006D02*
X000401Y005006D01*
X000401Y004886D02*
X000721Y004886D01*
X000751Y004857D02*
X000751Y004556D01*
X000721Y004526D02*
X000401Y004526D01*
X000401Y004646D02*
X000841Y004646D01*
X000871Y004676D02*
X000871Y004737D01*
X000841Y004766D02*
X000401Y004766D01*
X000401Y005126D02*
X000621Y005126D01*
X000621Y005246D02*
X000401Y005246D01*
X000401Y005366D02*
X000621Y005366D01*
X000631Y005436D02*
X000631Y006977D01*
X000621Y007046D02*
X000401Y007046D01*
X000401Y006926D02*
X000681Y006926D01*
X000751Y006857D02*
X000751Y006471D01*
X000726Y006446D02*
X000401Y006446D01*
X000401Y006326D02*
X000681Y006326D01*
X000751Y006256D02*
X000751Y006156D01*
X000681Y006086D02*
X000401Y006086D01*
X000401Y005966D02*
X000726Y005966D01*
X000751Y005942D02*
X000751Y005556D01*
X000801Y005606D02*
X000401Y005606D01*
X000401Y005486D02*
X000681Y005486D01*
X000871Y005676D02*
X000871Y005822D01*
X000846Y005846D02*
X000401Y005846D01*
X000401Y005726D02*
X000921Y005726D01*
X000991Y005736D02*
X000991Y005736D01*
X001111Y005736D02*
X001111Y006156D01*
X001101Y006206D02*
X000401Y006206D01*
X000401Y006566D02*
X000846Y006566D01*
X000871Y006591D02*
X000871Y006737D01*
X000921Y006686D02*
X000401Y006686D01*
X000401Y006806D02*
X000801Y006806D01*
X000991Y006676D02*
X000991Y006676D01*
X001111Y006676D02*
X001111Y006257D01*
X001101Y006326D02*
X001201Y006326D01*
X001231Y006256D02*
X001231Y006156D01*
X001201Y006206D02*
X001621Y006206D01*
X001591Y006156D02*
X001591Y006256D01*
X001621Y006326D02*
X001621Y006326D01*
X001591Y006431D02*
X001591Y006897D01*
X001621Y006926D02*
X001681Y006926D01*
X001711Y006897D02*
X001711Y006516D01*
X001761Y006566D02*
X001456Y006566D01*
X001471Y006551D02*
X001471Y006777D01*
X001501Y006806D02*
X001801Y006806D01*
X001831Y006777D02*
X001831Y006636D01*
X001881Y006686D02*
X001381Y006686D01*
X001351Y006676D02*
X001351Y006671D01*
X001231Y006676D02*
X001231Y006676D01*
X001201Y006566D02*
X001101Y006566D01*
X001101Y006446D02*
X001201Y006446D01*
X001351Y006256D02*
X001351Y006156D01*
X001471Y006156D02*
X001471Y006256D01*
X001576Y006446D02*
X001641Y006446D01*
X001621Y006086D02*
X001621Y006086D01*
X001201Y006086D02*
X001101Y006086D01*
X001101Y005966D02*
X001201Y005966D01*
X001201Y005846D02*
X001101Y005846D01*
X001231Y005736D02*
X001231Y005736D01*
X000991Y006156D02*
X000991Y006256D01*
X000871Y006256D02*
X000871Y006156D01*
X000621Y007166D02*
X000401Y007166D01*
X000401Y007286D02*
X000621Y007286D01*
X000621Y007406D02*
X000401Y007406D01*
X000401Y007526D02*
X000721Y007526D01*
X000751Y007556D02*
X000751Y007857D01*
X000721Y007886D02*
X000401Y007886D01*
X000401Y007766D02*
X000841Y007766D01*
X000871Y007737D02*
X000871Y007676D01*
X000841Y007646D02*
X000401Y007646D01*
X000631Y007436D02*
X000631Y007977D01*
X000621Y008006D02*
X000401Y008006D01*
X000401Y008126D02*
X000621Y008126D01*
X000621Y008246D02*
X000401Y008246D01*
X000401Y008366D02*
X000621Y008366D01*
X000631Y008436D02*
X000631Y008977D01*
X000641Y008966D02*
X000401Y008966D01*
X000401Y008846D02*
X000761Y008846D01*
X000751Y008857D02*
X000751Y008556D01*
X000801Y008606D02*
X000401Y008606D01*
X000401Y008486D02*
X000681Y008486D01*
X000871Y008676D02*
X000871Y008737D01*
X000881Y008726D02*
X000401Y008726D01*
X000401Y009086D02*
X000621Y009086D01*
X000621Y009206D02*
X000401Y009206D01*
X000401Y009326D02*
X000621Y009326D01*
X000631Y009436D02*
X000631Y009977D01*
X000621Y010046D02*
X000401Y010046D01*
X000401Y009926D02*
X000681Y009926D01*
X000751Y009857D02*
X000751Y009556D01*
X000761Y009566D02*
X000401Y009566D01*
X000401Y009446D02*
X000641Y009446D01*
X000871Y009676D02*
X000871Y009737D01*
X000881Y009686D02*
X000401Y009686D01*
X000401Y009806D02*
X000801Y009806D01*
X000621Y010166D02*
X000401Y010166D01*
X000401Y010286D02*
X000621Y010286D01*
X000621Y010406D02*
X000401Y010406D01*
X000401Y010526D02*
X000721Y010526D01*
X000751Y010556D02*
X000751Y010942D01*
X000806Y010886D02*
X000401Y010886D01*
X000401Y010766D02*
X000926Y010766D01*
X000956Y010736D02*
X000681Y011012D01*
X000681Y011156D01*
X001101Y011156D01*
X001201Y011156D01*
X001201Y010736D01*
X001346Y010736D01*
X001621Y011012D01*
X001621Y011156D01*
X001201Y011156D01*
X001201Y011256D01*
X001621Y011256D01*
X001621Y011401D01*
X001346Y011676D01*
X001201Y011676D01*
X001201Y011257D01*
X001101Y011257D01*
X001101Y011676D01*
X000956Y011676D01*
X000681Y011401D01*
X000681Y011256D01*
X001101Y011256D01*
X001101Y011156D01*
X001101Y010736D01*
X000956Y010736D01*
X000991Y010736D02*
X000991Y010736D01*
X001101Y010766D02*
X001201Y010766D01*
X001231Y010736D02*
X001231Y010736D01*
X001351Y010736D02*
X001351Y010742D01*
X001376Y010766D02*
X001841Y010766D01*
X001831Y010777D02*
X001831Y010636D01*
X001841Y010646D02*
X001461Y010646D01*
X001471Y010636D02*
X001471Y010862D01*
X001496Y010886D02*
X001721Y010886D01*
X001711Y010897D02*
X001711Y010516D01*
X001721Y010526D02*
X001581Y010526D01*
X001591Y010516D02*
X001591Y010982D01*
X001616Y011006D02*
X001621Y011006D01*
X001621Y011126D02*
X001621Y011126D01*
X001591Y011156D02*
X001591Y011256D01*
X001621Y011246D02*
X001201Y011246D01*
X001231Y011256D02*
X001231Y011156D01*
X001201Y011126D02*
X001101Y011126D01*
X001111Y011156D02*
X001111Y010736D01*
X001101Y010886D02*
X001201Y010886D01*
X001201Y011006D02*
X001101Y011006D01*
X000991Y011156D02*
X000991Y011256D01*
X001101Y011246D02*
X000401Y011246D01*
X000401Y011126D02*
X000681Y011126D01*
X000751Y011156D02*
X000751Y011256D01*
X000871Y011256D02*
X000871Y011156D01*
X000686Y011006D02*
X000401Y011006D01*
X000401Y010646D02*
X000841Y010646D01*
X000871Y010676D02*
X000871Y010822D01*
X000631Y010436D02*
X000631Y011977D01*
X000641Y011966D02*
X000401Y011966D01*
X000401Y011846D02*
X000761Y011846D01*
X000751Y011857D02*
X000751Y011471D01*
X000766Y011486D02*
X000401Y011486D01*
X000401Y011366D02*
X000681Y011366D01*
X000871Y011591D02*
X000871Y011737D01*
X000881Y011726D02*
X000401Y011726D01*
X000401Y011606D02*
X000886Y011606D01*
X000991Y011676D02*
X000991Y011676D01*
X001111Y011676D02*
X001111Y011257D01*
X001101Y011366D02*
X001201Y011366D01*
X001201Y011486D02*
X001101Y011486D01*
X001101Y011606D02*
X001201Y011606D01*
X001231Y011676D02*
X001231Y011676D01*
X001351Y011671D02*
X001351Y011676D01*
X001421Y011726D02*
X001881Y011726D01*
X001831Y011777D02*
X001831Y011636D01*
X001801Y011606D02*
X001416Y011606D01*
X001471Y011551D02*
X001471Y011777D01*
X001541Y011846D02*
X001761Y011846D01*
X001711Y011897D02*
X001711Y011516D01*
X001681Y011486D02*
X001536Y011486D01*
X001591Y011431D02*
X001591Y011897D01*
X001621Y011366D02*
X001621Y011366D01*
X001471Y011256D02*
X001471Y011156D01*
X001351Y011156D02*
X001351Y011256D01*
X000621Y012086D02*
X000401Y012086D01*
X000401Y012206D02*
X000621Y012206D01*
X000621Y012326D02*
X000401Y012326D01*
X000401Y012446D02*
X000641Y012446D01*
X000631Y012436D02*
X000631Y012977D01*
X000621Y013046D02*
X000401Y013046D01*
X000401Y012926D02*
X000681Y012926D01*
X000751Y012857D02*
X000751Y012556D01*
X000761Y012566D02*
X000401Y012566D01*
X000401Y012686D02*
X000881Y012686D01*
X000871Y012676D02*
X000871Y012737D01*
X000801Y012806D02*
X000401Y012806D01*
X000401Y013166D02*
X000621Y013166D01*
X000621Y013286D02*
X000401Y013286D01*
X000401Y013406D02*
X000621Y013406D01*
X000631Y013436D02*
X000631Y013977D01*
X000621Y014006D02*
X000401Y014006D01*
X000401Y013886D02*
X000721Y013886D01*
X000751Y013857D02*
X000751Y013556D01*
X000721Y013526D02*
X000401Y013526D01*
X000401Y013646D02*
X000841Y013646D01*
X000871Y013676D02*
X000871Y013737D01*
X000841Y013766D02*
X000401Y013766D01*
X000401Y014126D02*
X000621Y014126D01*
X000621Y014246D02*
X000401Y014246D01*
X000401Y014366D02*
X000621Y014366D01*
X000631Y014436D02*
X000631Y014977D01*
X000641Y014966D02*
X000401Y014966D01*
X000401Y014846D02*
X000761Y014846D01*
X000751Y014857D02*
X000751Y014556D01*
X000801Y014606D02*
X000401Y014606D01*
X000401Y014486D02*
X000681Y014486D01*
X000871Y014676D02*
X000871Y014737D01*
X000881Y014726D02*
X000401Y014726D01*
X000401Y015086D02*
X000621Y015086D01*
X000621Y015206D02*
X000401Y015206D01*
X000401Y015326D02*
X000621Y015326D01*
X000401Y015686D02*
X000881Y015686D01*
X000871Y015676D02*
X000871Y015822D01*
X000886Y015806D02*
X000401Y015806D01*
X000401Y016166D02*
X001101Y016166D01*
X001111Y016156D02*
X001111Y015736D01*
X001101Y015806D02*
X001201Y015806D01*
X001231Y015736D02*
X001231Y015736D01*
X001351Y015736D02*
X001351Y015742D01*
X001201Y015926D02*
X001101Y015926D01*
X001101Y016046D02*
X001201Y016046D01*
X000991Y016156D02*
X000991Y016256D01*
X000871Y016256D02*
X000871Y016156D01*
X000991Y015736D02*
X000991Y015736D01*
X002681Y017126D02*
X012737Y017126D01*
X012751Y017160D02*
X012751Y019626D01*
X012631Y019626D02*
X012631Y010935D01*
X012271Y010305D02*
X012271Y010279D01*
X012279Y010286D02*
X012252Y010286D01*
X010481Y010286D02*
X002681Y010286D01*
X002681Y010166D02*
X010481Y010166D01*
X010481Y010046D02*
X002681Y010046D01*
X002671Y009977D02*
X002671Y009436D01*
X002661Y009446D02*
X010481Y009446D01*
X010481Y009326D02*
X002681Y009326D01*
X002681Y009206D02*
X010481Y009206D01*
X010481Y009086D02*
X002681Y009086D01*
X002671Y008977D02*
X002671Y008436D01*
X002681Y008366D02*
X005388Y008366D01*
X005431Y008410D02*
X005431Y018336D01*
X005551Y018336D02*
X005551Y008530D01*
X005508Y008486D02*
X002621Y008486D01*
X002551Y008556D02*
X002551Y008857D01*
X002541Y008846D02*
X005868Y008846D01*
X005911Y008890D02*
X005911Y018336D01*
X006031Y018336D02*
X006031Y009010D01*
X005988Y008966D02*
X002661Y008966D01*
X002431Y008737D02*
X002431Y008676D01*
X002421Y008726D02*
X005748Y008726D01*
X005791Y008770D02*
X005791Y018336D01*
X005671Y018336D02*
X005671Y008650D01*
X005628Y008606D02*
X002501Y008606D01*
X002681Y008246D02*
X005268Y008246D01*
X005311Y008290D02*
X005311Y018336D01*
X005191Y018336D02*
X005191Y008170D01*
X005148Y008126D02*
X002681Y008126D01*
X002461Y007766D02*
X004788Y007766D01*
X004831Y007810D02*
X004831Y018336D01*
X004711Y018336D02*
X004711Y007690D01*
X004668Y007646D02*
X002461Y007646D01*
X002431Y007676D02*
X002431Y007737D01*
X002681Y007286D02*
X004308Y007286D01*
X004351Y007330D02*
X004351Y015842D01*
X004590Y016046D02*
X012741Y016046D01*
X013591Y016035D02*
X013591Y020956D01*
X013231Y020486D02*
X014139Y020486D01*
X014089Y020366D02*
X013231Y020366D01*
X013231Y020246D02*
X014071Y020246D01*
X014071Y020322D02*
X014071Y020091D01*
X014071Y018335D01*
X014191Y018335D02*
X014191Y019846D01*
X014159Y019878D02*
X014241Y019796D01*
X014241Y018333D01*
X014236Y018335D01*
X013723Y017846D02*
X002541Y017846D01*
X002551Y017857D02*
X002551Y017556D01*
X002501Y017606D02*
X013741Y017606D01*
X013741Y017486D02*
X002621Y017486D01*
X002681Y017246D02*
X012787Y017246D01*
X013396Y017366D02*
X013741Y017366D01*
X013741Y017726D02*
X002421Y017726D01*
X002431Y017737D02*
X002431Y017676D01*
X001901Y017706D02*
X001651Y017456D01*
X001401Y017706D01*
X001651Y017957D01*
X001901Y017706D01*
X001881Y017726D02*
X001421Y017726D01*
X001471Y017777D02*
X001471Y017636D01*
X001501Y017606D02*
X001801Y017606D01*
X001831Y017636D02*
X001831Y017777D01*
X001761Y017846D02*
X001541Y017846D01*
X001591Y017897D02*
X001591Y017516D01*
X001621Y017486D02*
X001681Y017486D01*
X001711Y017516D02*
X001711Y017897D01*
X002911Y018336D02*
X002911Y006076D01*
X003031Y006076D02*
X003031Y018336D01*
X003151Y018336D02*
X003151Y006076D01*
X003271Y006076D02*
X003271Y018336D01*
X003391Y018336D02*
X003391Y006076D01*
X003511Y006076D02*
X003511Y018336D01*
X003871Y018336D02*
X003871Y016737D01*
X003991Y015826D02*
X003991Y006970D01*
X003948Y006926D02*
X002621Y006926D01*
X002671Y006977D02*
X002671Y006436D01*
X002661Y006446D02*
X003681Y006446D01*
X003681Y006326D02*
X002681Y006326D01*
X002681Y006206D02*
X003681Y006206D01*
X003681Y006566D02*
X002541Y006566D01*
X002551Y006556D02*
X002551Y006857D01*
X001831Y007636D02*
X001831Y007777D01*
X001841Y007766D02*
X001461Y007766D01*
X001471Y007777D02*
X001471Y007636D01*
X001461Y007646D02*
X001841Y007646D01*
X001901Y007706D02*
X001651Y007456D01*
X001401Y007706D01*
X001651Y007957D01*
X001901Y007706D01*
X001721Y007526D02*
X001581Y007526D01*
X001591Y007516D02*
X001591Y007897D01*
X001581Y007886D02*
X001721Y007886D01*
X001711Y007897D02*
X001711Y007516D01*
X001651Y008456D02*
X001401Y008706D01*
X001651Y008957D01*
X001901Y008706D01*
X001651Y008456D01*
X001621Y008486D02*
X001681Y008486D01*
X001711Y008516D02*
X001711Y008897D01*
X001761Y008846D02*
X001541Y008846D01*
X001591Y008897D02*
X001591Y008516D01*
X001501Y008606D02*
X001801Y008606D01*
X001831Y008636D02*
X001831Y008777D01*
X001881Y008726D02*
X001421Y008726D01*
X001471Y008777D02*
X001471Y008636D01*
X001651Y009456D02*
X001401Y009706D01*
X001651Y009957D01*
X001901Y009706D01*
X001651Y009456D01*
X001711Y009516D02*
X001711Y009897D01*
X001681Y009926D02*
X001621Y009926D01*
X001591Y009897D02*
X001591Y009516D01*
X001541Y009566D02*
X001761Y009566D01*
X001831Y009636D02*
X001831Y009777D01*
X001801Y009806D02*
X001501Y009806D01*
X001471Y009777D02*
X001471Y009636D01*
X001421Y009686D02*
X001881Y009686D01*
X002421Y009686D02*
X010481Y009686D01*
X010481Y009566D02*
X002541Y009566D01*
X002551Y009556D02*
X002551Y009857D01*
X002501Y009806D02*
X010481Y009806D01*
X010481Y009926D02*
X002621Y009926D01*
X002431Y009737D02*
X002431Y009676D01*
X002681Y010406D02*
X010481Y010406D01*
X010481Y010526D02*
X002581Y010526D01*
X002551Y010556D02*
X002551Y010857D01*
X002581Y010886D02*
X010481Y010886D01*
X010481Y010766D02*
X002461Y010766D01*
X002431Y010737D02*
X002431Y010676D01*
X002461Y010646D02*
X010481Y010646D01*
X010481Y011006D02*
X002681Y011006D01*
X002671Y010977D02*
X002671Y010436D01*
X002681Y011126D02*
X010481Y011126D01*
X010481Y011246D02*
X002681Y011246D01*
X002681Y011366D02*
X010481Y011366D01*
X010481Y011486D02*
X002621Y011486D01*
X002671Y011436D02*
X002671Y011977D01*
X002661Y011966D02*
X010481Y011966D01*
X010481Y011846D02*
X002541Y011846D01*
X002551Y011857D02*
X002551Y011556D01*
X002501Y011606D02*
X010481Y011606D01*
X010481Y011726D02*
X002421Y011726D01*
X002431Y011737D02*
X002431Y011676D01*
X002681Y012086D02*
X010481Y012086D01*
X010481Y012206D02*
X002681Y012206D01*
X002681Y012326D02*
X010481Y012326D01*
X010481Y012446D02*
X002661Y012446D01*
X002671Y012436D02*
X002671Y012977D01*
X002681Y013046D02*
X010481Y013046D01*
X010481Y012926D02*
X002621Y012926D01*
X002551Y012857D02*
X002551Y012556D01*
X002541Y012566D02*
X010481Y012566D01*
X010481Y012686D02*
X002421Y012686D01*
X002431Y012676D02*
X002431Y012737D01*
X002501Y012806D02*
X010481Y012806D01*
X010481Y013166D02*
X002681Y013166D01*
X002681Y013286D02*
X010481Y013286D01*
X010481Y013406D02*
X002681Y013406D01*
X002671Y013436D02*
X002671Y013977D01*
X002681Y014006D02*
X010470Y014006D01*
X010471Y014005D02*
X010471Y009076D01*
X007711Y009076D02*
X007711Y018443D01*
X007591Y018364D02*
X007591Y009076D01*
X007471Y009076D02*
X007471Y018336D01*
X007351Y018336D02*
X007351Y009076D01*
X007231Y009076D02*
X007231Y018336D01*
X007111Y018336D02*
X007111Y009076D01*
X006991Y009076D02*
X006991Y018336D01*
X006871Y018336D02*
X006871Y009076D01*
X006751Y009076D02*
X006751Y018336D01*
X006631Y018336D02*
X006631Y009076D01*
X006511Y009076D02*
X006511Y018336D01*
X006391Y018336D02*
X006391Y009076D01*
X006271Y009076D02*
X006271Y018336D01*
X006151Y018336D02*
X006151Y009066D01*
X004281Y005613D02*
X004281Y005576D01*
X004244Y005576D01*
X004261Y005593D01*
X004281Y005613D01*
X004281Y005606D02*
X004274Y005606D01*
X006714Y003446D02*
X006741Y003446D01*
X006741Y003473D02*
X006741Y003376D01*
X005981Y002616D01*
X002491Y002616D01*
X002401Y002706D01*
X002531Y002836D01*
X006025Y002836D01*
X006161Y002893D01*
X006741Y003473D01*
X006691Y003326D02*
X006594Y003326D01*
X006631Y003363D02*
X006631Y003266D01*
X006571Y003206D02*
X006474Y003206D01*
X006511Y003243D02*
X006511Y003146D01*
X006451Y003086D02*
X006354Y003086D01*
X006391Y003123D02*
X006391Y003026D01*
X006331Y002966D02*
X006234Y002966D01*
X006271Y003003D02*
X006271Y002906D01*
X006211Y002846D02*
X006049Y002846D01*
X006031Y002839D02*
X006031Y002666D01*
X006091Y002726D02*
X002421Y002726D01*
X002431Y002737D02*
X002431Y002676D01*
X002551Y002616D02*
X002551Y002836D01*
X002671Y002836D02*
X002671Y002616D01*
X002791Y002616D02*
X002791Y002836D01*
X002911Y002836D02*
X002911Y002616D01*
X003031Y002616D02*
X003031Y002836D01*
X003151Y002836D02*
X003151Y002616D01*
X003271Y002616D02*
X003271Y002836D01*
X003391Y002836D02*
X003391Y002616D01*
X003511Y002616D02*
X003511Y002836D01*
X003631Y002836D02*
X003631Y002616D01*
X003751Y002616D02*
X003751Y002836D01*
X003871Y002836D02*
X003871Y002616D01*
X003991Y002616D02*
X003991Y002836D01*
X004111Y002836D02*
X004111Y002616D01*
X004231Y002616D02*
X004231Y002836D01*
X004351Y002836D02*
X004351Y002616D01*
X004471Y002616D02*
X004471Y002836D01*
X004591Y002836D02*
X004591Y002616D01*
X004711Y002616D02*
X004711Y002836D01*
X004831Y002836D02*
X004831Y002616D01*
X004951Y002616D02*
X004951Y002836D01*
X005071Y002836D02*
X005071Y002616D01*
X005191Y002616D02*
X005191Y002836D01*
X005311Y002836D02*
X005311Y002616D01*
X005431Y002616D02*
X005431Y002836D01*
X005551Y002836D02*
X005551Y002616D01*
X005671Y002616D02*
X005671Y002836D01*
X005791Y002836D02*
X005791Y002616D01*
X005911Y002616D02*
X005911Y002836D01*
X006151Y002786D02*
X006151Y002889D01*
X007471Y001947D02*
X007471Y001786D01*
X007531Y002006D02*
X022741Y002006D01*
X022471Y001617D02*
X022471Y016476D01*
X022591Y016476D02*
X022591Y001486D01*
X022561Y001526D02*
X022656Y001526D01*
X022201Y001526D02*
X022101Y001526D01*
X022101Y001406D02*
X022201Y001406D01*
X022201Y001286D02*
X022101Y001286D01*
X021871Y001646D02*
X021871Y013677D01*
X021751Y013676D02*
X021751Y001541D01*
X021741Y001526D02*
X021646Y001526D01*
X021631Y001547D02*
X021631Y013676D01*
X021511Y013676D02*
X021511Y001667D01*
X021531Y001646D02*
X021872Y001646D01*
X021391Y001735D02*
X021391Y013717D01*
X021341Y013766D02*
X020961Y013766D01*
X020911Y013717D02*
X020911Y001735D01*
X020791Y001667D02*
X020791Y013676D01*
X020671Y013676D02*
X020671Y001547D01*
X020656Y001526D02*
X020646Y001526D01*
X020551Y001627D02*
X020551Y013676D01*
X020431Y013677D02*
X020431Y001718D01*
X020531Y001646D02*
X020771Y001646D01*
X021151Y001786D02*
X021151Y013957D01*
X022181Y014006D02*
X025701Y014006D01*
X025701Y014126D02*
X022181Y014126D01*
X022181Y014246D02*
X025701Y014246D01*
X025701Y014366D02*
X022181Y014366D01*
X022121Y014486D02*
X025701Y014486D01*
X025701Y015326D02*
X021954Y015326D01*
X020791Y015036D02*
X020791Y014736D01*
X020671Y014736D02*
X020671Y015036D01*
X020311Y015036D02*
X020311Y014616D01*
X020301Y014606D02*
X015061Y014606D01*
X015061Y014486D02*
X020181Y014486D01*
X020191Y014496D02*
X020191Y015036D01*
X020071Y015039D02*
X020071Y001786D01*
X020191Y001786D02*
X020191Y013917D01*
X020221Y013886D02*
X015061Y013886D01*
X015061Y014006D02*
X020121Y014006D01*
X020121Y014126D02*
X015061Y014126D01*
X015061Y014246D02*
X020121Y014246D01*
X020121Y014366D02*
X015061Y014366D01*
X015061Y014726D02*
X020421Y014726D01*
X023041Y016646D02*
X025701Y016646D01*
X025701Y016766D02*
X023161Y016766D01*
X023181Y016886D02*
X025701Y016886D01*
X025701Y017006D02*
X023181Y017006D01*
X023181Y017126D02*
X025701Y017126D01*
X025701Y017246D02*
X023161Y017246D01*
X023071Y016677D02*
X023071Y003936D01*
X025591Y004259D02*
X025591Y001516D01*
X025581Y001526D02*
X025701Y001526D01*
X025701Y001406D02*
X025681Y001406D01*
X025681Y001286D02*
X025701Y001286D01*
X025701Y001166D02*
X025681Y001166D01*
X025681Y001046D02*
X025701Y001046D01*
X025701Y000926D02*
X025621Y000926D01*
X025591Y000897D02*
X025591Y000456D01*
X025471Y000456D02*
X025471Y000777D01*
X025501Y000806D02*
X025701Y000806D01*
X025701Y000686D02*
X025381Y000686D01*
X025351Y000676D02*
X025351Y000456D01*
X025231Y000456D02*
X025231Y000676D01*
X025111Y000676D02*
X025111Y000456D01*
X024991Y000456D02*
X024991Y000676D01*
X024921Y000686D02*
X024381Y000686D01*
X024391Y000697D02*
X024391Y000456D01*
X024511Y000456D02*
X024511Y000817D01*
X024501Y000806D02*
X024801Y000806D01*
X024751Y000857D02*
X024751Y000456D01*
X024871Y000456D02*
X024871Y000737D01*
X024681Y000926D02*
X024621Y000926D01*
X024631Y000937D02*
X024631Y000456D01*
X024271Y000456D02*
X024271Y000676D01*
X024151Y000676D02*
X024151Y000456D01*
X024031Y000456D02*
X024031Y000676D01*
X023921Y000686D02*
X023411Y000686D01*
X023431Y000695D02*
X023431Y000456D01*
X023551Y000456D02*
X023551Y000786D01*
X023571Y000806D02*
X023801Y000806D01*
X023791Y000817D02*
X023791Y000456D01*
X023911Y000456D02*
X023911Y000697D01*
X023681Y000926D02*
X023663Y000926D01*
X023671Y000937D02*
X023671Y000456D01*
X023311Y000456D02*
X023311Y000645D01*
X023191Y000626D02*
X023191Y000456D01*
X023071Y000456D02*
X023071Y000626D01*
X022951Y000662D02*
X022951Y000456D01*
X022891Y000686D02*
X021411Y000686D01*
X021631Y000866D02*
X021631Y000456D01*
X021751Y000456D02*
X021751Y000872D01*
X021712Y000926D02*
X021663Y000926D01*
X022101Y000926D02*
X022201Y000926D01*
X022201Y001046D02*
X022101Y001046D01*
X022351Y000725D02*
X022424Y000762D01*
X022490Y000810D01*
X022548Y000868D01*
X022596Y000934D01*
X022618Y000978D01*
X022659Y000878D01*
X022822Y000715D01*
X022639Y000926D02*
X022590Y000926D01*
X022591Y000927D02*
X022591Y000456D01*
X020791Y000456D02*
X020791Y000746D01*
X020731Y000806D02*
X020571Y000806D01*
X020551Y000786D02*
X020551Y000456D01*
X020671Y000456D02*
X020671Y000866D01*
X020431Y000695D02*
X020431Y000456D01*
X019831Y000456D02*
X019831Y000711D01*
X019731Y000806D02*
X019571Y000806D01*
X019591Y000826D02*
X019591Y000456D01*
X019711Y000456D02*
X019711Y000826D01*
X014911Y001727D02*
X014911Y005887D01*
X014871Y005846D02*
X025701Y005846D01*
X025701Y005966D02*
X014991Y005966D01*
X010481Y013526D02*
X002581Y013526D01*
X002551Y013556D02*
X002551Y013857D01*
X002581Y013886D02*
X010481Y013886D01*
X010481Y013766D02*
X002461Y013766D01*
X002431Y013737D02*
X002431Y013676D01*
X002461Y013646D02*
X010481Y013646D01*
X010423Y014126D02*
X002681Y014126D01*
X002681Y014246D02*
X010423Y014246D01*
X007281Y019482D02*
X007193Y019569D01*
X007036Y019635D01*
X006866Y019635D01*
X006726Y019576D01*
X002531Y019576D01*
X002401Y019706D01*
X002681Y019987D01*
X002681Y020426D01*
X002571Y020536D01*
X004798Y020536D01*
X005071Y020263D01*
X005071Y020091D01*
X005071Y019576D01*
X005191Y019576D02*
X005191Y019846D01*
X005159Y019878D02*
X005322Y019715D01*
X005536Y019626D01*
X005766Y019626D01*
X005980Y019715D01*
X006143Y019878D01*
X006151Y019898D01*
X006151Y019576D01*
X006271Y019576D02*
X006271Y019766D01*
X006031Y019766D01*
X006031Y019576D01*
X005911Y019576D02*
X005911Y019686D01*
X005815Y019646D02*
X006487Y019646D01*
X006511Y019637D02*
X006511Y019576D01*
X006536Y019626D02*
X006322Y019715D01*
X006159Y019878D01*
X006151Y019898D01*
X006146Y019886D02*
X006156Y019886D01*
X006391Y019686D02*
X006391Y019576D01*
X006536Y019626D02*
X006766Y019626D01*
X006980Y019715D01*
X007143Y019878D01*
X007151Y019898D01*
X007159Y019878D01*
X007281Y019756D01*
X007281Y019482D01*
X007281Y019526D02*
X007236Y019526D01*
X007231Y019532D02*
X007231Y019806D01*
X007271Y019766D02*
X007031Y019766D01*
X006991Y019726D02*
X006991Y019635D01*
X006871Y019635D02*
X006871Y019670D01*
X006815Y019646D02*
X007281Y019646D01*
X007111Y019604D02*
X007111Y019846D01*
X007146Y019886D02*
X007156Y019886D01*
X006751Y019626D02*
X006751Y019587D01*
X006631Y019576D02*
X006631Y019626D01*
X005791Y019637D02*
X005791Y019576D01*
X005671Y019576D02*
X005671Y019626D01*
X005551Y019626D02*
X005551Y019576D01*
X005487Y019646D02*
X002461Y019646D01*
X002431Y019676D02*
X002431Y019737D01*
X002461Y019766D02*
X005271Y019766D01*
X005311Y019726D02*
X005311Y019576D01*
X005431Y019576D02*
X005431Y019670D01*
X005159Y019878D02*
X005071Y020091D01*
X005071Y020126D02*
X002681Y020126D01*
X002681Y020006D02*
X005106Y020006D01*
X005156Y019886D02*
X002581Y019886D01*
X002551Y019857D02*
X002551Y019576D01*
X002671Y019576D02*
X002671Y019977D01*
X002681Y020246D02*
X005071Y020246D01*
X004968Y020366D02*
X002681Y020366D01*
X002671Y020436D02*
X002671Y020536D01*
X002621Y020486D02*
X004848Y020486D01*
X004831Y020503D02*
X004831Y019576D01*
X004951Y019576D02*
X004951Y020383D01*
X004711Y020536D02*
X004711Y019576D01*
X004591Y019576D02*
X004591Y020536D01*
X004471Y020536D02*
X004471Y019576D01*
X004351Y019576D02*
X004351Y020536D01*
X004231Y020536D02*
X004231Y019576D01*
X004111Y019576D02*
X004111Y020536D01*
X003991Y020536D02*
X003991Y019576D01*
X003871Y019576D02*
X003871Y020536D01*
X003751Y020536D02*
X003751Y019576D01*
X003631Y019576D02*
X003631Y020536D01*
X003511Y020536D02*
X003511Y019576D01*
X003391Y019576D02*
X003391Y020536D01*
X003271Y020536D02*
X003271Y019576D01*
X003151Y019576D02*
X003151Y020536D01*
X003031Y020536D02*
X003031Y019576D01*
X002911Y019576D02*
X002911Y020536D01*
X002791Y020536D02*
X002791Y019576D01*
X001901Y019706D02*
X001651Y019456D01*
X001401Y019706D01*
X001651Y019957D01*
X001901Y019706D01*
X001841Y019646D02*
X001461Y019646D01*
X001471Y019636D02*
X001471Y019777D01*
X001461Y019766D02*
X001841Y019766D01*
X001831Y019777D02*
X001831Y019636D01*
X001721Y019526D02*
X001581Y019526D01*
X001591Y019516D02*
X001591Y019897D01*
X001581Y019886D02*
X001721Y019886D01*
X001711Y019897D02*
X001711Y019516D01*
X005431Y020950D02*
X005431Y020956D01*
X007071Y020606D02*
X007231Y020606D01*
X007231Y020607D02*
X007231Y020956D01*
X007111Y020956D02*
X007111Y020567D01*
X013231Y020126D02*
X014071Y020126D01*
X014071Y020091D02*
X014159Y019878D01*
X014156Y019886D02*
X013231Y019886D01*
X013231Y019766D02*
X014241Y019766D01*
X014106Y020006D02*
X013231Y020006D01*
X016831Y020695D02*
X016831Y020956D01*
X016951Y020956D02*
X016951Y020631D01*
X016985Y020606D02*
X017231Y020606D01*
X017191Y020567D02*
X017191Y020956D01*
X017311Y020956D02*
X017311Y020687D01*
X017139Y020486D02*
X017090Y020486D01*
X017071Y020513D02*
X017071Y020956D01*
X018021Y019646D02*
X018241Y019646D01*
X018241Y019526D02*
X018021Y019526D01*
X018021Y019406D02*
X018241Y019406D01*
X018241Y019286D02*
X018021Y019286D01*
X018021Y019166D02*
X018241Y019166D01*
X018241Y019046D02*
X018021Y019046D01*
X018021Y018926D02*
X018241Y018926D01*
X018241Y018806D02*
X018021Y018806D01*
X018021Y018686D02*
X018241Y018686D01*
X018241Y018566D02*
X018021Y018566D01*
X018021Y018446D02*
X018241Y018446D01*
X018241Y018326D02*
X018021Y018326D01*
X018021Y018206D02*
X018241Y018206D01*
X018241Y017606D02*
X017956Y017606D01*
X022021Y017606D02*
X025701Y017606D01*
X025701Y017726D02*
X022021Y017726D01*
X022231Y020606D02*
X024846Y020606D01*
X024854Y020726D02*
X022168Y020726D01*
X025646Y004286D02*
X025701Y004286D01*
X025701Y000566D02*
X004540Y000566D01*
X003391Y000456D02*
X003391Y001296D01*
X003271Y001296D02*
X003271Y000456D01*
X003151Y000456D02*
X003151Y001296D01*
X003031Y001296D02*
X003031Y000456D01*
X002911Y000456D02*
X002911Y001296D01*
X002791Y001296D02*
X002791Y000456D01*
X001651Y012456D02*
X001401Y012706D01*
X001651Y012957D01*
X001901Y012706D01*
X001651Y012456D01*
X001711Y012516D02*
X001711Y012897D01*
X001681Y012926D02*
X001621Y012926D01*
X001591Y012897D02*
X001591Y012516D01*
X001541Y012566D02*
X001761Y012566D01*
X001831Y012636D02*
X001831Y012777D01*
X001801Y012806D02*
X001501Y012806D01*
X001471Y012777D02*
X001471Y012636D01*
X001421Y012686D02*
X001881Y012686D01*
X001651Y013456D02*
X001401Y013706D01*
X001651Y013957D01*
X001901Y013706D01*
X001651Y013456D01*
X001711Y013516D02*
X001711Y013897D01*
X001721Y013886D02*
X001581Y013886D01*
X001591Y013897D02*
X001591Y013516D01*
X001581Y013526D02*
X001721Y013526D01*
X001831Y013636D02*
X001831Y013777D01*
X001841Y013766D02*
X001461Y013766D01*
X001471Y013777D02*
X001471Y013636D01*
X001461Y013646D02*
X001841Y013646D01*
D19*
X015151Y001506D02*
X015154Y001508D01*
X017651Y001506D02*
X017659Y001535D01*
X022051Y001106D02*
X022101Y001106D01*
X022051Y001106D02*
X022151Y001206D01*
M02*
