G75*
G70*
%OFA0B0*%
%FSLAX24Y24*%
%IPPOS*%
%LPD*%
%AMOC8*
5,1,8,0,0,1.08239X$1,22.5*
%
%ADD10C,0.0080*%
%ADD11C,0.0060*%
%ADD12C,0.0050*%
%ADD13R,0.0320X0.0010*%
%ADD14R,0.0340X0.0010*%
%ADD15R,0.0120X0.0010*%
%ADD16R,0.0420X0.0010*%
%ADD17R,0.0560X0.0010*%
%ADD18R,0.0680X0.0010*%
%ADD19R,0.0780X0.0010*%
%ADD20R,0.0880X0.0010*%
%ADD21R,0.0960X0.0010*%
%ADD22R,0.1020X0.0010*%
%ADD23R,0.1100X0.0010*%
%ADD24R,0.1160X0.0010*%
%ADD25R,0.1220X0.0010*%
%ADD26R,0.1290X0.0010*%
%ADD27R,0.1360X0.0010*%
%ADD28R,0.1410X0.0010*%
%ADD29R,0.1450X0.0010*%
%ADD30R,0.1500X0.0010*%
%ADD31R,0.1530X0.0010*%
%ADD32R,0.1570X0.0010*%
%ADD33R,0.1630X0.0010*%
%ADD34R,0.1670X0.0010*%
%ADD35R,0.1710X0.0010*%
%ADD36R,0.1750X0.0010*%
%ADD37R,0.1790X0.0010*%
%ADD38R,0.1820X0.0010*%
%ADD39R,0.1860X0.0010*%
%ADD40R,0.1890X0.0010*%
%ADD41R,0.1930X0.0010*%
%ADD42R,0.1950X0.0010*%
%ADD43R,0.1990X0.0010*%
%ADD44R,0.2030X0.0010*%
%ADD45R,0.2050X0.0010*%
%ADD46R,0.2090X0.0010*%
%ADD47R,0.2120X0.0010*%
%ADD48R,0.0910X0.0010*%
%ADD49R,0.0860X0.0010*%
%ADD50R,0.0790X0.0010*%
%ADD51R,0.0760X0.0010*%
%ADD52R,0.0770X0.0010*%
%ADD53R,0.0740X0.0010*%
%ADD54R,0.0710X0.0010*%
%ADD55R,0.0720X0.0010*%
%ADD56R,0.0690X0.0010*%
%ADD57R,0.0670X0.0010*%
%ADD58R,0.0650X0.0010*%
%ADD59R,0.0630X0.0010*%
%ADD60R,0.0610X0.0010*%
%ADD61R,0.0050X0.0010*%
%ADD62R,0.0620X0.0010*%
%ADD63R,0.0600X0.0010*%
%ADD64R,0.0090X0.0010*%
%ADD65R,0.0080X0.0010*%
%ADD66R,0.0110X0.0010*%
%ADD67R,0.0590X0.0010*%
%ADD68R,0.0580X0.0010*%
%ADD69R,0.0150X0.0010*%
%ADD70R,0.0140X0.0010*%
%ADD71R,0.0570X0.0010*%
%ADD72R,0.0180X0.0010*%
%ADD73R,0.0190X0.0010*%
%ADD74R,0.0200X0.0010*%
%ADD75R,0.0550X0.0010*%
%ADD76R,0.0210X0.0010*%
%ADD77R,0.0220X0.0010*%
%ADD78R,0.0540X0.0010*%
%ADD79R,0.0230X0.0010*%
%ADD80R,0.0240X0.0010*%
%ADD81R,0.0250X0.0010*%
%ADD82R,0.0260X0.0010*%
%ADD83R,0.0530X0.0010*%
%ADD84R,0.0280X0.0010*%
%ADD85R,0.0270X0.0010*%
%ADD86R,0.0520X0.0010*%
%ADD87R,0.0290X0.0010*%
%ADD88R,0.0310X0.0010*%
%ADD89R,0.0300X0.0010*%
%ADD90R,0.0510X0.0010*%
%ADD91R,0.0500X0.0010*%
%ADD92R,0.0330X0.0010*%
%ADD93R,0.0350X0.0010*%
%ADD94R,0.0490X0.0010*%
%ADD95R,0.0360X0.0010*%
%ADD96R,0.0370X0.0010*%
%ADD97R,0.0480X0.0010*%
%ADD98R,0.0470X0.0010*%
%ADD99R,0.0460X0.0010*%
%ADD100R,0.0450X0.0010*%
%ADD101R,0.0440X0.0010*%
%ADD102R,0.0430X0.0010*%
%ADD103R,0.0410X0.0010*%
%ADD104R,0.0750X0.0010*%
%ADD105R,0.0640X0.0010*%
%ADD106R,0.0730X0.0010*%
%ADD107R,0.0700X0.0010*%
%ADD108R,0.0400X0.0010*%
%ADD109R,0.0830X0.0010*%
%ADD110R,0.0870X0.0010*%
%ADD111R,0.0390X0.0010*%
%ADD112R,0.0660X0.0010*%
%ADD113R,0.0990X0.0010*%
%ADD114R,0.1010X0.0010*%
%ADD115R,0.1040X0.0010*%
%ADD116R,0.1070X0.0010*%
%ADD117R,0.1130X0.0010*%
%ADD118R,0.0380X0.0010*%
%ADD119R,0.1190X0.0010*%
%ADD120R,0.0170X0.0010*%
%ADD121R,0.1250X0.0010*%
%ADD122R,0.1270X0.0010*%
%ADD123R,0.0160X0.0010*%
%ADD124R,0.1310X0.0010*%
%ADD125R,0.1330X0.0010*%
%ADD126R,0.1350X0.0010*%
%ADD127R,0.1370X0.0010*%
%ADD128R,0.1390X0.0010*%
%ADD129R,0.1430X0.0010*%
%ADD130R,0.1470X0.0010*%
%ADD131R,0.1480X0.0010*%
%ADD132R,0.1510X0.0010*%
%ADD133R,0.0030X0.0010*%
%ADD134R,0.1540X0.0010*%
%ADD135R,0.1550X0.0010*%
%ADD136R,0.1590X0.0010*%
%ADD137R,0.1600X0.0010*%
%ADD138R,0.1610X0.0010*%
%ADD139R,0.1640X0.0010*%
%ADD140R,0.1660X0.0010*%
%ADD141R,0.1680X0.0010*%
%ADD142R,0.1690X0.0010*%
%ADD143R,0.1700X0.0010*%
%ADD144R,0.1720X0.0010*%
%ADD145R,0.1230X0.0010*%
%ADD146R,0.0020X0.0010*%
%ADD147R,0.0130X0.0010*%
%ADD148R,0.0100X0.0010*%
%ADD149R,0.0040X0.0010*%
%ADD150R,0.0010X0.0010*%
%ADD151R,0.0070X0.0010*%
%ADD152R,0.0060X0.0010*%
%ADD153R,0.1340X0.0010*%
%ADD154R,0.1920X0.0010*%
%ADD155R,0.1910X0.0010*%
%ADD156R,0.1900X0.0010*%
%ADD157R,0.1880X0.0010*%
%ADD158R,0.1050X0.0010*%
%ADD159R,0.1210X0.0010*%
%ADD160R,0.1580X0.0010*%
%ADD161R,0.1730X0.0010*%
%ADD162R,0.1810X0.0010*%
%ADD163R,0.1870X0.0010*%
%ADD164R,0.1960X0.0010*%
%ADD165R,0.2130X0.0010*%
%ADD166R,0.2170X0.0010*%
%ADD167R,0.2190X0.0010*%
%ADD168R,0.2210X0.0010*%
%ADD169R,0.1080X0.0010*%
%ADD170R,0.1000X0.0010*%
%ADD171R,0.0940X0.0010*%
%ADD172R,0.0800X0.0010*%
%ADD173R,0.0810X0.0010*%
%ADD174R,0.1170X0.0010*%
%ADD175R,0.1280X0.0010*%
%ADD176R,0.1560X0.0010*%
%ADD177R,0.1520X0.0010*%
%ADD178R,0.1460X0.0010*%
%ADD179R,0.1440X0.0010*%
%ADD180R,0.0820X0.0010*%
%ADD181R,0.0930X0.0010*%
%ADD182R,0.2110X0.0010*%
%ADD183R,0.2080X0.0010*%
%ADD184R,0.2020X0.0010*%
%ADD185R,0.1850X0.0010*%
%ADD186R,0.1780X0.0010*%
%ADD187R,0.1740X0.0010*%
%ADD188R,0.1650X0.0010*%
%ADD189R,0.1490X0.0010*%
%ADD190R,0.1380X0.0010*%
D10*
X000551Y000206D02*
X025551Y000206D01*
X025587Y000202D01*
X025624Y000203D01*
X025660Y000207D01*
X025696Y000215D01*
X025730Y000226D01*
X025763Y000241D01*
X025795Y000260D01*
X025824Y000281D01*
X025851Y000306D01*
X025876Y000333D01*
X025897Y000362D01*
X025916Y000394D01*
X025931Y000427D01*
X025942Y000461D01*
X025950Y000497D01*
X025954Y000533D01*
X025955Y000570D01*
X025951Y000606D01*
X025951Y020806D01*
X025955Y020842D01*
X025954Y020879D01*
X025950Y020915D01*
X025942Y020951D01*
X025931Y020985D01*
X025916Y021018D01*
X025897Y021050D01*
X025876Y021079D01*
X025851Y021106D01*
X025824Y021131D01*
X025795Y021152D01*
X025763Y021171D01*
X025730Y021186D01*
X025696Y021197D01*
X025660Y021205D01*
X025624Y021209D01*
X025587Y021210D01*
X025551Y021206D01*
X000551Y021206D01*
X000512Y021205D01*
X000474Y021199D01*
X000436Y021191D01*
X000399Y021178D01*
X000364Y021163D01*
X000330Y021144D01*
X000298Y021121D01*
X000268Y021096D01*
X000241Y021068D01*
X000217Y021038D01*
X000196Y021006D01*
X000178Y020971D01*
X000163Y020935D01*
X000152Y020898D01*
X000145Y020860D01*
X000141Y020822D01*
X000140Y020783D01*
X000144Y020744D01*
X000151Y020706D01*
X000151Y020703D02*
X000151Y000606D01*
X000157Y000566D01*
X000167Y000526D01*
X000180Y000488D01*
X000197Y000451D01*
X000217Y000415D01*
X000240Y000382D01*
X000267Y000350D01*
X000295Y000322D01*
X000327Y000295D01*
X000360Y000272D01*
X000396Y000252D01*
X000433Y000235D01*
X000471Y000222D01*
X000511Y000212D01*
X000551Y000206D01*
X007151Y000956D02*
X007401Y000706D01*
X007901Y000706D01*
X008151Y000956D01*
X008401Y000706D01*
X008901Y000706D01*
X009151Y000956D01*
X009401Y000706D01*
X009901Y000706D01*
X010151Y000956D01*
X010401Y000706D01*
X010901Y000706D01*
X011151Y000956D01*
X011401Y000706D01*
X011901Y000706D01*
X012151Y000956D01*
X012401Y000706D01*
X012901Y000706D01*
X013151Y000956D01*
X013401Y000706D01*
X013901Y000706D01*
X014151Y000956D01*
X014401Y000706D01*
X014901Y000706D01*
X015151Y000956D01*
X015151Y001456D01*
X014901Y001706D01*
X014401Y001706D01*
X014151Y001456D01*
X013901Y001706D01*
X013401Y001706D01*
X013151Y001456D01*
X012901Y001706D01*
X012401Y001706D01*
X012151Y001456D01*
X011901Y001706D01*
X011401Y001706D01*
X011151Y001456D01*
X010901Y001706D01*
X010401Y001706D01*
X010151Y001456D01*
X009901Y001706D01*
X009401Y001706D01*
X009151Y001456D01*
X008901Y001706D01*
X008401Y001706D01*
X008151Y001456D01*
X007901Y001706D01*
X007401Y001706D01*
X007151Y001456D01*
X007151Y000956D01*
X015651Y000956D02*
X015901Y000706D01*
X016401Y000706D01*
X016651Y000956D01*
X016901Y000706D01*
X017401Y000706D01*
X017651Y000956D01*
X017901Y000706D01*
X018401Y000706D01*
X018651Y000956D01*
X018901Y000706D01*
X019401Y000706D01*
X019651Y000956D01*
X019901Y000706D01*
X020401Y000706D01*
X020651Y000956D01*
X020901Y000706D01*
X021401Y000706D01*
X021651Y000956D01*
X021901Y000706D01*
X022401Y000706D01*
X022651Y000956D01*
X022901Y000706D01*
X023401Y000706D01*
X023651Y000956D01*
X023651Y001456D01*
X023901Y001706D01*
X024401Y001706D01*
X024651Y001456D01*
X024901Y001706D01*
X025401Y001706D01*
X025651Y001456D01*
X025651Y000956D01*
X025401Y000706D01*
X024901Y000706D01*
X024651Y000956D01*
X024401Y000706D01*
X023901Y000706D01*
X023651Y000956D01*
X023651Y001456D01*
X023401Y001706D01*
X022901Y001706D01*
X022651Y001456D01*
X022401Y001706D01*
X021901Y001706D01*
X021651Y001456D01*
X021401Y001706D01*
X020901Y001706D01*
X020651Y001456D01*
X020401Y001706D01*
X019901Y001706D01*
X019651Y001456D01*
X019401Y001706D01*
X018901Y001706D01*
X018651Y001456D01*
X018401Y001706D01*
X017901Y001706D01*
X017651Y001456D01*
X017401Y001706D01*
X016901Y001706D01*
X016651Y001456D01*
X016401Y001706D01*
X015901Y001706D01*
X015651Y001456D01*
X015651Y000956D01*
X022651Y002156D02*
X022651Y002656D01*
X022901Y002906D01*
X022651Y003156D01*
X022651Y003656D01*
X022901Y003906D01*
X023401Y003906D01*
X023651Y003656D01*
X023651Y003156D01*
X023401Y002906D01*
X023651Y002656D01*
X023651Y002156D01*
X023401Y001906D01*
X022901Y001906D01*
X022651Y002156D01*
X021901Y013706D02*
X021401Y013706D01*
X021151Y013956D01*
X020901Y013706D01*
X020401Y013706D01*
X020151Y013956D01*
X020151Y014456D01*
X020401Y014706D01*
X020901Y014706D01*
X021151Y014456D01*
X021401Y014706D01*
X021901Y014706D01*
X022151Y014456D01*
X022151Y013956D01*
X021901Y013706D01*
X021901Y016506D02*
X021401Y016506D01*
X021151Y016756D01*
X020901Y016506D01*
X020401Y016506D01*
X020151Y016756D01*
X020151Y017256D01*
X020401Y017506D01*
X020901Y017506D01*
X021151Y017256D01*
X021401Y017506D01*
X021901Y017506D01*
X022151Y017256D01*
X022401Y017506D01*
X022901Y017506D01*
X023151Y017256D01*
X023151Y016756D01*
X022901Y016506D01*
X022401Y016506D01*
X022151Y016756D01*
X021901Y016506D01*
X021901Y019706D02*
X021401Y019706D01*
X021151Y019956D01*
X020901Y019706D01*
X020401Y019706D01*
X020151Y019956D01*
X019901Y019706D01*
X019401Y019706D01*
X019151Y019956D01*
X018901Y019706D01*
X018401Y019706D01*
X018151Y019956D01*
X017901Y019706D01*
X017401Y019706D01*
X017151Y019956D01*
X016901Y019706D01*
X016401Y019706D01*
X016151Y019956D01*
X015901Y019706D01*
X015401Y019706D01*
X015151Y019956D01*
X014901Y019706D01*
X014401Y019706D01*
X014151Y019956D01*
X014151Y020456D01*
X014401Y020706D01*
X014901Y020706D01*
X015151Y020456D01*
X015401Y020706D01*
X015901Y020706D01*
X016151Y020456D01*
X016401Y020706D01*
X016901Y020706D01*
X017151Y020456D01*
X017401Y020706D01*
X017901Y020706D01*
X018151Y020456D01*
X018401Y020706D01*
X018901Y020706D01*
X019151Y020456D01*
X019401Y020706D01*
X019901Y020706D01*
X020151Y020456D01*
X020401Y020706D01*
X020901Y020706D01*
X021151Y020456D01*
X021401Y020706D01*
X021901Y020706D01*
X022151Y020456D01*
X022151Y019956D01*
X021901Y019706D01*
X013151Y019956D02*
X012901Y019706D01*
X012401Y019706D01*
X012151Y019956D01*
X011901Y019706D01*
X011401Y019706D01*
X011151Y019956D01*
X010901Y019706D01*
X010401Y019706D01*
X010151Y019956D01*
X009901Y019706D01*
X009401Y019706D01*
X009151Y019956D01*
X008901Y019706D01*
X008401Y019706D01*
X008151Y019956D01*
X007901Y019706D01*
X007401Y019706D01*
X007151Y019956D01*
X006901Y019706D01*
X006401Y019706D01*
X006151Y019956D01*
X005901Y019706D01*
X005401Y019706D01*
X005151Y019956D01*
X005151Y020456D01*
X005401Y020706D01*
X005901Y020706D01*
X006151Y020456D01*
X006401Y020706D01*
X006901Y020706D01*
X007151Y020456D01*
X007401Y020706D01*
X007901Y020706D01*
X008151Y020456D01*
X008401Y020706D01*
X008901Y020706D01*
X009151Y020456D01*
X009401Y020706D01*
X009901Y020706D01*
X010151Y020456D01*
X010401Y020706D01*
X010901Y020706D01*
X011151Y020456D01*
X011401Y020706D01*
X011901Y020706D01*
X012151Y020456D01*
X012401Y020706D01*
X012901Y020706D01*
X013151Y020456D01*
X013151Y019956D01*
D11*
X012814Y019582D02*
X012587Y019582D01*
X012814Y019355D01*
X012871Y019412D01*
X012871Y019525D01*
X012814Y019582D01*
X012587Y019582D02*
X012531Y019525D01*
X012531Y019412D01*
X012587Y019355D01*
X012814Y019355D01*
X012871Y019213D02*
X012644Y019213D01*
X012531Y019100D01*
X012644Y018986D01*
X012871Y018986D01*
X012701Y018986D02*
X012701Y019213D01*
X011871Y019213D02*
X011644Y019213D01*
X011531Y019100D01*
X011644Y018986D01*
X011871Y018986D01*
X011701Y018986D02*
X011701Y019213D01*
X011644Y019355D02*
X011531Y019468D01*
X011871Y019468D01*
X011871Y019355D02*
X011871Y019582D01*
X010871Y019582D02*
X010871Y019355D01*
X010644Y019582D01*
X010587Y019582D01*
X010531Y019525D01*
X010531Y019412D01*
X010587Y019355D01*
X010644Y019213D02*
X010871Y019213D01*
X010701Y019213D02*
X010701Y018986D01*
X010644Y018986D02*
X010531Y019100D01*
X010644Y019213D01*
X010644Y018986D02*
X010871Y018986D01*
X009871Y018986D02*
X009644Y018986D01*
X009531Y019100D01*
X009644Y019213D01*
X009871Y019213D01*
X009814Y019355D02*
X009871Y019412D01*
X009871Y019525D01*
X009814Y019582D01*
X009758Y019582D01*
X009701Y019525D01*
X009701Y019468D01*
X009701Y019525D02*
X009644Y019582D01*
X009587Y019582D01*
X009531Y019525D01*
X009531Y019412D01*
X009587Y019355D01*
X009701Y019213D02*
X009701Y018986D01*
X008871Y018986D02*
X008644Y018986D01*
X008531Y019100D01*
X008644Y019213D01*
X008871Y019213D01*
X008701Y019213D02*
X008701Y018986D01*
X008701Y019355D02*
X008701Y019582D01*
X008871Y019525D02*
X008531Y019525D01*
X008701Y019355D01*
X007871Y019412D02*
X007814Y019355D01*
X007871Y019412D02*
X007871Y019525D01*
X007814Y019582D01*
X007701Y019582D01*
X007644Y019525D01*
X007644Y019468D01*
X007701Y019355D01*
X007531Y019355D01*
X007531Y019582D01*
X007644Y019213D02*
X007531Y019100D01*
X007644Y018986D01*
X007871Y018986D01*
X007701Y018986D02*
X007701Y019213D01*
X007644Y019213D02*
X007871Y019213D01*
X006871Y019213D02*
X006644Y019213D01*
X006531Y019100D01*
X006644Y018986D01*
X006871Y018986D01*
X006701Y018986D02*
X006701Y019213D01*
X006701Y019355D02*
X006701Y019525D01*
X006758Y019582D01*
X006814Y019582D01*
X006871Y019525D01*
X006871Y019412D01*
X006814Y019355D01*
X006701Y019355D01*
X006587Y019468D01*
X006531Y019582D01*
X005871Y019355D02*
X005814Y019355D01*
X005587Y019582D01*
X005531Y019582D01*
X005531Y019355D01*
X005644Y019213D02*
X005871Y019213D01*
X005701Y019213D02*
X005701Y018986D01*
X005644Y018986D02*
X005531Y019100D01*
X005644Y019213D01*
X005644Y018986D02*
X005871Y018986D01*
X002651Y018956D02*
X002401Y018706D01*
X002651Y018456D01*
X002651Y017956D01*
X002401Y017706D01*
X002651Y017456D01*
X002651Y016956D01*
X002401Y016706D01*
X002651Y016456D01*
X002651Y015956D01*
X002401Y015706D01*
X002651Y015456D01*
X002651Y014956D01*
X002401Y014706D01*
X002651Y014456D01*
X002651Y013956D01*
X002401Y013706D01*
X002651Y013456D01*
X002651Y012956D01*
X002401Y012706D01*
X002651Y012456D01*
X002651Y011956D01*
X002401Y011706D01*
X002651Y011456D01*
X002651Y010956D01*
X002401Y010706D01*
X002651Y010456D01*
X002651Y009956D01*
X002401Y009706D01*
X002651Y009456D01*
X002651Y008956D01*
X002401Y008706D01*
X002651Y008456D01*
X002651Y007956D01*
X002401Y007706D01*
X002651Y007456D01*
X002651Y006956D01*
X002401Y006706D01*
X002651Y006456D01*
X002651Y005956D01*
X002401Y005706D01*
X002651Y005456D01*
X002651Y004956D01*
X002401Y004706D01*
X002651Y004456D01*
X002651Y003956D01*
X002401Y003706D01*
X002651Y003456D01*
X002651Y002956D01*
X002401Y002706D01*
X002651Y002456D01*
X002651Y001956D01*
X002401Y001706D01*
X002651Y001456D01*
X002651Y000956D01*
X002401Y000706D01*
X000901Y000706D01*
X000651Y000956D01*
X000651Y001456D01*
X000901Y001706D01*
X000651Y001956D01*
X000651Y002456D01*
X000901Y002706D01*
X000651Y002956D01*
X000651Y003456D01*
X000901Y003706D01*
X000651Y003956D01*
X000651Y004456D01*
X000901Y004706D01*
X000651Y004956D01*
X000651Y005456D01*
X000901Y005706D01*
X000651Y005956D01*
X000651Y006456D01*
X000901Y006706D01*
X000651Y006956D01*
X000651Y007456D01*
X000901Y007706D01*
X000651Y007956D01*
X000651Y008456D01*
X000901Y008706D01*
X000651Y008956D01*
X000651Y009456D01*
X000901Y009706D01*
X000651Y009956D01*
X000651Y010456D01*
X000901Y010706D01*
X000651Y010956D01*
X000651Y011456D01*
X000901Y011706D01*
X000651Y011956D01*
X000651Y012456D01*
X000901Y012706D01*
X000651Y012956D01*
X000651Y013456D01*
X000901Y013706D01*
X000651Y013956D01*
X000651Y014456D01*
X000901Y014706D01*
X000651Y014956D01*
X000651Y015456D01*
X000901Y015706D01*
X000651Y015956D01*
X000651Y016456D01*
X000901Y016706D01*
X000651Y016956D01*
X000651Y017456D01*
X000901Y017706D01*
X000651Y017956D01*
X000651Y018456D01*
X000901Y018706D01*
X000651Y018956D01*
X000651Y019456D01*
X000901Y019706D01*
X000651Y019706D02*
X000651Y020406D01*
X000651Y020506D01*
X000851Y020706D01*
X000751Y020706D01*
X000651Y020606D01*
X000651Y020506D01*
X000651Y020406D02*
X000951Y020706D01*
X000851Y020706D01*
X000951Y020706D02*
X001651Y020706D01*
X001651Y019706D01*
X000651Y019706D01*
X000651Y020606D02*
X000651Y020706D01*
X000751Y020706D01*
X001651Y020706D02*
X002401Y020706D01*
X002651Y020456D01*
X002651Y019956D01*
X002401Y019706D01*
X002651Y019456D01*
X002651Y018956D01*
X004581Y011677D02*
X004901Y011677D01*
X005008Y011570D01*
X005008Y011357D01*
X004901Y011250D01*
X004581Y011250D01*
X004581Y011036D02*
X004581Y011677D01*
X005332Y011464D02*
X005546Y011464D01*
X005653Y011357D01*
X005653Y011036D01*
X005332Y011036D01*
X005226Y011143D01*
X005332Y011250D01*
X005653Y011250D01*
X005870Y011464D02*
X006084Y011464D01*
X005977Y011570D02*
X005977Y011143D01*
X006084Y011036D01*
X006407Y011143D02*
X006513Y011036D01*
X006407Y011143D02*
X006407Y011570D01*
X006513Y011464D02*
X006300Y011464D01*
X006729Y011357D02*
X006729Y011143D01*
X006836Y011036D01*
X007050Y011036D01*
X007157Y011250D02*
X006729Y011250D01*
X006729Y011357D02*
X006836Y011464D01*
X007050Y011464D01*
X007157Y011357D01*
X007157Y011250D01*
X007374Y011250D02*
X007588Y011464D01*
X007694Y011464D01*
X007911Y011464D02*
X008231Y011464D01*
X008338Y011357D01*
X008338Y011036D01*
X008556Y011036D02*
X008556Y011464D01*
X008769Y011677D01*
X008983Y011464D01*
X008983Y011036D01*
X009200Y011143D02*
X009307Y011036D01*
X009627Y011036D01*
X009627Y010930D02*
X009627Y011464D01*
X009307Y011464D01*
X009200Y011357D01*
X009200Y011143D01*
X008983Y011357D02*
X008556Y011357D01*
X007911Y011464D02*
X007911Y011036D01*
X007374Y011036D02*
X007374Y011464D01*
X007453Y010377D02*
X007773Y010377D01*
X007880Y010270D01*
X007880Y010057D01*
X007773Y009950D01*
X007453Y009950D01*
X007453Y009736D02*
X007453Y010377D01*
X007235Y010270D02*
X007129Y010377D01*
X006915Y010377D01*
X006808Y010270D01*
X006808Y009843D01*
X006915Y009736D01*
X007129Y009736D01*
X007235Y009843D01*
X007881Y009364D02*
X008095Y009364D01*
X007988Y009470D02*
X007988Y009043D01*
X008095Y008936D01*
X008311Y009043D02*
X008417Y008936D01*
X008631Y008936D01*
X008738Y009043D01*
X008738Y009257D01*
X008631Y009364D01*
X008417Y009364D01*
X008311Y009257D01*
X008311Y009043D01*
X008177Y008684D02*
X008177Y008577D01*
X008177Y008364D02*
X008070Y008364D01*
X008177Y008364D02*
X008177Y007936D01*
X008070Y007936D02*
X008284Y007936D01*
X008500Y008043D02*
X008500Y008257D01*
X008607Y008364D01*
X008820Y008364D01*
X008927Y008257D01*
X008927Y008150D01*
X008500Y008150D01*
X008500Y008043D02*
X008607Y007936D01*
X008820Y007936D01*
X009121Y007784D02*
X009121Y007677D01*
X009121Y007464D02*
X009121Y007036D01*
X009015Y007036D02*
X009228Y007036D01*
X009444Y007143D02*
X009551Y007036D01*
X009871Y007036D01*
X009444Y007143D02*
X009444Y007357D01*
X009551Y007464D01*
X009871Y007464D01*
X010001Y007936D02*
X009681Y007936D01*
X009574Y008043D01*
X009574Y008257D01*
X009681Y008364D01*
X010001Y008364D01*
X010001Y008577D02*
X010001Y007936D01*
X009358Y007936D02*
X009144Y007936D01*
X009251Y007936D02*
X009251Y008577D01*
X009144Y008577D01*
X009493Y009736D02*
X009386Y009843D01*
X009493Y009736D02*
X009707Y009736D01*
X009813Y009843D01*
X009813Y009950D01*
X009707Y010057D01*
X009493Y010057D01*
X009386Y010164D01*
X009386Y010270D01*
X009493Y010377D01*
X009707Y010377D01*
X009813Y010270D01*
X009521Y010823D02*
X009627Y010930D01*
X009521Y010823D02*
X009414Y010823D01*
X009845Y011143D02*
X009845Y011357D01*
X009952Y011464D01*
X010165Y011464D01*
X010272Y011357D01*
X010272Y011250D01*
X009845Y011250D01*
X009845Y011143D02*
X009952Y011036D01*
X010165Y011036D01*
X010489Y011036D02*
X010489Y011464D01*
X010810Y011464D01*
X010916Y011357D01*
X010916Y011036D01*
X011241Y011143D02*
X011347Y011036D01*
X011241Y011143D02*
X011241Y011570D01*
X011347Y011464D02*
X011134Y011464D01*
X011564Y011357D02*
X011670Y011250D01*
X011884Y011250D01*
X011991Y011143D01*
X011884Y011036D01*
X011564Y011036D01*
X011564Y011357D02*
X011670Y011464D01*
X011991Y011464D01*
X012208Y011143D02*
X012315Y011143D01*
X012315Y011036D01*
X012208Y011036D01*
X012208Y011143D01*
X012530Y011143D02*
X012637Y011036D01*
X012957Y011036D01*
X013175Y011143D02*
X013282Y011036D01*
X013495Y011036D01*
X013602Y011143D01*
X013602Y011357D01*
X013495Y011464D01*
X013282Y011464D01*
X013175Y011357D01*
X013175Y011143D01*
X012957Y011464D02*
X012637Y011464D01*
X012530Y011357D01*
X012530Y011143D01*
X013820Y011036D02*
X013820Y011464D01*
X013926Y011464D01*
X014033Y011357D01*
X014140Y011464D01*
X014247Y011357D01*
X014247Y011036D01*
X014033Y011036D02*
X014033Y011357D01*
X009169Y010057D02*
X008742Y010057D01*
X008524Y010377D02*
X008524Y009736D01*
X008097Y009736D02*
X008097Y010377D01*
X008311Y010164D01*
X008524Y010377D01*
X007426Y008577D02*
X007426Y007936D01*
X007208Y008043D02*
X007208Y008150D01*
X007101Y008257D01*
X006888Y008257D01*
X006781Y008364D01*
X006781Y008470D01*
X006888Y008577D01*
X007101Y008577D01*
X007208Y008470D01*
X007426Y008257D02*
X007532Y008364D01*
X007746Y008364D01*
X007853Y008257D01*
X007853Y007936D01*
X007508Y007570D02*
X007508Y007464D01*
X007401Y007357D01*
X007081Y007357D01*
X007081Y007677D02*
X007401Y007677D01*
X007508Y007570D01*
X007401Y007357D02*
X007508Y007250D01*
X007508Y007143D01*
X007401Y007036D01*
X007081Y007036D01*
X007081Y007677D01*
X007101Y007936D02*
X006888Y007936D01*
X006781Y008043D01*
X007101Y007936D02*
X007208Y008043D01*
X007832Y007464D02*
X008046Y007464D01*
X008153Y007357D01*
X008153Y007036D01*
X007832Y007036D01*
X007726Y007143D01*
X007832Y007250D01*
X008153Y007250D01*
X008370Y007357D02*
X008477Y007464D01*
X008797Y007464D01*
X009015Y007464D02*
X009121Y007464D01*
X008797Y007143D02*
X008690Y007250D01*
X008477Y007250D01*
X008370Y007357D01*
X008690Y007036D02*
X008797Y007143D01*
X008690Y007036D02*
X008370Y007036D01*
X008871Y002582D02*
X008871Y002355D01*
X008871Y002468D02*
X008531Y002468D01*
X008644Y002355D01*
X008587Y002213D02*
X008531Y002157D01*
X008531Y001986D01*
X008871Y001986D01*
X008871Y002157D01*
X008814Y002213D01*
X008587Y002213D01*
X007871Y002157D02*
X007871Y001986D01*
X007531Y001986D01*
X007531Y002157D01*
X007587Y002213D01*
X007814Y002213D01*
X007871Y002157D01*
X007814Y002355D02*
X007587Y002582D01*
X007814Y002582D01*
X007871Y002525D01*
X007871Y002412D01*
X007814Y002355D01*
X007587Y002355D01*
X007531Y002412D01*
X007531Y002525D01*
X007587Y002582D01*
X009531Y002525D02*
X009531Y002412D01*
X009587Y002355D01*
X009587Y002213D02*
X009531Y002157D01*
X009531Y001986D01*
X009871Y001986D01*
X009871Y002157D01*
X009814Y002213D01*
X009587Y002213D01*
X009531Y002525D02*
X009587Y002582D01*
X009644Y002582D01*
X009871Y002355D01*
X009871Y002582D01*
X010531Y002525D02*
X010587Y002582D01*
X010644Y002582D01*
X010701Y002525D01*
X010758Y002582D01*
X010814Y002582D01*
X010871Y002525D01*
X010871Y002412D01*
X010814Y002355D01*
X010814Y002213D02*
X010587Y002213D01*
X010531Y002157D01*
X010531Y001986D01*
X010871Y001986D01*
X010871Y002157D01*
X010814Y002213D01*
X010587Y002355D02*
X010531Y002412D01*
X010531Y002525D01*
X010701Y002525D02*
X010701Y002468D01*
X011531Y002525D02*
X011701Y002355D01*
X011701Y002582D01*
X011871Y002525D02*
X011531Y002525D01*
X011587Y002213D02*
X011531Y002157D01*
X011531Y001986D01*
X011871Y001986D01*
X011871Y002157D01*
X011814Y002213D01*
X011587Y002213D01*
X012531Y002157D02*
X012531Y001986D01*
X012871Y001986D01*
X012871Y002157D01*
X012814Y002213D01*
X012587Y002213D01*
X012531Y002157D01*
X012531Y002355D02*
X012701Y002355D01*
X012644Y002468D01*
X012644Y002525D01*
X012701Y002582D01*
X012814Y002582D01*
X012871Y002525D01*
X012871Y002412D01*
X012814Y002355D01*
X012531Y002355D02*
X012531Y002582D01*
X013531Y002582D02*
X013587Y002468D01*
X013701Y002355D01*
X013701Y002525D01*
X013758Y002582D01*
X013814Y002582D01*
X013871Y002525D01*
X013871Y002412D01*
X013814Y002355D01*
X013701Y002355D01*
X013814Y002213D02*
X013587Y002213D01*
X013531Y002157D01*
X013531Y001986D01*
X013871Y001986D01*
X013871Y002157D01*
X013814Y002213D01*
X014531Y002157D02*
X014531Y001986D01*
X014871Y001986D01*
X014871Y002157D01*
X014814Y002213D01*
X014587Y002213D01*
X014531Y002157D01*
X014531Y002355D02*
X014531Y002582D01*
X014587Y002582D01*
X014814Y002355D01*
X014871Y002355D01*
X016031Y002412D02*
X016031Y002525D01*
X016087Y002582D01*
X016144Y002582D01*
X016201Y002525D01*
X016201Y002412D01*
X016144Y002355D01*
X016087Y002355D01*
X016031Y002412D01*
X016201Y002412D02*
X016258Y002355D01*
X016314Y002355D01*
X016371Y002412D01*
X016371Y002525D01*
X016314Y002582D01*
X016258Y002582D01*
X016201Y002525D01*
X016314Y002213D02*
X016087Y002213D01*
X016031Y002157D01*
X016031Y001986D01*
X016371Y001986D01*
X016371Y002157D01*
X016314Y002213D01*
X017031Y002157D02*
X017031Y001986D01*
X017371Y001986D01*
X017371Y002157D01*
X017314Y002213D01*
X017087Y002213D01*
X017031Y002157D01*
X017087Y002355D02*
X017144Y002355D01*
X017201Y002412D01*
X017201Y002582D01*
X017314Y002582D02*
X017087Y002582D01*
X017031Y002525D01*
X017031Y002412D01*
X017087Y002355D01*
X017314Y002355D02*
X017371Y002412D01*
X017371Y002525D01*
X017314Y002582D01*
X018031Y002468D02*
X018371Y002468D01*
X018371Y002355D02*
X018371Y002582D01*
X018314Y002723D02*
X018087Y002950D01*
X018314Y002950D01*
X018371Y002893D01*
X018371Y002780D01*
X018314Y002723D01*
X018087Y002723D01*
X018031Y002780D01*
X018031Y002893D01*
X018087Y002950D01*
X018031Y002468D02*
X018144Y002355D01*
X018087Y002213D02*
X018031Y002157D01*
X018031Y001986D01*
X018371Y001986D01*
X018371Y002157D01*
X018314Y002213D01*
X018087Y002213D01*
X019031Y002157D02*
X019031Y001986D01*
X019371Y001986D01*
X019371Y002157D01*
X019314Y002213D01*
X019087Y002213D01*
X019031Y002157D01*
X019144Y002355D02*
X019031Y002468D01*
X019371Y002468D01*
X019371Y002355D02*
X019371Y002582D01*
X019371Y002723D02*
X019371Y002950D01*
X019371Y002837D02*
X019031Y002837D01*
X019144Y002723D01*
X020031Y002780D02*
X020087Y002723D01*
X020031Y002780D02*
X020031Y002893D01*
X020087Y002950D01*
X020144Y002950D01*
X020371Y002723D01*
X020371Y002950D01*
X020371Y002582D02*
X020371Y002355D01*
X020371Y002468D02*
X020031Y002468D01*
X020144Y002355D01*
X020087Y002213D02*
X020031Y002157D01*
X020031Y001986D01*
X020371Y001986D01*
X020371Y002157D01*
X020314Y002213D01*
X020087Y002213D01*
X021031Y002157D02*
X021031Y001986D01*
X021371Y001986D01*
X021371Y002157D01*
X021314Y002213D01*
X021087Y002213D01*
X021031Y002157D01*
X021144Y002355D02*
X021031Y002468D01*
X021371Y002468D01*
X021371Y002355D02*
X021371Y002582D01*
X021314Y002723D02*
X021371Y002780D01*
X021371Y002893D01*
X021314Y002950D01*
X021258Y002950D01*
X021201Y002893D01*
X021201Y002837D01*
X021201Y002893D02*
X021144Y002950D01*
X021087Y002950D01*
X021031Y002893D01*
X021031Y002780D01*
X021087Y002723D01*
X022031Y002723D02*
X022031Y002893D01*
X022087Y002950D01*
X022314Y002950D01*
X022371Y002893D01*
X022371Y002723D01*
X022031Y002723D01*
X022031Y002582D02*
X022371Y002582D01*
X022031Y002355D01*
X022371Y002355D01*
X022314Y002213D02*
X022201Y002213D01*
X022201Y002100D01*
X022314Y002213D02*
X022371Y002157D01*
X022371Y002043D01*
X022314Y001986D01*
X022087Y001986D01*
X022031Y002043D01*
X022031Y002157D01*
X022087Y002213D01*
X023931Y002289D02*
X023987Y002232D01*
X023931Y002289D02*
X023931Y002402D01*
X023987Y002459D01*
X024044Y002459D01*
X024271Y002232D01*
X024271Y002459D01*
X024214Y002600D02*
X023987Y002600D01*
X023931Y002657D01*
X023931Y002770D01*
X023987Y002827D01*
X024214Y002827D02*
X024271Y002770D01*
X024271Y002657D01*
X024214Y002600D01*
X024328Y002969D02*
X024328Y003196D01*
X024214Y003337D02*
X024271Y003394D01*
X024271Y003507D01*
X024214Y003564D01*
X024158Y003564D01*
X024101Y003507D01*
X024101Y003394D01*
X024044Y003337D01*
X023987Y003337D01*
X023931Y003394D01*
X023931Y003507D01*
X023987Y003564D01*
X023931Y003705D02*
X023931Y003875D01*
X023987Y003932D01*
X024214Y003932D01*
X024271Y003875D01*
X024271Y003705D01*
X023931Y003705D01*
X024044Y004074D02*
X023931Y004187D01*
X024044Y004300D01*
X024271Y004300D01*
X024101Y004300D02*
X024101Y004074D01*
X024044Y004074D02*
X024271Y004074D01*
X024931Y004074D02*
X025271Y004074D01*
X025271Y004300D01*
X025214Y003932D02*
X025271Y003875D01*
X025271Y003762D01*
X025214Y003705D01*
X024987Y003705D01*
X024931Y003762D01*
X024931Y003875D01*
X024987Y003932D01*
X024987Y003564D02*
X024931Y003507D01*
X024931Y003394D01*
X024987Y003337D01*
X025044Y003337D01*
X025101Y003394D01*
X025101Y003507D01*
X025158Y003564D01*
X025214Y003564D01*
X025271Y003507D01*
X025271Y003394D01*
X025214Y003337D01*
X025328Y003196D02*
X025328Y002969D01*
X025214Y002827D02*
X025271Y002770D01*
X025271Y002657D01*
X025214Y002600D01*
X024987Y002600D01*
X024931Y002657D01*
X024931Y002770D01*
X024987Y002827D01*
X024987Y002459D02*
X024931Y002402D01*
X024931Y002289D01*
X024987Y002232D01*
X024931Y002100D02*
X024931Y001986D01*
X024931Y002043D02*
X025271Y002043D01*
X025271Y001986D02*
X025271Y002100D01*
X025271Y002232D02*
X025044Y002459D01*
X024987Y002459D01*
X025271Y002459D02*
X025271Y002232D01*
X024271Y002100D02*
X024271Y001986D01*
X024271Y002043D02*
X023931Y002043D01*
X023931Y001986D02*
X023931Y002100D01*
X023371Y004086D02*
X023144Y004086D01*
X023031Y004200D01*
X023144Y004313D01*
X023371Y004313D01*
X023371Y004455D02*
X023031Y004455D01*
X023031Y004625D01*
X023087Y004682D01*
X023201Y004682D01*
X023258Y004625D01*
X023258Y004455D01*
X023258Y004568D02*
X023371Y004682D01*
X023371Y004823D02*
X023031Y004823D01*
X023031Y005050D01*
X023031Y005191D02*
X023031Y005418D01*
X023201Y005305D02*
X023201Y005191D01*
X023371Y005191D02*
X023031Y005191D01*
X023201Y004937D02*
X023201Y004823D01*
X023371Y004823D02*
X023371Y005050D01*
X023201Y004313D02*
X023201Y004086D01*
X023071Y013486D02*
X022731Y013486D01*
X022731Y013657D01*
X022787Y013713D01*
X022901Y013713D01*
X022958Y013657D01*
X022958Y013486D01*
X022958Y013600D02*
X023071Y013713D01*
X023071Y013855D02*
X023071Y014082D01*
X023014Y014223D02*
X023071Y014280D01*
X023071Y014393D01*
X023014Y014450D01*
X022958Y014450D01*
X022901Y014393D01*
X022901Y014280D01*
X022844Y014223D01*
X022787Y014223D01*
X022731Y014280D01*
X022731Y014393D01*
X022787Y014450D01*
X022731Y014591D02*
X023071Y014591D01*
X023071Y014818D01*
X022901Y014705D02*
X022901Y014591D01*
X022731Y014591D02*
X022731Y014818D01*
X022731Y014960D02*
X022731Y015187D01*
X022731Y015073D02*
X023071Y015073D01*
X022731Y014082D02*
X022731Y013855D01*
X023071Y013855D01*
X022901Y013855D02*
X022901Y013968D01*
X023731Y016386D02*
X023731Y016500D01*
X023731Y016443D02*
X024071Y016443D01*
X024071Y016386D02*
X024071Y016500D01*
X024014Y016632D02*
X024071Y016689D01*
X024071Y016802D01*
X024014Y016859D01*
X023787Y016859D01*
X023731Y016802D01*
X023731Y016689D01*
X023787Y016632D01*
X024014Y016632D01*
X023958Y017000D02*
X023958Y017170D01*
X023901Y017227D01*
X023787Y017227D01*
X023731Y017170D01*
X023731Y017000D01*
X024071Y017000D01*
X023958Y017114D02*
X024071Y017227D01*
X024071Y017369D02*
X024071Y017596D01*
X024071Y017737D02*
X023731Y017737D01*
X023731Y017964D01*
X023901Y017850D02*
X023901Y017737D01*
X023731Y017596D02*
X023731Y017369D01*
X024071Y017369D01*
X023901Y017369D02*
X023901Y017482D01*
X019771Y018586D02*
X019431Y018586D01*
X019431Y018757D01*
X019487Y018813D01*
X019601Y018813D01*
X019658Y018757D01*
X019658Y018586D01*
X019658Y018700D02*
X019771Y018813D01*
X019714Y018955D02*
X019771Y019012D01*
X019771Y019125D01*
X019714Y019182D01*
X019658Y019182D01*
X019601Y019125D01*
X019601Y019012D01*
X019544Y018955D01*
X019487Y018955D01*
X019431Y019012D01*
X019431Y019125D01*
X019487Y019182D01*
X019431Y019323D02*
X019431Y019550D01*
X019431Y019437D02*
X019771Y019437D01*
X018871Y019393D02*
X018871Y019280D01*
X018814Y019223D01*
X018758Y019082D02*
X018531Y019082D01*
X018587Y019223D02*
X018531Y019280D01*
X018531Y019393D01*
X018587Y019450D01*
X018644Y019450D01*
X018701Y019393D01*
X018758Y019450D01*
X018814Y019450D01*
X018871Y019393D01*
X018701Y019393D02*
X018701Y019337D01*
X018758Y019082D02*
X018871Y018968D01*
X018758Y018855D01*
X018531Y018855D01*
X018587Y018713D02*
X018531Y018657D01*
X018531Y018543D01*
X018587Y018486D01*
X018701Y018600D02*
X018701Y018657D01*
X018758Y018713D01*
X018814Y018713D01*
X018871Y018657D01*
X018871Y018543D01*
X018814Y018486D01*
X018701Y018657D02*
X018644Y018713D01*
X018587Y018713D01*
X017871Y018657D02*
X017871Y018543D01*
X017814Y018486D01*
X017701Y018486D02*
X017644Y018600D01*
X017644Y018657D01*
X017701Y018713D01*
X017814Y018713D01*
X017871Y018657D01*
X017758Y018855D02*
X017531Y018855D01*
X017531Y018713D02*
X017531Y018486D01*
X017701Y018486D01*
X017758Y018855D02*
X017871Y018968D01*
X017758Y019082D01*
X017531Y019082D01*
X017587Y019223D02*
X017531Y019280D01*
X017531Y019393D01*
X017587Y019450D01*
X017814Y019223D01*
X017871Y019280D01*
X017871Y019393D01*
X017814Y019450D01*
X017587Y019450D01*
X017587Y019223D02*
X017814Y019223D01*
X016871Y019223D02*
X016871Y019393D01*
X016814Y019450D01*
X016587Y019450D01*
X016531Y019393D01*
X016531Y019223D01*
X016871Y019223D01*
X016871Y019082D02*
X016531Y019082D01*
X016531Y018855D02*
X016871Y019082D01*
X016871Y018855D02*
X016531Y018855D01*
X016587Y018713D02*
X016531Y018657D01*
X016531Y018543D01*
X016587Y018486D01*
X016814Y018486D01*
X016871Y018543D01*
X016871Y018657D01*
X016814Y018713D01*
X016701Y018713D01*
X016701Y018600D01*
X015871Y018543D02*
X015871Y018657D01*
X015814Y018713D01*
X015701Y018713D01*
X015701Y018600D01*
X015814Y018486D02*
X015587Y018486D01*
X015531Y018543D01*
X015531Y018657D01*
X015587Y018713D01*
X015531Y018855D02*
X015871Y019082D01*
X015531Y019082D01*
X015531Y019223D02*
X015531Y019393D01*
X015587Y019450D01*
X015814Y019450D01*
X015871Y019393D01*
X015871Y019223D01*
X015531Y019223D01*
X015531Y018855D02*
X015871Y018855D01*
X015871Y018543D02*
X015814Y018486D01*
X014871Y018650D02*
X014758Y018536D01*
X014531Y018536D01*
X014531Y018763D02*
X014758Y018763D01*
X014871Y018650D01*
X014871Y018905D02*
X014871Y019018D01*
X014871Y018962D02*
X014531Y018962D01*
X014531Y019018D02*
X014531Y018905D01*
X014531Y019150D02*
X014871Y019377D01*
X014531Y019377D01*
X014531Y019150D02*
X014871Y019150D01*
D12*
X013541Y020691D02*
X013361Y020691D01*
X013541Y020872D01*
X013541Y020917D01*
X013496Y020962D01*
X013406Y020962D01*
X013361Y020917D01*
X013247Y020962D02*
X013157Y020962D01*
X013202Y020962D02*
X013202Y020737D01*
X013157Y020691D01*
X013112Y020691D01*
X013067Y020737D01*
X012786Y018647D02*
X012696Y018647D01*
X012606Y018557D01*
X012651Y018442D02*
X012831Y018262D01*
X012876Y018307D01*
X012876Y018397D01*
X012831Y018442D01*
X012651Y018442D01*
X012606Y018397D01*
X012606Y018307D01*
X012651Y018262D01*
X012831Y018262D01*
X012921Y018147D02*
X012921Y017967D01*
X012831Y017853D02*
X012786Y017853D01*
X012741Y017808D01*
X012741Y017763D01*
X012741Y017808D02*
X012696Y017853D01*
X012651Y017853D01*
X012606Y017808D01*
X012606Y017718D01*
X012651Y017673D01*
X012651Y017558D02*
X012741Y017558D01*
X012786Y017513D01*
X012786Y017378D01*
X012876Y017378D02*
X012606Y017378D01*
X012606Y017513D01*
X012651Y017558D01*
X012831Y017673D02*
X012876Y017718D01*
X012876Y017808D01*
X012831Y017853D01*
X012876Y017272D02*
X012786Y017181D01*
X012696Y017181D01*
X012606Y017272D01*
X011876Y017272D02*
X011786Y017181D01*
X011696Y017181D01*
X011606Y017272D01*
X011606Y017378D02*
X011606Y017513D01*
X011651Y017558D01*
X011741Y017558D01*
X011786Y017513D01*
X011786Y017378D01*
X011876Y017378D02*
X011606Y017378D01*
X011651Y017673D02*
X011606Y017718D01*
X011606Y017808D01*
X011651Y017853D01*
X011696Y017853D01*
X011741Y017808D01*
X011786Y017853D01*
X011831Y017853D01*
X011876Y017808D01*
X011876Y017718D01*
X011831Y017673D01*
X011741Y017763D02*
X011741Y017808D01*
X011921Y017967D02*
X011921Y018147D01*
X011876Y018262D02*
X011876Y018442D01*
X011876Y018352D02*
X011606Y018352D01*
X011696Y018262D01*
X011606Y018557D02*
X011696Y018647D01*
X011786Y018647D01*
X011876Y018557D01*
X012786Y018647D02*
X012876Y018557D01*
X010921Y018147D02*
X010921Y017967D01*
X010831Y017853D02*
X010876Y017808D01*
X010876Y017718D01*
X010831Y017673D01*
X010741Y017763D02*
X010741Y017808D01*
X010786Y017853D01*
X010831Y017853D01*
X010741Y017808D02*
X010696Y017853D01*
X010651Y017853D01*
X010606Y017808D01*
X010606Y017718D01*
X010651Y017673D01*
X010651Y017558D02*
X010741Y017558D01*
X010786Y017513D01*
X010786Y017378D01*
X010876Y017378D02*
X010606Y017378D01*
X010606Y017513D01*
X010651Y017558D01*
X010606Y017272D02*
X010696Y017181D01*
X010786Y017181D01*
X010876Y017272D01*
X009876Y017272D02*
X009786Y017181D01*
X009696Y017181D01*
X009606Y017272D01*
X009606Y017378D02*
X009606Y017513D01*
X009651Y017558D01*
X009741Y017558D01*
X009786Y017513D01*
X009786Y017378D01*
X009876Y017378D02*
X009606Y017378D01*
X009651Y017673D02*
X009606Y017718D01*
X009606Y017808D01*
X009651Y017853D01*
X009696Y017853D01*
X009741Y017808D01*
X009786Y017853D01*
X009831Y017853D01*
X009876Y017808D01*
X009876Y017718D01*
X009831Y017673D01*
X009741Y017763D02*
X009741Y017808D01*
X009921Y017967D02*
X009921Y018147D01*
X009831Y018262D02*
X009876Y018307D01*
X009876Y018397D01*
X009831Y018442D01*
X009786Y018442D01*
X009741Y018397D01*
X009741Y018352D01*
X009741Y018397D02*
X009696Y018442D01*
X009651Y018442D01*
X009606Y018397D01*
X009606Y018307D01*
X009651Y018262D01*
X009606Y018557D02*
X009696Y018647D01*
X009786Y018647D01*
X009876Y018557D01*
X010606Y018557D02*
X010696Y018647D01*
X010786Y018647D01*
X010876Y018557D01*
X010876Y018442D02*
X010876Y018262D01*
X010696Y018442D01*
X010651Y018442D01*
X010606Y018397D01*
X010606Y018307D01*
X010651Y018262D01*
X008821Y018147D02*
X008821Y017967D01*
X008731Y017853D02*
X008776Y017808D01*
X008776Y017718D01*
X008731Y017673D01*
X008641Y017763D02*
X008641Y017808D01*
X008686Y017853D01*
X008731Y017853D01*
X008641Y017808D02*
X008596Y017853D01*
X008551Y017853D01*
X008506Y017808D01*
X008506Y017718D01*
X008551Y017673D01*
X008551Y017558D02*
X008641Y017558D01*
X008686Y017513D01*
X008686Y017378D01*
X008776Y017378D02*
X008506Y017378D01*
X008506Y017513D01*
X008551Y017558D01*
X008506Y017272D02*
X008596Y017181D01*
X008686Y017181D01*
X008776Y017272D01*
X007876Y017272D02*
X007786Y017181D01*
X007696Y017181D01*
X007606Y017272D01*
X007606Y017378D02*
X007606Y017513D01*
X007651Y017558D01*
X007741Y017558D01*
X007786Y017513D01*
X007786Y017378D01*
X007876Y017378D02*
X007606Y017378D01*
X007651Y017673D02*
X007606Y017718D01*
X007606Y017808D01*
X007651Y017853D01*
X007696Y017853D01*
X007741Y017808D01*
X007786Y017853D01*
X007831Y017853D01*
X007876Y017808D01*
X007876Y017718D01*
X007831Y017673D01*
X007741Y017763D02*
X007741Y017808D01*
X007921Y017967D02*
X007921Y018147D01*
X007831Y018262D02*
X007876Y018307D01*
X007876Y018397D01*
X007831Y018442D01*
X007741Y018442D01*
X007696Y018397D01*
X007696Y018352D01*
X007741Y018262D01*
X007606Y018262D01*
X007606Y018442D01*
X007606Y018557D02*
X007696Y018647D01*
X007786Y018647D01*
X007876Y018557D01*
X008506Y018557D02*
X008596Y018647D01*
X008686Y018647D01*
X008776Y018557D01*
X008776Y018397D02*
X008506Y018397D01*
X008641Y018262D01*
X008641Y018442D01*
X006921Y018147D02*
X006921Y017967D01*
X006831Y017853D02*
X006786Y017853D01*
X006741Y017808D01*
X006741Y017763D01*
X006741Y017808D02*
X006696Y017853D01*
X006651Y017853D01*
X006606Y017808D01*
X006606Y017718D01*
X006651Y017673D01*
X006651Y017558D02*
X006741Y017558D01*
X006786Y017513D01*
X006786Y017378D01*
X006876Y017378D02*
X006606Y017378D01*
X006606Y017513D01*
X006651Y017558D01*
X006831Y017673D02*
X006876Y017718D01*
X006876Y017808D01*
X006831Y017853D01*
X006831Y018262D02*
X006741Y018262D01*
X006741Y018397D01*
X006786Y018442D01*
X006831Y018442D01*
X006876Y018397D01*
X006876Y018307D01*
X006831Y018262D01*
X006741Y018262D02*
X006651Y018352D01*
X006606Y018442D01*
X006606Y018557D02*
X006696Y018647D01*
X006786Y018647D01*
X006876Y018557D01*
X005876Y018557D02*
X005786Y018647D01*
X005696Y018647D01*
X005606Y018557D01*
X005606Y018442D02*
X005651Y018442D01*
X005831Y018262D01*
X005876Y018262D01*
X005921Y018147D02*
X005921Y017967D01*
X005831Y017853D02*
X005876Y017808D01*
X005876Y017718D01*
X005831Y017673D01*
X005741Y017763D02*
X005741Y017808D01*
X005786Y017853D01*
X005831Y017853D01*
X005741Y017808D02*
X005696Y017853D01*
X005651Y017853D01*
X005606Y017808D01*
X005606Y017718D01*
X005651Y017673D01*
X005651Y017558D02*
X005741Y017558D01*
X005786Y017513D01*
X005786Y017378D01*
X005876Y017378D02*
X005606Y017378D01*
X005606Y017513D01*
X005651Y017558D01*
X005606Y017272D02*
X005696Y017181D01*
X005786Y017181D01*
X005876Y017272D01*
X006606Y017272D02*
X006696Y017181D01*
X006786Y017181D01*
X006876Y017272D01*
X005606Y018262D02*
X005606Y018442D01*
X004529Y018357D02*
X004484Y018402D01*
X004394Y018402D01*
X004349Y018357D01*
X004235Y018402D02*
X004055Y018131D01*
X003940Y018177D02*
X003895Y018131D01*
X003805Y018131D01*
X003760Y018177D01*
X003850Y018267D02*
X003895Y018267D01*
X003940Y018222D01*
X003940Y018177D01*
X003895Y018267D02*
X003940Y018312D01*
X003940Y018357D01*
X003895Y018402D01*
X003805Y018402D01*
X003760Y018357D01*
X003645Y018086D02*
X003465Y018086D01*
X003351Y018177D02*
X003306Y018131D01*
X003216Y018131D01*
X003171Y018177D01*
X003261Y018267D02*
X003306Y018267D01*
X003351Y018222D01*
X003351Y018177D01*
X003306Y018267D02*
X003351Y018312D01*
X003351Y018357D01*
X003306Y018402D01*
X003216Y018402D01*
X003171Y018357D01*
X003056Y018357D02*
X003011Y018402D01*
X002876Y018402D01*
X002876Y018131D01*
X002876Y018222D02*
X003011Y018222D01*
X003056Y018267D01*
X003056Y018357D01*
X003216Y019131D02*
X003171Y019177D01*
X003216Y019131D02*
X003306Y019131D01*
X003351Y019177D01*
X003351Y019222D01*
X003306Y019267D01*
X003261Y019267D01*
X003306Y019267D02*
X003351Y019312D01*
X003351Y019357D01*
X003306Y019402D01*
X003216Y019402D01*
X003171Y019357D01*
X003056Y019357D02*
X003056Y019267D01*
X003011Y019222D01*
X002876Y019222D01*
X002876Y019131D02*
X002876Y019402D01*
X003011Y019402D01*
X003056Y019357D01*
X003465Y019086D02*
X003645Y019086D01*
X003760Y019177D02*
X003805Y019131D01*
X003895Y019131D01*
X003940Y019177D01*
X003940Y019267D01*
X003895Y019312D01*
X003850Y019312D01*
X003760Y019267D01*
X003760Y019402D01*
X003940Y019402D01*
X004055Y019131D02*
X004235Y019402D01*
X004349Y019267D02*
X004529Y019267D01*
X004484Y019402D02*
X004349Y019267D01*
X004484Y019402D02*
X004484Y019131D01*
X004529Y018357D02*
X004529Y018312D01*
X004349Y018131D01*
X004529Y018131D01*
X004484Y017402D02*
X004394Y017402D01*
X004349Y017357D01*
X004349Y017177D01*
X004529Y017357D01*
X004529Y017177D01*
X004484Y017131D01*
X004394Y017131D01*
X004349Y017177D01*
X004235Y017402D02*
X004055Y017131D01*
X003940Y017131D02*
X003760Y017131D01*
X003850Y017131D02*
X003850Y017402D01*
X003760Y017312D01*
X003645Y017086D02*
X003465Y017086D01*
X003351Y017177D02*
X003306Y017131D01*
X003216Y017131D01*
X003171Y017177D01*
X003261Y017267D02*
X003306Y017267D01*
X003351Y017222D01*
X003351Y017177D01*
X003306Y017267D02*
X003351Y017312D01*
X003351Y017357D01*
X003306Y017402D01*
X003216Y017402D01*
X003171Y017357D01*
X003056Y017357D02*
X003056Y017267D01*
X003011Y017222D01*
X002876Y017222D01*
X002876Y017131D02*
X002876Y017402D01*
X003011Y017402D01*
X003056Y017357D01*
X003011Y016402D02*
X002921Y016402D01*
X002876Y016357D01*
X002876Y016177D01*
X002921Y016131D01*
X003011Y016131D01*
X003056Y016177D01*
X003056Y016267D01*
X002966Y016267D01*
X003056Y016357D02*
X003011Y016402D01*
X003171Y016402D02*
X003351Y016131D01*
X003351Y016402D01*
X003465Y016402D02*
X003465Y016131D01*
X003600Y016131D01*
X003645Y016177D01*
X003645Y016357D01*
X003600Y016402D01*
X003465Y016402D01*
X003171Y016402D02*
X003171Y016131D01*
X003216Y015402D02*
X003306Y015402D01*
X003351Y015357D01*
X003171Y015177D01*
X003216Y015131D01*
X003306Y015131D01*
X003351Y015177D01*
X003351Y015357D01*
X003216Y015402D02*
X003171Y015357D01*
X003171Y015177D01*
X003056Y015267D02*
X003011Y015222D01*
X002876Y015222D01*
X002876Y015131D02*
X002876Y015402D01*
X003011Y015402D01*
X003056Y015357D01*
X003056Y015267D01*
X003465Y015086D02*
X003645Y015086D01*
X003760Y015131D02*
X003760Y015177D01*
X003940Y015357D01*
X003940Y015402D01*
X003760Y015402D01*
X004055Y015131D02*
X004235Y015402D01*
X004349Y015267D02*
X004484Y015267D01*
X004529Y015222D01*
X004529Y015177D01*
X004484Y015131D01*
X004394Y015131D01*
X004349Y015177D01*
X004349Y015267D01*
X004439Y015357D01*
X004529Y015402D01*
X004484Y014502D02*
X004349Y014367D01*
X004529Y014367D01*
X004484Y014502D02*
X004484Y014231D01*
X004235Y014502D02*
X004055Y014231D01*
X003940Y014277D02*
X003895Y014231D01*
X003805Y014231D01*
X003760Y014277D01*
X003760Y014367D02*
X003850Y014412D01*
X003895Y014412D01*
X003940Y014367D01*
X003940Y014277D01*
X003760Y014367D02*
X003760Y014502D01*
X003940Y014502D01*
X003645Y014186D02*
X003465Y014186D01*
X003351Y014277D02*
X003351Y014457D01*
X003171Y014277D01*
X003216Y014231D01*
X003306Y014231D01*
X003351Y014277D01*
X003351Y014457D02*
X003306Y014502D01*
X003216Y014502D01*
X003171Y014457D01*
X003171Y014277D01*
X003056Y014367D02*
X003011Y014322D01*
X002876Y014322D01*
X002876Y014231D02*
X002876Y014502D01*
X003011Y014502D01*
X003056Y014457D01*
X003056Y014367D01*
X003011Y013402D02*
X003056Y013357D01*
X003056Y013267D01*
X003011Y013222D01*
X002876Y013222D01*
X002876Y013131D02*
X002876Y013402D01*
X003011Y013402D01*
X003171Y013357D02*
X003171Y013177D01*
X003351Y013357D01*
X003351Y013177D01*
X003306Y013131D01*
X003216Y013131D01*
X003171Y013177D01*
X003171Y013357D02*
X003216Y013402D01*
X003306Y013402D01*
X003351Y013357D01*
X003465Y013086D02*
X003645Y013086D01*
X003760Y013177D02*
X003805Y013131D01*
X003895Y013131D01*
X003940Y013177D01*
X003940Y013222D01*
X003895Y013267D01*
X003850Y013267D01*
X003895Y013267D02*
X003940Y013312D01*
X003940Y013357D01*
X003895Y013402D01*
X003805Y013402D01*
X003760Y013357D01*
X004055Y013131D02*
X004235Y013402D01*
X004349Y013357D02*
X004394Y013402D01*
X004484Y013402D01*
X004529Y013357D01*
X004529Y013312D01*
X004349Y013131D01*
X004529Y013131D01*
X004484Y012402D02*
X004394Y012402D01*
X004349Y012357D01*
X004349Y012177D01*
X004529Y012357D01*
X004529Y012177D01*
X004484Y012131D01*
X004394Y012131D01*
X004349Y012177D01*
X004235Y012402D02*
X004055Y012131D01*
X003940Y012131D02*
X003760Y012131D01*
X003850Y012131D02*
X003850Y012402D01*
X003760Y012312D01*
X003645Y012086D02*
X003465Y012086D01*
X003351Y012177D02*
X003306Y012131D01*
X003216Y012131D01*
X003171Y012177D01*
X003351Y012357D01*
X003351Y012177D01*
X003351Y012357D02*
X003306Y012402D01*
X003216Y012402D01*
X003171Y012357D01*
X003171Y012177D01*
X003056Y012267D02*
X003011Y012222D01*
X002876Y012222D01*
X002876Y012131D02*
X002876Y012402D01*
X003011Y012402D01*
X003056Y012357D01*
X003056Y012267D01*
X003011Y011402D02*
X002921Y011402D01*
X002876Y011357D01*
X002876Y011177D01*
X002921Y011131D01*
X003011Y011131D01*
X003056Y011177D01*
X003056Y011267D01*
X002966Y011267D01*
X003056Y011357D02*
X003011Y011402D01*
X003171Y011402D02*
X003351Y011131D01*
X003351Y011402D01*
X003465Y011402D02*
X003465Y011131D01*
X003600Y011131D01*
X003645Y011177D01*
X003645Y011357D01*
X003600Y011402D01*
X003465Y011402D01*
X003171Y011402D02*
X003171Y011131D01*
X003306Y010402D02*
X003171Y010267D01*
X003351Y010267D01*
X003306Y010402D02*
X003306Y010131D01*
X003465Y010086D02*
X003645Y010086D01*
X003760Y010131D02*
X003760Y010177D01*
X003940Y010357D01*
X003940Y010402D01*
X003760Y010402D01*
X004055Y010131D02*
X004235Y010402D01*
X004349Y010267D02*
X004484Y010267D01*
X004529Y010222D01*
X004529Y010177D01*
X004484Y010131D01*
X004394Y010131D01*
X004349Y010177D01*
X004349Y010267D01*
X004439Y010357D01*
X004529Y010402D01*
X004484Y009302D02*
X004349Y009167D01*
X004529Y009167D01*
X004484Y009302D02*
X004484Y009031D01*
X004235Y009302D02*
X004055Y009031D01*
X003940Y009077D02*
X003895Y009031D01*
X003805Y009031D01*
X003760Y009077D01*
X003760Y009167D02*
X003850Y009212D01*
X003895Y009212D01*
X003940Y009167D01*
X003940Y009077D01*
X003760Y009167D02*
X003760Y009302D01*
X003940Y009302D01*
X003645Y008986D02*
X003465Y008986D01*
X003306Y009031D02*
X003306Y009302D01*
X003171Y009167D01*
X003351Y009167D01*
X003056Y009167D02*
X003056Y009257D01*
X003011Y009302D01*
X002876Y009302D01*
X002876Y009031D01*
X002876Y009122D02*
X003011Y009122D01*
X003056Y009167D01*
X003011Y008402D02*
X003056Y008357D01*
X003056Y008267D01*
X003011Y008222D01*
X002876Y008222D01*
X002876Y008131D02*
X002876Y008402D01*
X003011Y008402D01*
X003171Y008267D02*
X003351Y008267D01*
X003306Y008402D02*
X003171Y008267D01*
X003306Y008402D02*
X003306Y008131D01*
X003465Y008086D02*
X003645Y008086D01*
X003760Y008177D02*
X003805Y008131D01*
X003895Y008131D01*
X003940Y008177D01*
X003940Y008222D01*
X003895Y008267D01*
X003850Y008267D01*
X003895Y008267D02*
X003940Y008312D01*
X003940Y008357D01*
X003895Y008402D01*
X003805Y008402D01*
X003760Y008357D01*
X004055Y008131D02*
X004235Y008402D01*
X004349Y008357D02*
X004394Y008402D01*
X004484Y008402D01*
X004529Y008357D01*
X004529Y008312D01*
X004349Y008131D01*
X004529Y008131D01*
X004484Y007402D02*
X004394Y007402D01*
X004349Y007357D01*
X004349Y007177D01*
X004529Y007357D01*
X004529Y007177D01*
X004484Y007131D01*
X004394Y007131D01*
X004349Y007177D01*
X004235Y007402D02*
X004055Y007131D01*
X003940Y007131D02*
X003760Y007131D01*
X003850Y007131D02*
X003850Y007402D01*
X003760Y007312D01*
X003645Y007086D02*
X003465Y007086D01*
X003306Y007131D02*
X003306Y007402D01*
X003171Y007267D01*
X003351Y007267D01*
X003056Y007267D02*
X003011Y007222D01*
X002876Y007222D01*
X002876Y007131D02*
X002876Y007402D01*
X003011Y007402D01*
X003056Y007357D01*
X003056Y007267D01*
X003011Y006402D02*
X002921Y006402D01*
X002876Y006357D01*
X002876Y006177D01*
X002921Y006131D01*
X003011Y006131D01*
X003056Y006177D01*
X003056Y006267D01*
X002966Y006267D01*
X003056Y006357D02*
X003011Y006402D01*
X003171Y006402D02*
X003351Y006131D01*
X003351Y006402D01*
X003465Y006402D02*
X003465Y006131D01*
X003600Y006131D01*
X003645Y006177D01*
X003645Y006357D01*
X003600Y006402D01*
X003465Y006402D01*
X003171Y006402D02*
X003171Y006131D01*
X003261Y005402D02*
X003261Y005131D01*
X003171Y005131D02*
X003351Y005131D01*
X003465Y005131D02*
X003645Y005312D01*
X003645Y005357D01*
X003600Y005402D01*
X003510Y005402D01*
X003465Y005357D01*
X003261Y005402D02*
X003171Y005312D01*
X003056Y005357D02*
X003056Y005267D01*
X003011Y005222D01*
X002876Y005222D01*
X002876Y005131D02*
X002876Y005402D01*
X003011Y005402D01*
X003056Y005357D01*
X003465Y005131D02*
X003645Y005131D01*
X003760Y005086D02*
X003940Y005086D01*
X004055Y005177D02*
X004100Y005131D01*
X004190Y005131D01*
X004235Y005177D01*
X004235Y005222D01*
X004190Y005267D01*
X004145Y005267D01*
X004190Y005267D02*
X004235Y005312D01*
X004235Y005357D01*
X004190Y005402D01*
X004100Y005402D01*
X004055Y005357D01*
X004349Y005131D02*
X004529Y005402D01*
X004644Y005357D02*
X004689Y005402D01*
X004779Y005402D01*
X004824Y005357D01*
X004824Y005312D01*
X004644Y005131D01*
X004824Y005131D01*
X004779Y004402D02*
X004689Y004402D01*
X004644Y004357D01*
X004644Y004177D01*
X004824Y004357D01*
X004824Y004177D01*
X004779Y004131D01*
X004689Y004131D01*
X004644Y004177D01*
X004529Y004402D02*
X004349Y004131D01*
X004235Y004131D02*
X004055Y004131D01*
X004145Y004131D02*
X004145Y004402D01*
X004055Y004312D01*
X003940Y004086D02*
X003760Y004086D01*
X003645Y004131D02*
X003465Y004131D01*
X003645Y004312D01*
X003645Y004357D01*
X003600Y004402D01*
X003510Y004402D01*
X003465Y004357D01*
X003261Y004402D02*
X003261Y004131D01*
X003171Y004131D02*
X003351Y004131D01*
X003171Y004312D02*
X003261Y004402D01*
X003056Y004357D02*
X003056Y004267D01*
X003011Y004222D01*
X002876Y004222D01*
X002876Y004131D02*
X002876Y004402D01*
X003011Y004402D01*
X003056Y004357D01*
X003011Y003302D02*
X003056Y003257D01*
X003056Y003212D01*
X003011Y003167D01*
X003056Y003122D01*
X003056Y003077D01*
X003011Y003031D01*
X002921Y003031D01*
X002876Y003077D01*
X002966Y003167D02*
X003011Y003167D01*
X003011Y003302D02*
X002921Y003302D01*
X002876Y003257D01*
X003171Y003302D02*
X003171Y003122D01*
X003261Y003031D01*
X003351Y003122D01*
X003351Y003302D01*
X003465Y003257D02*
X003510Y003302D01*
X003600Y003302D01*
X003645Y003257D01*
X003645Y003212D01*
X003600Y003167D01*
X003645Y003122D01*
X003645Y003077D01*
X003600Y003031D01*
X003510Y003031D01*
X003465Y003077D01*
X003555Y003167D02*
X003600Y003167D01*
X003600Y002302D02*
X003645Y002257D01*
X003465Y002077D01*
X003510Y002031D01*
X003600Y002031D01*
X003645Y002077D01*
X003645Y002257D01*
X003600Y002302D02*
X003510Y002302D01*
X003465Y002257D01*
X003465Y002077D01*
X003351Y002122D02*
X003351Y002302D01*
X003171Y002302D02*
X003171Y002122D01*
X003261Y002031D01*
X003351Y002122D01*
X003056Y002167D02*
X003056Y002077D01*
X003011Y002031D01*
X002921Y002031D01*
X002876Y002077D01*
X002876Y002167D02*
X002966Y002212D01*
X003011Y002212D01*
X003056Y002167D01*
X003056Y002302D02*
X002876Y002302D01*
X002876Y002167D01*
X002921Y001302D02*
X002876Y001257D01*
X002876Y001077D01*
X002921Y001031D01*
X003011Y001031D01*
X003056Y001077D01*
X003056Y001167D01*
X002966Y001167D01*
X003056Y001257D02*
X003011Y001302D01*
X002921Y001302D01*
X003171Y001302D02*
X003351Y001031D01*
X003351Y001302D01*
X003465Y001302D02*
X003600Y001302D01*
X003645Y001257D01*
X003645Y001077D01*
X003600Y001031D01*
X003465Y001031D01*
X003465Y001302D01*
X003171Y001302D02*
X003171Y001031D01*
X001751Y000652D02*
X001571Y000652D01*
X001571Y000517D01*
X001661Y000562D01*
X001706Y000562D01*
X001751Y000517D01*
X001751Y000427D01*
X001706Y000381D01*
X001616Y000381D01*
X001571Y000427D01*
X001411Y000427D02*
X001411Y000652D01*
X001366Y000652D02*
X001456Y000652D01*
X001411Y000427D02*
X001366Y000381D01*
X001321Y000381D01*
X001276Y000427D01*
X004824Y004357D02*
X004779Y004402D01*
X007606Y004507D02*
X007651Y004462D01*
X007831Y004462D01*
X007651Y004642D01*
X007831Y004642D01*
X007876Y004597D01*
X007876Y004507D01*
X007831Y004462D01*
X007921Y004347D02*
X007921Y004167D01*
X007876Y004008D02*
X007606Y004008D01*
X007741Y003873D01*
X007741Y004053D01*
X007741Y003758D02*
X007786Y003713D01*
X007786Y003578D01*
X007876Y003578D02*
X007606Y003578D01*
X007606Y003713D01*
X007651Y003758D01*
X007741Y003758D01*
X007876Y003472D02*
X007786Y003381D01*
X007696Y003381D01*
X007606Y003472D01*
X008506Y003472D02*
X008596Y003381D01*
X008686Y003381D01*
X008776Y003472D01*
X008776Y003578D02*
X008506Y003578D01*
X008506Y003713D01*
X008551Y003758D01*
X008641Y003758D01*
X008686Y003713D01*
X008686Y003578D01*
X008641Y003873D02*
X008506Y004008D01*
X008776Y004008D01*
X008641Y004053D02*
X008641Y003873D01*
X008821Y004167D02*
X008821Y004347D01*
X008776Y004462D02*
X008776Y004642D01*
X008776Y004552D02*
X008506Y004552D01*
X008596Y004462D01*
X008506Y004757D02*
X008596Y004847D01*
X008686Y004847D01*
X008776Y004757D01*
X009606Y004757D02*
X009696Y004847D01*
X009786Y004847D01*
X009876Y004757D01*
X009876Y004642D02*
X009876Y004462D01*
X009696Y004642D01*
X009651Y004642D01*
X009606Y004597D01*
X009606Y004507D01*
X009651Y004462D01*
X009921Y004347D02*
X009921Y004167D01*
X009876Y004008D02*
X009606Y004008D01*
X009741Y003873D01*
X009741Y004053D01*
X009741Y003758D02*
X009651Y003758D01*
X009606Y003713D01*
X009606Y003578D01*
X009876Y003578D01*
X009786Y003578D02*
X009786Y003713D01*
X009741Y003758D01*
X009876Y003472D02*
X009786Y003381D01*
X009696Y003381D01*
X009606Y003472D01*
X010606Y003472D02*
X010696Y003381D01*
X010786Y003381D01*
X010876Y003472D01*
X010876Y003578D02*
X010606Y003578D01*
X010606Y003713D01*
X010651Y003758D01*
X010741Y003758D01*
X010786Y003713D01*
X010786Y003578D01*
X010741Y003873D02*
X010606Y004008D01*
X010876Y004008D01*
X010741Y004053D02*
X010741Y003873D01*
X010921Y004167D02*
X010921Y004347D01*
X010831Y004462D02*
X010876Y004507D01*
X010876Y004597D01*
X010831Y004642D01*
X010786Y004642D01*
X010741Y004597D01*
X010741Y004552D01*
X010741Y004597D02*
X010696Y004642D01*
X010651Y004642D01*
X010606Y004597D01*
X010606Y004507D01*
X010651Y004462D01*
X010606Y004757D02*
X010696Y004847D01*
X010786Y004847D01*
X010876Y004757D01*
X011506Y004757D02*
X011596Y004847D01*
X011686Y004847D01*
X011776Y004757D01*
X011776Y004597D02*
X011506Y004597D01*
X011641Y004462D01*
X011641Y004642D01*
X011821Y004347D02*
X011821Y004167D01*
X011776Y004008D02*
X011506Y004008D01*
X011641Y003873D01*
X011641Y004053D01*
X011641Y003758D02*
X011686Y003713D01*
X011686Y003578D01*
X011776Y003578D02*
X011506Y003578D01*
X011506Y003713D01*
X011551Y003758D01*
X011641Y003758D01*
X011776Y003472D02*
X011686Y003381D01*
X011596Y003381D01*
X011506Y003472D01*
X012506Y003472D02*
X012596Y003381D01*
X012686Y003381D01*
X012776Y003472D01*
X012776Y003578D02*
X012506Y003578D01*
X012506Y003713D01*
X012551Y003758D01*
X012641Y003758D01*
X012686Y003713D01*
X012686Y003578D01*
X012641Y003873D02*
X012506Y004008D01*
X012776Y004008D01*
X012641Y004053D02*
X012641Y003873D01*
X012821Y004167D02*
X012821Y004347D01*
X012731Y004462D02*
X012776Y004507D01*
X012776Y004597D01*
X012731Y004642D01*
X012641Y004642D01*
X012596Y004597D01*
X012596Y004552D01*
X012641Y004462D01*
X012506Y004462D01*
X012506Y004642D01*
X012506Y004757D02*
X012596Y004847D01*
X012686Y004847D01*
X012776Y004757D01*
X013506Y004757D02*
X013596Y004847D01*
X013686Y004847D01*
X013776Y004757D01*
X013731Y004642D02*
X013686Y004642D01*
X013641Y004597D01*
X013641Y004462D01*
X013731Y004462D01*
X013776Y004507D01*
X013776Y004597D01*
X013731Y004642D01*
X013551Y004552D02*
X013641Y004462D01*
X013551Y004552D02*
X013506Y004642D01*
X013821Y004347D02*
X013821Y004167D01*
X013776Y004008D02*
X013506Y004008D01*
X013641Y003873D01*
X013641Y004053D01*
X013641Y003758D02*
X013551Y003758D01*
X013506Y003713D01*
X013506Y003578D01*
X013776Y003578D01*
X013686Y003578D02*
X013686Y003713D01*
X013641Y003758D01*
X013776Y003472D02*
X013686Y003381D01*
X013596Y003381D01*
X013506Y003472D01*
X014506Y003472D02*
X014596Y003381D01*
X014686Y003381D01*
X014776Y003472D01*
X014776Y003578D02*
X014506Y003578D01*
X014506Y003713D01*
X014551Y003758D01*
X014641Y003758D01*
X014686Y003713D01*
X014686Y003578D01*
X014641Y003873D02*
X014506Y004008D01*
X014776Y004008D01*
X014641Y004053D02*
X014641Y003873D01*
X014821Y004167D02*
X014821Y004347D01*
X014776Y004462D02*
X014731Y004462D01*
X014551Y004642D01*
X014506Y004642D01*
X014506Y004462D01*
X014506Y004757D02*
X014596Y004847D01*
X014686Y004847D01*
X014776Y004757D01*
X016006Y004757D02*
X016096Y004847D01*
X016186Y004847D01*
X016276Y004757D01*
X016231Y004642D02*
X016051Y004642D01*
X016231Y004462D01*
X016276Y004507D01*
X016276Y004597D01*
X016231Y004642D01*
X016231Y004462D02*
X016051Y004462D01*
X016006Y004507D01*
X016006Y004597D01*
X016051Y004642D01*
X016321Y004347D02*
X016321Y004167D01*
X016231Y004053D02*
X016051Y004053D01*
X016231Y003873D01*
X016276Y003918D01*
X016276Y004008D01*
X016231Y004053D01*
X016051Y004053D02*
X016006Y004008D01*
X016006Y003918D01*
X016051Y003873D01*
X016231Y003873D01*
X016141Y003758D02*
X016186Y003713D01*
X016186Y003578D01*
X016276Y003578D02*
X016006Y003578D01*
X016006Y003713D01*
X016051Y003758D01*
X016141Y003758D01*
X016276Y003472D02*
X016186Y003381D01*
X016096Y003381D01*
X016006Y003472D01*
X017006Y003472D02*
X017096Y003381D01*
X017186Y003381D01*
X017276Y003472D01*
X017276Y003578D02*
X017006Y003578D01*
X017006Y003713D01*
X017051Y003758D01*
X017141Y003758D01*
X017186Y003713D01*
X017186Y003578D01*
X017231Y003873D02*
X017051Y004053D01*
X017231Y004053D01*
X017276Y004008D01*
X017276Y003918D01*
X017231Y003873D01*
X017051Y003873D01*
X017006Y003918D01*
X017006Y004008D01*
X017051Y004053D01*
X017321Y004167D02*
X017321Y004347D01*
X017276Y004462D02*
X017276Y004642D01*
X017276Y004552D02*
X017006Y004552D01*
X017096Y004462D01*
X017006Y004757D02*
X017096Y004847D01*
X017186Y004847D01*
X017276Y004757D01*
X018006Y004757D02*
X018096Y004847D01*
X018186Y004847D01*
X018276Y004757D01*
X018276Y004642D02*
X018276Y004462D01*
X018096Y004642D01*
X018051Y004642D01*
X018006Y004597D01*
X018006Y004507D01*
X018051Y004462D01*
X018321Y004347D02*
X018321Y004167D01*
X018231Y004053D02*
X018276Y004008D01*
X018276Y003918D01*
X018231Y003873D01*
X018051Y004053D01*
X018231Y004053D01*
X018051Y004053D02*
X018006Y004008D01*
X018006Y003918D01*
X018051Y003873D01*
X018231Y003873D01*
X018141Y003758D02*
X018186Y003713D01*
X018186Y003578D01*
X018276Y003578D02*
X018006Y003578D01*
X018006Y003713D01*
X018051Y003758D01*
X018141Y003758D01*
X018276Y003472D02*
X018186Y003381D01*
X018096Y003381D01*
X018006Y003472D01*
X019006Y003472D02*
X019096Y003381D01*
X019186Y003381D01*
X019276Y003472D01*
X019276Y003578D02*
X019006Y003578D01*
X019006Y003713D01*
X019051Y003758D01*
X019141Y003758D01*
X019186Y003713D01*
X019186Y003578D01*
X019231Y003873D02*
X019051Y004053D01*
X019231Y004053D01*
X019276Y004008D01*
X019276Y003918D01*
X019231Y003873D01*
X019051Y003873D01*
X019006Y003918D01*
X019006Y004008D01*
X019051Y004053D01*
X019321Y004167D02*
X019321Y004347D01*
X019231Y004462D02*
X019276Y004507D01*
X019276Y004597D01*
X019231Y004642D01*
X019186Y004642D01*
X019141Y004597D01*
X019141Y004552D01*
X019141Y004597D02*
X019096Y004642D01*
X019051Y004642D01*
X019006Y004597D01*
X019006Y004507D01*
X019051Y004462D01*
X019006Y004757D02*
X019096Y004847D01*
X019186Y004847D01*
X019276Y004757D01*
X020006Y004757D02*
X020096Y004847D01*
X020186Y004847D01*
X020276Y004757D01*
X020276Y004597D02*
X020006Y004597D01*
X020141Y004462D01*
X020141Y004642D01*
X020321Y004347D02*
X020321Y004167D01*
X020231Y004053D02*
X020051Y004053D01*
X020231Y003873D01*
X020276Y003918D01*
X020276Y004008D01*
X020231Y004053D01*
X020051Y004053D02*
X020006Y004008D01*
X020006Y003918D01*
X020051Y003873D01*
X020231Y003873D01*
X020141Y003758D02*
X020051Y003758D01*
X020006Y003713D01*
X020006Y003578D01*
X020276Y003578D01*
X020186Y003578D02*
X020186Y003713D01*
X020141Y003758D01*
X020276Y003472D02*
X020186Y003381D01*
X020096Y003381D01*
X020006Y003472D01*
X021006Y003472D02*
X021096Y003381D01*
X021186Y003381D01*
X021276Y003472D01*
X021276Y003578D02*
X021006Y003578D01*
X021006Y003713D01*
X021051Y003758D01*
X021141Y003758D01*
X021186Y003713D01*
X021186Y003578D01*
X021231Y003873D02*
X021051Y004053D01*
X021231Y004053D01*
X021276Y004008D01*
X021276Y003918D01*
X021231Y003873D01*
X021051Y003873D01*
X021006Y003918D01*
X021006Y004008D01*
X021051Y004053D01*
X021321Y004167D02*
X021321Y004347D01*
X021231Y004462D02*
X021276Y004507D01*
X021276Y004597D01*
X021231Y004642D01*
X021141Y004642D01*
X021096Y004597D01*
X021096Y004552D01*
X021141Y004462D01*
X021006Y004462D01*
X021006Y004642D01*
X021006Y004757D02*
X021096Y004847D01*
X021186Y004847D01*
X021276Y004757D01*
X022496Y004602D02*
X022541Y004647D01*
X022586Y004647D01*
X022631Y004602D01*
X022676Y004647D01*
X022721Y004647D01*
X022766Y004602D01*
X022766Y004512D01*
X022721Y004467D01*
X022631Y004557D02*
X022631Y004602D01*
X022496Y004602D02*
X022496Y004512D01*
X022541Y004467D01*
X022541Y004352D02*
X022631Y004352D01*
X022676Y004307D01*
X022676Y004172D01*
X022766Y004172D02*
X022496Y004172D01*
X022496Y004307D01*
X022541Y004352D01*
X022496Y004058D02*
X022496Y003968D01*
X022496Y004013D02*
X022721Y004013D01*
X022766Y003968D01*
X022766Y003923D01*
X022721Y003878D01*
X023196Y005681D02*
X023106Y005772D01*
X023106Y005878D02*
X023106Y006013D01*
X023151Y006058D01*
X023241Y006058D01*
X023286Y006013D01*
X023286Y005878D01*
X023376Y005878D02*
X023106Y005878D01*
X023196Y005681D02*
X023286Y005681D01*
X023376Y005772D01*
X023376Y006173D02*
X023376Y006353D01*
X023376Y006263D02*
X023106Y006263D01*
X023196Y006173D01*
X023151Y006467D02*
X023106Y006512D01*
X023106Y006602D01*
X023151Y006647D01*
X023196Y006647D01*
X023376Y006467D01*
X023376Y006647D01*
X023421Y006762D02*
X023421Y006942D01*
X023376Y007057D02*
X023196Y007237D01*
X023151Y007237D01*
X023106Y007192D01*
X023106Y007102D01*
X023151Y007057D01*
X023376Y007057D02*
X023376Y007237D01*
X023376Y007351D02*
X023286Y007441D01*
X023196Y007441D01*
X023106Y007351D01*
X024006Y007351D02*
X024096Y007441D01*
X024186Y007441D01*
X024276Y007351D01*
X024276Y007237D02*
X024276Y007057D01*
X024276Y007147D02*
X024006Y007147D01*
X024096Y007057D01*
X024321Y006942D02*
X024321Y006762D01*
X024276Y006647D02*
X024276Y006467D01*
X024096Y006647D01*
X024051Y006647D01*
X024006Y006602D01*
X024006Y006512D01*
X024051Y006467D01*
X024006Y006263D02*
X024276Y006263D01*
X024276Y006173D02*
X024276Y006353D01*
X024096Y006173D02*
X024006Y006263D01*
X024051Y006058D02*
X024006Y006013D01*
X024006Y005878D01*
X024276Y005878D01*
X024186Y005878D02*
X024186Y006013D01*
X024141Y006058D01*
X024051Y006058D01*
X024006Y005772D02*
X024096Y005681D01*
X024186Y005681D01*
X024276Y005772D01*
X025006Y005772D02*
X025096Y005681D01*
X025186Y005681D01*
X025276Y005772D01*
X025276Y005878D02*
X025006Y005878D01*
X025006Y006013D01*
X025051Y006058D01*
X025141Y006058D01*
X025186Y006013D01*
X025186Y005878D01*
X025276Y006173D02*
X025276Y006353D01*
X025276Y006263D02*
X025006Y006263D01*
X025096Y006173D01*
X025051Y006467D02*
X025006Y006512D01*
X025006Y006602D01*
X025051Y006647D01*
X025096Y006647D01*
X025276Y006467D01*
X025276Y006647D01*
X025321Y006762D02*
X025321Y006942D01*
X025231Y007057D02*
X025051Y007237D01*
X025231Y007237D01*
X025276Y007192D01*
X025276Y007102D01*
X025231Y007057D01*
X025051Y007057D01*
X025006Y007102D01*
X025006Y007192D01*
X025051Y007237D01*
X025006Y007351D02*
X025096Y007441D01*
X025186Y007441D01*
X025276Y007351D01*
X022561Y013801D02*
X022606Y013847D01*
X022606Y013892D01*
X022561Y013937D01*
X022336Y013937D01*
X022336Y013892D02*
X022336Y013982D01*
X022336Y014096D02*
X022336Y014231D01*
X022381Y014276D01*
X022471Y014276D01*
X022516Y014231D01*
X022516Y014096D01*
X022606Y014096D02*
X022336Y014096D01*
X022381Y014391D02*
X022336Y014436D01*
X022336Y014526D01*
X022381Y014571D01*
X022426Y014571D01*
X022606Y014391D01*
X022606Y014571D01*
X022556Y015631D02*
X022691Y015631D01*
X022646Y015722D01*
X022646Y015767D01*
X022691Y015812D01*
X022781Y015812D01*
X022826Y015767D01*
X022826Y015677D01*
X022781Y015631D01*
X022556Y015631D02*
X022556Y015812D01*
X022556Y015926D02*
X022736Y015926D01*
X022826Y016016D01*
X022736Y016106D01*
X022556Y016106D01*
X022601Y016221D02*
X022556Y016266D01*
X022556Y016356D01*
X022601Y016401D01*
X022781Y016221D01*
X022826Y016266D01*
X022826Y016356D01*
X022781Y016401D01*
X022601Y016401D01*
X022601Y016221D02*
X022781Y016221D01*
X023336Y016792D02*
X023336Y016882D01*
X023336Y016837D02*
X023561Y016837D01*
X023606Y016792D01*
X023606Y016747D01*
X023561Y016701D01*
X023606Y016996D02*
X023336Y016996D01*
X023336Y017131D01*
X023381Y017176D01*
X023471Y017176D01*
X023516Y017131D01*
X023516Y016996D01*
X023606Y017291D02*
X023606Y017471D01*
X023606Y017381D02*
X023336Y017381D01*
X023426Y017291D01*
X022656Y017631D02*
X022476Y017631D01*
X022566Y017631D02*
X022566Y017902D01*
X022476Y017812D01*
X021656Y017812D02*
X021476Y017631D01*
X021656Y017631D01*
X021656Y017812D02*
X021656Y017857D01*
X021611Y017902D01*
X021521Y017902D01*
X021476Y017857D01*
X020776Y018281D02*
X020776Y018372D01*
X020776Y018327D02*
X020506Y018327D01*
X020506Y018372D02*
X020506Y018281D01*
X020551Y018478D02*
X020731Y018478D01*
X020776Y018523D01*
X020776Y018613D01*
X020731Y018658D01*
X020551Y018658D01*
X020506Y018613D01*
X020506Y018523D01*
X020551Y018478D01*
X020506Y018773D02*
X020506Y018908D01*
X020551Y018953D01*
X020641Y018953D01*
X020686Y018908D01*
X020686Y018773D01*
X020686Y018863D02*
X020776Y018953D01*
X020776Y019067D02*
X020506Y019067D01*
X020506Y019247D01*
X020506Y019362D02*
X020506Y019542D01*
X020641Y019452D02*
X020641Y019362D01*
X020776Y019362D02*
X020506Y019362D01*
X020641Y019157D02*
X020641Y019067D01*
X020776Y019067D02*
X020776Y019247D01*
X020776Y018773D02*
X020506Y018773D01*
X019776Y018351D02*
X019686Y018441D01*
X019596Y018441D01*
X019506Y018351D01*
X019551Y018237D02*
X019596Y018237D01*
X019641Y018192D01*
X019686Y018237D01*
X019731Y018237D01*
X019776Y018192D01*
X019776Y018102D01*
X019731Y018057D01*
X019641Y018147D02*
X019641Y018192D01*
X019551Y018237D02*
X019506Y018192D01*
X019506Y018102D01*
X019551Y018057D01*
X019821Y017942D02*
X019821Y017762D01*
X019776Y017647D02*
X019776Y017467D01*
X019596Y017647D01*
X019551Y017647D01*
X019506Y017602D01*
X019506Y017512D01*
X019551Y017467D01*
X019506Y017263D02*
X019776Y017263D01*
X019776Y017173D02*
X019776Y017353D01*
X019596Y017173D02*
X019506Y017263D01*
X019551Y017058D02*
X019641Y017058D01*
X019686Y017013D01*
X019686Y016878D01*
X019776Y016878D02*
X019506Y016878D01*
X019506Y017013D01*
X019551Y017058D01*
X019506Y016772D02*
X019596Y016681D01*
X019686Y016681D01*
X019776Y016772D01*
X020556Y016356D02*
X020601Y016401D01*
X020646Y016401D01*
X020691Y016356D01*
X020736Y016401D01*
X020781Y016401D01*
X020826Y016356D01*
X020826Y016266D01*
X020781Y016221D01*
X020736Y016106D02*
X020556Y016106D01*
X020601Y016221D02*
X020556Y016266D01*
X020556Y016356D01*
X020691Y016356D02*
X020691Y016311D01*
X020736Y016106D02*
X020826Y016016D01*
X020736Y015926D01*
X020556Y015926D01*
X020601Y015812D02*
X020646Y015812D01*
X020691Y015767D01*
X020736Y015812D01*
X020781Y015812D01*
X020826Y015767D01*
X020826Y015677D01*
X020781Y015631D01*
X020691Y015722D02*
X020691Y015767D01*
X020601Y015812D02*
X020556Y015767D01*
X020556Y015677D01*
X020601Y015631D01*
X020611Y017631D02*
X020521Y017631D01*
X020476Y017677D01*
X020566Y017767D02*
X020611Y017767D01*
X020656Y017722D01*
X020656Y017677D01*
X020611Y017631D01*
X020611Y017767D02*
X020656Y017812D01*
X020656Y017857D01*
X020611Y017902D01*
X020521Y017902D01*
X020476Y017857D01*
X021506Y018781D02*
X021506Y018917D01*
X021551Y018962D01*
X021641Y018962D01*
X021686Y018917D01*
X021686Y018781D01*
X021776Y018781D02*
X021506Y018781D01*
X021686Y018872D02*
X021776Y018962D01*
X021776Y019076D02*
X021596Y019076D01*
X021506Y019166D01*
X021596Y019256D01*
X021776Y019256D01*
X021776Y019371D02*
X021686Y019461D01*
X021776Y019551D01*
X021506Y019551D01*
X021506Y019371D02*
X021776Y019371D01*
X021641Y019256D02*
X021641Y019076D01*
X022162Y020591D02*
X022207Y020591D01*
X022252Y020637D01*
X022252Y020862D01*
X022207Y020862D02*
X022297Y020862D01*
X022411Y020772D02*
X022501Y020862D01*
X022501Y020591D01*
X022411Y020591D02*
X022591Y020591D01*
X022162Y020591D02*
X022117Y020637D01*
X004529Y020302D02*
X004439Y020257D01*
X004349Y020167D01*
X004484Y020167D01*
X004529Y020122D01*
X004529Y020077D01*
X004484Y020031D01*
X004394Y020031D01*
X004349Y020077D01*
X004349Y020167D01*
X004235Y020302D02*
X004055Y020031D01*
X003940Y020257D02*
X003760Y020077D01*
X003760Y020031D01*
X003645Y019986D02*
X003465Y019986D01*
X003351Y020077D02*
X003306Y020031D01*
X003216Y020031D01*
X003171Y020077D01*
X003261Y020167D02*
X003306Y020167D01*
X003351Y020122D01*
X003351Y020077D01*
X003306Y020167D02*
X003351Y020212D01*
X003351Y020257D01*
X003306Y020302D01*
X003216Y020302D01*
X003171Y020257D01*
X003056Y020257D02*
X003011Y020302D01*
X002876Y020302D01*
X002876Y020031D01*
X002876Y020122D02*
X003011Y020122D01*
X003056Y020167D01*
X003056Y020257D01*
X003760Y020302D02*
X003940Y020302D01*
X003940Y020257D01*
X001940Y020831D02*
X001760Y020831D01*
X001940Y021012D01*
X001940Y021057D01*
X001895Y021102D01*
X001805Y021102D01*
X001760Y021057D01*
X001056Y020831D02*
X000876Y020831D01*
X000966Y020831D02*
X000966Y021102D01*
X000876Y021012D01*
X004484Y017402D02*
X004529Y017357D01*
X004484Y012402D02*
X004529Y012357D01*
X003011Y010402D02*
X003056Y010357D01*
X003056Y010267D01*
X003011Y010222D01*
X002876Y010222D01*
X002876Y010131D02*
X002876Y010402D01*
X003011Y010402D01*
X004484Y007402D02*
X004529Y007357D01*
X007606Y004757D02*
X007696Y004847D01*
X007786Y004847D01*
X007876Y004757D01*
X007651Y004642D02*
X007606Y004597D01*
X007606Y004507D01*
X007226Y000722D02*
X007271Y000677D01*
X007271Y000632D01*
X007226Y000587D01*
X007271Y000542D01*
X007271Y000497D01*
X007226Y000451D01*
X007136Y000451D01*
X007091Y000497D01*
X007181Y000587D02*
X007226Y000587D01*
X007226Y000722D02*
X007136Y000722D01*
X007091Y000677D01*
X006976Y000722D02*
X006886Y000722D01*
X006931Y000722D02*
X006931Y000497D01*
X006886Y000451D01*
X006841Y000451D01*
X006796Y000497D01*
X015296Y000497D02*
X015341Y000451D01*
X015386Y000451D01*
X015431Y000497D01*
X015431Y000722D01*
X015386Y000722D02*
X015476Y000722D01*
X015591Y000587D02*
X015771Y000587D01*
X015726Y000722D02*
X015726Y000451D01*
X015591Y000587D02*
X015726Y000722D01*
D13*
X006094Y012276D03*
X007504Y012996D03*
X008134Y012996D03*
X008314Y013076D03*
X008534Y013776D03*
X008544Y013786D03*
X008244Y013866D03*
X008244Y014156D03*
X008624Y014166D03*
X008624Y014176D03*
X008804Y014786D03*
X009524Y014646D03*
X009524Y014636D03*
X009534Y014596D03*
X009534Y014586D03*
X009534Y014576D03*
X009534Y014566D03*
X009544Y014506D03*
X009544Y014496D03*
X009544Y014486D03*
X009544Y014476D03*
X009544Y014466D03*
X009544Y014456D03*
X009544Y014206D03*
X009544Y014196D03*
X009544Y014186D03*
X009544Y014176D03*
X009544Y014166D03*
X009544Y014156D03*
X009534Y014096D03*
X009534Y014086D03*
X009534Y014076D03*
X009534Y014066D03*
X009534Y014056D03*
X009524Y014026D03*
X009524Y014016D03*
X009524Y014006D03*
X007824Y014106D03*
X007814Y013916D03*
X007394Y013866D03*
X007004Y014176D03*
X007004Y014186D03*
X006084Y014236D03*
X006084Y014246D03*
X006084Y014256D03*
X006084Y014266D03*
X006084Y014276D03*
X006084Y014286D03*
X006084Y014296D03*
X006084Y014306D03*
X006084Y014316D03*
X006084Y014326D03*
X006084Y014336D03*
X006084Y014346D03*
X006084Y014356D03*
X006084Y014366D03*
X006084Y014376D03*
X006084Y014386D03*
X006084Y014396D03*
X006084Y014406D03*
X006084Y014416D03*
X006084Y014426D03*
X006104Y014596D03*
X006114Y014656D03*
X006114Y014666D03*
X008184Y015636D03*
D14*
X008184Y015626D03*
X009444Y014936D03*
X009454Y014906D03*
X009454Y014896D03*
X009464Y014876D03*
X009474Y014856D03*
X009474Y014846D03*
X009474Y014836D03*
X009484Y014816D03*
X009484Y014806D03*
X009494Y014776D03*
X009504Y014736D03*
X008614Y014206D03*
X008614Y014196D03*
X008244Y014146D03*
X007814Y014136D03*
X007814Y013896D03*
X007114Y013756D03*
X007024Y014216D03*
X006844Y014796D03*
X006204Y014966D03*
X006194Y014946D03*
X006194Y014936D03*
X006184Y014916D03*
X006174Y014896D03*
X006174Y014886D03*
X006174Y014876D03*
X006164Y014866D03*
X006164Y014856D03*
X006164Y014846D03*
X006154Y014826D03*
X006154Y014816D03*
X006094Y014116D03*
X006094Y014106D03*
X006094Y014096D03*
X006094Y014086D03*
X006094Y014076D03*
X006094Y014066D03*
X006094Y013216D03*
X006094Y013206D03*
X006094Y013196D03*
X006094Y013186D03*
X006094Y013176D03*
X006094Y013166D03*
X006094Y013156D03*
X006094Y013146D03*
X006094Y013136D03*
X006094Y013126D03*
X006094Y013116D03*
X006094Y013106D03*
X006094Y013096D03*
X006094Y013086D03*
X006094Y013076D03*
X006094Y013066D03*
X006094Y013056D03*
X006094Y013046D03*
X006094Y013036D03*
X006094Y013026D03*
X006094Y013016D03*
X006094Y013006D03*
X006094Y012996D03*
X006094Y012986D03*
X006094Y012976D03*
X006094Y012966D03*
X006094Y012956D03*
X006094Y012946D03*
X006094Y012936D03*
X006094Y012926D03*
X006094Y012916D03*
X006094Y012906D03*
X006094Y012896D03*
X006094Y012886D03*
X006094Y012876D03*
X006094Y012866D03*
X006094Y012856D03*
X006094Y012846D03*
X006094Y012836D03*
X006094Y012826D03*
X006094Y012816D03*
X006094Y012806D03*
X006094Y012796D03*
X006094Y012786D03*
X006094Y012776D03*
X006094Y012766D03*
X006094Y012756D03*
X006094Y012746D03*
X006094Y012736D03*
X006094Y012726D03*
X006094Y012716D03*
X006094Y012706D03*
X006094Y012696D03*
X006094Y012686D03*
X006094Y012676D03*
X006094Y012666D03*
X006094Y012656D03*
X006094Y012646D03*
X006094Y012636D03*
X006094Y012626D03*
X006094Y012616D03*
X006094Y012606D03*
X006094Y012596D03*
X006094Y012586D03*
X006094Y012576D03*
X006094Y012566D03*
X006094Y012556D03*
X006094Y012546D03*
X006094Y012536D03*
X006094Y012526D03*
X006094Y012516D03*
X006094Y012506D03*
X006094Y012496D03*
X006094Y012486D03*
X006094Y012476D03*
X006094Y012466D03*
X006094Y012456D03*
X006094Y012446D03*
X006094Y012436D03*
X006094Y012426D03*
X006094Y012416D03*
X006094Y012406D03*
X006094Y012396D03*
X006094Y012386D03*
X006094Y012376D03*
X006094Y012366D03*
X006094Y012356D03*
X006094Y012346D03*
X006094Y012336D03*
X006094Y012326D03*
X006094Y012316D03*
X006094Y012306D03*
X006094Y012296D03*
X006094Y012286D03*
X007374Y013056D03*
X007484Y013006D03*
X008514Y013756D03*
X009444Y013726D03*
X009454Y013756D03*
X009464Y013786D03*
X009474Y013806D03*
X009474Y013816D03*
X009474Y013826D03*
X009484Y013846D03*
X009484Y013856D03*
X009504Y013926D03*
D15*
X009184Y014046D03*
X008244Y014026D03*
X008244Y014016D03*
X008244Y014006D03*
X008244Y013996D03*
X008124Y013896D03*
X008244Y013816D03*
X007894Y013956D03*
X008124Y014126D03*
X007504Y014136D03*
X007394Y014036D03*
X007394Y014026D03*
X007394Y013976D03*
X007504Y013886D03*
X007514Y013896D03*
X007264Y013896D03*
X007264Y014126D03*
X006464Y014086D03*
X006454Y014056D03*
X006444Y014026D03*
X006914Y014896D03*
X007714Y012896D03*
X007824Y012436D03*
D16*
X007824Y012446D03*
X008824Y013526D03*
X008834Y013536D03*
X008844Y013546D03*
X009174Y013256D03*
X009154Y013226D03*
X009144Y013216D03*
X009134Y013206D03*
X009124Y013196D03*
X007804Y014186D03*
X006874Y014776D03*
X006454Y015396D03*
X006464Y015406D03*
X006474Y015416D03*
X007364Y015446D03*
X007444Y015626D03*
X007814Y015466D03*
X008184Y015586D03*
X007814Y016216D03*
X009144Y015436D03*
X009154Y015426D03*
X009164Y015416D03*
X009174Y015406D03*
X009184Y015386D03*
X009194Y015376D03*
X006814Y013526D03*
X006804Y013536D03*
X006494Y013216D03*
X006504Y013206D03*
X006134Y013766D03*
X006134Y013776D03*
X006134Y013786D03*
D17*
X006204Y013496D03*
X006824Y012926D03*
X007814Y013256D03*
X007814Y013776D03*
X008824Y012936D03*
X007814Y012456D03*
X008834Y015716D03*
X006814Y015726D03*
D18*
X006994Y015826D03*
X008644Y015826D03*
X008634Y014696D03*
X008414Y014406D03*
X007824Y012466D03*
X006264Y013326D03*
D19*
X007814Y013296D03*
X007824Y012476D03*
X007094Y015866D03*
D20*
X007114Y014676D03*
X007824Y012486D03*
D21*
X007814Y012496D03*
X007814Y013336D03*
D22*
X007814Y012506D03*
D23*
X007824Y012516D03*
X007814Y013386D03*
D24*
X007814Y013406D03*
X007824Y012526D03*
X007814Y016136D03*
D25*
X007814Y016126D03*
X007824Y014976D03*
X007814Y013426D03*
X007824Y012536D03*
D26*
X007819Y012546D03*
X007819Y013456D03*
D27*
X007814Y012556D03*
D28*
X007819Y012566D03*
X007819Y013516D03*
X007809Y015006D03*
D29*
X007819Y015296D03*
X007819Y013536D03*
X007819Y012576D03*
D30*
X007824Y012586D03*
X007814Y013566D03*
X007824Y015216D03*
X007824Y015226D03*
D31*
X007829Y015176D03*
X007829Y015166D03*
X007799Y015026D03*
X007819Y016066D03*
X007819Y013586D03*
X007819Y012596D03*
D32*
X007819Y012606D03*
X007819Y013616D03*
X007829Y015086D03*
X007829Y015096D03*
X007829Y015106D03*
X007819Y016056D03*
D33*
X007819Y013656D03*
X007819Y012616D03*
D34*
X007819Y012626D03*
X007819Y013686D03*
X007819Y014536D03*
D35*
X007819Y013726D03*
X007819Y012636D03*
D36*
X007819Y012646D03*
D37*
X007819Y012656D03*
D38*
X007814Y012666D03*
D39*
X007824Y012676D03*
D40*
X007819Y012686D03*
X007819Y014376D03*
X007819Y014386D03*
X007819Y015976D03*
D41*
X007819Y012696D03*
D42*
X007819Y012706D03*
X007819Y015956D03*
D43*
X007819Y015946D03*
X007819Y014586D03*
X007819Y012716D03*
D44*
X007819Y012726D03*
X007819Y014596D03*
D45*
X007819Y015926D03*
X007819Y012736D03*
D46*
X007819Y012746D03*
X007819Y014606D03*
D47*
X007814Y012756D03*
D48*
X007199Y012766D03*
X007819Y013326D03*
X008439Y012766D03*
X007829Y014936D03*
D49*
X007164Y015886D03*
X007814Y016176D03*
X008474Y012776D03*
X007154Y012776D03*
D50*
X007109Y012786D03*
X008529Y012786D03*
X008539Y015866D03*
X007819Y016186D03*
D51*
X008564Y015856D03*
X006304Y013246D03*
X006304Y013236D03*
X007084Y012796D03*
D52*
X006309Y013226D03*
X008549Y012796D03*
D53*
X008574Y012806D03*
X007814Y013286D03*
X007054Y012806D03*
X006294Y013266D03*
X007034Y014696D03*
D54*
X006279Y013296D03*
X007029Y012816D03*
D55*
X006284Y013286D03*
X007824Y014276D03*
X007834Y014916D03*
X007044Y015846D03*
X008604Y012816D03*
D56*
X008629Y012826D03*
X007009Y012826D03*
X006269Y013316D03*
X007219Y014406D03*
D57*
X006989Y014716D03*
X008199Y015326D03*
X008659Y015816D03*
X006969Y015816D03*
X006259Y013336D03*
X006989Y012836D03*
X008649Y012836D03*
X008669Y012846D03*
D58*
X008689Y012856D03*
X006969Y012846D03*
X006949Y012856D03*
X006249Y013366D03*
X008689Y015806D03*
D59*
X008709Y015796D03*
X008219Y015336D03*
X007489Y015506D03*
X006929Y015796D03*
X006909Y015786D03*
X007819Y014266D03*
X008709Y012866D03*
X006929Y012866D03*
X006239Y013386D03*
X006239Y013396D03*
D60*
X006229Y013416D03*
X006909Y012876D03*
X007819Y014466D03*
X007419Y015336D03*
X006879Y015766D03*
X008219Y015346D03*
X008739Y015776D03*
D61*
X006949Y014916D03*
X007389Y013956D03*
X007759Y012876D03*
X007869Y012876D03*
D62*
X008724Y012876D03*
X006964Y014726D03*
X006894Y015776D03*
X008724Y015786D03*
X006234Y013406D03*
D63*
X006224Y013426D03*
X006224Y013436D03*
X006874Y012896D03*
X006894Y012886D03*
X008744Y012886D03*
X008684Y014716D03*
X008754Y015766D03*
X007484Y015516D03*
X006864Y015756D03*
D64*
X006929Y014906D03*
X007229Y014076D03*
X007219Y014056D03*
X007219Y014046D03*
X007219Y013976D03*
X007219Y013966D03*
X007229Y013956D03*
X007229Y013946D03*
X007559Y013956D03*
X007559Y013966D03*
X007559Y013976D03*
X007569Y013996D03*
X007569Y014006D03*
X007569Y014016D03*
X007569Y014026D03*
X007559Y014056D03*
X007559Y014066D03*
X007549Y014086D03*
X008069Y014046D03*
X008069Y014036D03*
X008069Y014026D03*
X008069Y014016D03*
X008069Y014006D03*
X008069Y013996D03*
X008069Y013986D03*
X008069Y013976D03*
X008069Y013966D03*
X008079Y013956D03*
X008079Y013946D03*
X008079Y014066D03*
X008079Y014076D03*
X008249Y014056D03*
X008409Y014066D03*
X008409Y014076D03*
X008419Y014036D03*
X008419Y014026D03*
X008419Y014016D03*
X008419Y014006D03*
X008419Y013996D03*
X008409Y013966D03*
X008409Y013956D03*
X008399Y013936D03*
X008239Y014276D03*
X008849Y014526D03*
X008189Y015716D03*
X007739Y012886D03*
D65*
X007894Y012886D03*
X008244Y013966D03*
X008414Y013976D03*
X008414Y013986D03*
X008414Y014046D03*
X008414Y014056D03*
X007564Y014046D03*
X007564Y014036D03*
X007564Y013986D03*
X007394Y013966D03*
X007214Y013986D03*
X007214Y013996D03*
X007214Y014006D03*
X007214Y014016D03*
X007214Y014026D03*
X007214Y014036D03*
X007224Y014066D03*
X008714Y014906D03*
X007824Y015406D03*
D66*
X007419Y015746D03*
X007819Y016226D03*
X007819Y014456D03*
X007519Y014126D03*
X007529Y014116D03*
X007529Y013906D03*
X007259Y013906D03*
X007249Y013916D03*
X007239Y013926D03*
X008099Y013916D03*
X008109Y013906D03*
X008239Y013986D03*
X008249Y014036D03*
X008369Y014126D03*
X008379Y014116D03*
X008389Y014106D03*
X008379Y013906D03*
X008369Y013896D03*
X008109Y014116D03*
X008099Y014106D03*
X007919Y012896D03*
D67*
X008759Y012896D03*
X008779Y012906D03*
X007809Y013766D03*
X006219Y013446D03*
X007409Y015346D03*
X007479Y015526D03*
X006849Y015746D03*
X008229Y015356D03*
X008769Y015756D03*
D68*
X008784Y015746D03*
X007474Y015536D03*
X006944Y014736D03*
X007814Y014256D03*
X006854Y012906D03*
X006214Y013456D03*
X006214Y013466D03*
X008794Y012916D03*
D69*
X007689Y012906D03*
X006999Y013466D03*
X007299Y013876D03*
X006569Y014286D03*
X006559Y014276D03*
X006549Y014256D03*
X006539Y014246D03*
X006529Y014226D03*
X006579Y014306D03*
X006589Y014316D03*
X006599Y014326D03*
X006799Y014516D03*
X006449Y013996D03*
X009019Y014346D03*
X009029Y014336D03*
X009039Y014326D03*
X009049Y014306D03*
X009059Y014296D03*
X009069Y014286D03*
X009079Y014266D03*
X009089Y014256D03*
X009099Y014236D03*
D70*
X009104Y014226D03*
X009114Y014216D03*
X009114Y014206D03*
X009124Y014196D03*
X009134Y014176D03*
X009144Y014156D03*
X009154Y014126D03*
X009184Y013996D03*
X009094Y014246D03*
X009074Y014276D03*
X008844Y014516D03*
X008764Y014876D03*
X008194Y015706D03*
X006894Y014886D03*
X006574Y014296D03*
X006554Y014266D03*
X006534Y014236D03*
X006524Y014216D03*
X006514Y014206D03*
X006514Y014196D03*
X006484Y014136D03*
X006444Y014006D03*
X007814Y013216D03*
X007944Y012906D03*
X008634Y013466D03*
X008134Y013886D03*
D71*
X007139Y014286D03*
X006209Y013486D03*
X006209Y013476D03*
X006839Y012916D03*
X008809Y012926D03*
X008229Y015366D03*
X008809Y015736D03*
X008819Y015726D03*
X007399Y015356D03*
X006829Y015736D03*
D72*
X006874Y014866D03*
X006674Y014406D03*
X006664Y014396D03*
X006654Y014386D03*
X006694Y013746D03*
X006704Y013736D03*
X006714Y013726D03*
X006724Y013716D03*
X006734Y013706D03*
X006744Y013696D03*
X006754Y013686D03*
X006784Y013416D03*
X006794Y013406D03*
X006804Y013396D03*
X007664Y012916D03*
X007974Y012916D03*
X008844Y013406D03*
X008854Y013416D03*
X008864Y013426D03*
X008844Y013656D03*
X008854Y013666D03*
X008864Y013676D03*
X008874Y013686D03*
X008914Y013716D03*
X008924Y013726D03*
X008934Y013736D03*
X008944Y013746D03*
X008954Y013756D03*
X008964Y013766D03*
X008974Y013776D03*
X008984Y013786D03*
X009174Y013966D03*
X008974Y014386D03*
X008964Y014396D03*
X008954Y014406D03*
X008944Y014416D03*
X008784Y014856D03*
X008614Y013966D03*
X008194Y015696D03*
D73*
X008929Y014426D03*
X009049Y013846D03*
X009039Y013836D03*
X009029Y013826D03*
X009019Y013816D03*
X009009Y013806D03*
X008999Y013796D03*
X008829Y013396D03*
X008819Y013386D03*
X008809Y013376D03*
X008799Y013366D03*
X007639Y012926D03*
X006849Y013356D03*
X006839Y013366D03*
X006829Y013376D03*
X006819Y013386D03*
X006679Y013756D03*
X006669Y013766D03*
X006659Y013776D03*
X006649Y013786D03*
X006639Y013796D03*
X006629Y013806D03*
X006619Y013816D03*
X006609Y013826D03*
X006599Y013836D03*
X006459Y013966D03*
X006689Y014416D03*
D74*
X006704Y014426D03*
X006804Y014506D03*
X006864Y014856D03*
X007814Y015416D03*
X007974Y015506D03*
X007424Y015726D03*
X008834Y014506D03*
X008914Y014436D03*
X009084Y013876D03*
X009074Y013866D03*
X009064Y013856D03*
X008784Y013356D03*
X008774Y013346D03*
X008764Y013336D03*
X008734Y013316D03*
X008244Y013826D03*
X008244Y014196D03*
X007394Y013826D03*
X006884Y013326D03*
X006874Y013336D03*
X006864Y013346D03*
X006584Y013846D03*
X006574Y013856D03*
X006564Y013866D03*
X006464Y013956D03*
X007994Y012926D03*
D75*
X008839Y012946D03*
X007819Y014246D03*
X007159Y014416D03*
X006199Y013516D03*
X006199Y013506D03*
X006809Y012936D03*
X008479Y014416D03*
X008709Y014726D03*
X008239Y015376D03*
X008849Y015706D03*
X007819Y016206D03*
X007469Y015546D03*
X006799Y015716D03*
D76*
X008189Y015686D03*
X008799Y014846D03*
X008809Y014836D03*
X008899Y014446D03*
X009169Y013956D03*
X009119Y013906D03*
X009109Y013896D03*
X009099Y013886D03*
X008749Y013326D03*
X008719Y013306D03*
X007619Y012936D03*
X006929Y013296D03*
X006899Y013316D03*
X006969Y013476D03*
X006549Y013876D03*
X006539Y013886D03*
X006509Y013906D03*
X006499Y013916D03*
X006489Y013926D03*
X006479Y013936D03*
X006469Y013946D03*
X006719Y014436D03*
X007389Y014196D03*
D77*
X006994Y013946D03*
X006984Y013956D03*
X007004Y013906D03*
X006524Y013896D03*
X006734Y014446D03*
X006754Y014456D03*
X006914Y013306D03*
X006944Y013286D03*
X006954Y013276D03*
X006984Y013256D03*
X008014Y012936D03*
X008664Y013266D03*
X008674Y013276D03*
X008694Y013286D03*
X008704Y013296D03*
X008664Y013476D03*
X009134Y013916D03*
X009144Y013926D03*
X009154Y013936D03*
X009164Y013946D03*
X008884Y014456D03*
X008814Y014826D03*
D78*
X008164Y015516D03*
X008864Y015696D03*
X008874Y015686D03*
X007464Y015556D03*
X007394Y015366D03*
X006784Y015706D03*
X006774Y015696D03*
X006754Y015686D03*
X006194Y013536D03*
X006194Y013526D03*
X006784Y012956D03*
X006794Y012946D03*
X008854Y012956D03*
D79*
X008609Y013226D03*
X008619Y013236D03*
X008639Y013246D03*
X008649Y013256D03*
X008239Y013836D03*
X008629Y013926D03*
X008639Y013946D03*
X008639Y013956D03*
X007849Y014896D03*
X007389Y014186D03*
X007389Y013836D03*
X007019Y013866D03*
X007019Y013876D03*
X007009Y013886D03*
X007009Y013896D03*
X006999Y013916D03*
X006999Y013926D03*
X006999Y013936D03*
X006969Y013266D03*
X006999Y013246D03*
X007009Y013236D03*
X007029Y013226D03*
X007059Y013206D03*
X007599Y012946D03*
X006839Y014836D03*
X006849Y014846D03*
X007419Y015716D03*
X008189Y015676D03*
D80*
X008824Y014816D03*
X008624Y014456D03*
X008244Y014186D03*
X008634Y013936D03*
X008624Y013916D03*
X008624Y013906D03*
X008614Y013896D03*
X008614Y013886D03*
X008594Y013216D03*
X008574Y013206D03*
X008554Y013196D03*
X008034Y012946D03*
X007094Y013186D03*
X007074Y013196D03*
X007044Y013216D03*
X007034Y013836D03*
X007034Y013846D03*
X007024Y013856D03*
X006974Y014046D03*
X006974Y014056D03*
X006974Y014066D03*
X006834Y014826D03*
D81*
X006819Y014496D03*
X007009Y014456D03*
X006979Y014086D03*
X006979Y014076D03*
X007039Y013826D03*
X007049Y013816D03*
X007109Y013176D03*
X007129Y013166D03*
X007149Y013156D03*
X007579Y012956D03*
X008509Y013166D03*
X008519Y013176D03*
X008539Y013186D03*
X008649Y014056D03*
X008819Y014496D03*
D82*
X008824Y014806D03*
X008244Y014176D03*
X008244Y013846D03*
X008594Y013856D03*
X008604Y013876D03*
X008644Y014066D03*
X008644Y014076D03*
X008484Y013156D03*
X008464Y013146D03*
X008054Y012956D03*
X006944Y013486D03*
X006984Y014096D03*
X006984Y014106D03*
X006834Y014816D03*
X007814Y015426D03*
X007424Y015706D03*
X008184Y015666D03*
D83*
X008239Y015386D03*
X008889Y015676D03*
X007389Y015376D03*
X006919Y014746D03*
X006739Y015676D03*
X007819Y013786D03*
X008869Y012966D03*
X008879Y012976D03*
X006769Y012966D03*
X006189Y013546D03*
D84*
X006994Y014126D03*
X006994Y014136D03*
X007064Y013796D03*
X007074Y013786D03*
X007814Y014056D03*
X008574Y013826D03*
X008584Y013836D03*
X008644Y014096D03*
X008424Y013126D03*
X007554Y012966D03*
X007224Y013116D03*
X007214Y013126D03*
X007194Y013136D03*
X008184Y015656D03*
D85*
X007389Y014176D03*
X007389Y013846D03*
X007059Y013806D03*
X006989Y014116D03*
X007169Y013146D03*
X008079Y012966D03*
X008449Y013136D03*
X008589Y013846D03*
X008599Y013866D03*
X008639Y014086D03*
D86*
X008724Y014736D03*
X008164Y015526D03*
X007464Y015566D03*
X006724Y015666D03*
X006714Y015656D03*
X007814Y014236D03*
X006744Y012986D03*
X006754Y012976D03*
X006184Y013556D03*
X006184Y013566D03*
X008894Y012986D03*
X008904Y015666D03*
D87*
X008819Y014796D03*
X008639Y014136D03*
X008639Y014126D03*
X008639Y014116D03*
X008639Y014106D03*
X008569Y013816D03*
X008409Y013116D03*
X008099Y012976D03*
X007539Y012976D03*
X007249Y013106D03*
X007389Y013856D03*
X007819Y014076D03*
X007819Y014086D03*
X007389Y014166D03*
X006999Y014146D03*
X007429Y015696D03*
D88*
X007429Y015686D03*
X007809Y015436D03*
X007039Y014446D03*
X006829Y014486D03*
X006999Y014166D03*
X007389Y014156D03*
X007819Y014096D03*
X007809Y013936D03*
X007809Y013926D03*
X007099Y013766D03*
X007299Y013086D03*
X007319Y013076D03*
X007519Y012986D03*
X008339Y013086D03*
X008629Y014156D03*
D89*
X008634Y014146D03*
X008594Y014446D03*
X008804Y014486D03*
X008244Y014166D03*
X008244Y013856D03*
X008554Y013796D03*
X008564Y013806D03*
X008384Y013106D03*
X008364Y013096D03*
X008114Y012986D03*
X007274Y013096D03*
X007084Y013776D03*
X007004Y014156D03*
X006834Y014806D03*
X007814Y014066D03*
X007814Y013946D03*
X008184Y015646D03*
D90*
X008169Y015536D03*
X008249Y015396D03*
X008919Y015656D03*
X008929Y015646D03*
X007379Y015386D03*
X006699Y015646D03*
X007809Y014226D03*
X007819Y013796D03*
X006729Y012996D03*
X006179Y013576D03*
X008909Y012996D03*
X008919Y013006D03*
D91*
X008934Y013016D03*
X008944Y013026D03*
X007814Y014216D03*
X007844Y014906D03*
X007804Y015496D03*
X007454Y015576D03*
X006694Y015636D03*
X006904Y014756D03*
X006174Y013606D03*
X006174Y013596D03*
X006174Y013586D03*
X006704Y013016D03*
X006714Y013006D03*
X008964Y015616D03*
X008954Y015626D03*
X008944Y015636D03*
D92*
X009479Y014826D03*
X009489Y014796D03*
X009489Y014786D03*
X009499Y014766D03*
X009499Y014756D03*
X009499Y014746D03*
X009509Y014726D03*
X009509Y014716D03*
X009509Y014706D03*
X009509Y014696D03*
X009519Y014686D03*
X009519Y014676D03*
X009519Y014666D03*
X009519Y014656D03*
X009529Y014626D03*
X009529Y014616D03*
X009529Y014606D03*
X009539Y014556D03*
X009539Y014546D03*
X009539Y014536D03*
X009539Y014526D03*
X009539Y014516D03*
X009549Y014446D03*
X009549Y014436D03*
X009549Y014426D03*
X009549Y014416D03*
X009549Y014406D03*
X009549Y014396D03*
X009549Y014386D03*
X009549Y014376D03*
X009549Y014366D03*
X009549Y014356D03*
X009549Y014346D03*
X009549Y014336D03*
X009549Y014326D03*
X009549Y014316D03*
X009549Y014306D03*
X009549Y014296D03*
X009549Y014286D03*
X009549Y014276D03*
X009549Y014266D03*
X009549Y014256D03*
X009549Y014246D03*
X009549Y014236D03*
X009549Y014226D03*
X009549Y014216D03*
X009539Y014146D03*
X009539Y014136D03*
X009539Y014126D03*
X009539Y014116D03*
X009539Y014106D03*
X009529Y014046D03*
X009529Y014036D03*
X009519Y013996D03*
X009519Y013986D03*
X009519Y013976D03*
X009509Y013966D03*
X009509Y013956D03*
X009509Y013946D03*
X009509Y013936D03*
X009499Y013916D03*
X009499Y013906D03*
X009499Y013896D03*
X009499Y013886D03*
X009489Y013876D03*
X009489Y013866D03*
X009479Y013836D03*
X008619Y014186D03*
X008529Y013766D03*
X007809Y013906D03*
X007819Y014116D03*
X007819Y014126D03*
X007389Y014146D03*
X007019Y014206D03*
X007009Y014196D03*
X006089Y014196D03*
X006089Y014186D03*
X006089Y014176D03*
X006089Y014166D03*
X006089Y014156D03*
X006089Y014146D03*
X006089Y014136D03*
X006089Y014126D03*
X006089Y014206D03*
X006089Y014216D03*
X006089Y014226D03*
X006089Y014436D03*
X006089Y014446D03*
X006089Y014456D03*
X006089Y014466D03*
X006089Y014476D03*
X006089Y014486D03*
X006089Y014496D03*
X006089Y014506D03*
X006089Y014516D03*
X006089Y014526D03*
X006099Y014536D03*
X006099Y014546D03*
X006099Y014556D03*
X006099Y014566D03*
X006099Y014576D03*
X006099Y014586D03*
X006109Y014606D03*
X006109Y014616D03*
X006109Y014626D03*
X006109Y014636D03*
X006109Y014646D03*
X006119Y014676D03*
X006119Y014686D03*
X006119Y014696D03*
X006119Y014706D03*
X006129Y014716D03*
X006129Y014726D03*
X006129Y014736D03*
X006129Y014746D03*
X006139Y014756D03*
X006139Y014766D03*
X006139Y014776D03*
X006139Y014786D03*
X006149Y014796D03*
X006149Y014806D03*
X006159Y014836D03*
X007429Y015676D03*
X007349Y013066D03*
X008149Y013006D03*
X008289Y013066D03*
D93*
X008259Y013056D03*
X008169Y013016D03*
X007819Y013226D03*
X007469Y013016D03*
X007449Y013026D03*
X006099Y013996D03*
X006099Y014006D03*
X006099Y014016D03*
X006099Y014026D03*
X006099Y014036D03*
X006099Y014046D03*
X006099Y014056D03*
X006179Y014906D03*
X006189Y014926D03*
X006199Y014956D03*
X006209Y014976D03*
X006209Y014986D03*
X006219Y014996D03*
X006219Y015006D03*
X006229Y015016D03*
X006229Y015026D03*
X006239Y015046D03*
X007439Y015666D03*
X007809Y015446D03*
X008189Y015616D03*
X009389Y015066D03*
X009409Y015016D03*
X009419Y014996D03*
X009419Y014986D03*
X009429Y014976D03*
X009429Y014966D03*
X009439Y014956D03*
X009439Y014946D03*
X009449Y014926D03*
X009449Y014916D03*
X009459Y014886D03*
X009469Y014866D03*
X008609Y014216D03*
X007819Y014146D03*
X009399Y013616D03*
X009409Y013646D03*
X009419Y013666D03*
X009419Y013676D03*
X009429Y013686D03*
X009429Y013696D03*
X009439Y013706D03*
X009439Y013716D03*
X009449Y013736D03*
X009449Y013746D03*
X009459Y013766D03*
X009459Y013776D03*
X009469Y013796D03*
D94*
X008969Y013046D03*
X008959Y013036D03*
X007819Y013246D03*
X007819Y013806D03*
X006689Y013026D03*
X006679Y013036D03*
X006169Y013616D03*
X006169Y013626D03*
X007379Y015396D03*
X006679Y015626D03*
X006669Y015616D03*
X006659Y015606D03*
X008169Y015546D03*
X008249Y015406D03*
X008979Y015606D03*
X008989Y015596D03*
D95*
X009364Y015116D03*
X009364Y015106D03*
X009374Y015096D03*
X009374Y015086D03*
X009384Y015076D03*
X009394Y015056D03*
X009394Y015046D03*
X009404Y015036D03*
X009404Y015026D03*
X009414Y015006D03*
X008794Y014776D03*
X008264Y015496D03*
X008264Y015506D03*
X007434Y015656D03*
X007354Y015496D03*
X006284Y015136D03*
X006274Y015116D03*
X006264Y015106D03*
X006264Y015096D03*
X006254Y015086D03*
X006254Y015076D03*
X006244Y015066D03*
X006244Y015056D03*
X006234Y015036D03*
X007034Y014226D03*
X007814Y014156D03*
X007814Y013886D03*
X007814Y013876D03*
X007404Y013046D03*
X008184Y013026D03*
X009364Y013546D03*
X009374Y013566D03*
X009384Y013576D03*
X009384Y013586D03*
X009394Y013596D03*
X009394Y013606D03*
X009404Y013626D03*
X009404Y013636D03*
X009414Y013656D03*
X006104Y013956D03*
X006104Y013966D03*
X006104Y013976D03*
X006104Y013986D03*
D96*
X006109Y013946D03*
X006109Y013936D03*
X006109Y013926D03*
X006109Y013916D03*
X006849Y014476D03*
X007039Y014236D03*
X007139Y013746D03*
X007429Y013036D03*
X008199Y013036D03*
X008229Y013046D03*
X009309Y013446D03*
X009319Y013466D03*
X009329Y013486D03*
X009339Y013496D03*
X009339Y013506D03*
X009349Y013516D03*
X009349Y013526D03*
X009359Y013536D03*
X009369Y013556D03*
X008599Y014226D03*
X008559Y014436D03*
X008789Y014476D03*
X009359Y015126D03*
X009349Y015136D03*
X009349Y015146D03*
X009339Y015156D03*
X009329Y015166D03*
X009329Y015176D03*
X009319Y015186D03*
X009319Y015196D03*
X009309Y015206D03*
X008189Y015606D03*
X006319Y015196D03*
X006309Y015186D03*
X006309Y015176D03*
X006299Y015166D03*
X006299Y015156D03*
X006289Y015146D03*
X006279Y015126D03*
D97*
X006624Y015576D03*
X006634Y015586D03*
X006644Y015596D03*
X007374Y015406D03*
X007454Y015586D03*
X007804Y015486D03*
X008254Y015416D03*
X008994Y015586D03*
X009004Y013076D03*
X008994Y013066D03*
X008984Y013056D03*
X006664Y013046D03*
X006654Y013056D03*
X006644Y013066D03*
X006164Y013636D03*
X006164Y013646D03*
D98*
X006159Y013656D03*
X006159Y013666D03*
X006609Y013096D03*
X006619Y013086D03*
X006629Y013076D03*
X008749Y014746D03*
X009019Y015566D03*
X009009Y015576D03*
X008179Y015556D03*
X007449Y015596D03*
X007369Y015416D03*
X006609Y015566D03*
X006599Y015556D03*
X006589Y015546D03*
D99*
X006584Y015536D03*
X006894Y014766D03*
X007814Y014206D03*
X007824Y013816D03*
X008544Y014276D03*
X009034Y013106D03*
X009024Y013096D03*
X009014Y013086D03*
X006594Y013106D03*
X006154Y013676D03*
X006154Y013686D03*
X008254Y015426D03*
X009034Y015556D03*
X009044Y015546D03*
X009054Y015536D03*
X009064Y015526D03*
D100*
X009069Y015516D03*
X009079Y015506D03*
X009089Y015496D03*
X009099Y015486D03*
X008259Y015436D03*
X008179Y015566D03*
X007809Y015476D03*
X007449Y015606D03*
X007369Y015426D03*
X006569Y015526D03*
X006559Y015516D03*
X006549Y015506D03*
X007109Y014426D03*
X006149Y013706D03*
X006149Y013696D03*
X006549Y013156D03*
X006559Y013146D03*
X006569Y013136D03*
X006579Y013126D03*
X006589Y013116D03*
X008559Y014266D03*
X008529Y014426D03*
X009079Y013146D03*
X009069Y013136D03*
X009059Y013126D03*
X009049Y013116D03*
D101*
X009084Y013156D03*
X009094Y013166D03*
X009104Y013176D03*
X008784Y013486D03*
X008794Y013496D03*
X008804Y013506D03*
X007814Y014196D03*
X007074Y014276D03*
X006844Y013496D03*
X006534Y013176D03*
X006544Y013166D03*
X006144Y013716D03*
X006144Y013726D03*
X006144Y013736D03*
X006514Y015466D03*
X006524Y015476D03*
X006534Y015486D03*
X006544Y015496D03*
X007364Y015436D03*
X008254Y015446D03*
X008764Y014756D03*
D102*
X008769Y014466D03*
X008809Y013516D03*
X009119Y013186D03*
X007819Y013826D03*
X006829Y013506D03*
X006819Y013516D03*
X006509Y013196D03*
X006519Y013186D03*
X006139Y013746D03*
X006139Y013756D03*
X006869Y014466D03*
X006479Y015426D03*
X006489Y015436D03*
X006499Y015446D03*
X006509Y015456D03*
X007449Y015616D03*
X008179Y015576D03*
X008259Y015456D03*
X009109Y015476D03*
X009119Y015466D03*
X009129Y015456D03*
X009139Y015446D03*
D103*
X009179Y015396D03*
X009199Y015366D03*
X009209Y015356D03*
X008259Y015466D03*
X007359Y015456D03*
X006449Y015386D03*
X006439Y015376D03*
X006419Y015346D03*
X006409Y015336D03*
X007059Y014266D03*
X007819Y013836D03*
X007819Y013236D03*
X006789Y013546D03*
X006779Y013556D03*
X006769Y013566D03*
X006129Y013796D03*
X006129Y013806D03*
X006129Y013816D03*
X008579Y014256D03*
X008849Y013556D03*
X009179Y013266D03*
X009189Y013276D03*
X009199Y013286D03*
X009169Y013246D03*
X009159Y013236D03*
D104*
X006299Y013256D03*
X007069Y015856D03*
D105*
X007424Y015326D03*
X008664Y014706D03*
X007824Y013756D03*
X007814Y013266D03*
X006244Y013376D03*
D106*
X006289Y013276D03*
X008609Y014686D03*
X008589Y015846D03*
D107*
X008624Y015836D03*
X008184Y015316D03*
X007454Y015316D03*
X007014Y015836D03*
X007014Y014706D03*
X006274Y013306D03*
X007814Y013276D03*
D108*
X007814Y013846D03*
X007054Y014256D03*
X006764Y013576D03*
X006124Y013826D03*
X006124Y013836D03*
X006394Y015316D03*
X006404Y015326D03*
X006424Y015356D03*
X006434Y015366D03*
X008584Y014246D03*
X008874Y013576D03*
X008864Y013566D03*
X009204Y013296D03*
X009214Y013306D03*
X009224Y013316D03*
X009234Y013336D03*
X009244Y013346D03*
X009264Y013376D03*
X009234Y015326D03*
X009224Y015336D03*
X009214Y015346D03*
D109*
X007839Y014926D03*
X007819Y013306D03*
D110*
X007819Y013316D03*
X007819Y014476D03*
X008529Y014666D03*
X008469Y015886D03*
D111*
X008189Y015596D03*
X008259Y015476D03*
X007809Y015456D03*
X007439Y015636D03*
X007359Y015476D03*
X007359Y015466D03*
X006389Y015306D03*
X006379Y015296D03*
X006369Y015286D03*
X006369Y015276D03*
X006359Y015266D03*
X006349Y015246D03*
X007049Y014246D03*
X007809Y014176D03*
X008589Y014236D03*
X008779Y014766D03*
X009289Y015246D03*
X009269Y015276D03*
X009259Y015286D03*
X009259Y015296D03*
X009249Y015306D03*
X009239Y015316D03*
X009299Y013426D03*
X009289Y013416D03*
X009279Y013396D03*
X009269Y013386D03*
X009259Y013366D03*
X009249Y013356D03*
X009229Y013326D03*
X006119Y013846D03*
X006119Y013856D03*
X006119Y013866D03*
D112*
X006254Y013356D03*
X006254Y013346D03*
X006954Y015806D03*
X007814Y016196D03*
D113*
X007829Y014946D03*
X007819Y013346D03*
D114*
X007819Y013356D03*
X007819Y016156D03*
D115*
X007814Y013366D03*
D116*
X007819Y013376D03*
D117*
X007819Y013396D03*
D118*
X007814Y013856D03*
X007814Y013866D03*
X007814Y014166D03*
X007074Y014436D03*
X006864Y014786D03*
X006334Y015216D03*
X006334Y015226D03*
X006344Y015236D03*
X006354Y015256D03*
X006324Y015206D03*
X007354Y015486D03*
X007434Y015646D03*
X008264Y015486D03*
X009274Y015266D03*
X009284Y015256D03*
X009294Y015236D03*
X009304Y015226D03*
X009304Y015216D03*
X009324Y013476D03*
X009314Y013456D03*
X009304Y013436D03*
X009284Y013406D03*
X006114Y013876D03*
X006114Y013886D03*
X006114Y013896D03*
X006114Y013906D03*
D119*
X007819Y013416D03*
D120*
X006809Y013636D03*
X006799Y013646D03*
X006789Y013656D03*
X006779Y013666D03*
X006769Y013676D03*
X006739Y013456D03*
X006749Y013446D03*
X006759Y013436D03*
X006769Y013426D03*
X006459Y013976D03*
X006609Y014336D03*
X006619Y014346D03*
X006629Y014356D03*
X006639Y014366D03*
X006649Y014376D03*
X007389Y014206D03*
X008809Y013626D03*
X008819Y013636D03*
X008829Y013646D03*
X008889Y013696D03*
X008899Y013706D03*
X008909Y013466D03*
X008899Y013456D03*
X008889Y013446D03*
X008879Y013436D03*
X009179Y013976D03*
X008999Y014366D03*
X008989Y014376D03*
D121*
X007819Y013436D03*
D122*
X007819Y013446D03*
X007819Y016116D03*
D123*
X007424Y015736D03*
X006884Y014876D03*
X006454Y013986D03*
X006824Y013626D03*
X006834Y013616D03*
X006854Y013606D03*
X006864Y013596D03*
X006874Y013586D03*
X006714Y013486D03*
X006714Y013476D03*
X006724Y013466D03*
X007474Y013876D03*
X008154Y013876D03*
X008334Y013876D03*
X008244Y014206D03*
X009014Y014356D03*
X009044Y014316D03*
X009184Y013986D03*
X008794Y013616D03*
X008784Y013606D03*
X008774Y013596D03*
X008764Y013586D03*
X008914Y013476D03*
X008774Y014866D03*
D124*
X007819Y013466D03*
D125*
X007819Y013476D03*
X007819Y014506D03*
X007819Y016106D03*
D126*
X007819Y013486D03*
D127*
X007819Y013496D03*
D128*
X007819Y013506D03*
D129*
X007819Y013526D03*
D130*
X007819Y013546D03*
X007819Y014516D03*
X007809Y015016D03*
D131*
X007824Y015236D03*
X007824Y015246D03*
X007824Y015256D03*
X007824Y015266D03*
X007814Y013556D03*
D132*
X007819Y013576D03*
X007829Y015206D03*
D133*
X009059Y013586D03*
X006579Y013586D03*
D134*
X007814Y013596D03*
X007824Y015156D03*
D135*
X007829Y015146D03*
X007829Y015136D03*
X007819Y013606D03*
D136*
X007819Y013626D03*
X007819Y015046D03*
X007829Y015056D03*
X007829Y015066D03*
X007829Y015076D03*
D137*
X007814Y013636D03*
D138*
X007819Y013646D03*
X007819Y016046D03*
D139*
X007814Y013666D03*
D140*
X007814Y013676D03*
D141*
X007814Y013696D03*
D142*
X007819Y013706D03*
X007819Y016026D03*
D143*
X007814Y013716D03*
D144*
X007814Y013736D03*
D145*
X008069Y013746D03*
D146*
X008244Y013806D03*
X007384Y013806D03*
X007074Y014036D03*
D147*
X007279Y014136D03*
X007399Y014016D03*
X007389Y014006D03*
X007389Y013996D03*
X007389Y013986D03*
X007279Y013886D03*
X007389Y013816D03*
X008129Y014136D03*
X008349Y014136D03*
X008359Y013886D03*
X009129Y014186D03*
X009139Y014166D03*
X009149Y014146D03*
X009149Y014136D03*
X009159Y014116D03*
X009159Y014106D03*
X009169Y014096D03*
X009169Y014086D03*
X009169Y014076D03*
X009179Y014066D03*
X009179Y014056D03*
X009189Y014036D03*
X009189Y014026D03*
X009189Y014016D03*
X009189Y014006D03*
X008749Y014886D03*
X006509Y014186D03*
X006499Y014176D03*
X006499Y014166D03*
X006489Y014156D03*
X006489Y014146D03*
X006479Y014126D03*
X006479Y014116D03*
X006469Y014106D03*
X006469Y014096D03*
X006459Y014076D03*
X006459Y014066D03*
X006449Y014046D03*
X006449Y014036D03*
X006449Y014016D03*
D148*
X006794Y014526D03*
X007234Y014096D03*
X007234Y014086D03*
X007244Y014106D03*
X007254Y014116D03*
X007394Y014046D03*
X007534Y014106D03*
X007544Y014096D03*
X007554Y014076D03*
X007554Y013946D03*
X007544Y013936D03*
X007544Y013926D03*
X007534Y013916D03*
X007234Y013936D03*
X008074Y014056D03*
X008084Y014086D03*
X008094Y014096D03*
X008244Y014046D03*
X008244Y013976D03*
X008384Y013916D03*
X008394Y013926D03*
X008404Y013946D03*
X008404Y014086D03*
X008394Y014096D03*
X008094Y013926D03*
X008084Y013936D03*
X008734Y014896D03*
D149*
X008704Y014916D03*
X008854Y014536D03*
X008754Y014046D03*
X007764Y013956D03*
D150*
X007819Y013956D03*
X008749Y013966D03*
X006959Y014926D03*
D151*
X007399Y014056D03*
D152*
X007384Y014216D03*
X006784Y014536D03*
X008244Y014216D03*
X008244Y014066D03*
D153*
X008104Y014286D03*
X007814Y014996D03*
D154*
X007814Y014316D03*
X007814Y014306D03*
X007814Y014296D03*
X007814Y015966D03*
D155*
X007819Y014356D03*
X007819Y014346D03*
X007819Y014336D03*
X007819Y014326D03*
D156*
X007814Y014366D03*
D157*
X007814Y014396D03*
D158*
X007819Y014486D03*
D159*
X007819Y014496D03*
D160*
X007824Y014526D03*
D161*
X007819Y014546D03*
D162*
X007819Y014556D03*
X007819Y015996D03*
D163*
X007819Y014566D03*
D164*
X007824Y014576D03*
D165*
X007819Y014616D03*
D166*
X007819Y014626D03*
D167*
X007819Y014636D03*
D168*
X007819Y014646D03*
D169*
X007824Y014956D03*
X007244Y014656D03*
X007814Y016146D03*
D170*
X008444Y014656D03*
D171*
X007154Y014666D03*
X007814Y016166D03*
D172*
X008564Y014676D03*
D173*
X007069Y014686D03*
D174*
X007819Y014966D03*
D175*
X007814Y014986D03*
D176*
X007814Y015036D03*
X007824Y015116D03*
X007824Y015126D03*
D177*
X007824Y015186D03*
X007824Y015196D03*
D178*
X007824Y015276D03*
X007824Y015286D03*
D179*
X007824Y015306D03*
X007814Y016086D03*
D180*
X007134Y015876D03*
X008504Y015876D03*
D181*
X008419Y015896D03*
X007209Y015896D03*
D182*
X007819Y015906D03*
D183*
X007814Y015916D03*
D184*
X007814Y015936D03*
D185*
X007819Y015986D03*
D186*
X007814Y016006D03*
D187*
X007814Y016016D03*
D188*
X007819Y016036D03*
D189*
X007819Y016076D03*
D190*
X007814Y016096D03*
M02*
